<svg width="615" height="35" viewBox="0 0 615 35" fill="none" xmlns="http://www.w3.org/2000/svg">
<path d="M15.7212 20.2244C11.2589 21.2363 7.01906 17.8171 2.44322 17.4783C1.48105 17.4069 0.269653 17.6477 0.0362073 18.5304C-0.165691 19.2927 0.514166 19.9896 1.14825 20.5008C2.91171 21.9214 4.78559 23.2202 6.75095 24.3807C5.2651 25.9098 3.93066 27.5697 2.77132 29.3321C2.25553 30.1152 1.7918 31.1866 2.42589 31.8895C3.1909 32.7395 4.64677 32.151 5.61998 31.518C8.66266 29.5431 11.7038 27.5682 14.7464 25.5933C15.1077 26.7568 14.5824 28.0348 13.7243 28.9368C12.8663 29.8388 11.7164 30.4391 10.5886 31.0231C13.9704 32.8405 17.9263 33.4037 21.7798 33.9342C26.5465 34.591 31.4125 35.2464 36.154 34.4439C40.8955 33.6415 45.5754 31.1123 47.5613 26.9783C45.3309 24.4417 43.9413 21.3567 42.0958 18.5571C40.2503 15.7589 37.7156 13.102 34.3291 12.2802C30.8573 11.4391 27.2468 12.6785 23.8682 13.8108C20.4911 14.9446 16.7496 15.9878 13.3978 14.7871C12.8868 14.6043 12.3836 14.3695 11.8394 14.3324C11.2952 14.2952 10.6801 14.5211 10.4892 15.0041C10.3173 15.438 10.5334 15.9165 10.7826 16.3162C11.9609 18.2123 13.9909 19.6226 16.2639 20.1233" fill="#EBEBEB"/>
<path d="M22.1552 26.1733C22.2214 22.3157 21.876 18.4432 21.1441 14.6479C20.3633 14.8738 19.4989 15.0506 18.5699 15.1829C19.3586 19.9604 20.1835 25.3887 20.5084 30.2153C21.8902 29.447 22.1299 27.6846 22.1552 26.1733Z" fill="#FAFAFA"/>
<path d="M26.6869 12.9033L24.1426 13.7013C24.7341 18.8563 25.3272 24.0127 25.9187 29.1676C25.9503 29.4455 25.9865 29.7338 26.1395 29.973C26.2925 30.2122 26.5986 30.3891 26.8841 30.3133C27.1759 30.236 27.3304 29.9448 27.4456 29.6803C29.7532 24.3738 29.4441 18.0152 26.6869 12.9033Z" fill="#FAFAFA"/>
<path d="M35.0183 12.4767C35.042 16.5379 34.848 20.8651 34.4379 24.9085C34.2817 26.4436 34.0861 28.0098 33.3763 29.4007C33.1855 29.7752 32.881 30.1794 32.4394 30.1824C31.7816 30.1868 31.5482 29.374 31.5166 28.7558C31.2422 23.1313 31.0845 17.6465 31.0608 12.016C32.5845 11.9447 34.1476 12.1141 35.0183 12.4767Z" fill="#FAFAFA"/>
<path d="M38.8734 14.7504C38.7787 14.6879 38.5043 22.9412 38.9033 26.5878C38.9617 27.1154 39.1541 27.7721 39.7109 27.845C40.3419 27.9267 40.692 27.1896 40.8261 26.6042C41.5564 23.4137 41.8514 22.2041 42.3656 18.975C42.4366 18.9215 39.9996 15.4904 38.8734 14.7504Z" fill="#FAFAFA"/>
<path d="M43.8892 25.5044C43.8703 25.7867 43.6132 26.0007 43.3151 25.9828C43.017 25.965 42.7883 25.7228 42.8072 25.442C42.8261 25.1611 43.0832 24.9456 43.3813 24.9634C43.6794 24.9798 43.9081 25.222 43.8892 25.5044Z" fill="#E0E0E0"/>
<path d="M598.843 8.22436C603.305 9.23633 607.545 5.81704 612.121 5.47972C613.083 5.40839 614.295 5.64912 614.528 6.53032C614.73 7.29264 614.05 7.98958 613.416 8.50076C611.653 9.92138 609.779 11.2201 607.813 12.3807C609.299 13.9098 610.634 15.5697 611.792 17.3321C612.307 18.1152 612.771 19.1851 612.137 19.8895C611.372 20.7395 609.916 20.151 608.941 19.518C605.899 17.5431 602.858 15.5682 599.815 13.5933C599.454 14.7568 599.979 16.0348 600.837 16.9368C601.695 17.8388 602.845 18.4391 603.973 19.0231C600.591 20.8405 596.635 21.4037 592.782 21.9342C588.015 22.591 583.149 23.2463 578.407 22.4439C573.666 21.6415 568.986 19.1123 567 14.9782C569.23 12.4416 570.62 9.3567 572.465 6.55708C574.311 3.75894 576.846 1.10197 580.232 0.280215C583.704 -0.560861 587.314 0.678461 590.692 1.81079C594.069 2.94461 597.81 3.98778 601.162 2.78709C601.673 2.60431 602.176 2.36804 602.72 2.33238C603.264 2.29523 603.88 2.5211 604.07 3.00405C604.242 3.43797 604.026 3.91645 603.777 4.31619C602.599 6.21381 600.569 7.62254 598.296 8.12332" fill="#EBEBEB"/>
<path d="M592.409 14.1734C592.343 10.3157 592.688 6.44319 593.42 2.64795C594.201 2.87382 595.065 3.05066 595.995 3.18291C595.206 7.9604 594.381 13.3888 594.056 18.2153C592.674 17.447 592.434 15.6846 592.409 14.1734Z" fill="#FAFAFA"/>
<path d="M587.878 0.90332L590.422 1.70129C589.829 6.85623 589.237 12.0127 588.646 17.1676C588.614 17.4455 588.578 17.7338 588.425 17.973C588.272 18.2122 587.966 18.3891 587.68 18.3133C587.389 18.236 587.234 17.9448 587.119 17.6803C584.811 12.3738 585.12 6.01516 587.878 0.90332Z" fill="#FAFAFA"/>
<path d="M579.548 0.476665C579.524 4.5379 579.718 8.86513 580.128 12.9085C580.284 14.4436 580.481 16.0098 581.19 17.4007C581.381 17.7752 581.685 18.1794 582.127 18.1824C582.784 18.1868 583.018 17.374 583.049 16.7558C583.324 11.1313 583.482 5.64646 583.505 0.016009C581.98 -0.055319 580.417 0.114081 579.548 0.476665Z" fill="#FAFAFA"/>
<path d="M575.691 2.75035C575.786 2.68794 576.06 10.9412 575.661 14.5878C575.603 15.1154 575.41 15.7722 574.854 15.845C574.223 15.9267 573.872 15.1897 573.738 14.6042C573.008 11.4137 572.713 10.2026 572.2 6.97505C572.128 6.92156 574.565 3.48889 575.691 2.75035Z" fill="#FAFAFA"/>
<path d="M570.675 13.5043C570.694 13.7852 570.951 14.0007 571.249 13.9828C571.548 13.965 571.776 13.7228 571.757 13.4419C571.738 13.1611 571.481 12.9456 571.183 12.9634C570.885 12.9798 570.658 13.222 570.675 13.5043Z" fill="#E0E0E0"/>
</svg>
