<svg width="100" height="156" viewBox="0 0 100 156" fill="none" xmlns="http://www.w3.org/2000/svg">
<g opacity="0.81">
<path d="M26.8324 5.40172C26.6524 5.40366 26.5615 4.70894 26.0661 3.86716C25.5939 3.02924 24.5779 2.10812 23.3085 1.89138C22.9795 1.82171 22.7724 1.83139 22.3099 1.83333C22.0835 1.87397 21.7042 1.91653 21.4333 2.03071C20.8431 2.22035 20.3438 2.5919 19.9665 2.99441C19.5949 3.41046 19.355 3.87683 19.2215 4.29869C19.1557 4.50188 19.1073 4.7341 19.0957 4.86956C19.0647 4.9489 19.0628 5.34367 19.055 5.40172C19.055 5.97646 19.206 6.96338 19.9665 7.8071C20.6999 8.64308 22.041 9.17331 23.3085 8.9082C24.5779 8.6934 25.5958 7.76646 26.0661 6.93242C26.5615 6.10224 26.6524 5.39979 26.8324 5.40172C26.9156 5.40366 26.9891 5.57782 27.0472 5.88551C27.0781 6.22029 27.0878 6.71375 26.9233 7.28461C26.6408 8.42441 25.5532 9.9435 23.7497 10.5337C21.9868 11.182 19.7497 10.6421 18.428 9.36489C17.056 8.10511 16.6651 6.38284 16.6806 5.40172C16.7 5.06114 16.6845 4.99534 16.7522 4.57348C16.8064 4.20387 16.8935 3.88845 17.0309 3.52658C17.2979 2.81444 17.7585 2.06167 18.43 1.43662C19.1034 0.825116 19.9684 0.325853 20.9224 0.126534C21.414 0.0084904 21.8416 -0.0108678 22.4086 0.00461328C22.7434 0.0375107 23.3298 0.109113 23.7516 0.26973C25.5532 0.859947 26.6408 2.37904 26.9233 3.5169C27.2291 4.68379 26.9717 5.4114 26.8324 5.40172Z" fill="#B8E2E7"/>
</g>
<g opacity="0.81">
<path d="M24.3156 17.9174C24.2073 17.9194 24.155 17.5033 23.8589 17.0021C23.5764 16.5009 22.9707 15.9513 22.2121 15.8236C22.0148 15.781 21.8909 15.7868 21.6142 15.7868C21.4807 15.812 21.2523 15.8352 21.0917 15.9049C20.7376 16.0191 20.4415 16.2416 20.2151 16.4816C19.9925 16.7293 19.8493 17.0079 19.77 17.2595C19.7313 17.3814 19.7023 17.5188 19.6945 17.6001C19.6752 17.6465 19.6732 17.8826 19.6694 17.9174C19.6694 18.2619 19.7603 18.8502 20.2131 19.3552C20.6524 19.8545 21.4536 20.1699 22.2083 20.0132C22.9668 19.8855 23.5725 19.3301 23.8551 18.8328C24.155 18.3354 24.2073 17.9155 24.3156 17.9174C24.364 17.9194 24.4085 18.0239 24.4434 18.2058C24.4608 18.407 24.4685 18.7012 24.3698 19.0417C24.1995 19.7229 23.5493 20.6286 22.4753 20.9827C21.4226 21.3678 20.0874 21.0466 19.2978 20.286C18.4773 19.5313 18.2432 18.5038 18.2528 17.9174C18.2645 17.7162 18.2548 17.6755 18.2954 17.424C18.3283 17.2034 18.3786 17.0137 18.4618 16.7989C18.6205 16.3732 18.8973 15.9242 19.2978 15.5527C19.6984 15.185 20.217 14.8889 20.7859 14.7709C21.0781 14.7012 21.3336 14.6877 21.6722 14.6974C21.8716 14.7167 22.2238 14.7593 22.4753 14.856C23.5513 15.2082 24.2015 16.1139 24.3679 16.795C24.5517 17.4917 24.3988 17.9232 24.3156 17.9174Z" fill="#B8E2E7"/>
</g>
<path d="M56.9824 114.345C56.816 114.347 56.7347 113.716 56.2838 112.946C55.8542 112.181 54.9293 111.339 53.7682 111.142C53.4702 111.08 53.2786 111.088 52.8606 111.092C52.6535 111.128 52.3071 111.165 52.0614 111.268C51.5234 111.442 51.0667 111.781 50.7242 112.146C50.3817 112.528 50.1649 112.951 50.043 113.336C49.9192 113.762 49.9056 113.954 49.8882 114.399C49.8921 114.815 50.0256 115.794 50.7203 116.537C51.3918 117.302 52.6148 117.785 53.7682 117.545C54.9273 117.346 55.8523 116.504 56.2838 115.74C56.7347 114.985 56.816 114.345 56.9824 114.345C57.056 114.35 57.1218 114.507 57.1798 114.788C57.2069 115.092 57.2147 115.542 57.0618 116.063C56.8044 117.102 55.8136 118.486 54.1707 119.022C52.5606 119.616 50.521 119.122 49.3154 117.956C48.7058 117.387 48.284 116.702 48.0421 116.051C47.7963 115.376 47.7305 114.852 47.7247 114.289C47.7247 114.006 47.7963 113.245 48.0421 112.632C48.284 111.984 48.7078 111.299 49.3173 110.732C49.9308 110.171 50.7223 109.718 51.5911 109.536C52.0401 109.427 52.429 109.412 52.9438 109.422C53.2495 109.453 53.7894 109.518 54.1707 109.664C55.8155 110.201 56.8044 111.587 57.0637 112.626C57.3443 113.691 57.1082 114.354 56.9824 114.345Z" fill="#B8E2E7"/>
<path d="M58.4802 123.652C58.3777 123.656 58.3293 123.265 58.0506 122.793C57.7855 122.324 57.2166 121.806 56.5045 121.686C55.7382 121.537 55.0744 121.835 54.6293 122.303C54.1978 122.798 54.1242 123.292 54.1184 123.652C54.1184 123.975 54.2016 124.528 54.6293 124.999C55.0415 125.467 55.7923 125.765 56.5045 125.62C57.2166 125.498 57.7855 124.979 58.0506 124.509C58.3293 124.047 58.3796 123.65 58.4802 123.652C58.5576 123.644 58.7028 124.047 58.5306 124.708C58.3699 125.347 57.7623 126.2 56.7522 126.529C55.7614 126.893 54.5093 126.589 53.7662 125.873C52.998 125.169 52.7774 124.201 52.7851 123.652C52.7716 123.139 52.9999 122.112 53.7662 121.432C54.1436 121.088 54.6293 120.807 55.1654 120.695C55.4421 120.629 55.682 120.62 55.9974 120.627C56.1852 120.645 56.5161 120.685 56.7541 120.776C57.7623 121.107 58.3719 121.957 58.5325 122.593C58.7047 123.249 58.5596 123.658 58.4802 123.652Z" fill="#B8E2E7"/>
<path d="M39.6609 128.043C39.4828 128.047 39.3957 127.364 38.91 126.542C38.4475 125.721 37.4529 124.813 36.2086 124.604C35.8873 124.537 35.6842 124.546 35.2313 124.546C35.0088 124.587 34.6372 124.628 34.3741 124.742C33.7935 124.93 33.3078 125.289 32.9362 125.686C32.5705 126.091 32.3344 126.547 32.2048 126.963C32.0751 127.418 32.0577 127.625 32.0403 128.103C32.0422 128.548 32.1873 129.601 32.9343 130.402C33.6522 131.221 34.9681 131.741 36.2066 131.486C37.4529 131.275 38.4475 130.367 38.91 129.547C39.3957 128.73 39.4828 128.041 39.6609 128.043C39.7402 128.047 39.8118 128.217 39.8699 128.519C39.8989 128.846 39.9105 129.33 39.7479 129.889C39.4693 131.006 38.4069 132.496 36.6401 133.071C34.9101 133.707 32.7195 133.177 31.4268 131.925C30.7689 131.316 30.3161 130.576 30.0548 129.88C29.7916 129.154 29.72 128.589 29.7142 127.983C29.7142 127.683 29.7916 126.865 30.0568 126.203C30.3161 125.508 30.7689 124.771 31.4268 124.157C32.0887 123.558 32.9362 123.068 33.8709 122.872C34.3528 122.758 34.7708 122.741 35.3261 122.751C35.6532 122.783 36.2318 122.855 36.644 123.012C38.4088 123.588 39.4732 125.079 39.7499 126.197C40.0498 127.341 39.7963 128.055 39.6609 128.043Z" fill="#B8E2E7"/>
<g opacity="0.81">
<path d="M15.4019 13.7263C15.1329 13.7321 14.9916 12.6755 14.2389 11.4022C13.5229 10.1327 11.9864 8.7259 10.059 8.39499C9.82096 8.35049 9.57907 8.32145 9.33911 8.30984C9.08174 8.29243 8.92886 8.30791 8.58054 8.31565C8.16061 8.35629 7.64393 8.44917 7.21239 8.60398C6.32223 8.9078 5.55591 9.44771 4.98891 10.0747C3.82976 11.3461 3.59175 12.8536 3.60529 13.7263C3.59175 14.599 3.82976 16.1027 4.98891 17.3779C6.09388 18.657 8.13545 19.4427 10.059 19.0576C11.9864 18.7267 13.5229 17.3218 14.2389 16.0504C14.9916 14.7732 15.1329 13.7205 15.4019 13.7263C15.6167 13.7069 16.0076 14.8158 15.5374 16.5845C15.1078 18.3145 13.4629 20.6212 10.7266 21.5172C9.38943 21.9681 7.87227 22.0571 6.43446 21.73C4.99085 21.4165 3.66527 20.6812 2.65126 19.7388C0.567115 17.8346 -0.0405105 15.2164 0.00206254 13.7282C-0.0385754 12.2382 0.567115 9.61993 2.65126 7.71769C3.66527 6.77528 4.99085 6.03993 6.43446 5.72256C7.16788 5.56001 7.86066 5.50583 8.64826 5.53872C8.9037 5.56001 9.35459 5.59871 9.69324 5.67031C10.0474 5.73224 10.3899 5.82706 10.7247 5.93736C13.461 6.83333 15.1078 9.14002 15.5354 10.8681C16.0057 12.6349 15.6167 13.7457 15.4019 13.7263Z" fill="#B8E2E7"/>
</g>
<path d="M52.7811 56.0127C52.7192 56.0147 52.6883 55.7747 52.516 55.4844C52.3535 55.1961 51.9994 54.8749 51.562 54.7994C51.0899 54.7046 50.6815 54.8942 50.4087 55.1787C50.1416 55.4844 50.0952 55.7902 50.0913 56.0127C50.0913 56.2121 50.1436 56.5526 50.4087 56.8449C50.6622 57.1332 51.1247 57.319 51.562 57.228C52.0013 57.1545 52.3535 56.8332 52.516 56.543C52.6883 56.2546 52.7192 56.0127 52.7811 56.0127C52.8295 56.0089 52.9186 56.2585 52.8121 56.6649C52.7154 57.0596 52.338 57.5841 51.7168 57.7873C51.1072 58.0137 50.3332 57.826 49.8765 57.3828C49.4024 56.9455 49.2669 56.3514 49.2708 56.0127C49.2631 55.6954 49.4024 55.0645 49.8765 54.6427C50.3139 54.2014 51.1401 54.0137 51.7168 54.2363C52.338 54.4395 52.7173 54.9678 52.8121 55.3625C52.9186 55.7631 52.8315 56.0185 52.7811 56.0127Z" fill="#B8E2E7"/>
<path d="M93.0285 152.008C92.9472 152.014 92.7943 151.582 92.9782 150.895C93.1446 150.222 93.7871 149.326 94.8514 148.98C95.0991 148.883 95.4474 148.842 95.6448 148.823C95.9776 148.815 96.2292 148.827 96.5195 148.894C97.0826 149.014 97.5935 149.309 97.9921 149.669C98.3869 150.036 98.6597 150.481 98.8165 150.901C98.9771 151.3 99.0216 151.791 99.0216 151.973C99.0352 152.623 98.801 153.589 97.9921 154.348C97.2142 155.102 95.8906 155.424 94.8514 155.039C93.7871 154.69 93.1446 153.792 92.9782 153.121C92.7943 152.424 92.9472 152 93.0285 152.008C93.1349 152.006 93.191 152.422 93.4813 152.912C93.7619 153.407 94.3579 153.951 95.1087 154.079C95.8576 154.235 96.6491 153.922 97.0826 153.429C97.5316 152.947 97.6206 152.312 97.6206 152.045C97.609 151.757 97.5993 151.631 97.5199 151.36C97.4425 151.108 97.3013 150.832 97.0807 150.59C96.8562 150.352 96.562 150.135 96.2137 150.021C96.055 149.951 95.8306 149.93 95.6951 149.905C95.4223 149.905 95.3023 149.895 95.1068 149.938C94.356 150.063 93.76 150.611 93.4794 151.106C93.1891 151.6 93.1349 152.012 93.0285 152.008Z" fill="#B8E2E7"/>
<path d="M51.6279 74.2042C51.8794 74.1984 52.0091 75.1834 52.7135 76.3735C53.3811 77.5578 54.817 78.8737 56.6186 79.1795C56.8392 79.2201 57.0637 79.2472 57.2901 79.2588C57.53 79.2762 57.6713 79.2608 57.9983 79.253C58.3873 79.2124 58.8731 79.1292 59.2736 78.9821C60.1057 78.6996 60.8237 78.1945 61.3519 77.612C62.4337 76.4045 62.6543 75.0615 62.6427 74.1617C62.6543 73.4282 62.4356 71.9653 61.3519 70.7945C60.3186 69.5986 58.4125 68.869 56.6186 69.227C54.817 69.5328 53.383 70.8468 52.7135 72.033C52.011 73.2251 51.8794 74.21 51.6279 74.2042C51.4266 74.2216 51.0648 73.1863 51.5021 71.5337C51.9046 69.9218 53.4411 67.766 55.9936 66.93C57.2437 66.5082 58.6582 66.425 60.0012 66.7288C61.3461 67.0229 62.5866 67.7118 63.5329 68.5923C64.483 69.4709 65.1448 70.5352 65.5183 71.5453C65.8995 72.5729 66.004 73.4515 66.006 74.2468C66.0447 75.5511 65.4777 78.061 63.5309 79.8181C62.5846 80.6966 61.3461 81.3836 60.0012 81.6777C59.3143 81.8306 58.6679 81.8809 57.9306 81.85C57.6926 81.8306 57.2707 81.7958 56.9573 81.7281C56.6263 81.6681 56.3032 81.581 55.9916 81.4765C53.4372 80.6386 51.9046 78.4867 51.5021 76.8709C51.0648 75.2221 51.4266 74.1849 51.6279 74.2042Z" fill="#B8E2E7"/>
</svg>
