<svg width="43" height="17" viewBox="0 0 43 17" fill="none" xmlns="http://www.w3.org/2000/svg">
<path d="M24.9496 0.443593C28.2498 1.46207 30.9011 2.28103 33.0786 2.95383L24.9103 3.18468C24.432 2.6244 22.428 0.703419 21.6343 0.146619C22.6951 -0.199061 23.9476 0.135033 24.9496 0.443593Z" fill="#AABCBF"/>
<path d="M27.7291 3.10506L24.9103 3.1851C24.432 2.62482 22.428 0.703837 21.6343 0.147037C22.0372 0.0159569 22.4673 -0.0165092 22.9019 0.00901077C25.8927 0.634251 27.9178 1.88358 27.7291 3.10506Z" fill="#98ADAF"/>
<path d="M0.758666 1.06921C2.52872 1.77101 4.07847 2.62825 5.3249 3.68385C5.90888 4.17917 6.41744 4.70464 6.84449 5.25796C6.91843 5.35308 7.19156 5.91685 7.37113 6.01893C8.47723 6.64765 9.98018 5.98992 10.9082 5.65816C14.8452 4.25224 18.912 3.20011 23.4118 2.63055C27.4076 2.12479 31.8033 2.16308 35.4415 3.5226C39.0435 4.8682 41.8925 7.90971 42.3844 10.4617C42.398 10.5302 42.324 10.5859 42.2214 10.6253C42.2154 10.6415 42.2094 10.6578 42.1838 10.6775C38.7659 13.3768 31.6977 14.089 26.4705 13.7016C23.3212 13.4684 20.27 12.8107 17.4874 11.8479C15.8985 11.2981 14.4061 10.6485 13.0193 9.91421C11.545 9.13469 10.2412 8.20669 8.37909 7.85869C6.03562 8.62545 2.94823 8.71475 1.24156 10.0905C1.07406 10.2262 0.280302 10.3063 0.4644 10.0279C2.3265 7.20328 3.06293 3.98777 0.0464408 1.29425C-0.188963 1.08429 0.55646 0.989172 0.758666 1.06921Z" fill="#AABCBF"/>
<path opacity="0.47" d="M0.758725 1.06923C2.52878 1.77103 4.07852 2.62827 5.32496 3.68387C5.90894 4.17919 6.4175 4.70466 6.84455 5.25798C6.91849 5.3531 7.19162 5.91687 7.37119 6.01895C7.73939 6.22775 8.15132 6.29269 8.57082 6.27645C8.5512 6.48061 8.51805 6.68594 8.46674 6.89242C8.3762 7.26014 8.23729 7.61511 8.05772 7.95499C5.75951 8.63359 2.87137 8.77511 1.24014 10.0894C1.07264 10.2251 0.278887 10.3051 0.462985 10.0267C2.32509 7.20213 3.06142 3.98662 0.0449339 1.2931C-0.188961 1.0843 0.556519 0.989189 0.758725 1.06923Z" fill="#B7CCCE"/>
<path d="M13.09 4.9264C16.4807 4.19444 21.5842 3.91606 27.2218 4.28378C32.2935 4.61438 36.8009 5.40318 39.9351 6.39962C41.2358 7.68258 42.1307 9.1372 42.3857 10.4619C42.3993 10.5304 42.3254 10.5861 42.2228 10.6255C42.2168 10.6417 42.2107 10.658 42.185 10.6777C41.6116 11.1301 40.9296 11.5222 40.1766 11.8679C36.7874 12.5905 31.7066 12.8643 26.0992 12.4989C21.791 12.2182 17.8887 11.608 14.8888 10.8192C14.2474 10.5339 13.6212 10.2334 13.0191 9.91555C11.7365 9.23579 10.5791 8.44585 9.07308 8.02245C8.90256 7.76029 8.82558 7.49581 8.8618 7.23249C8.92367 6.78357 9.29791 6.37292 9.93018 6.00636C10.2908 5.89036 10.6258 5.76046 10.908 5.65954C11.6293 5.40086 12.3566 5.15956 13.09 4.9264Z" fill="#98ADAF"/>
<path d="M33.6155 8.23194C34.0003 6.6555 36.3498 5.19045 37.8407 4.90625C40.1012 6.36205 41.7446 8.45698 42.0977 10.2875C42.1097 10.3524 42.0418 10.4035 41.9438 10.4417C41.9377 10.4568 41.9317 10.4719 41.909 10.4905C40.5177 11.5902 37.0908 12.923 33.7348 13.2095C33.018 12.4752 33.2021 9.92322 33.6155 8.23194Z" fill="#C1D1D3"/>
<path d="M42.1833 10.6786C42.1728 10.6867 42.1622 10.6936 42.1516 10.7018C41.9253 10.7006 41.6944 10.7064 41.453 10.7296C41.1844 10.7563 40.9308 10.7969 40.6985 10.8491C40.6607 10.7621 40.8222 10.6774 40.9429 10.6519C41.3986 10.5579 41.8634 10.5266 42.3282 10.5672C42.2995 10.5892 42.2632 10.609 42.221 10.6264C42.215 10.6426 42.209 10.6589 42.1833 10.6786Z" fill="#657577"/>
<path d="M38.0383 8.32999C38.2224 8.34971 38.3823 8.46572 38.5045 8.64668C38.4472 8.88912 38.3507 9.09326 38.2239 9.26842C38.1183 9.41226 37.1118 9.37632 37.2054 9.171C37.2536 9.06544 37.2793 8.94594 37.2959 8.81834C37.4936 8.49586 37.7622 8.30099 38.0383 8.32999Z" fill="#455051"/>
<path d="M36.2943 6.90941C35.8582 6.86301 35.425 6.84791 34.9995 6.85719C35.8098 6.02895 37.0412 5.38518 37.927 5.21582C39.9173 6.49762 41.3645 8.34317 41.6753 9.95441C41.6814 9.98689 41.6633 10.0147 41.6316 10.0391C40.9269 8.45105 38.9169 7.18897 36.2943 6.90941Z" fill="#D5E1E2"/>
<path d="M23.3523 3.16814C26.9422 2.71458 30.8504 2.70183 34.2472 3.68899C32.957 4.13559 31.5386 4.56013 30.0206 4.94641C27.4884 4.45921 24.5851 4.21908 21.5204 4.30492C18.3907 4.39308 15.4979 4.80837 13.0503 5.45681C16.3082 4.42093 19.6854 3.63214 23.3523 3.16814Z" fill="#D5E1E2"/>
<path d="M11.2099 9.37983C11.6596 9.22439 12.2193 9.23482 12.749 9.20814C13.3315 9.17798 13.8973 9.0991 14.427 8.97266L14.4979 9.31254C13.4522 9.7139 12.3929 10.1002 11.317 10.4691C11.2385 10.4957 11.1555 10.5236 11.0605 10.5131C10.9141 10.4981 10.7919 10.3983 10.7225 10.2997C10.4644 9.92735 10.7602 9.53527 11.2099 9.37983Z" fill="#98ADAF"/>
<path d="M19.0323 14.9938C19.1697 14.7201 19.3402 14.4463 19.645 14.234C19.9332 14.0334 20.3225 13.9023 20.7149 13.7875C22.7248 13.2005 25.0155 12.9778 27.2413 13.1529L27.2488 13.4661C23.9215 13.9742 20.8598 15.0936 18.5435 16.6503C18.5993 16.0866 18.7637 15.5298 19.0323 14.9938Z" fill="#AABCBF"/>
<path d="M18.5435 16.6466C18.5993 16.084 18.7637 15.5272 19.0323 14.9913C19.1697 14.7175 19.3402 14.4437 19.645 14.2315C19.9332 14.0308 20.3225 13.8997 20.7149 13.7849C20.8884 13.7339 21.068 13.6898 21.2445 13.6445C22.3159 13.6654 23.2892 13.8614 24.0151 14.1793C21.9583 14.7755 20.0841 15.6119 18.5435 16.6466Z" fill="#C1D1D3"/>
<path d="M13.1944 9.79804C12.5742 10.0266 11.9494 10.2504 11.3187 10.4674C11.2402 10.494 11.1572 10.5219 11.0621 10.5114C10.9173 10.4963 10.7935 10.3966 10.7241 10.298C10.5008 9.97784 10.6895 9.64492 11.0335 9.45816C11.3036 9.44656 11.5933 9.45467 11.8921 9.48599C12.3976 9.53935 12.8443 9.65304 13.1944 9.79804Z" fill="#C1D1D3"/>
<path opacity="0.47" d="M8.55859 7.16237C8.60085 7.16933 8.64309 7.17745 8.68836 7.18209C8.69742 7.18325 8.70648 7.18325 8.71553 7.18325C8.83927 6.98953 9.16524 6.85266 9.57116 6.81438C9.20146 6.69374 8.957 6.49421 8.93437 6.28309C8.92532 6.28193 8.91625 6.27962 8.9072 6.27846C8.85288 6.27266 8.8 6.27034 8.74869 6.26918V6.26571C8.8332 6.25759 8.91922 6.24714 9.00372 6.23438C9.01579 6.23206 9.02785 6.22973 9.03992 6.22741C9.11688 6.21465 9.19239 6.20074 9.26934 6.1845C9.26482 6.19494 9.25722 6.20422 9.25571 6.21466C9.20139 6.4397 9.50475 6.66243 9.95293 6.74479C10.0782 6.55223 10.4026 6.41649 10.807 6.37821C10.4795 6.27149 10.2547 6.10214 10.1898 5.91886C10.2939 5.8829 10.3935 5.84695 10.4901 5.81099C10.4689 6.04879 10.8311 6.27615 11.3336 6.33067C11.3427 6.33183 11.3517 6.3318 11.3623 6.3318C11.486 6.13808 11.812 6.00121 12.2179 5.96293C11.8482 5.84229 11.6037 5.64276 11.5811 5.43164C11.5781 5.43164 11.5735 5.43051 11.5705 5.43051C11.6082 5.41775 11.646 5.40499 11.6837 5.39107C11.7652 5.36323 11.8467 5.3342 11.9281 5.30636C11.9191 5.32492 11.9071 5.34233 11.9025 5.36205C11.8437 5.60449 12.1998 5.84346 12.7023 5.90842C12.8245 5.71354 13.152 5.57549 13.5595 5.53721C13.1928 5.41657 12.9483 5.21939 12.9227 5.01059C12.894 5.00827 12.8667 5.00711 12.8396 5.00595C12.8864 4.99087 12.9332 4.97692 12.98 4.96184C13.0237 4.94792 13.066 4.934 13.1097 4.92124C13.1656 4.90384 13.2214 4.88529 13.2773 4.86789C13.2637 4.89109 13.25 4.91314 13.244 4.93866C13.1836 5.18806 13.5609 5.43513 14.0876 5.49197C14.0966 5.49313 14.1057 5.49313 14.1162 5.49313C14.24 5.29941 14.5659 5.16254 14.9718 5.12426C14.6021 5.00362 14.3577 4.80409 14.335 4.59297C14.326 4.59181 14.3184 4.5895 14.3079 4.58834C14.2732 4.58486 14.2385 4.58369 14.2038 4.58253C14.2536 4.56745 14.3034 4.55354 14.3532 4.53962C14.3849 4.53034 14.4165 4.52104 14.4467 4.51176C14.5297 4.4874 14.6112 4.46423 14.6942 4.43987C14.676 4.46655 14.6625 4.49438 14.6549 4.52338C14.5946 4.77278 14.9718 5.01984 15.4985 5.07668C15.5121 5.07784 15.5256 5.07786 15.5392 5.07902C15.6614 4.88414 15.9889 4.74609 16.3963 4.70781C16.0296 4.58833 15.7852 4.39 15.7595 4.1812C15.7459 4.17888 15.7324 4.17655 15.7188 4.17539C15.6962 4.17307 15.675 4.17304 15.6524 4.17188C15.7052 4.15796 15.758 4.14523 15.8108 4.13015C15.8244 4.12667 15.8395 4.12318 15.8531 4.1197C15.9376 4.09766 16.0221 4.07562 16.1066 4.05358C16.0976 4.07214 16.0855 4.08954 16.0809 4.10926C16.0206 4.35866 16.3979 4.60573 16.9245 4.66257C16.9335 4.66373 16.9426 4.66374 16.9531 4.66374C17.0769 4.47002 17.4028 4.33315 17.8088 4.29487C17.4496 4.17771 17.2067 3.98629 17.172 3.78213C17.1886 3.77865 17.2052 3.77519 17.2218 3.77055C17.2369 3.76707 17.2519 3.76359 17.267 3.76011C17.3425 3.74155 17.4194 3.72529 17.4949 3.70789C17.4526 3.94569 17.8013 4.17655 18.2947 4.24035C18.4184 4.04547 18.7444 3.90742 19.1518 3.86914C18.8575 3.77286 18.6418 3.62669 18.5542 3.46313C18.6523 3.44225 18.7518 3.4237 18.8484 3.40398C18.9224 3.60118 19.2484 3.77516 19.6784 3.82156C19.6875 3.82272 19.6965 3.82273 19.7071 3.82273C19.8308 3.62901 20.1568 3.49214 20.5627 3.45386C20.3379 3.38078 20.1613 3.27752 20.0496 3.16152C20.1447 3.14412 20.2412 3.12791 20.3378 3.11051C20.4555 3.23347 20.6729 3.33438 20.9445 3.38426C21.0697 3.1917 21.3942 3.05597 21.8001 3.01769C21.702 2.98521 21.616 2.94695 21.5375 2.90519C21.6447 2.88779 21.7502 2.87037 21.8574 2.85297C21.9902 2.90865 22.1487 2.95042 22.3267 2.96898C22.3358 2.97014 22.3449 2.97015 22.3539 2.97015C22.4128 2.87851 22.5169 2.80078 22.6527 2.7393C22.8866 2.70682 23.1189 2.6697 23.3543 2.63954C23.3739 2.63722 23.3935 2.63372 23.4146 2.6314C23.5595 2.61284 23.7059 2.59663 23.8508 2.58039C23.9141 2.57343 23.976 2.5653 24.0394 2.55834C24.0047 2.59546 23.9776 2.63607 23.9655 2.68015C23.9052 2.92955 24.2823 3.17662 24.809 3.23346C24.818 3.23462 24.8271 3.23462 24.8362 3.23462C24.9599 3.0409 25.2859 2.90403 25.6918 2.86575C25.3945 2.76831 25.1787 2.6198 25.0927 2.45624C25.1953 2.44812 25.2979 2.44001 25.4006 2.43189C25.4956 2.61633 25.811 2.77409 26.2184 2.81817C26.232 2.81933 26.2455 2.81935 26.2591 2.82051C26.3814 2.62563 26.7088 2.48642 27.1162 2.4493C27.0302 2.42146 26.9533 2.38781 26.8824 2.35301C27.0318 2.34837 27.1812 2.34259 27.3306 2.34027C27.4271 2.36811 27.5313 2.39012 27.6444 2.40172C27.6535 2.40288 27.6625 2.40289 27.6716 2.40289C27.6867 2.37969 27.7078 2.35767 27.7289 2.33563C27.8587 2.33447 27.9884 2.3333 28.1182 2.33446C28.0262 2.3913 27.9613 2.45974 27.9416 2.53862C27.8828 2.78106 28.239 3.02003 28.7415 3.08499C28.8637 2.89011 29.1911 2.75206 29.5986 2.71378C29.333 2.62678 29.1338 2.49919 29.0327 2.35535C29.1459 2.35999 29.2606 2.36463 29.3737 2.37043C29.5126 2.51427 29.7872 2.63025 30.1267 2.66737C30.1357 2.66853 30.1448 2.66854 30.1538 2.66854C30.2097 2.58038 30.3078 2.50498 30.4376 2.44466C30.5855 2.45858 30.7333 2.47367 30.8797 2.48991C30.6368 2.54907 30.4587 2.66042 30.424 2.80426C30.3697 3.0293 30.673 3.25202 31.1212 3.33438C31.2464 3.14182 31.5708 3.00609 31.9767 2.96781C31.6734 2.86921 31.4577 2.71726 31.3747 2.54906C31.4939 2.56414 31.6116 2.5792 31.7308 2.5966C31.8591 2.7532 32.1458 2.88199 32.5049 2.92027C32.514 2.92143 32.523 2.9214 32.5321 2.9214C32.5698 2.86224 32.6287 2.81005 32.7011 2.76249C32.8067 2.78337 32.9123 2.80658 33.0165 2.82862C32.9018 2.88894 32.8248 2.96665 32.8021 3.05713C32.7433 3.29957 33.0995 3.53854 33.602 3.6035C33.7242 3.40862 34.0516 3.27057 34.4591 3.23229C34.361 3.19981 34.275 3.16154 34.195 3.11862C34.4183 3.18126 34.6386 3.24855 34.8574 3.32047C34.9238 3.34251 34.9902 3.36687 35.0566 3.39007C35.1396 3.41907 35.2226 3.44691 35.3056 3.47591C35.3916 3.66615 35.7116 3.83087 36.128 3.87495C36.1416 3.87611 36.1552 3.87609 36.1688 3.87725C36.1778 3.86333 36.1868 3.85057 36.1974 3.83781C36.2864 3.87841 36.374 3.92134 36.4615 3.96426C36.454 3.97934 36.4434 3.99443 36.4404 4.01067C36.38 4.26007 36.7573 4.50714 37.2839 4.56398C37.293 4.56514 37.302 4.56515 37.3126 4.56515C37.3367 4.52803 37.3669 4.49323 37.4047 4.46075C37.4816 4.50599 37.5571 4.55585 37.6325 4.60225C37.6084 4.63357 37.5902 4.66607 37.5811 4.70087C37.5691 4.75307 37.5782 4.80524 37.6023 4.85628C37.5073 4.87832 37.4122 4.89923 37.3186 4.92591C37.287 4.87603 37.2673 4.82383 37.2613 4.77047C37.2522 4.76931 37.2431 4.76699 37.2341 4.76583C36.7075 4.71015 36.2321 4.86675 36.1702 5.11499C36.1521 5.18691 36.1748 5.25883 36.2246 5.32611C36.1476 5.36207 36.0737 5.40267 35.9983 5.44095C35.9168 5.36207 35.861 5.27738 35.8489 5.18922C35.8353 5.1869 35.8217 5.18457 35.8081 5.18225C35.2814 5.12657 34.8062 5.28316 34.7443 5.5314C34.7036 5.69612 34.8574 5.85852 35.1155 5.9664C35.0596 6.00584 35.0069 6.04645 34.9525 6.08705C34.6477 5.96525 34.444 5.78895 34.4229 5.59987C34.4138 5.59871 34.4047 5.59639 34.3957 5.59523C33.8691 5.53955 33.3937 5.69614 33.3318 5.94438C33.2715 6.19378 33.6487 6.44085 34.1754 6.49769C34.1844 6.49885 34.1935 6.49886 34.204 6.49886C34.3051 6.3411 34.542 6.22395 34.8453 6.16479C34.6084 6.34923 34.3851 6.54759 34.1738 6.75987C34.1678 6.74131 34.1557 6.72274 34.1527 6.70418C34.1437 6.70302 34.1346 6.7007 34.1256 6.69954C33.5989 6.64386 33.1236 6.80046 33.0617 7.0487C33.0179 7.23082 33.2081 7.41061 33.5174 7.51733C33.445 7.61593 33.3816 7.72033 33.3152 7.82241C33.0361 7.87577 32.8309 7.99525 32.7916 8.15301C32.7645 8.26321 32.8278 8.37224 32.947 8.4662C32.9168 8.52768 32.8912 8.59033 32.8626 8.65297C32.6347 8.53697 32.4898 8.38501 32.4702 8.22725C31.9617 8.18433 31.5089 8.33747 31.4501 8.57991C31.3912 8.82235 31.7474 9.06128 32.2499 9.12624C32.3389 8.98356 32.5397 8.87221 32.7992 8.80725C32.7645 8.88961 32.7267 8.97083 32.6965 9.05551C32.606 9.11235 32.5411 9.18078 32.5215 9.25966C32.5034 9.33042 32.526 9.40117 32.5728 9.46729C32.5577 9.52181 32.5381 9.57402 32.5246 9.62854C32.5185 9.65522 32.5155 9.68073 32.5094 9.70741C32.3344 9.59953 32.2182 9.47078 32.2001 9.3339C31.6915 9.29098 31.2389 9.44408 31.18 9.68652C31.1212 9.92896 31.4773 10.1679 31.9798 10.2329C32.0613 10.103 32.2393 10.0021 32.4657 9.93479C32.4521 10.0113 32.4325 10.0891 32.4219 10.1645C32.3329 10.2201 32.2695 10.2886 32.2514 10.3663C32.2257 10.4684 32.2771 10.5693 32.3797 10.6574C32.3767 10.7352 32.3752 10.8117 32.3752 10.8871C32.1201 10.7676 31.9511 10.6087 31.9315 10.4394C31.423 10.3965 30.9702 10.5496 30.9114 10.792C30.8525 11.0344 31.2087 11.2734 31.7112 11.3384C31.8138 11.1748 32.0628 11.0553 32.3797 10.9973C32.3812 11.0553 32.3812 11.1133 32.3842 11.1702C32.1699 11.2317 32.0145 11.3372 31.9828 11.4706C31.936 11.6632 32.1518 11.8534 32.4929 11.9566C32.5125 12.0436 32.535 12.1307 32.5592 12.2153C32.1246 12.2165 31.7655 12.3615 31.7127 12.5749C31.6523 12.8243 32.0296 13.0714 32.5562 13.1283C32.5653 13.1294 32.5743 13.1294 32.5849 13.1294C32.6347 13.0529 32.7222 12.9879 32.8278 12.9311C32.861 13.0018 32.8973 13.0703 32.9335 13.1387C32.8958 13.1781 32.8671 13.2187 32.855 13.2651C32.8248 13.3858 32.9003 13.5053 33.0436 13.6039C32.938 13.6143 32.8339 13.6259 32.7298 13.6352C32.6166 13.5435 32.5456 13.4403 32.5336 13.3336C32.5245 13.3324 32.5155 13.3301 32.5064 13.3289C31.9798 13.2733 31.5044 13.4299 31.4425 13.6781C31.438 13.6955 31.4411 13.7129 31.4411 13.7303C31.3898 13.7338 31.3399 13.7349 31.2886 13.7384C31.2177 13.7419 31.1468 13.7465 31.0774 13.7489C30.9189 13.7384 30.7681 13.7466 30.6338 13.7709C30.4331 13.7779 30.2369 13.7802 30.0377 13.7848C30.2007 13.6897 30.427 13.6224 30.688 13.5992C30.3183 13.4786 30.0739 13.2791 30.0512 13.0679C30.0422 13.0668 30.0346 13.0645 30.0241 13.0633C29.4974 13.0076 29.0207 13.1642 28.9603 13.4124C28.9256 13.5516 29.0327 13.6897 29.2213 13.7941C29.0961 13.7941 28.9708 13.7941 28.8471 13.7929C28.7294 13.7013 28.6539 13.598 28.6389 13.4913C28.2329 13.4786 27.8814 13.5899 27.7621 13.7686C27.6867 13.7663 27.6097 13.7651 27.5343 13.7616C27.2823 13.7512 27.0378 13.7349 26.7933 13.7199C26.487 13.5981 26.2848 13.4217 26.2622 13.2338C25.7536 13.1909 25.3009 13.344 25.242 13.5864V13.5876C25.1726 13.5795 25.1047 13.5702 25.0368 13.5621C24.8135 13.5366 24.5918 13.5087 24.3699 13.4786C24.0304 13.3568 23.804 13.17 23.7798 12.9693C23.7663 12.967 23.7527 12.9647 23.7391 12.9635C23.2834 12.9148 22.8685 13.0262 22.7236 13.2176C22.621 13.199 22.5183 13.1781 22.4157 13.1584C22.5485 12.974 22.8684 12.8452 23.2607 12.8093C22.891 12.6886 22.6466 12.4891 22.624 12.278C22.6149 12.2768 22.6073 12.2745 22.5968 12.2733C22.0701 12.2177 21.5934 12.3742 21.533 12.6225C21.4923 12.7895 21.6507 12.9542 21.9148 13.0621C21.7216 13.0227 21.5315 12.9775 21.3383 12.9345C21.2659 12.8591 21.2206 12.778 21.2116 12.6956C20.9701 12.6747 20.7423 12.6979 20.5627 12.7547C20.4556 12.7281 20.3499 12.699 20.2427 12.6712C20.3921 12.6074 20.5732 12.5622 20.7769 12.5424C20.4072 12.4218 20.1628 12.2223 20.1401 12.0112C20.1311 12.01 20.1235 12.0077 20.113 12.0065C19.5954 11.952 19.1306 12.1017 19.0552 12.3429C18.9571 12.3139 18.8591 12.2861 18.7625 12.2571C18.4607 12.1654 18.1618 12.0692 17.8661 11.9706C17.8072 11.9022 17.771 11.8314 17.7635 11.7571C17.7544 11.756 17.7453 11.7537 17.7363 11.7537C17.5673 11.7351 17.4058 11.7409 17.2595 11.7629C17.1569 11.727 17.0573 11.6887 16.9547 11.6516C17.0498 11.6284 17.1493 11.6087 17.258 11.5994C16.8913 11.4799 16.6469 11.2815 16.6212 11.0727C16.2938 11.0449 15.9904 11.0983 15.8003 11.2062C15.7158 11.1714 15.6298 11.1365 15.5453 11.1017C15.7082 11.0089 15.93 10.9452 16.1866 10.9208C15.8169 10.8002 15.5724 10.6006 15.5498 10.3895C15.5407 10.3883 15.5317 10.386 15.5226 10.3849C15.0639 10.3361 14.6444 10.4486 14.5041 10.6424C14.4196 10.6029 14.3335 10.5658 14.2505 10.5264C14.4029 10.3709 14.6927 10.2619 15.0458 10.2294C14.6791 10.1099 14.4347 9.91157 14.409 9.70277C14.3954 9.70045 14.3818 9.69813 14.3682 9.69697C13.8416 9.64129 13.3648 9.79792 13.3044 10.0462C13.3029 10.0496 13.3044 10.0543 13.3044 10.0577C13.241 10.0253 13.1761 9.99392 13.1142 9.96144C13.0825 9.9452 13.0494 9.92897 13.0177 9.91273C13.0147 9.91157 13.0132 9.91041 13.0102 9.90809C13.0177 9.90925 13.0267 9.90926 13.0343 9.90926C13.158 9.71554 13.484 9.57867 13.8899 9.54039C13.5202 9.41975 13.2758 9.22022 13.2531 9.0091C13.2441 9.00794 13.235 9.00562 13.226 9.00446C12.6993 8.94878 12.224 9.10538 12.1621 9.35362C12.1545 9.38146 12.156 9.41045 12.159 9.43829C12.1123 9.41277 12.067 9.38611 12.0202 9.36059C11.9191 9.30375 11.8181 9.24804 11.717 9.1912C11.7728 9.20396 11.8301 9.21324 11.8905 9.22136C12.0127 9.02648 12.3401 8.88847 12.7476 8.85019C12.3809 8.72955 12.1364 8.53234 12.1108 8.32354C11.6023 8.28062 11.1495 8.43375 11.0907 8.67503C11.0741 8.74347 11.0937 8.81188 11.1374 8.87684C11.0469 8.82928 10.9564 8.78058 10.8658 8.73418C10.8357 8.7191 10.8055 8.70519 10.7753 8.69011C10.4297 8.51843 10.0721 8.35835 9.69486 8.22031C9.66015 8.16927 9.63756 8.11706 9.63002 8.0637C9.50628 8.05906 9.38702 8.06719 9.27837 8.08575C9.1667 8.05095 9.05351 8.01731 8.93732 7.98599C9.04898 7.95467 9.16974 7.93029 9.30103 7.91753C8.93132 7.79689 8.68687 7.59736 8.66423 7.38624C8.65518 7.38508 8.64612 7.38276 8.63706 7.3816C8.58878 7.37696 8.54048 7.37466 8.49219 7.3735C8.51633 7.30506 8.53747 7.23429 8.55859 7.16237ZM11.3125 6.53829C11.3035 6.53713 11.2959 6.53482 11.2854 6.53366C10.7587 6.47798 10.2819 6.63341 10.2215 6.88281C10.1611 7.13221 10.5384 7.37932 11.0651 7.43616C11.0741 7.43732 11.0832 7.43729 11.0922 7.43729C11.216 7.24357 11.5418 7.1067 11.9478 7.06842C11.5796 6.94778 11.3352 6.74825 11.3125 6.53829ZM12.654 6.11607C12.1455 6.07315 11.6928 6.22626 11.634 6.4687C11.5751 6.71114 11.9312 6.95011 12.4337 7.01507C12.5559 6.82019 12.8834 6.68214 13.2908 6.64386C12.9226 6.52322 12.6797 6.32603 12.654 6.11607ZM21.2433 7.38741C21.2523 7.38857 21.2613 7.38858 21.2719 7.38858C21.3956 7.19486 21.7216 7.05798 22.1275 7.0197C21.7578 6.89906 21.5134 6.69954 21.4907 6.48842C21.4817 6.48726 21.4726 6.48494 21.4636 6.48378C20.9369 6.4281 20.46 6.58469 20.3997 6.83293C20.3393 7.08349 20.7166 7.33173 21.2433 7.38741ZM20.0798 6.91297C19.615 6.89789 19.2197 7.04636 19.1653 7.2714C19.111 7.49644 19.4144 7.71916 19.8626 7.80152C19.9878 7.60896 20.3122 7.47211 20.7166 7.43499C20.3529 7.31667 20.1085 7.12061 20.0798 6.91297ZM21.542 7.52547C21.4832 7.76791 21.8393 8.00684 22.3418 8.0718C22.4655 7.87692 22.7915 7.73891 23.1989 7.70063C22.8323 7.57999 22.5877 7.38278 22.5621 7.17398C22.0535 7.1299 21.6009 7.28303 21.542 7.52547ZM22.6119 6.96632C22.7341 6.77144 23.0616 6.63343 23.469 6.59515C23.1023 6.47567 22.8578 6.2773 22.8322 6.0685C22.3237 6.02558 21.871 6.17871 21.8122 6.42115C21.7533 6.66243 22.1094 6.90136 22.6119 6.96632ZM22.8835 7.09975C22.8231 7.34915 23.2004 7.59621 23.7271 7.65305C23.7361 7.65421 23.7451 7.65422 23.7557 7.65422C23.8794 7.4605 24.2054 7.32363 24.6113 7.28535C24.2416 7.16471 23.9972 6.96518 23.9745 6.75406C23.9655 6.7529 23.9564 6.75058 23.9474 6.74942C23.4207 6.69374 22.9439 6.85035 22.8835 7.09975ZM26.2697 8.13213C26.2607 8.13097 26.2531 8.12865 26.2425 8.12749C25.7159 8.07181 25.2405 8.2284 25.1787 8.47664C25.1183 8.72604 25.4956 8.97315 26.0222 9.02999C26.0313 9.03115 26.0403 9.03116 26.0509 9.03116C26.1746 8.83744 26.5006 8.70053 26.9065 8.66225C26.5383 8.54277 26.2939 8.34325 26.2697 8.13213ZM27.1766 7.5591C26.8069 7.43846 26.5625 7.23893 26.5399 7.02781C26.5308 7.02665 26.5217 7.02433 26.5127 7.02317C25.986 6.96749 25.5107 7.12409 25.4488 7.37233C25.3885 7.62173 25.7657 7.86883 26.2924 7.92567C26.3014 7.92683 26.3105 7.9268 26.3195 7.9268C26.4448 7.73424 26.7707 7.59622 27.1766 7.5591ZM25.7657 7.97321C25.399 7.85257 25.1546 7.65536 25.1289 7.44656C25.1154 7.44424 25.1017 7.44195 25.0881 7.44079C24.5615 7.38511 24.0862 7.54171 24.0244 7.78995C23.964 8.03935 24.3412 8.28641 24.8678 8.34325C24.8814 8.34441 24.8951 8.34443 24.9086 8.34559C25.0324 8.14955 25.3583 8.01149 25.7657 7.97321ZM25.138 7.23777C25.1516 7.23893 25.1651 7.23895 25.1787 7.24011C25.3009 7.04523 25.6284 6.90602 26.0358 6.8689C25.6691 6.74942 25.4246 6.55105 25.399 6.34225C25.3854 6.33993 25.3719 6.33763 25.3583 6.33531C24.8316 6.27963 24.3563 6.43622 24.2944 6.68446C24.234 6.93386 24.6113 7.18209 25.138 7.23777ZM26.5624 6.82132C26.5715 6.82248 26.5806 6.82249 26.5912 6.82249C26.7149 6.62877 27.0409 6.4919 27.4468 6.45362C27.0771 6.33298 26.8325 6.13345 26.8099 5.92233C26.8008 5.92117 26.7919 5.91885 26.7828 5.91769C26.2562 5.86201 25.7808 6.0186 25.7189 6.26684C25.6586 6.5174 26.0373 6.76448 26.5624 6.82132ZM26.8613 6.95821C26.8024 7.20065 27.1585 7.43962 27.661 7.50458C27.7832 7.3097 28.1107 7.17166 28.5181 7.13338C28.1514 7.0139 27.907 6.81552 27.8813 6.60672C27.3728 6.56264 26.9201 6.71577 26.8613 6.95821ZM27.6112 7.71107C27.1027 7.66815 26.65 7.82125 26.5912 8.06253C26.5323 8.30381 26.8884 8.54394 27.3909 8.6089C27.5131 8.41402 27.8405 8.27597 28.248 8.23769C27.8813 8.11821 27.6368 7.92103 27.6112 7.71107ZM27.3411 8.81539C26.8326 8.77247 26.3799 8.92557 26.321 9.16801C26.2622 9.41045 26.6183 9.64942 27.1208 9.71438C27.2431 9.5195 27.5705 9.38145 27.9779 9.34317C27.6112 9.22253 27.3683 9.02535 27.3411 8.81539ZM26.0011 9.23761C25.9921 9.23645 25.983 9.23413 25.974 9.23297C25.4473 9.17729 24.9705 9.33389 24.9101 9.58329C24.8497 9.83269 25.227 10.0798 25.7537 10.1366C25.7627 10.1378 25.7718 10.1378 25.7823 10.1378C25.9061 9.94405 26.232 9.80718 26.6379 9.7689C26.2682 9.64826 26.0238 9.44873 26.0011 9.23761ZM25.4956 9.0787C25.1289 8.95806 24.8845 8.76085 24.8588 8.55205C24.8452 8.54973 24.8317 8.5474 24.8181 8.54624C24.2915 8.49056 23.8146 8.64719 23.7542 8.89543C23.6939 9.14483 24.0712 9.3919 24.5978 9.44874C24.6114 9.4499 24.6249 9.44991 24.6385 9.45107C24.7622 9.25387 25.0882 9.11582 25.4956 9.0787ZM24.3397 8.38966C23.97 8.26902 23.7256 8.0695 23.7029 7.85838C23.6939 7.85722 23.6863 7.8549 23.6758 7.85374C23.1491 7.79806 22.6738 7.95465 22.6119 8.20289C22.5515 8.45229 22.9288 8.69936 23.4554 8.7562C23.4645 8.75736 23.4736 8.75737 23.4826 8.75737C23.6094 8.56481 23.9338 8.42794 24.3397 8.38966ZM22.292 8.27713C21.7835 8.23421 21.3307 8.38735 21.2719 8.62979C21.213 8.87223 21.5692 9.1112 22.0717 9.17616C22.1939 8.98128 22.5214 8.84323 22.9288 8.80495C22.5621 8.68431 22.3177 8.48709 22.292 8.27713ZM21.8574 8.12519C21.4877 8.00455 21.2432 7.80502 21.2206 7.5939C21.2115 7.59274 21.2025 7.59042 21.1934 7.58926C20.6668 7.53358 20.1914 7.69018 20.1296 7.93842C20.0692 8.18782 20.4465 8.43488 20.9731 8.49172C20.9822 8.49288 20.9912 8.49289 21.0003 8.49289C21.1255 8.30033 21.4515 8.16347 21.8574 8.12519ZM19.8097 8.01846C19.3449 8.00338 18.9495 8.15185 18.8952 8.37689C18.8409 8.60193 19.1442 8.82465 19.5924 8.90701C19.7177 8.71445 20.0421 8.57875 20.4465 8.54047C20.0828 8.42099 19.8384 8.2261 19.8097 8.01846ZM19.4807 7.87229C19.111 7.75165 18.8665 7.55215 18.8439 7.34103C18.8348 7.33987 18.8258 7.33752 18.8167 7.33636C18.2901 7.28068 17.8148 7.43731 17.753 7.68555C17.6926 7.93495 18.0698 8.18202 18.5964 8.23886C18.6055 8.24002 18.6145 8.24003 18.6236 8.24003C18.7488 8.04631 19.0748 7.90941 19.4807 7.87229ZM18.3399 7.18209C17.9732 7.06261 17.7288 6.86427 17.7031 6.65547C17.1946 6.61255 16.7419 6.76565 16.683 7.00809C16.6242 7.25053 16.9803 7.4895 17.4828 7.55446C17.605 7.35726 17.931 7.21921 18.3399 7.18209ZM18.8666 7.13454C18.8756 7.1357 18.8846 7.13571 18.8952 7.13571C19.0189 6.94199 19.3449 6.80508 19.7508 6.7668C19.3811 6.64616 19.1367 6.44667 19.114 6.23555C19.105 6.23439 19.0959 6.23207 19.0869 6.23091C18.5602 6.17523 18.0849 6.33183 18.023 6.58007C17.9626 6.83063 18.3399 7.0777 18.8666 7.13454ZM20.1311 6.69721C20.2564 6.50465 20.5823 6.36895 20.9867 6.33067C20.6231 6.21119 20.3786 6.0163 20.35 5.80866C19.8852 5.79358 19.4898 5.94205 19.4355 6.16709C19.3796 6.39213 19.6845 6.61369 20.1311 6.69721ZM21.5134 6.28309C21.5224 6.28425 21.5315 6.28426 21.542 6.28426C21.6658 6.09054 21.9917 5.95367 22.3977 5.91539C22.028 5.79475 21.7835 5.59522 21.7609 5.3841C21.7518 5.38294 21.7443 5.38062 21.7337 5.37946C21.2071 5.32378 20.7317 5.47922 20.6698 5.72862C20.6095 5.97918 20.9867 6.22625 21.5134 6.28309ZM22.882 5.86201C23.0043 5.66713 23.3317 5.52911 23.7391 5.49083C23.3724 5.37135 23.128 5.17298 23.1023 4.96418C22.5938 4.92126 22.1411 5.07436 22.0822 5.3168C22.0234 5.55692 22.3795 5.79705 22.882 5.86201ZM23.1536 5.99426C23.0933 6.24366 23.4706 6.49073 23.9972 6.54757C24.0062 6.54873 24.0153 6.54874 24.0258 6.54874C24.1496 6.35502 24.4755 6.21815 24.8815 6.17987C24.5118 6.05923 24.2673 5.8597 24.2447 5.64858C24.2356 5.64742 24.2281 5.6451 24.2175 5.64394C23.6909 5.58826 23.214 5.74486 23.1536 5.99426ZM25.4081 6.13346C25.4217 6.13462 25.4352 6.13463 25.4488 6.13579C25.571 5.94091 25.8985 5.8017 26.3059 5.76458C25.9392 5.6451 25.6948 5.44673 25.6691 5.23793C25.6555 5.23561 25.642 5.23329 25.6284 5.23213C25.1018 5.17645 24.6264 5.33304 24.5645 5.58128C24.5042 5.82952 24.8815 6.07662 25.4081 6.13346ZM26.8326 5.71587C26.8416 5.71703 26.8507 5.71701 26.8597 5.71701C26.9835 5.52329 27.3094 5.38641 27.7154 5.34813C27.3456 5.22749 27.1012 5.02796 27.0786 4.81684C27.0695 4.81568 27.0604 4.81337 27.0514 4.81221C26.5247 4.75653 26.0494 4.91312 25.9875 5.16136C25.9287 5.41308 26.3059 5.66019 26.8326 5.71587ZM27.1313 5.8539C27.0725 6.09634 27.4287 6.33531 27.9311 6.40027C28.0534 6.20539 28.3808 6.06734 28.7882 6.02906C28.4216 5.90958 28.1771 5.71121 28.1515 5.50241C27.6429 5.45833 27.1902 5.61146 27.1313 5.8539ZM29.3149 5.98035C29.3239 5.98151 29.333 5.98148 29.3435 5.98148C29.4673 5.78776 29.7932 5.65089 30.1992 5.61261C29.8295 5.49197 29.585 5.29244 29.5624 5.08132C29.5533 5.08016 29.5443 5.07784 29.5352 5.07668C29.0086 5.021 28.5332 5.17647 28.4713 5.42587C28.411 5.67759 28.7898 5.92467 29.3149 5.98035ZM29.6137 6.11838C29.5593 6.34342 29.8626 6.56614 30.3108 6.6485C30.436 6.45594 30.7605 6.31905 31.1664 6.28193C30.8027 6.16245 30.5583 5.96759 30.5296 5.75995C30.0648 5.74487 29.6695 5.89334 29.6137 6.11838ZM29.2922 6.18797C29.2832 6.18681 29.2756 6.1845 29.2651 6.18334C28.7384 6.12766 28.2632 6.28425 28.2013 6.53249C28.1409 6.78189 28.5181 7.02899 29.0448 7.08583C29.0538 7.08699 29.0628 7.08697 29.0734 7.08697C29.1971 6.89325 29.5231 6.75637 29.929 6.71809C29.5608 6.59745 29.3164 6.39909 29.2922 6.18797ZM29.0221 7.29229C29.013 7.29113 29.0055 7.28881 28.9949 7.28765C28.4683 7.23197 27.993 7.38856 27.9311 7.6368C27.8708 7.8862 28.248 8.13331 28.7746 8.19015C28.7837 8.19131 28.7927 8.19128 28.8018 8.19128C28.9255 7.99756 29.2515 7.86069 29.6574 7.82241C29.2907 7.70293 29.0462 7.50341 29.0221 7.29229ZM28.7535 8.3966C28.7445 8.39544 28.7354 8.39313 28.7264 8.39197C28.1997 8.33629 27.7244 8.49176 27.6625 8.74116C27.6021 8.99056 27.9794 9.23762 28.506 9.29446C28.5151 9.29562 28.5242 9.29563 28.5332 9.29563C28.657 9.10191 28.9829 8.965 29.3888 8.92672C29.0207 8.80724 28.7762 8.60888 28.7535 8.3966ZM28.4834 9.50209C28.4743 9.50093 28.4653 9.49861 28.4562 9.49745C27.9296 9.44177 27.4543 9.59836 27.3924 9.8466C27.3321 10.096 27.7093 10.3431 28.2359 10.3999C28.245 10.4011 28.2541 10.4011 28.2646 10.4011C28.3884 10.2074 28.7143 10.0705 29.1202 10.0322C28.7505 9.91273 28.506 9.71321 28.4834 9.50209ZM28.2133 10.6064C28.2043 10.6052 28.1952 10.6029 28.1862 10.6018C27.6595 10.5461 27.1842 10.7016 27.1223 10.951C27.0619 11.2004 27.4392 11.4474 27.9659 11.5043C27.9749 11.5054 27.984 11.5054 27.9945 11.5054C28.1183 11.3117 28.4442 11.1748 28.8501 11.1365C28.4804 11.017 28.236 10.8175 28.2133 10.6064ZM27.7093 10.4475C27.3426 10.328 27.0981 10.1297 27.0725 9.92087C26.5639 9.87795 26.1113 10.0311 26.0525 10.2735C25.9936 10.5159 26.3497 10.7549 26.8522 10.8199C26.9744 10.6238 27.3003 10.4858 27.7093 10.4475ZM25.731 10.3419C25.722 10.3408 25.7129 10.3384 25.7038 10.3373C25.1772 10.2816 24.7018 10.437 24.64 10.6864C24.5796 10.9358 24.9569 11.1829 25.4835 11.2398C25.4926 11.2409 25.5017 11.241 25.5107 11.241C25.6344 11.0472 25.9604 10.9103 26.3663 10.872C25.9981 10.7526 25.7536 10.553 25.731 10.3419ZM25.2255 10.183C24.8588 10.0624 24.6143 9.86516 24.5887 9.65636C24.5751 9.65404 24.5615 9.65174 24.548 9.64942C24.0213 9.59374 23.5445 9.75034 23.4841 9.99858C23.4237 10.248 23.801 10.495 24.3277 10.5519C24.3412 10.553 24.3548 10.5531 24.3684 10.5542C24.4921 10.3593 24.818 10.2213 25.2255 10.183ZM24.0711 9.49515C23.7014 9.37451 23.4569 9.17498 23.4343 8.96386C23.4252 8.9627 23.4162 8.96038 23.4072 8.95922C22.8805 8.90354 22.4037 9.06014 22.3433 9.30838C22.283 9.55778 22.6601 9.80484 23.1868 9.86168C23.1958 9.86284 23.2049 9.86285 23.214 9.86285C23.3392 9.66913 23.6636 9.53227 24.0711 9.49515ZM22.0219 9.38261C21.5133 9.33969 21.0606 9.49283 21.0018 9.73527C20.9429 9.97771 21.2991 10.2166 21.8016 10.2816C21.9238 10.0867 22.2512 9.94871 22.6587 9.91043C22.292 9.78979 22.049 9.59257 22.0219 9.38261ZM21.5873 9.23067C21.2175 9.11003 20.9731 8.9105 20.9505 8.69938C20.9414 8.69822 20.9323 8.69591 20.9233 8.69475C20.3966 8.63907 19.9214 8.79566 19.8595 9.0439C19.7992 9.2933 20.1763 9.54037 20.703 9.59721C20.712 9.59837 20.7211 9.59838 20.7302 9.59838C20.8554 9.40466 21.1813 9.26779 21.5873 9.23067ZM19.5395 9.12277C19.0748 9.10769 18.6795 9.25616 18.6252 9.4812C18.5708 9.70624 18.8741 9.92896 19.3223 10.0113C19.4475 9.81876 19.7719 9.68307 20.1763 9.64479C19.8127 9.52531 19.5697 9.33041 19.5395 9.12277ZM19.2107 8.9766C18.8409 8.85596 18.5965 8.65647 18.5739 8.44535C18.5648 8.44419 18.5573 8.44187 18.5467 8.44071C18.02 8.38503 17.5447 8.54163 17.4828 8.78987C17.4225 9.03927 17.7997 9.28633 18.3264 9.34317C18.3354 9.34433 18.3445 9.34434 18.3536 9.34434C18.4788 9.15178 18.8047 9.01488 19.2107 8.9766ZM18.0698 8.2864C17.7031 8.16692 17.4586 7.96859 17.433 7.75979C16.9245 7.71687 16.4718 7.86997 16.413 8.11241C16.3541 8.35485 16.7102 8.59382 17.2127 8.65878C17.3349 8.46274 17.6624 8.32468 18.0698 8.2864ZM16.9985 7.60781C16.6287 7.48717 16.3843 7.28764 16.3617 7.07652C16.3526 7.07536 16.3451 7.07305 16.3345 7.07189C15.8078 7.01621 15.3325 7.17283 15.2706 7.42107C15.2103 7.67047 15.5875 7.91754 16.1142 7.97438C16.1232 7.97554 16.1323 7.97555 16.1414 7.97555C16.2666 7.78183 16.5925 7.64493 16.9985 7.60781ZM15.8561 6.91761C15.4894 6.79697 15.245 6.59979 15.2193 6.39099C15.2057 6.38867 15.1922 6.38635 15.1786 6.38519C14.652 6.32951 14.1766 6.48494 14.1147 6.73434C14.0544 6.98374 14.4317 7.23081 14.9583 7.28765C14.9719 7.28881 14.9854 7.28883 14.999 7.28999C15.1227 7.09279 15.4487 6.95473 15.8561 6.91761ZM16.3842 6.8689C16.3933 6.87006 16.4023 6.87007 16.4114 6.87007C16.5351 6.67635 16.8611 6.53948 17.267 6.5012C16.8973 6.38056 16.6529 6.18103 16.6302 5.96991C16.6212 5.96875 16.6121 5.96643 16.6031 5.96527C16.0764 5.90959 15.6011 6.06502 15.5392 6.31442C15.4803 6.56614 15.8576 6.81322 16.3842 6.8689ZM17.753 6.44781C17.8752 6.25293 18.2026 6.11488 18.6101 6.0766C18.2434 5.95712 17.9989 5.75879 17.9733 5.54999C17.4647 5.50707 17.012 5.66017 16.9531 5.90261C16.8928 6.14389 17.2489 6.38285 17.753 6.44781ZM19.1367 6.02906C19.1457 6.03022 19.1548 6.03023 19.1653 6.03023C19.2891 5.83651 19.615 5.6996 20.021 5.66132C19.6513 5.54068 19.4068 5.34119 19.3842 5.13007C19.3751 5.12891 19.3661 5.12659 19.357 5.12543C18.8304 5.06975 18.355 5.22634 18.2931 5.47458C18.2328 5.72514 18.6101 5.97338 19.1367 6.02906ZM20.4013 5.59172C20.5265 5.39916 20.8524 5.26347 21.2568 5.22519C20.8931 5.10571 20.6487 4.91081 20.62 4.70317C20.1552 4.68809 19.7599 4.83656 19.7056 5.0616C19.6498 5.28664 19.9546 5.50936 20.4013 5.59172ZM21.7834 5.17761C21.7925 5.17877 21.8016 5.17878 21.8122 5.17878C21.9359 4.98506 22.2618 4.84819 22.6677 4.80991C22.298 4.68927 22.0535 4.48974 22.0309 4.27862C22.0219 4.27746 22.0143 4.27514 22.0037 4.27398C21.4771 4.2183 21.0018 4.37489 20.94 4.62313C20.8796 4.87369 21.2568 5.12193 21.7834 5.17761ZM23.1522 4.75652C23.2744 4.56164 23.6018 4.42363 24.0093 4.38535C23.6426 4.26471 23.3981 4.0675 23.3725 3.8587C22.8639 3.81578 22.4112 3.96888 22.3523 4.21132C22.2935 4.4526 22.6482 4.69156 23.1522 4.75652ZM23.4238 4.88995C23.3634 5.13935 23.7406 5.38641 24.2672 5.44325C24.2763 5.44441 24.2854 5.44442 24.2944 5.44442C24.4181 5.2507 24.7441 5.11383 25.15 5.07555C24.7803 4.95491 24.5359 4.75538 24.5132 4.54426C24.5042 4.5431 24.4951 4.54078 24.4861 4.53962C23.9609 4.48394 23.4841 4.64055 23.4238 4.88995ZM25.6781 5.02797C25.6917 5.02913 25.7054 5.02915 25.7189 5.03031C25.8412 4.83543 26.1686 4.69622 26.5761 4.6591C26.2094 4.53846 25.9649 4.34125 25.9393 4.13245C25.9257 4.13013 25.9121 4.1278 25.8985 4.12664C25.3719 4.07096 24.8965 4.22643 24.8347 4.47583C24.7728 4.72407 25.1515 4.97229 25.6781 5.02797ZM27.1027 4.61152C27.1117 4.61268 27.1208 4.61269 27.1313 4.61269C27.2551 4.41897 27.581 4.2821 27.987 4.24382C27.6173 4.12318 27.3728 3.92365 27.3502 3.71253C27.3411 3.71137 27.3321 3.70905 27.323 3.70789C26.7964 3.65221 26.321 3.80765 26.2591 4.05705C26.1988 4.30761 26.576 4.55468 27.1027 4.61152ZM27.4015 4.74842C27.3426 4.99086 27.6988 5.22983 28.2013 5.29479C28.3235 5.09991 28.651 4.96186 29.0584 4.92358C28.6917 4.8041 28.4472 4.60573 28.4216 4.39693C27.9131 4.35401 27.4603 4.50598 27.4015 4.74842ZM29.585 4.87603C29.5941 4.87719 29.6031 4.87717 29.6137 4.87717C29.7374 4.68345 30.0634 4.54657 30.4693 4.50829C30.0996 4.38765 29.8551 4.18813 29.8325 3.97701C29.8234 3.97585 29.8144 3.97353 29.8053 3.97237C29.2787 3.91669 28.8033 4.07328 28.7415 4.32152C28.6811 4.57208 29.0599 4.82035 29.585 4.87603ZM29.8838 5.01289C29.828 5.23793 30.1327 5.46065 30.5809 5.54301C30.7062 5.35045 31.0306 5.21472 31.4366 5.17644C31.0729 5.05696 30.8284 4.8621 30.7998 4.65446C30.3335 4.64054 29.9381 4.78785 29.8838 5.01289ZM31.9632 5.13007C31.9722 5.13123 31.9813 5.1312 31.9904 5.1312C32.1141 4.93748 32.44 4.80061 32.8459 4.76233C32.4762 4.64169 32.2317 4.44219 32.2091 4.23107C32.2 4.22991 32.191 4.22756 32.1819 4.2264C31.6553 4.17072 31.18 4.32735 31.1182 4.57559C31.0593 4.82615 31.4365 5.07323 31.9632 5.13007ZM31.9405 5.33652C31.9315 5.33536 31.9224 5.33304 31.9134 5.33188C31.3867 5.2762 30.9114 5.43283 30.8495 5.68107C30.7891 5.93047 31.1664 6.17754 31.6931 6.23438C31.7021 6.23554 31.7111 6.23555 31.7217 6.23555C31.8454 6.04183 32.1714 5.90492 32.5773 5.86664C32.2076 5.746 31.9632 5.54764 31.9405 5.33652ZM31.6704 6.44087C31.6613 6.43971 31.6523 6.43736 31.6432 6.4362C31.1166 6.38052 30.6413 6.53715 30.5794 6.78539C30.5191 7.03479 30.8963 7.28186 31.4229 7.3387C31.432 7.33986 31.4411 7.33987 31.4517 7.33987C31.5754 7.14615 31.9013 7.00927 32.3072 6.97099C31.9375 6.85151 31.693 6.65199 31.6704 6.44087ZM30.258 6.86426C29.7932 6.84918 29.3979 6.99765 29.3435 7.22269C29.2892 7.44773 29.5926 7.67045 30.0407 7.75281C30.166 7.56025 30.4904 7.42452 30.8948 7.38624C30.5311 7.26792 30.2882 7.07306 30.258 6.86426ZM29.9894 7.96975C29.5247 7.95467 29.1293 8.10313 29.075 8.32817C29.0206 8.55321 29.3239 8.77593 29.7721 8.85829C29.8973 8.66573 30.2218 8.52884 30.6262 8.49172C30.2626 8.37224 30.0181 8.17739 29.9894 7.96975ZM29.7193 9.07406C29.2545 9.05898 28.8592 9.20745 28.8048 9.43249C28.7505 9.65753 29.0539 9.88025 29.502 9.96261C29.6273 9.77005 29.9517 9.63319 30.3576 9.59607C29.9924 9.47775 29.748 9.28286 29.7193 9.07406ZM29.4492 10.1795C28.9844 10.1645 28.589 10.3118 28.5347 10.538C28.4804 10.763 28.7837 10.9857 29.2319 11.0681C29.3572 10.8755 29.6831 10.7398 30.0875 10.7015C29.7224 10.582 29.4778 10.3872 29.4492 10.1795ZM29.179 11.2839C28.7143 11.2688 28.319 11.4172 28.2646 11.6423C28.2103 11.8673 28.5136 12.09 28.9618 12.1724C29.087 11.9798 29.413 11.843 29.8174 11.8059C29.4522 11.6876 29.2077 11.4915 29.179 11.2839ZM27.9432 11.7119C27.9342 11.7107 27.9251 11.7084 27.916 11.7072C27.3894 11.6516 26.914 11.8082 26.8522 12.0564C26.7918 12.3058 27.1691 12.5529 27.6957 12.6097C27.7048 12.6109 27.7139 12.6109 27.7229 12.6109C27.8466 12.4172 28.1726 12.2803 28.5785 12.242C28.2103 12.1225 27.9658 11.923 27.9432 11.7119ZM27.4392 11.553C27.0725 11.4323 26.8281 11.2351 26.8024 11.0263C26.2939 10.9834 25.8412 11.1365 25.7823 11.379C25.7235 11.6214 26.0795 11.8604 26.582 11.9253C26.7043 11.7293 27.0303 11.5901 27.4392 11.553ZM25.4609 11.4474C25.4518 11.4462 25.4428 11.4439 25.4337 11.4428C24.9071 11.3871 24.4318 11.5437 24.3699 11.7919C24.3096 12.0413 24.6868 12.2884 25.2134 12.3453C25.2225 12.3464 25.2315 12.3464 25.2406 12.3464C25.3643 12.1527 25.6903 12.0158 26.0962 11.9775C25.728 11.858 25.4835 11.6585 25.4609 11.4474ZM24.9569 11.2885C24.5902 11.169 24.3458 10.9706 24.3201 10.7618C24.3065 10.7595 24.2929 10.7572 24.2793 10.7561C23.7527 10.7004 23.2774 10.8558 23.2155 11.1052C23.1552 11.3546 23.5324 11.6017 24.059 11.6585C24.0726 11.6597 24.0862 11.6597 24.0998 11.6609C24.222 11.4637 24.548 11.3256 24.9569 11.2885ZM23.801 10.5995C23.4313 10.4788 23.1869 10.2793 23.1642 10.0682C23.1552 10.067 23.1476 10.0647 23.1371 10.0635C22.6104 10.0079 22.1351 10.1633 22.0732 10.4127C22.0128 10.6621 22.3901 10.9092 22.9167 10.966C22.9258 10.9672 22.9349 10.9672 22.9439 10.9672C23.0692 10.7746 23.3951 10.6377 23.801 10.5995ZM21.7517 10.4869C21.2432 10.444 20.7906 10.5971 20.7317 10.8396C20.6729 11.082 21.0289 11.321 21.5314 11.386C21.6537 11.1911 21.9811 11.053 22.3885 11.0147C22.0219 10.8941 21.7789 10.6969 21.7517 10.4869ZM21.3187 10.335C20.949 10.2143 20.7045 10.0148 20.6819 9.8037C20.6728 9.80254 20.6653 9.80022 20.6547 9.79906C20.1281 9.74338 19.6527 9.89997 19.5908 10.1482C19.5305 10.3976 19.9078 10.6447 20.4344 10.7015C20.4435 10.7027 20.4525 10.7027 20.4631 10.7027C20.5868 10.5101 20.9113 10.3733 21.3187 10.335ZM19.2695 10.2283C18.8047 10.2132 18.4093 10.3616 18.355 10.5867C18.3007 10.8117 18.604 11.0344 19.0521 11.1168C19.1774 10.9242 19.5034 10.7885 19.9078 10.7503C19.5426 10.6308 19.2997 10.4359 19.2695 10.2283ZM18.9405 10.0821C18.5708 9.96145 18.3264 9.76195 18.3037 9.55083C18.2947 9.54967 18.2856 9.54736 18.2766 9.5462C17.7499 9.49052 17.273 9.64711 17.2127 9.89535C17.1523 10.1447 17.5296 10.3918 18.0562 10.4487C18.0653 10.4498 18.0743 10.4498 18.0849 10.4498C18.2086 10.2561 18.5346 10.1192 18.9405 10.0821ZM17.7997 9.39189C17.4331 9.27241 17.1886 9.07407 17.1629 8.86527C16.6544 8.82235 16.2017 8.97545 16.1428 9.21789C16.084 9.46033 16.4401 9.6993 16.9425 9.76426C17.0648 9.56706 17.3923 9.42901 17.7997 9.39189ZM16.7283 8.71213C16.3586 8.59149 16.1142 8.39199 16.0915 8.18087C16.0825 8.17971 16.0749 8.17736 16.0644 8.1762C15.5377 8.12052 15.0624 8.27599 15.0005 8.52539C14.9401 8.77479 15.3174 9.02186 15.844 9.0787C15.8531 9.07986 15.8621 9.07987 15.8727 9.07987C15.9964 8.88731 16.3224 8.74925 16.7283 8.71213ZM15.5875 8.02193C15.2209 7.90245 14.9764 7.70411 14.9507 7.49531C14.9372 7.49299 14.9235 7.49066 14.9099 7.48834C14.3833 7.43266 13.908 7.58926 13.8462 7.83866C13.7858 8.08806 14.163 8.33513 14.6896 8.39197C14.7032 8.39313 14.7169 8.39314 14.7304 8.3943C14.8527 8.19826 15.1786 8.06021 15.5875 8.02193ZM14.4317 7.33406C14.062 7.21342 13.8174 7.01389 13.7948 6.80277C13.7857 6.80161 13.7783 6.79929 13.7677 6.79813C13.2411 6.74245 12.7642 6.89906 12.7038 7.14846C12.6435 7.39786 13.0207 7.64492 13.5473 7.70176C13.5564 7.70292 13.5655 7.70293 13.576 7.70293C13.6998 7.50805 14.0257 7.37118 14.4317 7.33406ZM14.0649 5.69729C14.0559 5.69613 14.0483 5.69381 14.0377 5.69265C13.5111 5.63697 13.0358 5.7924 12.974 6.0418C12.9136 6.2912 13.2908 6.53831 13.8174 6.59515C13.8265 6.59631 13.8356 6.59628 13.8462 6.59628C13.9699 6.40256 14.2958 6.26569 14.7017 6.22741C14.332 6.10793 14.0875 5.90841 14.0649 5.69729ZM15.4895 5.28551C15.4759 5.28319 15.4622 5.28086 15.4487 5.27854C14.922 5.22286 14.4467 5.37945 14.3849 5.62769C14.3245 5.87709 14.7017 6.12419 15.2283 6.18103C15.2419 6.18219 15.2556 6.18218 15.2691 6.18334C15.3914 5.98846 15.7188 5.85041 16.1262 5.81213C15.7596 5.69265 15.5151 5.49431 15.4895 5.28551ZM16.9018 4.86672C16.8928 4.86556 16.8852 4.86325 16.8747 4.86209C16.348 4.80641 15.8727 4.963 15.8108 5.21124C15.7504 5.46064 16.1277 5.70774 16.6544 5.76458C16.6634 5.76574 16.6725 5.76575 16.6815 5.76575C16.8053 5.57203 17.1312 5.43512 17.5372 5.39684C17.169 5.27736 16.9245 5.07784 16.9018 4.86672ZM18.2418 4.4445C17.7333 4.40158 17.2807 4.55469 17.2218 4.79713C17.163 5.03957 17.519 5.27854 18.0215 5.3435C18.1453 5.14862 18.4712 5.01057 18.8786 4.97229C18.5119 4.85165 18.269 4.65446 18.2418 4.4445ZM19.6543 4.02575C19.6453 4.02459 19.6362 4.02225 19.6271 4.02225C19.1005 3.96657 18.6236 4.122 18.5633 4.3714C18.5029 4.6208 18.8802 4.86791 19.4068 4.92475C19.4159 4.92591 19.4249 4.92591 19.4355 4.92591C19.5592 4.73219 19.8852 4.59529 20.2911 4.55701C19.9214 4.43637 19.6769 4.23687 19.6543 4.02575ZM20.8901 3.59886C20.4254 3.58378 20.03 3.73225 19.9757 3.95729C19.9213 4.18233 20.2247 4.40505 20.6729 4.48741C20.7981 4.29485 21.1225 4.15915 21.5284 4.12087C21.1617 4.00139 20.9188 3.8065 20.8901 3.59886ZM22.301 3.1743C22.292 3.17314 22.2829 3.17082 22.2739 3.16966C21.7472 3.11398 21.2719 3.26942 21.21 3.51882C21.1496 3.76822 21.5269 4.01529 22.0536 4.07213C22.0626 4.07329 22.0716 4.07329 22.0822 4.07329C22.2059 3.87957 22.5319 3.7427 22.9378 3.70442C22.5681 3.58494 22.3237 3.38542 22.301 3.1743ZM23.6425 2.75321C23.134 2.71029 22.6813 2.86342 22.6225 3.1047C22.5636 3.34714 22.9197 3.58611 23.4222 3.65107C23.5444 3.45619 23.8719 3.31815 24.2793 3.27987C23.9126 3.16039 23.6682 2.96317 23.6425 2.75321ZM24.7834 3.43878C24.7743 3.43762 24.7653 3.43531 24.7562 3.43531C24.2296 3.37963 23.7542 3.53506 23.6923 3.78446C23.632 4.03386 24.0093 4.28093 24.5359 4.33777C24.545 4.33893 24.554 4.33894 24.5645 4.33894C24.6883 4.14522 25.0142 4.00835 25.4202 3.97007C25.0505 3.84943 24.806 3.65106 24.7834 3.43878ZM26.2094 3.02697C26.1958 3.02465 26.1822 3.02236 26.1686 3.0212C25.642 2.96552 25.1667 3.12211 25.1048 3.37035C25.0445 3.61975 25.4216 3.86682 25.9483 3.92366C25.9619 3.92482 25.9755 3.92483 25.9891 3.92599C26.1113 3.73111 26.4388 3.59307 26.8462 3.55479C26.478 3.43415 26.235 3.23693 26.2094 3.02697ZM27.6203 2.60821C27.6112 2.60705 27.6022 2.60474 27.5931 2.60358C27.0665 2.5479 26.5911 2.70449 26.5293 2.95273C26.4689 3.20213 26.8462 3.44923 27.3728 3.50607C27.3819 3.50723 27.3909 3.50721 27.4015 3.50721C27.5252 3.31349 27.8512 3.17662 28.2571 3.13834C27.8874 3.01886 27.6429 2.81933 27.6203 2.60821ZM28.6916 3.29144C28.1831 3.24852 27.7305 3.40166 27.6716 3.6441C27.6128 3.88654 27.9688 4.12551 28.4713 4.19047C28.5936 3.99559 28.921 3.85754 29.3284 3.81926C28.9617 3.69862 28.7173 3.5014 28.6916 3.29144ZM30.1025 2.87269C30.0935 2.87153 30.0844 2.86921 30.0754 2.86805C29.5487 2.81237 29.0735 2.96781 29.0116 3.21721C28.9512 3.46661 29.3284 3.71371 29.8551 3.77055C29.8641 3.77171 29.8732 3.77168 29.8822 3.77168C30.006 3.57796 30.3319 3.44109 30.7379 3.40281C30.3697 3.28333 30.1252 3.08381 30.1025 2.87269ZM31.0683 3.55015C30.6036 3.53507 30.2082 3.68354 30.1538 3.90858C30.0995 4.13362 30.4029 4.35634 30.8511 4.4387C30.9763 4.24614 31.3008 4.10925 31.7067 4.07213C31.3415 3.95381 31.097 3.75779 31.0683 3.55015ZM32.4792 3.12672C32.4702 3.12556 32.4611 3.12325 32.4521 3.12325C31.9254 3.06757 31.4502 3.22301 31.3883 3.47241C31.3279 3.72181 31.7051 3.96891 32.2318 4.02575C32.2408 4.02691 32.2498 4.02688 32.2604 4.02688C32.3841 3.83316 32.7101 3.69629 33.116 3.65801C32.7478 3.53737 32.5034 3.33784 32.4792 3.12672ZM33.5507 3.80999C33.0421 3.76707 32.5894 3.92017 32.5305 4.16261C32.4717 4.40505 32.8279 4.64402 33.3304 4.70898C33.4526 4.5141 33.78 4.37605 34.1875 4.33777C33.8208 4.21713 33.5778 4.01995 33.5507 3.80999ZM34.963 3.3912C34.954 3.39004 34.9464 3.38772 34.9359 3.38656C34.4092 3.33088 33.934 3.48751 33.8721 3.73575C33.8117 3.98515 34.1889 4.23222 34.7156 4.28906C34.7246 4.29022 34.7337 4.29023 34.7427 4.29023C34.8665 4.09651 35.1924 3.9596 35.5984 3.92132C35.2302 3.80184 34.9857 3.60232 34.963 3.3912ZM35.8971 4.98156C36.0194 4.78668 36.3468 4.64751 36.7542 4.61039C36.3876 4.49091 36.1431 4.29254 36.1175 4.08374C36.1039 4.08142 36.0903 4.07909 36.0767 4.07793C35.5501 4.02225 35.0747 4.17885 35.0129 4.42709C34.9525 4.67649 35.3298 4.92359 35.8564 4.98043C35.87 4.98159 35.8836 4.98156 35.8971 4.98156ZM34.4726 5.39571C34.5963 5.20199 34.9223 5.06508 35.3282 5.0268C34.9585 4.90616 34.7141 4.70667 34.6914 4.49555C34.6824 4.49439 34.6733 4.49207 34.6643 4.49091C34.1376 4.43523 33.6623 4.59183 33.6004 4.84007C33.54 5.08947 33.9173 5.33654 34.444 5.39338C34.4545 5.3957 34.4635 5.39571 34.4726 5.39571ZM33.9188 5.44209C33.5521 5.32145 33.3077 5.12427 33.282 4.91547C32.7735 4.87255 32.3208 5.02565 32.262 5.26809C32.2031 5.51053 32.5592 5.7495 33.0617 5.81446C33.1839 5.61842 33.5099 5.47921 33.9188 5.44209ZM33.6487 6.5464C33.2821 6.42692 33.0376 6.22859 33.012 6.01979C32.5034 5.97687 32.0507 6.12997 31.9918 6.37241C31.933 6.61485 32.2892 6.85382 32.7916 6.91878C32.9139 6.72274 33.2413 6.58468 33.6487 6.5464ZM33.3786 7.65189C33.0119 7.53125 32.7675 7.33407 32.7418 7.12527C32.2333 7.08235 31.7805 7.23544 31.7217 7.47672C31.6628 7.71916 32.019 7.95813 32.5215 8.02309C32.6437 7.82705 32.9712 7.68901 33.3786 7.65189ZM32.0371 8.07761C31.6674 7.95697 31.423 7.75744 31.4004 7.54632C31.3913 7.54516 31.3822 7.54284 31.3732 7.54168C30.8465 7.486 30.3712 7.64263 30.3093 7.89087C30.249 8.14027 30.6262 8.38734 31.1529 8.44418C31.1619 8.44534 31.171 8.44535 31.18 8.44535C31.3053 8.25163 31.6312 8.11473 32.0371 8.07761ZM31.767 9.18193C31.3973 9.06129 31.1529 8.86179 31.1302 8.65067C31.1212 8.64951 31.1121 8.64717 31.103 8.64717C30.5764 8.59149 30.101 8.74692 30.0392 8.99632C29.9788 9.24572 30.3561 9.49282 30.8827 9.54966C30.8918 9.55082 30.9009 9.55083 30.9099 9.55083C31.0352 9.35711 31.3611 9.21905 31.767 9.18193ZM31.4969 10.2862C31.1272 10.1656 30.8827 9.96611 30.8601 9.75499C30.851 9.75383 30.8435 9.75151 30.8329 9.75035C30.3063 9.69467 29.8309 9.85126 29.769 10.0995C29.7087 10.3489 30.086 10.596 30.6126 10.6528C30.6217 10.654 30.6307 10.654 30.6412 10.654C30.765 10.4614 31.091 10.3245 31.4969 10.2862ZM30.5899 10.8605C30.5809 10.8593 30.5733 10.857 30.5628 10.8558C30.0361 10.8002 29.5609 10.9567 29.499 11.205C29.4386 11.4544 29.8158 11.7015 30.3425 11.7583C30.3515 11.7595 30.3606 11.7595 30.3712 11.7595C30.4949 11.5657 30.8208 11.4289 31.2267 11.3906C30.857 11.2711 30.6141 11.0716 30.5899 10.8605ZM32.2982 12.0703C31.9315 11.9509 31.687 11.7525 31.6614 11.5437C31.1528 11.5008 30.7001 11.6539 30.6412 11.8963C30.5824 12.1388 30.9386 12.3777 31.4411 12.4427C31.5648 12.2467 31.8907 12.1086 32.2982 12.0703ZM31.1709 13.547C31.2932 13.3521 31.6206 13.2141 32.028 13.1758C31.6613 13.0564 31.4169 12.858 31.3912 12.6492C30.8827 12.6063 30.4301 12.7594 30.3712 13.0018C30.3124 13.2431 30.6684 13.482 31.1709 13.547ZM30.1011 12.8649C30.2248 12.6712 30.5508 12.5344 30.9567 12.4961C30.587 12.3754 30.3425 12.1759 30.3199 11.9648C30.3109 11.9636 30.3033 11.9613 30.2927 11.9601C29.7661 11.9045 29.2892 12.0611 29.2289 12.3093C29.1685 12.5587 29.5458 12.8058 30.0724 12.8626C30.083 12.8649 30.092 12.8649 30.1011 12.8649ZM29.5458 12.9113C29.1821 12.7918 28.9377 12.597 28.909 12.3893C28.4442 12.3743 28.0488 12.5227 27.9945 12.7478C27.9402 12.9728 28.2435 13.1955 28.6916 13.2779C28.8169 13.0842 29.1414 12.9484 29.5458 12.9113ZM27.4256 13.7152C27.4347 13.7164 27.4437 13.7164 27.4542 13.7164C27.578 13.5226 27.904 13.3858 28.3099 13.3475C27.9402 13.2268 27.6957 13.0273 27.6731 12.8162C27.664 12.815 27.655 12.8127 27.6459 12.8116C27.1193 12.7559 26.6439 12.9125 26.582 13.1608C26.5217 13.4113 26.899 13.6584 27.4256 13.7152ZM27.1691 12.6573C26.8024 12.5378 26.558 12.3395 26.5323 12.1307C26.0238 12.0878 25.571 12.2409 25.5122 12.4833C25.4533 12.7257 25.8095 12.9647 26.312 13.0297C26.4342 12.8336 26.7617 12.6956 27.1691 12.6573ZM24.9433 13.4508C24.9523 13.4519 24.9614 13.4519 24.972 13.4519C25.0957 13.2582 25.4216 13.1213 25.8275 13.083C25.4578 12.9624 25.2134 12.7628 25.1907 12.5517C25.1817 12.5506 25.1742 12.5482 25.1637 12.5471C24.637 12.4914 24.1617 12.648 24.0998 12.8962C24.0394 13.1468 24.4166 13.3939 24.9433 13.4508ZM23.7874 12.7617C23.801 12.7628 23.8146 12.7629 23.8282 12.764C23.9504 12.5691 24.2779 12.4299 24.6853 12.3928C24.3186 12.2733 24.0741 12.075 24.0485 11.8662C24.0349 11.8639 24.0213 11.8615 24.0077 11.8592C23.4811 11.8035 23.0058 11.9601 22.9439 12.2084C22.8836 12.4578 23.2607 12.706 23.7874 12.7617ZM22.6753 12.0738C22.799 11.8801 23.125 11.7432 23.5309 11.7049C23.1612 11.5843 22.9167 11.3848 22.8941 11.1737C22.885 11.1725 22.8775 11.1702 22.8669 11.169C22.3403 11.1133 21.8649 11.2699 21.803 11.5182C21.7427 11.7676 22.12 12.0146 22.6466 12.0715C22.6557 12.0726 22.6662 12.0727 22.6753 12.0738ZM21.2629 12.4903C21.3851 12.2954 21.7125 12.1573 22.12 12.1191C21.7533 11.9996 21.5088 11.8012 21.4832 11.5924C20.9746 11.5495 20.5219 11.7026 20.4631 11.9451C20.4027 12.1863 20.7589 12.4253 21.2629 12.4903ZM20.1914 11.8082C20.3152 11.6145 20.6412 11.4776 21.0471 11.4393C20.6774 11.3187 20.4329 11.1191 20.4103 10.908C20.4012 10.9069 20.3937 10.9045 20.3831 10.9034C19.8565 10.8477 19.3811 11.0031 19.3192 11.2525C19.2589 11.5019 19.6362 11.749 20.1628 11.8059C20.1734 11.8082 20.1824 11.8082 20.1914 11.8082ZM18.7821 12.2212C18.9073 12.0286 19.2317 11.8929 19.6376 11.8546C19.274 11.7351 19.0295 11.5402 19.0008 11.3326C18.5361 11.3175 18.1408 11.466 18.0865 11.691C18.0306 11.9161 18.3339 12.1388 18.7821 12.2212ZM17.7877 11.5541C17.7967 11.5553 17.8057 11.5553 17.8148 11.5553C17.9385 11.3616 18.2645 11.2247 18.6704 11.1864C18.3007 11.0658 18.0562 10.8663 18.0336 10.6551C18.0245 10.654 18.0155 10.6517 18.0064 10.6505C17.4798 10.5948 17.0044 10.7503 16.9425 10.9997C16.8822 11.2502 17.261 11.4973 17.7877 11.5541ZM16.6725 10.8674C16.7947 10.6725 17.1222 10.5345 17.5296 10.4962C17.1629 10.3756 16.9185 10.1784 16.8928 9.96958C16.3843 9.92666 15.9315 10.0798 15.8727 10.3222C15.8138 10.5635 16.17 10.8024 16.6725 10.8674ZM15.5739 10.1842C15.583 10.1853 15.592 10.1853 15.6026 10.1853C15.7263 9.99163 16.0523 9.85472 16.4582 9.81644C16.0885 9.6958 15.844 9.49631 15.8214 9.28519C15.8123 9.28403 15.8048 9.28171 15.7942 9.28055C15.2676 9.22487 14.7908 9.38146 14.7304 9.6297C14.6701 9.88026 15.0473 10.1285 15.5739 10.1842ZM14.418 9.49628C14.4316 9.49744 14.4452 9.49746 14.4587 9.49862C14.581 9.30374 14.9085 9.16453 15.3159 9.12741C14.9492 9.00677 14.7047 8.80959 14.679 8.60079C14.6655 8.59847 14.6519 8.59615 14.6383 8.59499C14.1117 8.53931 13.6363 8.69474 13.5745 8.94414C13.5141 9.19238 13.8914 9.43944 14.418 9.49628ZM13.2773 8.80611C13.2863 8.80727 13.2954 8.80725 13.3044 8.80725C13.4282 8.61353 13.754 8.47666 14.16 8.43838C13.7903 8.31774 13.5458 8.11821 13.5232 7.90709C13.5141 7.90593 13.5051 7.90361 13.496 7.90245C12.9694 7.84677 12.4941 8.0022 12.4322 8.2516C12.3734 8.50216 12.7506 8.74927 13.2773 8.80611ZM13.0207 7.74817C12.654 7.62869 12.4095 7.43032 12.3839 7.22152C11.8753 7.1786 11.4227 7.33174 11.3638 7.57418C11.305 7.81662 11.6611 8.05559 12.1636 8.12055C12.2858 7.92451 12.6117 7.78645 13.0207 7.74817ZM10.7949 8.54047C10.804 8.54163 10.813 8.5416 10.8221 8.5416C10.9458 8.34788 11.2718 8.21101 11.6777 8.17273C11.308 8.05209 11.0636 7.85256 11.0409 7.64144C11.0319 7.64028 11.0228 7.63796 11.0138 7.6368C10.4871 7.58112 10.0102 7.73775 9.94989 7.98599C9.89104 8.23771 10.2683 8.48479 10.7949 8.54047ZM9.68279 7.85027C9.80804 7.65771 10.1324 7.52082 10.5369 7.4837C10.1732 7.36422 9.92873 7.16932 9.90006 6.96168C9.43529 6.9466 9.03999 7.09511 8.98567 7.32015C8.93135 7.54519 9.23462 7.76791 9.68279 7.85027Z" fill="#B7CCCE"/>
<path d="M36.1466 5.04247C36.1738 5.03087 36.204 5.02277 36.2357 5.01465C34.5909 5.89277 33.2343 7.56665 32.7409 9.58505C32.4164 10.9133 32.5205 12.1753 32.9536 13.2205C32.7544 13.2275 32.5658 13.1903 32.5175 13.0882C31.2771 10.4713 32.3183 6.61079 36.1466 5.04247Z" fill="#657577"/>
<path d="M36.0615 5.67005C36.0826 5.65961 36.1067 5.65149 36.1324 5.64453C34.8422 6.45885 33.8478 7.99817 33.5897 9.84373C33.4192 11.0582 33.5973 12.2078 34.0303 13.1578C33.8674 13.166 33.7089 13.1346 33.6621 13.0407C32.4489 10.6627 33.0239 7.13282 36.0615 5.67005Z" fill="#657577"/>
<path opacity="0.47" d="M1.05664 9.03655C2.07069 7.15967 2.48258 5.16563 1.59378 3.29688C3.29895 3.51727 4.82458 3.88731 6.04083 4.34667C6.33358 4.64247 6.60519 4.94525 6.84663 5.25845C6.92057 5.35357 7.1937 5.91733 7.37327 6.01941C7.74147 6.22821 8.1534 6.29316 8.5729 6.27692C8.55328 6.48108 8.52013 6.6864 8.46883 6.89288C8.37829 7.2606 8.23946 7.61558 8.05989 7.95546C6.59616 8.38698 4.89553 8.60271 3.43029 9.04119C2.68032 9.07947 1.88357 9.07831 1.05664 9.03655Z" fill="#B7CCCE"/>
<path opacity="0.47" d="M2.01682 4.66309C4.13545 4.92061 5.97046 5.35326 7.20934 5.84974C7.26669 5.92746 7.32251 5.99013 7.3708 6.01797C7.58206 6.13861 7.80989 6.20705 8.04379 6.24301C8.23543 6.35205 8.39385 6.46225 8.5206 6.57361C8.50249 6.67917 8.49352 6.78471 8.46635 6.89143C8.37883 7.25103 8.24302 7.59673 8.06949 7.92849C7.97593 7.96561 7.8718 8.00041 7.76315 8.03405C7.57453 8.08509 7.38282 8.13379 7.18816 8.18019C5.81195 8.47135 3.72349 8.55023 1.39209 8.35535C1.94287 7.14083 2.21148 5.88805 2.01682 4.66309Z" fill="#B7CCCE"/>
</svg>
