<svg width="14" height="14" viewBox="0 0 14 14" fill="none" xmlns="http://www.w3.org/2000/svg">
<path opacity="0.45" d="M13.2127 6.97802C13.2127 10.6321 10.2546 13.593 6.60633 13.593C2.95627 13.593 0 10.6302 0 6.97802C0 3.32036 2.95808 0.359375 6.60633 0.359375C10.2546 0.359375 13.2127 3.32217 13.2127 6.97802Z" fill="url(#paint0_radial_1_4979)"/>
<path opacity="0.6" d="M9.62441 2.17087C10.3399 3.74025 9.07192 5.85213 6.79675 6.89173C4.51976 7.92771 2.09967 7.4977 1.38415 5.92832C0.672256 4.35893 1.94026 2.24709 4.21543 1.20748C6.49061 0.171507 8.9107 0.601483 9.62441 2.17087Z" fill="url(#paint1_radial_1_4979)"/>
<defs>
<radialGradient id="paint0_radial_1_4979" cx="0" cy="0" r="1" gradientUnits="userSpaceOnUse" gradientTransform="translate(4.40181 4.48586) scale(10.1758 10.1919)">
<stop stop-color="#6CEFEF"/>
<stop offset="0.1339" stop-color="#5CE5E8"/>
<stop offset="0.3941" stop-color="#33CCD4"/>
<stop offset="0.5212" stop-color="#1CBECA"/>
<stop offset="1" stop-color="#FFF578"/>
</radialGradient>
<radialGradient id="paint1_radial_1_4979" cx="0" cy="0" r="1" gradientUnits="userSpaceOnUse" gradientTransform="translate(4.91683 2.78648) scale(4.30453 4.31136)">
<stop stop-color="white"/>
<stop offset="0.0888" stop-color="#EFEFEF"/>
<stop offset="0.2624" stop-color="#C7C5C6"/>
<stop offset="0.5038" stop-color="#858182"/>
<stop offset="0.801" stop-color="#2C2527"/>
<stop offset="0.8788" stop-color="#130C0E"/>
</radialGradient>
</defs>
</svg>
