<svg width="1582" height="818" viewBox="0 0 1582 818" fill="none" xmlns="http://www.w3.org/2000/svg">
<path d="M855.025 752.565C613.078 790.242 501.366 752.104 0 738.524V817.998H1533.23V777.098C1488.29 783.306 1616.04 789.204 1438.23 727.502C1292.93 711.635 1012.35 728.064 855.025 752.565Z" fill="#1B9297"/>
<path d="M430.837 767.557C339.865 762.082 179.388 726.657 0 738.526V818H6.44416C89.398 792.087 293.199 783.974 430.837 767.557Z" fill="#6AA7AA"/>
<path d="M1515.11 657.804C1515.11 657.804 1482.78 711.06 1504.1 782.551L1514.83 780.506C1493.18 710.466 1515.11 657.804 1515.11 657.804Z" fill="#374F48"/>
<path d="M430.346 646.763C430.346 646.763 481.076 696.626 458.053 769.698L444.893 770.965C468.034 699.438 430.346 646.763 430.346 646.763Z" fill="#374F48"/>
<path d="M1496.71 599.623C1496.62 635.113 1458.72 709.62 1484.92 784.452L1492.82 775.14C1467.38 686.902 1508.28 638.386 1496.71 599.623Z" fill="#374F48"/>
<path d="M832.645 682.446C851.259 660.389 835.401 643.399 817.134 637.14C827.856 647.572 843.54 661.88 817.153 685.724C790.767 709.569 794.125 749.313 827.05 776.039L841.473 775.444C802.703 722.685 814.031 704.503 832.645 682.446Z" fill="#00847C"/>
<path d="M1499.9 691.919C1483.48 678.067 1509.54 625.247 1509.54 625.247C1479.13 677.399 1485.62 688.28 1499.22 699.724C1520.8 717.887 1498.32 759.07 1503.36 778.883L1514.25 780.327C1503.98 733.482 1534.17 720.826 1499.9 691.919Z" fill="#00847C"/>
<path d="M892.302 591.168C838.591 627.286 849.934 647.056 871.877 669.269C899.656 697.393 864.644 745.748 870.901 771.312L886.822 770.213C876.054 712.657 914.087 703.044 873.641 660.004C847.109 631.772 892.302 591.168 892.302 591.168Z" fill="#00847C"/>
<path d="M871.877 669.269C875.233 672.667 877.655 676.365 879.363 680.278C881.457 678.676 883.483 676.842 885.422 674.81C882.565 670.294 878.723 665.413 873.64 660.004C847.109 631.772 892.303 591.168 892.303 591.168C838.592 627.286 849.936 647.056 871.877 669.269Z" fill="#559374"/>
<path d="M900.25 676.337C899.663 693.337 830.903 718.107 841.919 775.01L860.053 773.642C853.685 708.904 915.981 693.466 909.642 676.208C897.4 642.879 910.493 640.28 920.732 618.108C889.749 639.864 900.861 658.694 900.25 676.337Z" fill="#00847C"/>
<path d="M1580.5 785.934H717.749C717.749 785.934 766.845 769.559 856.531 765.92C946.216 762.282 1072.44 765.92 1125.59 758.643C1178.73 751.365 1327.38 754.094 1365.58 766.83C1403.78 779.566 1504.1 764.101 1580.5 785.934Z" fill="#336668"/>
<path d="M1208.83 773.652C1320.55 773.652 1421.24 776.588 1495.49 773.603C1441.2 771.795 1379.26 773.121 1355.61 765.237C1317.41 752.501 1176.14 753.694 1125.38 756.595C1072.23 763.872 946.214 762.28 856.528 765.919C845.76 766.356 835.437 766.979 825.582 767.734C878.877 773.213 1000.24 767.036 1145.51 767.056C1166.43 767.059 1187.02 773.652 1208.83 773.652Z" fill="#82B7BC"/>
<path d="M855.076 763.416C783.03 766.339 735.3 779.976 717.336 784.245C795.294 772.058 836.917 782.806 900.397 777.814C952.543 773.715 993.966 768.331 1015.35 763.535C963.167 764.107 903.149 761.465 855.076 763.416Z" fill="#82B7BC"/>
<path d="M861.974 763.171C882.781 765.553 910.963 764.213 941.234 764.213C982.107 764.213 1017.4 764.699 1038.39 760.688C991.754 759.646 923.634 758.524 861.974 763.171Z" fill="#336668"/>
<path d="M1312.73 782.068H1417.89C1433.6 778.869 1414.05 773.135 1414.05 773.135C1414.05 773.135 1418.1 777.407 1367.34 779.219C1316.58 781.032 1313.47 776.501 1243.4 771.581C1173.34 766.661 1176.68 773.795 1056.87 776.242C968.118 778.055 965.005 770.156 965.005 770.156L934.487 772.616C934.487 772.616 940.414 777.765 956.701 782.067H1078.05C1179.94 766.664 1219.87 777.029 1312.73 782.068Z" fill="#82B7BC"/>
<path d="M899.254 679.875C902.699 680.441 906.089 681.126 909.4 681.934C910.19 680.002 910.342 678.116 909.643 676.208C897.4 642.879 910.492 640.28 920.732 618.108C889.748 639.863 900.86 658.693 900.25 676.337C900.211 677.48 899.864 678.656 899.254 679.875Z" fill="#559374"/>
<path d="M717.336 775.635V785.931H768.818L717.336 775.635Z" fill="#336668"/>
<path d="M1582 775.635V785.931H1530.52L1582 775.635Z" fill="#336668"/>
<path d="M402.446 711.738C362.631 717.182 223.374 742.086 105.413 766.972L491.982 764.544C491.982 764.544 442.26 706.294 402.446 711.738Z" fill="#00847C"/>
<path d="M130.54 636.953C92.622 676.058 106.295 690.124 118.885 705.515C135.143 725.391 122.58 755.403 127.567 767.742L141.475 768.49C132.412 738.481 151.216 733.633 121.643 702.926C99.4648 679.895 130.54 636.953 130.54 636.953Z" fill="#336668"/>
<path d="M681.133 624.369C633.388 641.125 632.471 655.668 637.607 673.695C644.4 697.532 596.445 732.541 587.644 755.591L600.399 756.298C621.018 706.736 651.919 703.432 642.725 667.323C637.057 645.059 681.133 624.369 681.133 624.369Z" fill="#00847C"/>
<path d="M600.399 756.298C612.272 727.759 627.54 714.558 636.614 701.599C635.153 699.796 626.384 705.1 623.037 709.331C610.015 725.788 592.609 742.591 587.644 755.59L600.399 756.298Z" fill="#00847C"/>
<path d="M661.105 499.451C614.205 531.772 614.023 559.824 620.068 594.593C628.063 640.571 581.874 708.095 574.234 752.556L587.024 753.922C605.144 658.326 635.877 651.952 624.864 582.302C618.074 539.36 661.105 499.451 661.105 499.451Z" fill="#00847C"/>
<path d="M620.792 600.962C623.935 646.635 581.529 710.105 574.234 752.559L587.024 753.925C602.985 669.716 628.728 654.732 627.109 604.752C624.866 603.693 622.758 602.422 620.792 600.962Z" fill="#00847C"/>
<path d="M636.588 610.527C629.66 634.653 569.97 656.959 549.717 753.012L564.64 754.378C590.756 647.856 640.852 638.296 642.984 612.348C646.901 564.664 656.307 564.094 670.165 538.146C642.984 559.085 643.517 586.4 636.588 610.527Z" fill="#00847C"/>
<path d="M588.592 666.3C573.236 686.146 558.099 713.26 549.717 753.012L564.64 754.378C576.671 705.303 593.792 676.816 608.967 657.816C602.033 661.264 595.194 664.118 588.592 666.3Z" fill="#00847C"/>
<path d="M780.487 771.828H45.7227C45.7227 771.828 112.358 757.868 185.213 758.474C258.067 759.081 246.517 774.863 300.714 754.833C354.911 734.803 376.233 763.937 410.884 761.509C445.535 759.081 501.509 739.051 544.154 742.086C586.801 745.12 593.019 760.294 675.647 753.618C758.275 746.942 780.487 771.828 780.487 771.828Z" fill="#336668"/>
<path d="M583.12 773.875C635.637 769.22 835.983 769.446 854.779 761.543C797.283 743.82 685.732 748.538 675.88 749.335C593.253 756.011 586.502 743.302 543.855 740.267C501.208 737.232 445.534 759.082 410.883 761.511C430.336 771.83 520.763 762.091 583.12 773.875Z" fill="#00847C"/>
<path d="M554.559 747.324C554.559 744.35 545.314 741.938 533.908 741.938C522.502 741.938 513.257 744.349 513.257 747.324C513.257 750.297 522.235 749.599 533.641 749.599C545.047 749.599 554.559 750.297 554.559 747.324Z" fill="#336668"/>
<path d="M442.829 763.651C400.301 736.627 261.142 745.927 202.879 765.014C261.908 768.422 406.032 765.696 442.829 763.651Z" fill="#00847C"/>
<path d="M296.599 671.358C296.676 671.29 296.728 671.244 296.728 671.244C296.662 671.14 296.595 671.039 296.527 670.937C296.527 670.936 296.526 670.936 296.526 670.934C296.501 670.896 296.477 670.859 296.452 670.821C295.325 669.06 294.152 667.32 292.945 665.6C292.34 664.735 291.7 663.89 291.075 663.037C290.523 662.283 289.989 661.518 289.422 660.772C289.407 660.765 289.391 660.758 289.378 660.75C289.039 660.306 288.725 659.849 288.381 659.407C288.383 659.406 288.383 659.406 288.383 659.405C288.367 659.386 288.352 659.368 288.338 659.349C288.004 658.919 287.647 658.502 287.306 658.075C286.452 657.005 285.6 655.932 284.715 654.878C284.711 654.884 284.707 654.893 284.703 654.899C284.134 654.221 283.574 653.538 282.993 652.869C282.998 652.87 283.002 652.87 283.007 652.872C282.47 652.254 281.902 651.657 281.356 651.045C281.359 651.032 281.36 651.017 281.363 651.005C280.421 649.953 279.465 648.907 278.492 647.876C278.277 647.65 278.061 647.421 277.852 647.188C277.797 647.126 277.75 647.061 277.696 646.998C277.546 646.824 277.394 646.651 277.257 646.469C276.89 645.979 276.589 645.459 276.434 644.891C276.538 645.988 276.595 647.087 276.626 648.187C276.635 648.493 276.632 648.797 276.637 649.102C276.644 649.929 276.635 650.758 276.603 651.586C276.529 653.471 276.351 655.351 276.068 657.222C275.997 657.684 275.927 658.146 275.844 658.607C275.81 658.798 275.781 658.987 275.744 659.178C275.694 659.447 275.629 659.713 275.574 659.979C275.456 660.551 275.341 661.124 275.203 661.694C275.175 661.805 275.142 661.916 275.114 662.028C275.033 662.349 274.941 662.67 274.853 662.992C274.754 663.36 274.66 663.728 274.553 664.094C274.459 664.411 274.357 664.724 274.258 665.039C274.071 665.63 273.883 666.219 273.676 666.803C271.608 664.165 269.124 661.775 266.33 659.696C266.329 659.692 266.329 659.688 266.327 659.684C266.289 659.656 266.247 659.631 266.209 659.602C265.623 659.17 265.018 658.76 264.406 658.356C264.213 658.228 264.029 658.093 263.833 657.969C263.209 657.571 262.566 657.199 261.918 656.831C261.715 656.715 261.519 656.591 261.315 656.479C260.653 656.118 259.972 655.784 259.288 655.455C259.084 655.357 258.889 655.248 258.684 655.154C257.793 654.742 256.885 654.358 255.961 654.004C259.673 655.876 262.072 659.167 263.268 662.783C263.443 663.309 263.584 663.844 263.707 664.381C263.747 664.558 263.8 664.733 263.834 664.91C263.975 665.621 264.078 666.337 264.128 667.05C264.173 667.684 264.187 668.318 264.176 668.951C264.17 669.245 264.142 669.54 264.127 669.834C264.109 670.169 264.099 670.505 264.069 670.839C264.033 671.221 263.975 671.601 263.925 671.981C263.891 672.227 263.868 672.471 263.829 672.716C263.762 673.14 263.678 673.561 263.595 673.984C263.048 676.764 262.195 679.521 261.335 682.243C262.655 679.735 264.038 677.151 266.407 675.307C268.642 673.566 271.615 672.58 273.84 670.883C274.048 671.552 274.258 672.22 274.43 672.896C274.519 673.244 274.591 673.596 274.671 673.946C274.787 674.454 274.895 674.963 274.996 675.474C274.377 675.74 273.786 676.055 273.283 676.49C273.152 676.603 273.046 676.743 272.928 676.87C272.912 676.876 272.895 676.88 272.879 676.884C272.811 676.956 272.757 677.042 272.695 677.118C272.603 677.229 272.512 677.341 272.428 677.458C272.308 677.624 272.196 677.795 272.091 677.972C272.018 678.09 271.945 678.206 271.877 678.329C271.765 678.534 271.661 678.742 271.558 678.955C271.509 679.057 271.456 679.157 271.408 679.26C271.272 679.559 271.14 679.861 271.01 680.161C271.005 680.174 270.999 680.185 270.994 680.195C270.504 681.339 270.013 682.482 269.539 683.635C270.085 682.979 270.654 682.347 271.235 681.726C271.385 681.564 271.542 681.409 271.695 681.249C272.164 680.763 272.642 680.287 273.132 679.823C273.268 679.694 273.403 679.564 273.541 679.437C274.151 678.874 274.775 678.325 275.416 677.796C275.484 678.209 275.554 678.622 275.615 679.035C275.686 679.508 275.758 679.981 275.824 680.456C275.94 681.296 276.054 682.137 276.164 682.977C276.333 684.272 276.5 685.592 276.195 686.868C276.339 686.795 276.477 686.715 276.62 686.641C277.303 686.29 277.972 685.917 278.628 685.532C278.815 685.421 279.001 685.312 279.186 685.199C279.418 685.058 279.652 684.919 279.881 684.775C280.413 684.438 280.94 684.095 281.459 683.74C281.5 683.711 281.541 683.681 281.583 683.651C282.314 683.15 283.029 682.63 283.737 682.101C283.881 681.994 284.027 681.886 284.171 681.777C284.855 681.259 285.532 680.735 286.202 680.202C286.204 680.202 286.204 680.201 286.205 680.201C286.253 680.163 286.3 680.123 286.348 680.085C286.35 680.084 286.35 680.084 286.351 680.082C286.943 679.609 287.53 679.133 288.116 678.656C288.498 678.345 288.878 678.033 289.258 677.722C289.525 677.504 289.812 677.264 290.107 677.016C290.147 676.982 290.187 676.949 290.229 676.915C290.532 676.66 290.843 676.394 291.162 676.122C291.162 676.122 291.162 676.122 291.164 676.12C291.838 675.544 292.532 674.944 293.194 674.366C293.2 674.36 293.206 674.355 293.212 674.349C294.773 672.986 296.135 671.774 296.576 671.38C296.582 671.375 296.588 671.369 296.599 671.358Z" fill="#409296"/>
<g opacity="0.54">
<path d="M255.959 654.004C263.161 656.76 269.428 661.312 273.81 666.971L275.063 669.79C272.831 672.235 269.079 673.222 266.403 675.305C264.036 677.15 262.653 679.733 261.331 682.242C262.901 677.272 264.487 672.193 264.127 667.05C263.766 661.909 261.105 656.6 255.959 654.004Z" fill="#556466"/>
<path d="M255.959 654.005C259.714 655.441 263.211 657.37 266.324 659.686C266.984 662.414 267.355 665.446 267.355 668.645C267.355 670.848 267.179 672.972 266.856 674.973C266.702 675.081 266.551 675.192 266.403 675.306C264.036 677.151 262.653 679.734 261.331 682.243C262.901 677.273 264.487 672.194 264.127 667.051C263.766 661.91 261.104 656.601 255.959 654.005Z" fill="#455051"/>
<path d="M255.959 654.004C263.161 656.76 269.428 661.312 273.81 666.971L275.063 669.79C272.831 672.235 269.079 673.222 266.403 675.305C264.036 677.15 262.653 679.733 261.331 682.242C262.901 677.272 264.487 672.193 264.127 667.05C263.766 661.909 261.105 656.6 255.959 654.004Z" fill="#495A5B"/>
<path d="M263.202 662.549C268.053 663.255 271.629 665.68 271.629 668.564C271.629 671.39 268.194 673.776 263.49 674.534C264.013 672.059 264.303 669.563 264.127 667.053C264.021 665.541 263.71 664.017 263.202 662.549Z" fill="#556466"/>
<path opacity="0.46" d="M255.959 654.005C259.714 655.441 263.211 657.37 266.324 659.686C266.984 662.414 267.355 665.446 267.355 668.645C267.355 670.848 267.179 672.972 266.856 674.973C266.702 675.081 266.551 675.192 266.403 675.306C264.036 677.151 262.653 679.734 261.331 682.243C262.901 677.273 264.487 672.194 264.127 667.051C263.766 661.91 261.104 656.601 255.959 654.005Z" fill="#455051"/>
<path d="M273.594 667.039C276.17 659.905 277.139 652.341 276.433 644.892C276.743 646.03 277.637 646.971 278.493 647.877C285.377 655.163 291.49 662.995 296.729 671.242C296.729 671.242 292.054 675.429 289.254 677.725C285.179 681.066 281.055 684.44 276.191 686.867C276.498 685.591 276.329 684.271 276.16 682.976C275.587 678.575 275.007 674.147 273.549 669.902C273.401 669.471 273.243 669.035 273.232 668.585C273.22 668.056 273.411 667.542 273.594 667.039Z" fill="#556466"/>
<path d="M296.528 670.937C296.289 671.377 295.984 671.809 295.618 672.232C294.977 672.8 294.117 673.56 293.188 674.371C288.91 677.377 281.894 679.684 275.865 680.762C275.365 677.098 274.763 673.437 273.548 669.905C273.4 669.474 273.242 669.038 273.231 668.588C273.219 668.06 273.41 667.546 273.593 667.042C274.842 663.58 275.712 660.015 276.196 656.413C280.595 657.275 285.475 658.808 289.42 660.772C291.938 664.08 294.313 667.47 296.528 670.937Z" fill="#495A5B"/>
<path d="M288.476 660.719C288.783 660.861 289.094 661.001 289.39 661.149C291.641 664.11 293.768 667.142 295.759 670.241C295.538 670.216 295.313 670.2 295.081 670.2C293.942 670.2 292.92 670.517 292.207 671.021C290.951 669.684 289.847 667.802 289.156 665.612C288.605 663.877 288.394 662.193 288.476 660.719Z" fill="#5E7272"/>
<path d="M294.075 671.381C294.578 671.033 295.343 670.806 296.211 670.806C296.294 670.806 296.372 670.815 296.452 670.819C296.545 670.96 296.637 671.1 296.728 671.242C296.728 671.242 296.666 671.298 296.57 671.384C295.736 671.306 294.905 671.305 294.075 671.381Z" fill="#313A3A"/>
<path d="M284.714 654.88C285.965 656.372 287.193 657.877 288.382 659.405C285.536 661.794 286.787 673.111 291.158 676.125C290.482 676.703 289.827 677.255 289.254 677.726C288.874 678.037 288.494 678.349 288.112 678.66C283.843 674.362 282.068 658.422 284.714 654.88Z" fill="#ACC4C6"/>
<path d="M277.255 646.472C277.624 646.964 278.063 647.426 278.49 647.88C279.464 648.911 280.419 649.957 281.362 651.009C279.939 656.93 282.509 676.591 286.2 680.205C285.181 681.015 284.151 681.811 283.096 682.581C279.673 678.34 276.252 654.073 277.255 646.472Z" fill="#ACC4C6"/>
<path d="M276.076 657.27C275.313 666.284 276.432 675.539 279.877 684.779C278.824 685.445 277.738 686.066 276.616 686.644C276.147 677.389 273.64 672.616 273.973 665.95C274.926 663.109 275.63 660.204 276.076 657.27Z" fill="#ACC4C6"/>
<path d="M270.992 680.196C271.578 678.832 272.19 677.43 273.28 676.489C274.171 675.721 275.32 675.314 276.45 674.919C278.782 674.104 281.116 673.287 283.448 672.472L282.777 672.856C277.708 675.561 273.215 679.219 269.537 683.635C270.009 682.483 270.502 681.339 270.992 680.196Z" fill="#455051"/>
<path d="M290.003 669.068C290.003 668.759 290.003 668.451 290.003 668.141C290.003 667.675 291.318 667.349 291.318 667.89C291.318 668.2 291.318 668.508 291.318 668.817C291.317 669.284 290.003 669.61 290.003 669.068Z" fill="#313A3A"/>
<path d="M287.686 660.813C287.234 662.412 287.014 664.237 287.099 666.175C287.264 670.052 288.592 673.474 290.484 675.537C290.456 675.526 290.42 675.525 290.395 675.513C287.703 674.189 287.341 671.888 286.714 670.074C285.733 667.234 286.869 660.675 287.686 660.813Z" fill="#313A3A"/>
<g opacity="0.46">
<path d="M276.593 652.113C276.711 649.705 276.66 647.292 276.432 644.891C276.741 646.029 277.635 646.97 278.491 647.875C280.036 649.511 281.539 651.18 283.006 652.871C280.973 652.455 278.823 652.194 276.593 652.113Z" fill="#455051"/>
<path d="M275.995 681.711C279.716 681.628 283.224 681.05 286.347 680.083C283.187 682.606 279.905 685.012 276.191 686.866C276.498 685.59 276.329 684.27 276.161 682.975C276.106 682.554 276.05 682.133 275.995 681.711Z" fill="#455051"/>
</g>
<path d="M277.656 676.062C274.652 678.234 271.921 680.773 269.537 683.636C270.009 682.482 270.5 681.339 270.992 680.196C271.501 679.01 272.032 677.798 272.875 676.883C273.108 676.814 273.343 676.743 273.583 676.681C274.985 676.317 276.365 676.118 277.656 676.062Z" fill="#556466"/>
</g>
<path d="M355.502 617.208C355.578 617.14 355.631 617.094 355.631 617.094C355.565 616.99 355.498 616.889 355.43 616.787C355.43 616.786 355.429 616.784 355.429 616.784C355.404 616.746 355.38 616.709 355.355 616.671C354.228 614.91 353.055 613.17 351.849 611.45C351.243 610.585 350.604 609.74 349.978 608.887C349.426 608.133 348.893 607.368 348.327 606.622C348.312 606.615 348.296 606.609 348.281 606.6C347.944 606.156 347.628 605.699 347.284 605.257C347.286 605.257 347.286 605.256 347.286 605.255C347.271 605.236 347.255 605.218 347.241 605.199C346.907 604.769 346.55 604.354 346.21 603.925C345.356 602.855 344.503 601.782 343.618 600.728C343.614 600.734 343.611 600.743 343.608 600.749C343.039 600.071 342.479 599.388 341.898 598.719C341.903 598.72 341.907 598.72 341.912 598.722C341.375 598.104 340.806 597.507 340.261 596.895C340.264 596.882 340.265 596.868 340.268 596.855C339.325 595.803 338.37 594.757 337.397 593.726C337.182 593.5 336.966 593.271 336.757 593.038C336.702 592.977 336.655 592.911 336.601 592.848C336.451 592.674 336.299 592.501 336.162 592.319C335.794 591.829 335.494 591.309 335.339 590.741C335.443 591.838 335.5 592.937 335.531 594.037C335.54 594.343 335.537 594.647 335.54 594.952C335.548 595.78 335.538 596.608 335.506 597.436C335.433 599.321 335.255 601.202 334.971 603.072C334.9 603.534 334.83 603.996 334.747 604.457C334.713 604.647 334.684 604.838 334.648 605.028C334.597 605.297 334.533 605.563 334.477 605.829C334.359 606.401 334.244 606.975 334.106 607.544C334.079 607.656 334.045 607.766 334.017 607.878C333.936 608.201 333.844 608.52 333.757 608.842C333.657 609.21 333.564 609.578 333.456 609.945C333.363 610.261 333.26 610.574 333.162 610.889C332.975 611.48 332.786 612.07 332.579 612.654C330.511 610.015 328.027 607.626 325.233 605.546C325.232 605.542 325.232 605.538 325.23 605.534C325.192 605.506 325.151 605.481 325.112 605.452C324.527 605.02 323.921 604.61 323.309 604.206C323.116 604.078 322.932 603.943 322.736 603.819C322.112 603.421 321.469 603.049 320.821 602.681C320.618 602.565 320.422 602.441 320.218 602.329C319.556 601.968 318.877 601.634 318.191 601.305C317.987 601.207 317.793 601.098 317.587 601.004C316.696 600.592 315.789 600.208 314.864 599.855C318.576 601.726 320.976 605.018 322.172 608.633C322.346 609.159 322.487 609.694 322.61 610.232C322.65 610.409 322.704 610.584 322.737 610.761C322.878 611.473 322.981 612.189 323.032 612.902C323.076 613.536 323.09 614.17 323.079 614.802C323.075 615.097 323.046 615.391 323.03 615.686C323.012 616.021 323.003 616.356 322.972 616.69C322.937 617.072 322.88 617.452 322.828 617.833C322.796 618.078 322.771 618.324 322.733 618.568C322.665 618.992 322.581 619.413 322.497 619.836C321.949 622.615 321.097 625.372 320.237 628.095C321.557 625.586 322.94 623.003 325.309 621.158C327.544 619.417 330.517 618.431 332.742 616.734C332.95 617.403 333.16 618.071 333.332 618.748C333.421 619.095 333.493 619.447 333.573 619.797C333.689 620.305 333.797 620.814 333.898 621.326C333.278 621.592 332.688 621.905 332.185 622.34C332.053 622.454 331.947 622.594 331.829 622.72C331.814 622.726 331.797 622.73 331.78 622.734C331.713 622.806 331.659 622.892 331.596 622.968C331.504 623.079 331.414 623.191 331.33 623.308C331.21 623.473 331.098 623.645 330.992 623.822C330.92 623.941 330.847 624.056 330.779 624.179C330.667 624.384 330.563 624.592 330.46 624.805C330.411 624.907 330.358 625.007 330.31 625.11C330.172 625.409 330.042 625.711 329.911 626.011C329.907 626.024 329.901 626.035 329.896 626.047C329.405 627.191 328.915 628.333 328.441 629.487C328.987 628.832 329.556 628.198 330.137 627.578C330.287 627.417 330.443 627.26 330.597 627.101C331.066 626.614 331.543 626.138 332.033 625.675C332.17 625.545 332.305 625.416 332.443 625.289C333.053 624.726 333.677 624.176 334.318 623.647C334.385 624.061 334.456 624.474 334.517 624.887C334.588 625.36 334.66 625.833 334.726 626.307C334.842 627.147 334.956 627.988 335.066 628.828C335.235 630.122 335.402 631.443 335.097 632.719C335.241 632.647 335.379 632.566 335.521 632.493C336.205 632.141 336.872 631.769 337.53 631.383C337.717 631.274 337.903 631.163 338.088 631.05C338.32 630.91 338.554 630.771 338.783 630.626C339.315 630.29 339.842 629.946 340.36 629.592C340.403 629.563 340.443 629.533 340.486 629.503C341.217 629.001 341.932 628.482 342.64 627.953C342.784 627.845 342.93 627.737 343.074 627.628C343.758 627.11 344.436 626.587 345.106 626.054C345.107 626.054 345.107 626.052 345.109 626.052C345.156 626.014 345.204 625.975 345.253 625.936C345.254 625.935 345.254 625.935 345.256 625.934C345.848 625.461 346.435 624.985 347.021 624.508C347.402 624.197 347.783 623.886 348.163 623.574C348.43 623.356 348.716 623.116 349.012 622.868C349.052 622.833 349.092 622.801 349.133 622.767C349.437 622.512 349.748 622.246 350.067 621.973C350.067 621.973 350.067 621.973 350.069 621.972C350.743 621.395 351.436 620.795 352.099 620.217C352.105 620.212 352.111 620.206 352.117 620.201C353.678 618.838 355.039 617.626 355.481 617.232C355.484 617.223 355.49 617.218 355.502 617.208Z" fill="#409296"/>
<g opacity="0.54">
<path d="M314.861 599.858C322.063 602.613 328.331 607.165 332.713 612.825L333.965 615.644C331.733 618.088 327.981 619.075 325.306 621.159C322.938 623.003 321.554 625.587 320.234 628.095C321.804 623.126 323.389 618.046 323.029 612.904C322.669 607.763 320.007 602.452 314.861 599.858Z" fill="#556466"/>
<path d="M314.861 599.856C318.616 601.293 322.113 603.221 325.226 605.537C325.887 608.265 326.258 611.297 326.258 614.495C326.258 616.699 326.081 618.823 325.758 620.824C325.605 620.932 325.453 621.042 325.307 621.157C322.94 623.001 321.555 625.585 320.235 628.093C321.805 623.124 323.391 618.044 323.03 612.902C322.669 607.761 320.007 602.45 314.861 599.856Z" fill="#455051"/>
<path d="M314.861 599.858C322.063 602.613 328.331 607.165 332.713 612.825L333.965 615.644C331.733 618.088 327.981 619.075 325.306 621.159C322.938 623.003 321.554 625.587 320.234 628.095C321.804 623.126 323.389 618.046 323.029 612.904C322.669 607.763 320.007 602.452 314.861 599.858Z" fill="#495A5B"/>
<path d="M322.104 608.399C326.956 609.106 330.531 611.531 330.531 614.414C330.531 617.241 327.097 619.626 322.393 620.384C322.916 617.909 323.205 615.414 323.029 612.904C322.923 611.392 322.614 609.868 322.104 608.399Z" fill="#556466"/>
<path opacity="0.46" d="M314.861 599.856C318.616 601.293 322.113 603.221 325.226 605.537C325.887 608.265 326.258 611.297 326.258 614.495C326.258 616.699 326.081 618.823 325.758 620.824C325.605 620.932 325.453 621.042 325.307 621.157C322.94 623.001 321.555 625.585 320.235 628.093C321.805 623.124 323.391 618.044 323.03 612.902C322.669 607.761 320.007 602.45 314.861 599.856Z" fill="#455051"/>
<path d="M332.496 612.892C335.072 605.758 336.041 598.194 335.336 590.745C335.645 591.883 336.539 592.824 337.395 593.729C344.279 601.015 350.392 608.847 355.631 617.094C355.631 617.094 350.956 621.281 348.157 623.577C344.081 626.918 339.957 630.291 335.093 632.719C335.4 631.443 335.231 630.124 335.063 628.828C334.489 624.428 333.908 619.999 332.452 615.754C332.303 615.323 332.145 614.887 332.134 614.437C332.122 613.909 332.314 613.395 332.496 612.892Z" fill="#556466"/>
<path d="M355.43 616.787C355.191 617.228 354.886 617.66 354.519 618.082C353.878 618.651 353.018 619.41 352.089 620.221C347.811 623.228 340.795 625.534 334.766 626.613C334.267 622.947 333.664 619.288 332.45 615.755C332.301 615.324 332.143 614.888 332.132 614.438C332.12 613.911 332.312 613.397 332.494 612.892C333.744 609.431 334.613 605.866 335.098 602.264C339.497 603.125 344.377 604.659 348.322 606.622C350.839 609.931 353.214 613.32 355.43 616.787Z" fill="#495A5B"/>
<path d="M347.378 606.57C347.685 606.712 347.994 606.852 348.292 606.999C350.544 609.96 352.669 612.994 354.661 616.091C354.44 616.067 354.215 616.05 353.983 616.05C352.844 616.05 351.821 616.368 351.108 616.871C349.853 615.535 348.749 613.651 348.057 611.463C347.508 609.727 347.297 608.044 347.378 606.57Z" fill="#5E7272"/>
<path d="M352.977 617.232C353.479 616.884 354.245 616.656 355.112 616.656C355.195 616.656 355.273 616.666 355.353 616.67C355.447 616.81 355.539 616.951 355.629 617.093C355.629 617.093 355.568 617.148 355.471 617.234C354.637 617.157 353.806 617.155 352.977 617.232Z" fill="#313A3A"/>
<path d="M343.617 600.728C344.868 602.22 346.096 603.725 347.285 605.253C344.437 607.641 345.69 618.958 350.061 621.973C349.385 622.551 348.73 623.103 348.157 623.573C347.777 623.884 347.396 624.196 347.015 624.507C342.748 620.209 340.971 604.27 343.617 600.728Z" fill="#ACC4C6"/>
<path d="M336.157 592.32C336.527 592.812 336.965 593.274 337.393 593.728C338.366 594.759 339.322 595.805 340.265 596.857C338.842 602.778 341.411 622.438 345.102 626.053C344.084 626.863 343.053 627.659 341.999 628.429C338.575 624.186 335.154 599.92 336.157 592.32Z" fill="#ACC4C6"/>
<path d="M334.979 603.118C334.215 612.132 335.334 621.386 338.779 630.627C337.726 631.292 336.641 631.915 335.518 632.492C335.049 623.236 332.542 618.463 332.875 611.798C333.829 608.957 334.532 606.052 334.979 603.118Z" fill="#ACC4C6"/>
<path d="M329.894 626.047C330.48 624.683 331.092 623.281 332.182 622.34C333.073 621.572 334.224 621.165 335.353 620.77C337.685 619.955 340.018 619.138 342.35 618.323L341.679 618.707C336.61 621.412 332.118 625.07 328.439 629.487C328.913 628.334 329.404 627.19 329.894 626.047Z" fill="#455051"/>
<path d="M348.905 614.919C348.905 614.61 348.905 614.302 348.905 613.992C348.905 613.526 350.221 613.199 350.221 613.742C350.221 614.051 350.221 614.359 350.221 614.669C350.221 615.135 348.905 615.461 348.905 614.919Z" fill="#313A3A"/>
<path d="M346.59 606.664C346.138 608.263 345.918 610.087 346.003 612.026C346.168 615.903 347.498 619.325 349.388 621.388C349.36 621.377 349.324 621.375 349.299 621.363C346.607 620.039 346.245 617.739 345.618 615.925C344.635 613.085 345.773 606.526 346.59 606.664Z" fill="#313A3A"/>
<g opacity="0.46">
<path d="M335.494 597.967C335.612 595.559 335.562 593.146 335.335 590.745C335.645 591.883 336.539 592.824 337.394 593.729C338.94 595.365 340.442 597.034 341.909 598.725C339.876 598.309 337.727 598.048 335.494 597.967Z" fill="#455051"/>
<path d="M334.897 627.562C338.619 627.479 342.127 626.901 345.25 625.935C342.09 628.457 338.807 630.863 335.094 632.717C335.4 631.441 335.232 630.121 335.063 628.826C335.008 628.405 334.953 627.984 334.897 627.562Z" fill="#455051"/>
</g>
<path d="M336.558 621.913C333.554 624.085 330.824 626.623 328.439 629.486C328.912 628.333 329.402 627.189 329.894 626.047C330.404 624.861 330.932 623.649 331.777 622.734C332.01 622.664 332.245 622.593 332.486 622.532C333.889 622.168 335.267 621.969 336.558 621.913Z" fill="#556466"/>
</g>
<path d="M719.385 669.123C719.461 669.055 719.514 669.009 719.514 669.009C719.448 668.905 719.381 668.804 719.313 668.702L719.312 668.7C719.287 668.663 719.263 668.625 719.238 668.586H719.237C718.11 666.825 716.938 665.085 715.732 663.365C715.126 662.5 714.487 661.655 713.861 660.802C713.309 660.048 712.776 659.283 712.208 658.537C712.193 658.53 712.178 658.524 712.162 658.515C711.825 658.071 711.509 657.614 711.166 657.173L711.167 657.17C711.152 657.151 711.137 657.133 711.121 657.114C710.787 656.684 710.43 656.267 710.089 655.841C709.234 654.77 708.383 653.697 707.498 652.644C707.494 652.649 707.491 652.659 707.488 652.664C706.919 651.986 706.359 651.305 705.778 650.634C705.783 650.635 705.787 650.635 705.792 650.637C705.255 650.019 704.688 649.422 704.141 648.81C704.144 648.798 704.145 648.783 704.148 648.77C703.205 647.718 702.25 646.672 701.276 645.641C701.062 645.415 700.846 645.186 700.637 644.953C700.582 644.892 700.534 644.826 700.481 644.763C700.33 644.589 700.179 644.416 700.042 644.235C699.674 643.744 699.374 643.224 699.219 642.656C699.323 643.753 699.38 644.852 699.411 645.952C699.42 646.258 699.417 646.562 699.42 646.867C699.427 647.695 699.418 648.524 699.386 649.351C699.312 651.237 699.135 653.117 698.851 654.987C698.78 655.449 698.71 655.911 698.627 656.372C698.593 656.562 698.564 656.753 698.527 656.943C698.477 657.212 698.412 657.478 698.357 657.744C698.239 658.316 698.124 658.889 697.986 659.459C697.959 659.571 697.925 659.681 697.897 659.793C697.816 660.115 697.724 660.435 697.637 660.757C697.537 661.125 697.443 661.493 697.336 661.86C697.243 662.176 697.14 662.49 697.042 662.804C696.855 663.395 696.666 663.985 696.459 664.569C694.391 661.931 691.907 659.541 689.113 657.462C689.112 657.457 689.112 657.453 689.11 657.449C689.072 657.421 689.031 657.396 688.992 657.367C688.407 656.935 687.801 656.525 687.189 656.121C686.996 655.993 686.812 655.858 686.616 655.734C685.992 655.336 685.349 654.964 684.701 654.596C684.498 654.48 684.302 654.356 684.098 654.244C683.436 653.883 682.755 653.549 682.071 653.22C681.867 653.122 681.673 653.013 681.467 652.919C680.576 652.507 679.669 652.123 678.744 651.77C682.456 653.642 684.856 656.933 686.051 660.548C686.226 661.074 686.367 661.609 686.49 662.147C686.53 662.325 686.584 662.499 686.617 662.676C686.758 663.388 686.861 664.104 686.912 664.817C686.956 665.451 686.97 666.085 686.959 666.717C686.955 667.012 686.925 667.306 686.91 667.601C686.892 667.936 686.883 668.271 686.852 668.605C686.817 668.987 686.76 669.368 686.708 669.748C686.676 669.992 686.651 670.237 686.613 670.483C686.545 670.907 686.461 671.328 686.377 671.751C685.831 674.53 684.977 677.287 684.117 680.01C685.437 677.501 686.82 674.918 689.189 673.073C691.424 671.332 694.397 670.346 696.622 668.649C696.83 669.318 697.04 669.986 697.212 670.663C697.301 671.01 697.373 671.362 697.454 671.712C697.571 672.221 697.678 672.73 697.779 673.241C697.16 673.508 696.569 673.822 696.067 674.256C695.935 674.37 695.829 674.51 695.711 674.637C695.696 674.642 695.679 674.646 695.662 674.65C695.594 674.723 695.541 674.809 695.478 674.885C695.386 674.995 695.295 675.107 695.211 675.224C695.091 675.389 694.979 675.561 694.874 675.738C694.802 675.857 694.728 675.973 694.661 676.096C694.549 676.3 694.444 676.509 694.342 676.721C694.293 676.824 694.239 676.923 694.191 677.027C694.053 677.325 693.923 677.628 693.793 677.929C693.788 677.942 693.782 677.952 693.777 677.965C693.287 679.109 692.796 680.251 692.322 681.404C692.868 680.749 693.437 680.116 694.018 679.494C694.168 679.333 694.325 679.177 694.478 679.017C694.947 678.53 695.424 678.055 695.915 677.591C696.051 677.462 696.186 677.332 696.324 677.205C696.934 676.642 697.558 676.093 698.199 675.564C698.267 675.977 698.337 676.39 698.399 676.803C698.469 677.276 698.541 677.749 698.607 678.224C698.724 679.064 698.837 679.905 698.948 680.745C699.116 682.038 699.283 683.359 698.978 684.635C699.122 684.563 699.26 684.483 699.403 684.409C700.087 684.057 700.755 683.687 701.411 683.299C701.598 683.189 701.784 683.08 701.97 682.967C702.201 682.826 702.436 682.687 702.664 682.543C703.196 682.206 703.724 681.862 704.242 681.508C704.283 681.479 704.325 681.449 704.367 681.419C705.099 680.918 705.813 680.398 706.522 679.869C706.666 679.762 706.811 679.654 706.956 679.545C707.639 679.027 708.317 678.503 708.987 677.97L708.99 677.969C709.038 677.931 709.085 677.891 709.134 677.853L709.137 677.85C709.729 677.378 710.316 676.901 710.902 676.424C711.284 676.113 711.664 675.802 712.044 675.49C712.311 675.272 712.598 675.032 712.894 674.784C712.934 674.75 712.973 674.717 713.015 674.683C713.318 674.428 713.63 674.162 713.949 673.89L713.95 673.888C714.625 673.312 715.318 672.712 715.98 672.134C715.986 672.128 715.992 672.123 715.999 672.117C717.559 670.754 718.921 669.542 719.362 669.148C719.367 669.138 719.373 669.134 719.385 669.123Z" fill="#409296"/>
<g opacity="0.54">
<path d="M678.744 651.772C685.946 654.527 692.214 659.079 696.596 664.739L697.85 667.558C695.617 670.002 691.865 670.988 689.19 673.073C686.823 674.917 685.438 677.501 684.118 680.009C685.688 675.04 687.273 669.96 686.913 664.818C686.551 659.677 683.89 654.366 678.744 651.772Z" fill="#556466"/>
<path d="M678.744 651.772C682.499 653.209 685.996 655.138 689.109 657.453C689.77 660.181 690.141 663.213 690.141 666.411C690.141 668.615 689.964 670.739 689.641 672.74C689.487 672.848 689.336 672.958 689.19 673.073C686.823 674.917 685.438 677.501 684.118 680.009C685.688 675.04 687.273 669.96 686.913 664.818C686.551 659.677 683.89 654.366 678.744 651.772Z" fill="#455051"/>
<path d="M678.744 651.772C685.946 654.527 692.214 659.079 696.596 664.739L697.85 667.558C695.617 670.002 691.865 670.988 689.19 673.073C686.823 674.917 685.438 677.501 684.118 680.009C685.688 675.04 687.273 669.96 686.913 664.818C686.551 659.677 683.89 654.366 678.744 651.772Z" fill="#495A5B"/>
<path d="M685.988 660.316C690.839 661.023 694.414 663.448 694.414 666.331C694.414 669.158 690.98 671.543 686.276 672.301C686.799 669.827 687.089 667.331 686.912 664.819C686.807 663.309 686.495 661.785 685.988 660.316Z" fill="#556466"/>
<path opacity="0.46" d="M678.744 651.772C682.499 653.209 685.996 655.138 689.109 657.453C689.77 660.181 690.141 663.213 690.141 666.411C690.141 668.615 689.964 670.739 689.641 672.74C689.487 672.848 689.336 672.958 689.19 673.073C686.823 674.917 685.438 677.501 684.118 680.009C685.688 675.04 687.273 669.96 686.913 664.818C686.551 659.677 683.89 654.366 678.744 651.772Z" fill="#455051"/>
<path d="M696.379 664.809C698.955 657.675 699.924 650.111 699.219 642.662C699.529 643.8 700.423 644.741 701.278 645.646C708.162 652.932 714.275 660.764 719.514 669.011C719.514 669.011 714.841 673.197 712.04 675.493C707.965 678.835 703.84 682.209 698.977 684.636C699.283 683.36 699.115 682.04 698.946 680.745C698.373 676.344 697.792 671.916 696.335 667.671C696.186 667.24 696.028 666.803 696.018 666.354C696.005 665.826 696.197 665.312 696.379 664.809Z" fill="#556466"/>
<path d="M719.314 668.704C719.074 669.144 718.769 669.576 718.403 669.999C717.762 670.567 716.902 671.327 715.973 672.138C711.695 675.144 704.679 677.451 698.65 678.529C698.15 674.865 697.548 671.204 696.334 667.672C696.185 667.241 696.027 666.805 696.016 666.355C696.004 665.827 696.196 665.313 696.378 664.809C697.628 661.347 698.497 657.782 698.981 654.18C703.38 655.042 708.261 656.576 712.206 658.539C714.723 661.848 717.098 665.237 719.314 668.704Z" fill="#495A5B"/>
<path d="M711.261 658.489C711.568 658.631 711.879 658.771 712.175 658.918C714.428 661.879 716.553 664.913 718.544 668.01C718.324 667.986 718.098 667.969 717.867 667.969C716.727 667.969 715.705 668.287 714.992 668.791C713.736 667.455 712.634 665.571 711.941 663.383C711.39 661.646 711.18 659.963 711.261 658.489Z" fill="#5E7272"/>
<path d="M716.86 669.15C717.363 668.802 718.128 668.575 718.996 668.575C719.079 668.575 719.157 668.584 719.237 668.588C719.329 668.729 719.422 668.869 719.513 669.011C719.513 669.011 719.452 669.067 719.355 669.153C718.521 669.074 717.69 669.072 716.86 669.15Z" fill="#313A3A"/>
<path d="M707.501 652.648C708.752 654.14 709.98 655.645 711.168 657.173C708.321 659.563 709.574 670.879 713.945 673.893C713.269 674.471 712.614 675.023 712.041 675.494C711.66 675.805 711.28 676.117 710.898 676.428C706.63 672.13 704.854 656.19 707.501 652.648Z" fill="#ACC4C6"/>
<path d="M700.042 644.24C700.411 644.732 700.85 645.195 701.278 645.649C702.251 646.679 703.206 647.725 704.149 648.777C702.727 654.698 705.296 674.359 708.987 677.973C707.969 678.783 706.938 679.579 705.883 680.349C702.46 676.105 699.039 651.839 700.042 644.24Z" fill="#ACC4C6"/>
<path d="M698.862 655.038C698.099 664.052 699.218 673.307 702.663 682.547C701.61 683.213 700.524 683.834 699.402 684.412C698.933 675.157 696.426 670.384 696.759 663.718C697.712 660.877 698.416 657.972 698.862 655.038Z" fill="#ACC4C6"/>
<path d="M693.778 677.968C694.363 676.603 694.975 675.202 696.065 674.262C696.956 673.493 698.108 673.087 699.236 672.692C701.568 671.877 703.902 671.061 706.234 670.245L705.562 670.629C700.493 673.334 696.001 676.992 692.323 681.408C692.795 680.254 693.287 679.11 693.778 677.968Z" fill="#455051"/>
<path d="M712.789 666.836C712.789 666.527 712.789 666.219 712.789 665.909C712.789 665.443 714.104 665.117 714.104 665.658C714.104 665.968 714.104 666.276 714.104 666.586C714.103 667.052 712.789 667.378 712.789 666.836Z" fill="#313A3A"/>
<path d="M710.471 658.583C710.018 660.182 709.799 662.006 709.883 663.945C710.049 667.823 711.377 671.244 713.269 673.307C713.241 673.296 713.204 673.294 713.18 673.282C710.487 671.958 710.126 669.658 709.498 667.844C708.517 665.004 709.653 658.445 710.471 658.583Z" fill="#313A3A"/>
<g opacity="0.46">
<path d="M699.379 649.884C699.497 647.477 699.447 645.064 699.218 642.662C699.528 643.8 700.422 644.741 701.277 645.646C702.823 647.282 704.325 648.951 705.793 650.642C703.76 650.227 701.61 649.967 699.379 649.884Z" fill="#455051"/>
<path d="M698.781 679.483C702.502 679.4 706.01 678.822 709.134 677.855C705.974 680.378 702.691 682.784 698.977 684.638C699.284 683.362 699.115 682.042 698.947 680.747C698.892 680.326 698.836 679.905 698.781 679.483Z" fill="#455051"/>
</g>
<path d="M700.441 673.832C697.438 676.003 694.707 678.542 692.323 681.405C692.795 680.251 693.286 679.108 693.778 677.965C694.287 676.779 694.816 675.567 695.661 674.652C695.894 674.583 696.128 674.512 696.369 674.45C697.772 674.086 699.15 673.887 700.441 673.832Z" fill="#556466"/>
</g>
<path d="M1429.65 474.357C1429.73 474.289 1429.78 474.243 1429.78 474.243C1429.72 474.139 1429.65 474.038 1429.58 473.936L1429.58 473.933C1429.56 473.895 1429.53 473.858 1429.51 473.82H1429.51C1428.38 472.059 1427.21 470.319 1426 468.599C1425.4 467.734 1424.76 466.889 1424.13 466.036C1423.58 465.282 1423.05 464.517 1422.48 463.771C1422.46 463.764 1422.45 463.757 1422.43 463.749C1422.09 463.305 1421.78 462.848 1421.44 462.406L1421.44 462.404C1421.42 462.385 1421.41 462.367 1421.39 462.348C1421.06 461.918 1420.7 461.501 1420.36 461.074C1419.51 460.004 1418.65 458.931 1417.77 457.877C1417.76 457.883 1417.76 457.892 1417.76 457.898C1417.19 457.22 1416.63 456.537 1416.05 455.868C1416.05 455.869 1416.06 455.869 1416.06 455.871C1415.52 455.253 1414.96 454.656 1414.41 454.044C1414.41 454.031 1414.41 454.016 1414.42 454.004C1413.47 452.952 1412.52 451.906 1411.55 450.875C1411.33 450.649 1411.12 450.42 1410.91 450.187C1410.85 450.126 1410.8 450.06 1410.75 449.997C1410.6 449.823 1410.45 449.65 1410.31 449.468C1409.94 448.978 1409.64 448.458 1409.49 447.89C1409.59 448.987 1409.65 450.086 1409.68 451.186C1409.69 451.492 1409.69 451.796 1409.69 452.101C1409.7 452.929 1409.69 453.757 1409.66 454.585C1409.58 456.47 1409.41 458.351 1409.12 460.221C1409.05 460.683 1408.98 461.145 1408.9 461.606C1408.86 461.797 1408.84 461.987 1408.8 462.177C1408.75 462.446 1408.68 462.712 1408.63 462.978C1408.51 463.55 1408.4 464.123 1408.26 464.693C1408.23 464.805 1408.2 464.915 1408.17 465.027C1408.09 465.348 1408 465.669 1407.91 465.991C1407.81 466.359 1407.71 466.727 1407.61 467.094C1407.51 467.41 1407.41 467.723 1407.31 468.038C1407.13 468.629 1406.94 469.218 1406.73 469.802C1404.66 467.164 1402.18 464.774 1399.38 462.695C1399.38 462.691 1399.38 462.687 1399.38 462.683C1399.34 462.655 1399.3 462.63 1399.26 462.601C1398.68 462.169 1398.07 461.759 1397.46 461.355C1397.27 461.227 1397.08 461.092 1396.89 460.968C1396.26 460.57 1395.62 460.198 1394.97 459.83C1394.77 459.714 1394.57 459.59 1394.37 459.478C1393.71 459.117 1393.03 458.783 1392.34 458.454C1392.14 458.356 1391.94 458.247 1391.74 458.153C1390.85 457.741 1389.94 457.357 1389.02 457.004C1392.73 458.875 1395.13 462.166 1396.32 465.782C1396.5 466.308 1396.64 466.843 1396.76 467.38C1396.8 467.557 1396.85 467.732 1396.89 467.909C1397.03 468.62 1397.13 469.336 1397.18 470.049C1397.23 470.683 1397.24 471.317 1397.23 471.95C1397.23 472.244 1397.2 472.539 1397.18 472.833C1397.16 473.169 1397.15 473.504 1397.12 473.838C1397.09 474.22 1397.03 474.6 1396.98 474.98C1396.95 475.226 1396.92 475.47 1396.88 475.715C1396.82 476.139 1396.73 476.56 1396.65 476.983C1396.1 479.763 1395.25 482.52 1394.39 485.242C1395.71 482.734 1397.09 480.15 1399.46 478.306C1401.7 476.565 1404.67 475.579 1406.89 473.882C1407.1 474.551 1407.31 475.219 1407.48 475.895C1407.57 476.243 1407.65 476.595 1407.73 476.945C1407.84 477.453 1407.95 477.962 1408.05 478.473C1407.43 478.739 1406.84 479.054 1406.34 479.489C1406.21 479.602 1406.1 479.743 1405.98 479.869C1405.97 479.875 1405.95 479.879 1405.93 479.883C1405.87 479.955 1405.81 480.041 1405.75 480.117C1405.66 480.228 1405.57 480.34 1405.48 480.457C1405.36 480.623 1405.25 480.794 1405.14 480.971C1405.07 481.089 1405 481.205 1404.93 481.328C1404.82 481.533 1404.72 481.741 1404.61 481.954C1404.56 482.056 1404.51 482.156 1404.46 482.259C1404.33 482.558 1404.19 482.86 1404.06 483.16C1404.06 483.173 1404.05 483.184 1404.05 483.194C1403.56 484.338 1403.07 485.481 1402.59 486.634C1403.14 485.978 1403.71 485.346 1404.29 484.725C1404.44 484.563 1404.6 484.408 1404.75 484.248C1405.22 483.762 1405.7 483.286 1406.19 482.822C1406.32 482.693 1406.46 482.563 1406.6 482.436C1407.21 481.873 1407.83 481.324 1408.47 480.795C1408.54 481.208 1408.61 481.621 1408.67 482.034C1408.74 482.507 1408.81 482.98 1408.88 483.455C1408.99 484.295 1409.11 485.136 1409.22 485.976C1409.39 487.271 1409.55 488.591 1409.25 489.867C1409.39 489.794 1409.53 489.714 1409.67 489.64C1410.36 489.289 1411.02 488.916 1411.68 488.531C1411.87 488.42 1412.05 488.311 1412.24 488.198C1412.47 488.057 1412.71 487.918 1412.94 487.774C1413.47 487.437 1413.99 487.094 1414.51 486.739C1414.55 486.71 1414.6 486.68 1414.64 486.651C1415.37 486.149 1416.08 485.629 1416.79 485.1C1416.94 484.993 1417.08 484.885 1417.23 484.776C1417.91 484.258 1418.59 483.734 1419.26 483.201L1419.26 483.2C1419.31 483.162 1419.35 483.122 1419.4 483.084L1419.41 483.081C1420 482.608 1420.59 482.132 1421.17 481.655C1421.55 481.344 1421.93 481.032 1422.31 480.721C1422.58 480.503 1422.87 480.263 1423.16 480.015C1423.2 479.981 1423.24 479.948 1423.28 479.914C1423.59 479.659 1423.9 479.393 1424.22 479.121L1424.22 479.119C1424.89 478.543 1425.59 477.943 1426.25 477.365C1426.26 477.359 1426.26 477.354 1426.27 477.349C1427.83 475.985 1429.19 474.773 1429.63 474.379C1429.64 474.374 1429.64 474.368 1429.65 474.357Z" fill="#409296"/>
<g opacity="0.54">
<path d="M1389.02 457.004C1396.22 459.759 1402.48 464.311 1406.87 469.971L1408.12 472.79C1405.89 475.234 1402.14 476.221 1399.46 478.305C1397.09 480.149 1395.71 482.733 1394.39 485.241C1395.96 480.272 1397.54 475.192 1397.18 470.05C1396.82 464.908 1394.16 459.6 1389.02 457.004Z" fill="#556466"/>
<path d="M1389.02 457.006C1392.77 458.441 1396.27 460.371 1399.38 462.687C1400.04 465.415 1400.41 468.447 1400.41 471.645C1400.41 473.848 1400.24 475.973 1399.91 477.974C1399.76 478.082 1399.61 478.192 1399.46 478.307C1397.09 480.151 1395.71 482.735 1394.39 485.243C1395.96 480.274 1397.54 475.194 1397.18 470.052C1396.82 464.91 1394.16 459.602 1389.02 457.006Z" fill="#455051"/>
<path d="M1389.02 457.004C1396.22 459.759 1402.48 464.311 1406.87 469.971L1408.12 472.79C1405.89 475.234 1402.14 476.221 1399.46 478.305C1397.09 480.149 1395.71 482.733 1394.39 485.241C1395.96 480.272 1397.54 475.192 1397.18 470.05C1396.82 464.908 1394.16 459.6 1389.02 457.004Z" fill="#495A5B"/>
<path d="M1396.26 465.547C1401.11 466.253 1404.68 468.678 1404.68 471.562C1404.68 474.388 1401.25 476.774 1396.55 477.532C1397.07 475.057 1397.36 472.561 1397.18 470.051C1397.08 468.539 1396.76 467.015 1396.26 465.547Z" fill="#556466"/>
<path opacity="0.46" d="M1389.02 457.006C1392.77 458.441 1396.27 460.371 1399.38 462.687C1400.04 465.415 1400.41 468.447 1400.41 471.645C1400.41 473.848 1400.24 475.973 1399.91 477.974C1399.76 478.082 1399.61 478.192 1399.46 478.307C1397.09 480.151 1395.71 482.735 1394.39 485.243C1395.96 480.274 1397.54 475.194 1397.18 470.052C1396.82 464.91 1394.16 459.602 1389.02 457.006Z" fill="#455051"/>
<path d="M1406.65 470.039C1409.23 462.905 1410.19 455.341 1409.49 447.892C1409.8 449.03 1410.69 449.971 1411.55 450.878C1418.43 458.163 1424.55 465.996 1429.78 474.243C1429.78 474.243 1425.11 478.429 1422.31 480.725C1418.24 484.067 1414.11 487.441 1409.25 489.868C1409.55 488.592 1409.39 487.272 1409.22 485.977C1408.64 481.576 1408.06 477.148 1406.61 472.902C1406.46 472.472 1406.3 472.035 1406.29 471.585C1406.28 471.056 1406.47 470.542 1406.65 470.039Z" fill="#556466"/>
<path d="M1429.59 473.935C1429.35 474.375 1429.04 474.807 1428.67 475.23C1428.03 475.798 1427.17 476.558 1426.24 477.369C1421.97 480.375 1414.95 482.682 1408.92 483.76C1408.42 480.096 1407.82 476.435 1406.61 472.903C1406.46 472.472 1406.3 472.036 1406.29 471.586C1406.28 471.058 1406.47 470.544 1406.65 470.04C1407.9 466.578 1408.77 463.013 1409.25 459.411C1413.65 460.273 1418.53 461.806 1422.48 463.77C1424.99 467.078 1427.37 470.468 1429.59 473.935Z" fill="#495A5B"/>
<path d="M1421.53 463.718C1421.84 463.86 1422.15 464 1422.45 464.147C1424.7 467.108 1426.82 470.14 1428.81 473.239C1428.59 473.215 1428.37 473.198 1428.14 473.198C1427 473.198 1425.97 473.516 1425.26 474.019C1424.01 472.683 1422.9 470.8 1422.21 468.611C1421.66 466.875 1421.45 465.192 1421.53 463.718Z" fill="#5E7272"/>
<path d="M1427.13 474.38C1427.63 474.032 1428.4 473.804 1429.27 473.804C1429.35 473.804 1429.43 473.814 1429.51 473.818C1429.6 473.958 1429.69 474.099 1429.78 474.24C1429.78 474.24 1429.72 474.296 1429.62 474.382C1428.79 474.305 1427.96 474.303 1427.13 474.38Z" fill="#313A3A"/>
<path d="M1417.77 457.878C1419.02 459.369 1420.25 460.875 1421.44 462.403C1418.59 464.791 1419.84 476.108 1424.21 479.123C1423.54 479.701 1422.88 480.253 1422.31 480.723C1421.93 481.034 1421.55 481.346 1421.17 481.657C1416.9 477.36 1415.12 461.42 1417.77 457.878Z" fill="#ACC4C6"/>
<path d="M1410.31 449.47C1410.68 449.962 1411.12 450.424 1411.55 450.878C1412.52 451.909 1413.48 452.954 1414.42 454.007C1413 459.928 1415.57 479.588 1419.26 483.203C1418.24 484.012 1417.21 484.809 1416.15 485.579C1412.73 481.338 1409.31 457.07 1410.31 449.47Z" fill="#ACC4C6"/>
<path d="M1409.13 460.268C1408.37 469.282 1409.49 478.536 1412.93 487.777C1411.88 488.442 1410.79 489.064 1409.67 489.642C1409.2 480.386 1406.7 475.613 1407.03 468.948C1407.98 466.107 1408.69 463.201 1409.13 460.268Z" fill="#ACC4C6"/>
<path d="M1404.05 483.196C1404.63 481.832 1405.25 480.43 1406.34 479.489C1407.23 478.721 1408.38 478.314 1409.51 477.919C1411.84 477.104 1414.17 476.287 1416.5 475.472L1415.83 475.856C1410.76 478.561 1406.27 482.219 1402.59 486.635C1403.07 485.483 1403.56 484.339 1404.05 483.196Z" fill="#455051"/>
<path d="M1423.06 472.069C1423.06 471.759 1423.06 471.451 1423.06 471.142C1423.06 470.675 1424.37 470.35 1424.37 470.891C1424.37 471.2 1424.37 471.508 1424.37 471.818C1424.37 472.284 1423.06 472.61 1423.06 472.069Z" fill="#313A3A"/>
<path d="M1420.74 463.814C1420.29 465.413 1420.07 467.237 1420.16 469.176C1420.32 473.053 1421.65 476.475 1423.54 478.538C1423.51 478.527 1423.48 478.526 1423.45 478.514C1420.76 477.19 1420.4 474.888 1419.77 473.075C1418.79 470.235 1419.93 463.676 1420.74 463.814Z" fill="#313A3A"/>
<g opacity="0.46">
<path d="M1409.65 455.113C1409.77 452.705 1409.72 450.292 1409.49 447.891C1409.8 449.029 1410.69 449.97 1411.55 450.875C1413.09 452.511 1414.6 454.18 1416.06 455.871C1414.03 455.455 1411.88 455.194 1409.65 455.113Z" fill="#455051"/>
<path d="M1409.05 484.709C1412.77 484.626 1416.28 484.048 1419.4 483.081C1416.24 485.603 1412.96 488.009 1409.25 489.864C1409.55 488.588 1409.39 487.268 1409.22 485.973C1409.16 485.551 1409.11 485.13 1409.05 484.709Z" fill="#455051"/>
</g>
<path d="M1410.71 479.061C1407.71 481.232 1404.98 483.771 1402.59 486.634C1403.07 485.481 1403.56 484.337 1404.05 483.194C1404.56 482.008 1405.09 480.796 1405.93 479.881C1406.16 479.812 1406.4 479.741 1406.64 479.68C1408.04 479.316 1409.42 479.116 1410.71 479.061Z" fill="#556466"/>
</g>
<path d="M242.169 627.731C242.245 627.663 242.297 627.617 242.297 627.617C242.231 627.513 242.164 627.412 242.096 627.31C242.096 627.309 242.095 627.309 242.095 627.307C242.07 627.269 242.046 627.232 242.021 627.194C240.894 625.433 239.721 623.693 238.515 621.973C237.909 621.108 237.27 620.263 236.644 619.41C236.092 618.656 235.559 617.891 234.991 617.145C234.976 617.138 234.961 617.131 234.947 617.123C234.608 616.679 234.294 616.222 233.95 615.78C233.952 615.779 233.952 615.779 233.952 615.778C233.937 615.759 233.921 615.741 233.907 615.722C233.573 615.292 233.216 614.875 232.876 614.448C232.022 613.378 231.169 612.305 230.284 611.251C230.28 611.257 230.277 611.266 230.272 611.272C229.703 610.594 229.144 609.911 228.563 609.242C228.567 609.243 228.572 609.243 228.576 609.245C228.04 608.627 227.471 608.03 226.925 607.418C226.928 607.405 226.93 607.39 226.933 607.378C225.99 606.326 225.035 605.28 224.061 604.249C223.846 604.023 223.63 603.794 223.422 603.561C223.367 603.5 223.319 603.434 223.265 603.371C223.115 603.197 222.963 603.024 222.827 602.842C222.459 602.352 222.158 601.832 222.003 601.264C222.108 602.361 222.164 603.46 222.195 604.56C222.204 604.866 222.201 605.17 222.206 605.475C222.214 606.303 222.204 607.131 222.172 607.959C222.099 609.844 221.921 611.725 221.637 613.595C221.567 614.057 221.496 614.519 221.413 614.98C221.379 615.171 221.35 615.361 221.314 615.551C221.263 615.82 221.199 616.086 221.143 616.352C221.025 616.924 220.91 617.497 220.772 618.067C220.745 618.179 220.711 618.289 220.683 618.401C220.602 618.722 220.51 619.043 220.423 619.365C220.323 619.733 220.23 620.101 220.122 620.468C220.029 620.784 219.926 621.097 219.828 621.412C219.641 622.003 219.452 622.592 219.245 623.176C217.177 620.538 214.693 618.149 211.9 616.069C211.898 616.065 211.898 616.061 211.896 616.057C211.858 616.029 211.817 616.004 211.778 615.975C211.193 615.543 210.587 615.133 209.975 614.729C209.782 614.601 209.598 614.466 209.402 614.342C208.778 613.944 208.135 613.572 207.487 613.204C207.284 613.088 207.088 612.964 206.884 612.852C206.222 612.491 205.541 612.157 204.857 611.828C204.653 611.73 204.459 611.621 204.253 611.527C203.362 611.115 202.455 610.731 201.53 610.378C205.242 612.249 207.642 615.54 208.838 619.156C209.012 619.682 209.153 620.217 209.276 620.754C209.316 620.931 209.37 621.106 209.403 621.283C209.544 621.994 209.647 622.71 209.698 623.423C209.742 624.057 209.756 624.691 209.745 625.324C209.739 625.618 209.712 625.913 209.696 626.207C209.678 626.543 209.669 626.878 209.638 627.212C209.603 627.594 209.544 627.974 209.494 628.354C209.462 628.6 209.437 628.844 209.399 629.089C209.331 629.513 209.247 629.935 209.164 630.357C208.617 633.137 207.764 635.894 206.904 638.616C208.224 636.108 209.607 633.524 211.976 631.68C214.212 629.939 217.185 628.953 219.409 627.256C219.618 627.925 219.828 628.593 220 629.269C220.088 629.617 220.161 629.969 220.24 630.319C220.357 630.828 220.464 631.336 220.565 631.847C219.946 632.113 219.356 632.428 218.853 632.863C218.721 632.976 218.615 633.117 218.497 633.243C218.482 633.249 218.465 633.253 218.448 633.257C218.38 633.329 218.327 633.415 218.264 633.491C218.172 633.602 218.081 633.714 217.997 633.831C217.878 633.997 217.766 634.168 217.66 634.345C217.588 634.463 217.514 634.579 217.447 634.702C217.335 634.907 217.231 635.115 217.128 635.328C217.079 635.43 217.025 635.53 216.978 635.633C216.841 635.932 216.709 636.234 216.579 636.534C216.574 636.547 216.568 636.558 216.564 636.568C216.073 637.712 215.582 638.855 215.109 640.008C215.654 639.352 216.223 638.72 216.804 638.1C216.955 637.937 217.111 637.782 217.264 637.622C217.733 637.136 218.212 636.66 218.701 636.196C218.837 636.067 218.972 635.937 219.11 635.81C219.721 635.247 220.345 634.698 220.985 634.169C221.053 634.582 221.123 634.995 221.185 635.408C221.255 635.881 221.327 636.354 221.393 636.829C221.51 637.669 221.623 638.51 221.734 639.35C221.902 640.645 222.069 641.965 221.764 643.241C221.908 643.168 222.046 643.088 222.189 643.014C222.873 642.663 223.541 642.29 224.198 641.905C224.385 641.794 224.57 641.685 224.756 641.572C224.987 641.431 225.222 641.292 225.45 641.148C225.982 640.811 226.51 640.468 227.028 640.113C227.069 640.085 227.111 640.055 227.152 640.025C227.883 639.523 228.598 639.003 229.306 638.474C229.45 638.367 229.596 638.259 229.74 638.15C230.424 637.632 231.102 637.108 231.772 636.575L231.773 636.574C231.821 636.536 231.868 636.496 231.916 636.458C231.917 636.457 231.917 636.457 231.919 636.455C232.511 635.982 233.098 635.506 233.684 635.029C234.065 634.718 234.446 634.406 234.826 634.095C235.093 633.877 235.379 633.637 235.675 633.389C235.715 633.355 235.755 633.322 235.796 633.288C236.1 633.033 236.411 632.768 236.73 632.495C236.73 632.495 236.73 632.495 236.732 632.494C237.406 631.917 238.099 631.317 238.762 630.739C238.768 630.733 238.774 630.728 238.78 630.723C240.341 629.359 241.702 628.147 242.144 627.753C242.152 627.748 242.158 627.742 242.169 627.731Z" fill="#409296"/>
<g opacity="0.54">
<path d="M201.529 610.381C208.731 613.137 214.999 617.689 219.381 623.348L220.633 626.167C218.401 628.612 214.649 629.599 211.974 631.682C209.606 633.527 208.223 636.11 206.902 638.619C208.472 633.649 210.057 628.57 209.697 623.427C209.337 618.286 206.675 612.977 201.529 610.381Z" fill="#556466"/>
<path d="M201.529 610.383C205.284 611.819 208.781 613.748 211.894 616.064C212.555 618.792 212.926 621.824 212.926 625.023C212.926 627.226 212.749 629.35 212.426 631.351C212.273 631.459 212.121 631.569 211.974 631.684C209.606 633.529 208.223 636.112 206.902 638.621C208.472 633.651 210.057 628.571 209.697 623.429C209.337 618.288 206.675 612.979 201.529 610.383Z" fill="#455051"/>
<path d="M201.529 610.381C208.731 613.137 214.999 617.689 219.381 623.348L220.633 626.167C218.401 628.612 214.649 629.599 211.974 631.682C209.606 633.527 208.223 636.11 206.902 638.619C208.472 633.649 210.057 628.57 209.697 623.427C209.337 618.286 206.675 612.977 201.529 610.381Z" fill="#495A5B"/>
<path d="M208.772 618.924C213.624 619.63 217.199 622.055 217.199 624.939C217.199 627.765 213.765 630.151 209.061 630.909C209.584 628.434 209.873 625.938 209.697 623.428C209.591 621.916 209.28 620.392 208.772 618.924Z" fill="#556466"/>
<path opacity="0.46" d="M201.529 610.383C205.284 611.819 208.781 613.748 211.894 616.064C212.555 618.792 212.926 621.824 212.926 625.023C212.926 627.226 212.749 629.35 212.426 631.351C212.273 631.459 212.121 631.569 211.974 631.684C209.606 633.529 208.223 636.112 206.902 638.621C208.472 633.651 210.057 628.571 209.697 623.429C209.337 618.288 206.675 612.979 201.529 610.383Z" fill="#455051"/>
<path d="M219.164 623.418C221.74 616.284 222.709 608.72 222.003 601.271C222.313 602.409 223.207 603.35 224.062 604.257C230.947 611.542 237.06 619.375 242.299 627.621C242.299 627.621 237.625 631.808 234.824 634.104C230.749 637.446 226.624 640.82 221.763 643.247C222.069 641.971 221.901 640.651 221.732 639.356C221.158 634.955 220.579 630.527 219.121 626.281C218.972 625.85 218.814 625.414 218.803 624.964C218.79 624.435 218.981 623.921 219.164 623.418Z" fill="#556466"/>
<path d="M242.099 627.313C241.86 627.753 241.554 628.185 241.188 628.608C240.547 629.176 239.687 629.936 238.758 630.747C234.48 633.753 227.464 636.06 221.435 637.138C220.936 633.474 220.333 629.813 219.119 626.281C218.97 625.85 218.812 625.413 218.801 624.964C218.789 624.436 218.981 623.922 219.163 623.418C220.413 619.956 221.282 616.391 221.767 612.789C226.165 613.651 231.046 615.184 234.991 617.148C237.508 620.456 239.883 623.846 242.099 627.313Z" fill="#495A5B"/>
<path d="M234.047 617.095C234.353 617.237 234.663 617.377 234.96 617.525C237.211 620.486 239.338 623.518 241.329 626.617C241.109 626.592 240.883 626.576 240.652 626.576C239.513 626.576 238.49 626.893 237.777 627.397C236.521 626.06 235.417 624.178 234.726 621.988C234.175 620.253 233.964 618.569 234.047 617.095Z" fill="#5E7272"/>
<path d="M239.645 627.757C240.147 627.409 240.913 627.182 241.78 627.182C241.863 627.182 241.941 627.191 242.021 627.195C242.115 627.336 242.207 627.476 242.297 627.618C242.297 627.618 242.236 627.674 242.139 627.76C241.305 627.682 240.474 627.681 239.645 627.757Z" fill="#313A3A"/>
<path d="M230.284 611.255C231.536 612.747 232.764 614.252 233.952 615.78C231.106 618.169 232.357 629.486 236.729 632.5C236.052 633.078 235.398 633.63 234.824 634.101C234.444 634.412 234.064 634.724 233.682 635.035C229.414 630.737 227.638 614.797 230.284 611.255Z" fill="#ACC4C6"/>
<path d="M222.826 602.847C223.195 603.339 223.634 603.801 224.062 604.255C225.035 605.286 225.991 606.332 226.933 607.384C225.511 613.305 228.08 632.966 231.771 636.58C230.753 637.39 229.722 638.186 228.668 638.956C225.244 634.715 221.823 610.448 222.826 602.847Z" fill="#ACC4C6"/>
<path d="M221.647 613.645C220.883 622.659 222.002 631.914 225.447 641.154C224.394 641.82 223.309 642.441 222.186 643.019C221.717 633.764 219.21 628.991 219.543 622.325C220.497 619.484 221.2 616.579 221.647 613.645Z" fill="#ACC4C6"/>
<path d="M216.562 636.573C217.148 635.209 217.76 633.807 218.85 632.866C219.741 632.097 220.891 631.691 222.021 631.296C224.353 630.481 226.686 629.664 229.018 628.849L228.347 629.233C223.278 631.938 218.786 635.596 215.107 640.012C215.58 638.86 216.072 637.716 216.562 636.573Z" fill="#455051"/>
<path d="M235.573 625.446C235.573 625.136 235.573 624.828 235.573 624.519C235.573 624.052 236.889 623.727 236.889 624.268C236.889 624.577 236.889 624.885 236.889 625.195C236.887 625.661 235.573 625.987 235.573 625.446Z" fill="#313A3A"/>
<path d="M233.256 617.192C232.804 618.791 232.585 620.615 232.669 622.554C232.835 626.431 234.162 629.853 236.054 631.916C236.027 631.905 235.99 631.903 235.965 631.891C233.273 630.567 232.911 628.266 232.284 626.453C231.303 623.613 232.439 617.054 233.256 617.192Z" fill="#313A3A"/>
<g opacity="0.46">
<path d="M222.163 608.494C222.281 606.086 222.23 603.673 222.002 601.272C222.312 602.41 223.206 603.351 224.061 604.256C225.607 605.892 227.109 607.561 228.576 609.252C226.543 608.836 224.394 608.575 222.163 608.494Z" fill="#455051"/>
<path d="M221.565 638.088C225.287 638.005 228.795 637.427 231.918 636.46C228.758 638.982 225.475 641.388 221.762 643.242C222.068 641.966 221.9 640.647 221.731 639.352C221.676 638.93 221.621 638.509 221.565 638.088Z" fill="#455051"/>
</g>
<path d="M223.226 632.438C220.222 634.61 217.492 637.149 215.107 640.012C215.58 638.858 216.07 637.715 216.562 636.572C217.071 635.386 217.602 634.174 218.445 633.259C218.678 633.19 218.913 633.119 219.154 633.057C220.555 632.693 221.935 632.494 223.226 632.438Z" fill="#556466"/>
</g>
<path d="M289.411 587.142C289.463 587.096 289.498 587.063 289.498 587.063C289.454 586.992 289.408 586.923 289.362 586.853L289.36 586.852C289.343 586.826 289.326 586.8 289.31 586.774C288.54 585.572 287.74 584.383 286.915 583.208C286.501 582.617 286.064 582.041 285.637 581.457C285.26 580.942 284.897 580.42 284.509 579.911C284.498 579.906 284.488 579.902 284.478 579.896C284.247 579.592 284.032 579.281 283.798 578.98L283.799 578.979C283.788 578.966 283.778 578.953 283.768 578.941C283.54 578.647 283.296 578.362 283.063 578.071C282.479 577.34 281.898 576.606 281.294 575.888C281.291 575.892 281.289 575.899 281.286 575.902C280.898 575.438 280.515 574.973 280.118 574.515C280.121 574.515 280.124 574.517 280.127 574.517C279.761 574.094 279.373 573.688 279 573.269C279.002 573.261 279.003 573.25 279.006 573.242C278.362 572.523 277.711 571.809 277.045 571.105C276.9 570.951 276.751 570.795 276.608 570.635C276.57 570.593 276.538 570.548 276.501 570.506C276.398 570.387 276.294 570.268 276.202 570.144C275.951 569.809 275.745 569.454 275.639 569.066C275.71 569.814 275.75 570.566 275.77 571.318C275.776 571.527 275.774 571.734 275.776 571.943C275.782 572.508 275.774 573.073 275.753 573.639C275.702 574.926 275.581 576.211 275.388 577.487C275.34 577.804 275.291 578.118 275.235 578.433C275.212 578.563 275.192 578.694 275.167 578.823C275.132 579.006 275.089 579.187 275.051 579.37C274.969 579.761 274.891 580.153 274.798 580.541C274.779 580.617 274.756 580.692 274.736 580.769C274.681 580.99 274.618 581.208 274.558 581.427C274.491 581.678 274.427 581.93 274.353 582.18C274.289 582.395 274.22 582.611 274.152 582.825C274.025 583.228 273.896 583.63 273.753 584.03C272.34 582.228 270.644 580.597 268.737 579.176C268.737 579.174 268.735 579.171 268.735 579.168C268.709 579.149 268.682 579.131 268.655 579.112C268.255 578.816 267.841 578.537 267.424 578.262C267.292 578.174 267.167 578.082 267.033 577.997C266.607 577.726 266.169 577.471 265.725 577.22C265.587 577.141 265.454 577.056 265.313 576.98C264.861 576.733 264.396 576.506 263.929 576.281C263.791 576.214 263.656 576.139 263.516 576.075C262.907 575.794 262.288 575.531 261.656 575.29C264.191 576.568 265.83 578.815 266.647 581.285C266.767 581.645 266.862 582.011 266.946 582.377C266.973 582.499 267.009 582.617 267.033 582.739C267.13 583.225 267.2 583.714 267.234 584.2C267.265 584.634 267.274 585.066 267.266 585.498C267.263 585.7 267.243 585.9 267.233 586.101C267.22 586.33 267.214 586.559 267.193 586.788C267.168 587.048 267.13 587.309 267.095 587.568C267.072 587.735 267.056 587.902 267.03 588.069C266.984 588.358 266.926 588.647 266.869 588.935C266.497 590.834 265.914 592.716 265.325 594.575C266.227 592.861 267.171 591.097 268.789 589.838C270.314 588.649 272.346 587.975 273.865 586.817C274.008 587.273 274.152 587.73 274.269 588.192C274.328 588.429 274.379 588.669 274.433 588.909C274.512 589.256 274.586 589.605 274.655 589.954C274.232 590.136 273.829 590.35 273.485 590.647C273.395 590.725 273.323 590.821 273.241 590.907C273.231 590.909 273.22 590.913 273.208 590.916C273.162 590.965 273.125 591.024 273.082 591.076C273.019 591.151 272.958 591.227 272.899 591.307C272.818 591.42 272.741 591.538 272.669 591.658C272.62 591.739 272.57 591.819 272.524 591.902C272.447 592.041 272.377 592.184 272.306 592.328C272.272 592.398 272.237 592.466 272.203 592.537C272.11 592.742 272.019 592.947 271.932 593.153C271.929 593.161 271.924 593.17 271.921 593.176C271.585 593.958 271.251 594.737 270.928 595.525C271.3 595.078 271.688 594.645 272.085 594.222C272.188 594.112 272.295 594.005 272.4 593.896C272.72 593.565 273.047 593.239 273.381 592.923C273.474 592.834 273.566 592.746 273.66 592.66C274.077 592.275 274.502 591.9 274.94 591.539C274.986 591.821 275.034 592.103 275.077 592.386C275.124 592.709 275.175 593.032 275.219 593.355C275.299 593.929 275.376 594.503 275.451 595.077C275.566 595.96 275.681 596.863 275.471 597.734C275.569 597.685 275.664 597.63 275.76 597.58C276.227 597.34 276.683 597.086 277.131 596.822C277.258 596.747 277.386 596.672 277.511 596.596C277.669 596.499 277.83 596.405 277.987 596.307C278.35 596.076 278.71 595.842 279.063 595.6C279.092 595.581 279.12 595.56 279.149 595.54C279.649 595.198 280.136 594.842 280.621 594.482C280.719 594.409 280.819 594.335 280.917 594.26C281.384 593.907 281.847 593.549 282.304 593.185L282.306 593.183C282.338 593.157 282.37 593.13 282.404 593.104L282.405 593.103C282.81 592.78 283.21 592.455 283.611 592.128C283.871 591.915 284.132 591.703 284.391 591.49C284.573 591.34 284.77 591.176 284.971 591.007C284.998 590.984 285.026 590.962 285.053 590.938C285.26 590.763 285.473 590.582 285.691 590.397C286.151 590.003 286.625 589.594 287.077 589.198C287.082 589.194 287.085 589.191 287.089 589.187C288.155 588.256 289.086 587.429 289.386 587.16C289.398 587.152 289.403 587.149 289.411 587.142Z" fill="#409296"/>
<g opacity="0.54">
<path d="M261.654 575.29C266.573 577.171 270.852 580.281 273.845 584.146L274.701 586.072C273.176 587.741 270.614 588.416 268.787 589.839C267.169 591.099 266.225 592.863 265.323 594.577C266.397 591.182 267.479 587.714 267.232 584.202C266.987 580.688 265.168 577.062 261.654 575.29Z" fill="#556466"/>
<path d="M261.654 575.29C264.218 576.272 266.607 577.589 268.732 579.17C269.182 581.034 269.437 583.105 269.437 585.289C269.437 586.794 269.317 588.244 269.095 589.612C268.991 589.685 268.887 589.76 268.787 589.839C267.169 591.099 266.225 592.863 265.323 594.577C266.397 591.182 267.479 587.714 267.232 584.202C266.987 580.689 265.168 577.062 261.654 575.29Z" fill="#455051"/>
<path d="M261.654 575.29C266.573 577.171 270.852 580.281 273.845 584.146L274.701 586.072C273.176 587.741 270.614 588.416 268.787 589.839C267.169 591.099 266.225 592.863 265.323 594.577C266.397 591.182 267.479 587.714 267.232 584.202C266.987 580.688 265.168 577.062 261.654 575.29Z" fill="#495A5B"/>
<path d="M266.601 581.123C269.914 581.606 272.356 583.262 272.356 585.231C272.356 587.161 270.01 588.79 266.798 589.308C267.156 587.618 267.353 585.914 267.234 584.199C267.16 583.168 266.949 582.126 266.601 581.123Z" fill="#556466"/>
<path opacity="0.46" d="M261.654 575.29C264.218 576.272 266.607 577.589 268.732 579.17C269.182 581.034 269.437 583.105 269.437 585.289C269.437 586.794 269.317 588.244 269.095 589.612C268.991 589.685 268.887 589.76 268.787 589.839C267.169 591.099 266.225 592.863 265.323 594.577C266.397 591.182 267.479 587.714 267.232 584.202C266.987 580.689 265.168 577.062 261.654 575.29Z" fill="#455051"/>
<path d="M273.698 584.194C275.456 579.321 276.118 574.156 275.637 569.068C275.849 569.845 276.459 570.488 277.043 571.106C281.744 576.082 285.919 581.431 289.497 587.062C289.497 587.062 286.305 589.921 284.393 591.491C281.611 593.773 278.794 596.077 275.473 597.735C275.682 596.863 275.568 595.961 275.453 595.077C275.061 592.073 274.665 589.047 273.67 586.149C273.569 585.855 273.46 585.557 273.454 585.249C273.443 584.889 273.573 584.539 273.698 584.194Z" fill="#556466"/>
<path d="M289.361 586.854C289.197 587.156 288.989 587.45 288.74 587.739C288.303 588.128 287.715 588.646 287.081 589.199C284.159 591.252 279.369 592.827 275.251 593.565C274.909 591.062 274.498 588.563 273.669 586.149C273.567 585.855 273.459 585.558 273.452 585.25C273.445 584.89 273.575 584.538 273.699 584.194C274.553 581.83 275.147 579.395 275.478 576.936C278.483 577.525 281.815 578.572 284.51 579.912C286.227 582.173 287.848 584.488 289.361 586.854Z" fill="#495A5B"/>
<path d="M283.862 579.876C284.072 579.973 284.284 580.069 284.486 580.17C286.024 582.193 287.476 584.264 288.836 586.378C288.686 586.36 288.531 586.351 288.373 586.351C287.594 586.351 286.896 586.568 286.409 586.911C285.552 585.999 284.797 584.712 284.325 583.218C283.951 582.033 283.807 580.883 283.862 579.876Z" fill="#5E7272"/>
<path d="M287.687 587.156C288.03 586.919 288.553 586.763 289.145 586.763C289.201 586.763 289.253 586.77 289.309 586.773C289.372 586.868 289.436 586.965 289.497 587.062C289.497 587.062 289.454 587.1 289.388 587.159C288.82 587.104 288.252 587.104 287.687 587.156Z" fill="#313A3A"/>
<path d="M281.293 575.889C282.147 576.907 282.986 577.935 283.798 578.979C281.854 580.611 282.71 588.34 285.695 590.399C285.233 590.793 284.787 591.17 284.395 591.492C284.136 591.705 283.875 591.917 283.614 592.13C280.698 589.193 279.485 578.307 281.293 575.889Z" fill="#ACC4C6"/>
<path d="M276.2 570.146C276.453 570.481 276.752 570.797 277.043 571.107C277.708 571.811 278.36 572.525 279.004 573.243C278.032 577.287 279.787 590.714 282.308 593.182C281.613 593.735 280.908 594.279 280.189 594.804C277.849 591.91 275.514 575.337 276.2 570.146Z" fill="#ACC4C6"/>
<path d="M275.393 577.519C274.872 583.675 275.636 589.996 277.989 596.307C277.27 596.761 276.528 597.186 275.761 597.58C275.441 591.258 273.728 587.998 273.955 583.448C274.608 581.506 275.088 579.523 275.393 577.519Z" fill="#ACC4C6"/>
<path d="M271.921 593.177C272.321 592.244 272.74 591.289 273.484 590.645C274.092 590.12 274.877 589.842 275.649 589.572C277.242 589.015 278.835 588.458 280.428 587.901L279.969 588.164C276.507 590.011 273.439 592.509 270.928 595.526C271.251 594.738 271.587 593.958 271.921 593.177Z" fill="#455051"/>
<path d="M284.904 585.581C284.904 585.37 284.904 585.159 284.904 584.949C284.904 584.631 285.803 584.407 285.803 584.777C285.803 584.988 285.803 585.199 285.803 585.409C285.803 585.727 284.904 585.951 284.904 585.581Z" fill="#313A3A"/>
<path d="M283.323 579.94C283.015 581.032 282.865 582.278 282.922 583.602C283.035 586.251 283.941 588.586 285.234 589.996C285.215 589.989 285.189 589.988 285.172 589.979C283.334 589.076 283.086 587.504 282.658 586.266C281.989 584.326 282.765 579.846 283.323 579.94Z" fill="#313A3A"/>
<g opacity="0.46">
<path d="M275.746 574.002C275.827 572.358 275.792 570.71 275.637 569.071C275.848 569.848 276.459 570.491 277.043 571.109C278.099 572.227 279.123 573.365 280.126 574.52C278.738 574.236 277.27 574.058 275.746 574.002Z" fill="#455051"/>
<path d="M275.338 594.216C277.88 594.159 280.275 593.765 282.408 593.105C280.25 594.827 278.007 596.471 275.471 597.738C275.68 596.866 275.566 595.964 275.451 595.08C275.413 594.791 275.376 594.504 275.338 594.216Z" fill="#455051"/>
</g>
<path d="M276.473 590.353C274.421 591.836 272.555 593.57 270.929 595.525C271.252 594.737 271.586 593.956 271.922 593.176C272.27 592.367 272.632 591.539 273.209 590.915C273.368 590.867 273.528 590.819 273.692 590.777C274.648 590.528 275.591 590.391 276.473 590.353Z" fill="#556466"/>
</g>
</svg>
