<svg width="164" height="128" viewBox="0 0 164 128" fill="none" xmlns="http://www.w3.org/2000/svg">
<g opacity="0.5">
<path d="M123.957 90.3352C124.623 90.345 125.151 90.4309 125.309 90.6615C125.54 90.9917 124.904 91.2927 124.366 91.4549C118.381 93.2545 112.066 94.128 106.602 96.6155C105.27 97.2212 96.3206 101.686 99.0839 102.56C99.5686 102.712 100.126 102.798 100.528 103.023C102.104 103.904 98.0188 104.486 97.1647 104.735C95.1203 105.331 93.1384 106.009 91.2456 106.761C88.4361 107.877 87.2556 109.114 86.1641 111.025C84.1263 114.597 84.9474 118.397 85.9696 122.034C86.3818 123.501 87.3677 125.053 86.9126 126.557C86.2894 128.619 81.4552 127.472 79.7174 126.503C77.9334 125.51 76.9442 124.113 76.3209 122.71C75.3218 120.467 75.1305 118.128 74.5766 115.832C73.9632 113.282 72.9014 110.575 69.6302 108.768C65.1786 106.308 59.853 104.441 55.5135 101.911C51.3882 99.5036 48.2325 96.5197 46.3793 93.2701C46.1452 92.8578 45.9276 92.428 46.01 91.9962C46.0924 91.5643 46.5475 91.1285 47.2564 91.0152C48.282 90.8511 49.2119 91.3845 49.8912 91.8672C52.1335 93.4558 54.3791 95.0444 56.6214 96.6331C57.3106 97.1196 61.0302 100.61 62.1514 99.0874C62.3361 98.8353 62.3493 98.552 62.3592 98.2764C62.3922 97.2506 62.4251 96.2266 62.4548 95.2008C62.4647 94.8842 62.4779 94.5579 62.689 94.2667C62.9 93.9756 63.3617 93.7255 63.8959 93.7274C64.8324 93.7294 65.2709 94.4015 65.4621 94.9467C66.2272 97.1411 66.9956 99.3356 67.7606 101.53C67.9782 102.153 68.209 102.796 68.819 103.322C70.1018 104.428 72.3672 104.223 74.0226 103.554C75.7175 102.87 76.377 101.618 76.6474 100.473C77.175 98.2393 77.3366 95.9433 77.6532 93.6942C77.7159 93.2467 77.7719 92.7992 77.8214 92.3537C78.3556 87.3025 77.6927 82.4369 71.6615 78.4233C66.2404 74.8142 58.7253 72.6022 51.4279 70.4488C46.9333 69.122 42.4091 67.7757 38.3201 66.0366C36.091 65.0889 34.3169 63.7581 32.1339 62.83C30.0334 61.935 28.1407 61.9194 25.6049 61.3449C21.8852 60.5027 18.7525 58.9649 15.6957 57.4544C11.2342 55.2502 6.77252 53.0461 2.31095 50.8419C0.889708 50.1404 -0.669956 49.0188 0.302818 48.0867C0.899672 47.5142 2.25825 47.3656 3.34314 47.565C4.42803 47.7643 5.30517 48.2333 6.14275 48.6866C9.28201 50.3866 12.418 52.0866 15.5539 53.7866C16.6256 54.367 17.727 54.9591 19.0724 55.2874C20.4145 55.6137 22.0732 55.6274 23.2174 55.0959C25.4268 54.072 22.9338 51.137 22.5381 49.8414C21.6708 47.0081 21.2388 44.1317 20.8332 41.2651C20.6882 40.2431 20.6189 39.0863 21.8027 38.3379C26.3764 35.4518 28.5891 49.1028 29.0871 50.5663C29.5058 51.7974 29.8422 53.3236 32.5989 53.2513C34.9963 50.2948 34.64 46.8595 34.6499 43.5787C34.6598 40.2998 35.2798 36.7376 39.0554 34.3399C42.1288 37.4 41.9903 41.2378 40.7966 44.7277C39.6029 48.2176 37.4528 51.5961 36.7801 55.1349C35.9821 59.3537 48.1073 67.5569 55.1244 63.1661C56.8029 62.1168 57.2546 60.5692 57.2051 59.1232C57.1787 58.367 57.0502 57.5794 57.5283 56.876C58.0065 56.1745 59.365 55.6078 60.5522 55.8931C61.0765 56.0182 61.4656 56.2839 61.7887 56.5575C65.6436 59.8364 61.8579 64.5945 64.5982 68.2466C66.5273 70.8201 70.9756 72.1332 74.5732 73.7551C77.8906 75.2499 80.1132 78.8512 83.8756 79.5586C86.9819 77.0867 88.4757 69.6066 86.0125 66.8768C84.7825 65.5129 82.8764 64.4108 81.353 63.1544C79.8295 61.8979 78.6623 60.3386 79.2459 58.832C81.4256 59.7348 83.6053 60.6376 85.785 61.5403C85.6761 61.4973 86.296 58.5135 86.1872 58.0699C85.8508 56.7275 84.7461 55.2951 83.7964 54.0699C81.7421 51.4183 78.8139 49.0402 75.335 46.9807C68.3212 42.8283 59.0716 39.696 54.5441 34.2618C53.9274 33.5231 53.4063 32.7161 53.5217 31.8934C53.6371 31.0708 54.5573 30.2403 55.9224 30.0782C57.9537 29.8378 59.5332 31.0493 60.727 32.0537C63.8596 34.6936 68.6278 37.6325 73.8214 38.7522C71.124 35.3365 68.5784 31.3483 65.1028 28.1359C60.9611 24.3079 57.5447 20.5776 55.9949 16.0637C55.7773 15.4306 55.8861 14.5337 56.9644 14.4438C58.0493 14.3539 58.5505 15.1824 59.0419 15.7608C59.9058 16.777 61.6469 16.8023 62.4548 15.7979C63.0781 15.0241 62.4152 13.1776 62.4944 12.3159C62.778 9.28512 63.5661 6.27004 64.8621 3.33115C65.5941 1.67607 67.5198 -0.3386 70.3293 0.0483023C72.9179 0.403939 73.4026 2.44206 73.2542 4.01311C72.8388 7.94857 71.6385 11.8781 72.3474 15.7941C73.4488 15.4111 75.0251 15.0691 75.8461 15.6495C76.3639 16.0149 76.2418 16.5522 76.0967 17.0212C75.2723 19.6357 73.1982 22.9439 73.4587 25.5897C73.6896 27.9346 76.2979 30.7777 77.8379 32.9135C79.1437 34.721 80.9903 41.224 85.8937 40.5714C90.4575 39.9637 90.0552 34.5881 90.1871 32.681C90.4641 28.6947 90.3882 24.6986 89.953 20.7182C91.7172 21.1071 92.901 22.1349 93.4023 23.2096C93.9035 24.2844 93.8375 25.4217 93.8045 26.5355C93.788 27.0689 93.7914 27.6258 94.1838 28.1045C94.5795 28.5852 95.4895 28.9585 96.3634 28.8217C97.7484 28.6048 97.013 27.2135 97.1482 26.6214C97.4912 25.1109 98.8992 23.5556 99.44 22.0373C100.482 19.1296 100.67 16.0931 99.1795 13.2284C97.9495 10.864 96.9174 8.18106 98.9486 6.01988C99.1795 5.77562 99.4961 5.52358 99.961 5.47668C100.934 5.37898 101.372 6.16061 101.494 6.74096C101.86 8.50937 102.883 10.2309 104.469 11.7453C106.698 13.8713 109.956 5.67992 110.365 4.8983C110.543 4.55439 110.876 4.14208 111.483 4.14794C112.007 4.15185 112.337 4.47425 112.541 4.75954C114.859 8.01303 113.484 11.8332 111.756 15.0633C111.357 15.8117 105.161 22.8248 109.234 22.729C110.662 22.6958 111.08 21.5898 112.396 21.4217C114.154 21.197 115.413 21.8926 114.82 22.8227C114.424 23.4383 112 24.1984 111.179 24.6674C109.418 25.6698 107.793 26.7778 106.108 27.8271C103.562 29.4118 100.09 31.0239 98.2991 32.9076C96.4458 34.8578 95.3049 37.0287 94.4772 39.2036C93.8408 40.8782 92.1986 43.649 93.6462 45.2807C94.1672 45.8688 95.3445 46.3104 96.4129 46.1033C97.1878 45.9528 97.6957 45.5132 98.0518 45.0774C98.4112 44.6417 98.6948 44.1688 99.2686 43.8249C99.8423 43.481 100.835 43.3149 101.481 43.6119C102.339 44.0086 101.953 44.8156 101.442 45.3842C99.8687 47.1468 97.8374 48.751 96.1952 50.4921C91.7996 55.1525 93.3099 61.3996 93.577 66.5095C93.6858 68.6179 96.1656 68.8817 99.0707 68.3111C102.738 67.5901 103.727 64.5085 105.428 62.6053C105.742 62.2516 106.078 61.892 106.602 61.6419C107.127 61.3918 107.898 61.2784 108.485 61.4738C109.184 61.7044 109.359 62.2555 109.31 62.7283C109.26 63.2012 109.059 63.6878 109.303 64.1392C109.626 64.7371 112.835 62.0777 113.003 61.9585C114.569 60.8369 115.961 59.6312 117.158 58.3611C119.499 55.8833 121.108 53.1574 121.817 50.3475C121.946 49.8375 122.071 49.2943 122.645 48.9074C123.219 48.5205 124.422 48.4227 124.89 48.8565C125.181 49.1243 125.088 49.4721 124.983 49.7847C124.531 51.1389 124.083 52.495 123.631 53.8492C123.413 54.5077 123.341 55.3616 124.35 55.6645C125.266 55.94 126.318 55.5218 127.1 55.1252C129.352 53.9859 132.557 53.0675 133.84 51.4593C135.235 49.7105 135.944 47.7017 136.125 45.779C136.155 45.478 136.171 45.1673 136.402 44.8976C136.633 44.6299 137.144 44.4189 137.635 44.4951C138.318 44.6006 138.486 45.1321 138.397 45.5484C138.308 45.9626 138.117 46.4277 138.529 46.7658C141.075 48.8644 145.276 40.1122 145.51 39.3384C145.754 38.5255 146.1 37.5681 147.386 37.2495C148.557 36.9603 149.955 37.4214 150.555 38.0839C151.152 38.7463 151.132 39.5416 150.994 40.2881C150.763 41.5309 150.773 42.4942 149.948 43.6431C149.332 44.5029 148.379 45.2201 147.894 46.1131C147.775 46.3319 147.103 48.9367 147.449 48.9015C151.973 48.4521 156.257 47.1761 159.567 45.2963C160.079 45.0051 160.586 44.6944 161.229 44.5205C161.876 44.3466 162.717 44.3466 163.221 44.6397C163.765 44.9563 163.732 45.5054 163.353 45.8982C162.974 46.2909 162.327 46.5625 161.701 46.8224C157.45 48.5869 153.203 50.3495 148.953 52.114C147.436 52.7452 135.845 56.495 139.624 58.0269C140.264 58.2868 141.104 58.2575 141.876 58.2204C144.933 58.0719 147.993 57.9214 151.05 57.7729C147.64 59.682 142.839 60.4128 138.212 60.872C134.49 61.2413 130.681 61.4797 127.096 62.2262C125.164 62.2262 122.909 63.4826 121.583 64.1939C119.796 65.1533 117.863 66.0327 116.01 66.9472C115.176 67.3595 114.249 67.9672 114.681 68.5592C115.779 70.0678 123.403 68.8895 125.563 68.9403C126.628 68.9657 129.233 69.3135 128.29 70.269C127.753 70.8142 123.895 71.2207 122.892 71.3985C118.602 72.1567 114.177 72.5885 109.86 73.29C100.637 74.7849 94.7246 77.6475 91.0412 82.8687C87.3447 88.1134 85.165 93.6786 82.8436 99.1753C82.217 100.655 81.6761 102.157 81.4948 103.681C81.4123 104.369 80.7331 107.474 83.0611 106.274C86.2564 104.627 89.9893 103.044 92.8713 101.225C95.4863 99.572 96.6404 96.6136 96.8448 94.4309C96.9503 93.2936 96.8118 92.1349 97.2867 91.0308C97.7615 89.9268 99.041 88.8462 100.917 88.6039C100.739 89.8916 100.561 91.1813 100.38 92.469C100.284 93.1705 100.314 94.0283 101.339 94.382C102.381 94.7415 103.714 94.2999 104.495 93.7528C106.216 92.5472 108.152 91.7284 109.831 90.4778C111.661 89.1178 113.484 87.75 115.516 86.4935C116.116 86.1223 116.755 85.751 117.56 85.5575C118.872 85.241 120.696 85.3895 120.264 86.3743C120.069 86.8238 119.153 87.4725 118.8 87.9297C118.285 88.5902 116.093 90.1203 117.197 90.8667C117.936 91.365 119.169 90.8452 120.056 90.7143C120.653 90.6224 122.595 90.3157 123.957 90.3352Z" fill="#F35F3B"/>
<path d="M91.6617 21.9809C92.1629 23.0556 92.097 24.1909 92.064 25.3067C92.0475 25.8401 92.0475 26.3971 92.4432 26.8758C92.7334 27.2275 93.3006 27.5206 93.9271 27.5988C93.8117 27.251 93.8018 26.8875 93.8117 26.5319C93.8447 25.4161 93.9139 24.2808 93.4094 23.2061C93.017 22.3678 92.2091 21.5627 91.0352 21.0625C91.299 21.3556 91.5133 21.6643 91.6617 21.9809Z" fill="#E24C26"/>
<path d="M62.8573 67.017C63.5136 67.8924 64.4731 68.6134 65.5778 69.2583C65.2117 68.9397 64.8787 68.6056 64.605 68.2402C61.8648 64.5881 65.6503 59.83 61.7955 56.5511C61.4888 56.2912 61.1195 56.043 60.6348 55.9102C63.4805 59.1558 60.2754 63.5759 62.8573 67.017Z" fill="#E24C26"/>
<path d="M75.5175 74.2461C76.8332 75.2876 78.0829 76.4581 79.5108 77.3022C78.1885 76.2588 76.9354 75.0883 75.5175 74.2461Z" fill="#E24C26"/>
<path d="M102.727 10.5185C103.024 10.7999 103.334 10.8957 103.657 10.8566C102.546 9.56888 101.797 8.17173 101.501 6.73746C101.382 6.1571 100.94 5.37548 99.9673 5.47318C99.8914 5.481 99.8222 5.50253 99.7529 5.52011C100.119 7.28657 101.141 9.00415 102.727 10.5185Z" fill="#E24C26"/>
<path d="M110.013 13.8386C109.614 14.587 103.418 21.6001 107.494 21.5044C107.635 21.5005 107.757 21.481 107.879 21.4575C108.153 19.4214 111.474 15.6051 111.761 15.0639C113.489 11.8338 114.864 8.01362 112.545 4.76013C112.341 4.47484 112.011 4.15244 111.487 4.14854C111.381 4.14658 111.296 4.1739 111.21 4.19344C112.928 7.29647 111.625 10.8235 110.013 13.8386Z" fill="#E24C26"/>
<path d="M149.253 39.0594C149.023 40.3022 149.032 41.2656 148.208 42.4146C147.591 43.2743 146.638 43.9915 146.154 44.8845C146.035 45.1033 145.362 47.7081 145.709 47.6729C146.325 47.6123 146.935 47.5322 147.539 47.4403C147.674 46.819 147.849 46.2113 147.901 46.1096C148.386 45.2186 149.339 44.4996 149.956 43.6398C150.78 42.4927 150.77 41.5274 151.001 40.2846C151.14 39.5382 151.159 38.7429 150.562 38.0805C150.246 37.7307 149.705 37.4415 149.095 37.2832C149.385 37.8479 149.365 38.4674 149.253 39.0594Z" fill="#E24C26"/>
<path d="M113.08 21.5978C112.685 22.2133 110.261 22.9734 109.44 23.4424C107.676 24.4448 106.053 25.5528 104.368 26.6021C101.823 28.1868 98.3503 29.7989 96.5598 31.6826C94.7065 33.6328 93.5656 35.8037 92.7379 37.9785C92.1015 39.6532 90.4593 42.424 91.9069 44.0556C92.2136 44.4015 92.7511 44.6946 93.3578 44.8353C92.4906 43.1802 93.9052 40.7357 94.4888 39.2038C95.3165 37.0289 96.4575 34.8579 98.3107 32.9078C100.101 31.026 103.574 29.412 106.119 27.8272C107.804 26.7779 109.43 25.6719 111.191 24.6675C112.015 24.1986 114.439 23.4384 114.831 22.8229C115.336 22.0354 114.502 21.4219 113.169 21.3867C113.143 21.4571 113.127 21.5255 113.08 21.5978Z" fill="#E24C26"/>
<path d="M74.3531 15.7935C73.5287 18.408 71.4546 21.7143 71.7151 24.362C71.9459 26.7069 74.5542 29.55 76.0941 31.6858C77.1461 33.1455 78.5574 37.6632 81.6406 39.0076C79.7247 37.1083 78.6728 34.06 77.8451 32.911C76.3019 30.7752 73.6935 27.9301 73.466 25.5872C73.2055 22.9395 75.283 19.6332 76.1041 17.0187C76.2492 16.5517 76.3711 16.0124 75.8534 15.647C75.4973 15.3949 74.9961 15.3245 74.4553 15.348C74.4322 15.4984 74.396 15.6489 74.3531 15.7935Z" fill="#E24C26"/>
<path d="M91.833 65.2867C91.8924 66.4122 92.6277 67.0082 93.739 67.2349C93.65 67.0219 93.5939 66.7815 93.5807 66.5099C93.3136 61.4001 91.8033 55.153 96.199 50.4926C97.8411 48.7515 99.8724 47.1472 101.445 45.3847C101.953 44.816 102.339 44.009 101.485 43.6123C101.102 43.4345 100.598 43.4248 100.13 43.5146C100.031 43.7394 99.8724 43.9641 99.6977 44.1595C98.1247 45.922 96.0935 47.5263 94.4513 49.2674C90.0557 53.9297 91.5659 60.1768 91.833 65.2867Z" fill="#E24C26"/>
<path d="M98.9166 89.2816C98.8276 89.9323 98.7353 90.583 98.6462 91.2356C98.5473 91.9372 98.5802 92.795 99.6058 93.1487C99.8531 93.2347 100.117 93.2718 100.384 93.2757C100.341 93.0041 100.358 92.7207 100.394 92.4608C100.572 91.1731 100.75 89.8834 100.931 88.5957C100.15 88.6973 99.4772 88.9494 98.9166 89.2816Z" fill="#E24C26"/>
<path d="M123.957 90.3349C123.275 90.3251 122.447 90.3974 121.715 90.4834C116.003 92.1111 110.045 93.0276 104.854 95.39C103.522 95.9958 94.5727 100.461 97.3361 101.334C97.768 101.471 98.256 101.559 98.6386 101.735C99.4168 100.142 105.521 97.1076 106.602 96.6152C112.066 94.1277 118.384 93.2542 124.366 91.4545C124.903 91.2924 125.54 90.9914 125.309 90.6612C125.151 90.4306 124.623 90.3446 123.957 90.3349Z" fill="#E24C26"/>
<path d="M118.336 85.4304C117.989 85.8408 117.35 86.3293 117.066 86.6967C116.552 87.3571 114.359 88.8871 115.463 89.6316C115.902 89.9267 116.515 89.8642 117.122 89.7372C117.551 89.0591 118.497 88.3263 118.814 87.9218C119.17 87.4646 120.083 86.8158 120.278 86.3664C120.631 85.5633 119.48 85.3229 118.336 85.4304Z" fill="#E24C26"/>
<path d="M126.57 69.0176C126.563 69.0254 126.56 69.0313 126.553 69.0371C126.012 69.5823 122.157 69.9887 121.155 70.1665C116.865 70.9247 112.44 71.3566 108.123 72.0581C98.8999 73.5549 92.9874 76.4156 89.304 81.6368C85.6042 86.8815 83.4278 92.4467 81.1064 97.9434C80.4798 99.4226 79.9358 100.925 79.7577 102.449C79.6752 103.137 78.9959 106.242 81.3239 105.042C81.3338 105.037 81.3471 105.031 81.3569 105.025C81.3734 104.47 81.4789 103.919 81.5086 103.675C81.69 102.15 82.2341 100.648 82.8574 99.1685C85.1789 93.6718 87.3585 88.1067 91.055 82.862C94.7384 77.6408 100.651 74.78 109.874 73.2832C114.187 72.5837 118.616 72.1499 122.906 71.3917C123.912 71.2139 127.767 70.8075 128.304 70.2623C129.013 69.5452 127.71 69.17 126.57 69.0176Z" fill="#E24C26"/>
<path d="M163.232 44.6363C162.86 44.4194 162.309 44.3666 161.785 44.4193C161.738 44.5053 161.689 44.5913 161.613 44.6695C161.234 45.0623 160.587 45.3339 159.961 45.5937C155.714 47.3583 151.463 49.1208 147.213 50.8853C145.696 51.5165 134.105 55.2644 137.884 56.7983C138.2 56.9253 138.563 56.9839 138.946 57.0054C139.724 55.237 147.717 52.6283 148.96 52.1125C153.211 50.3479 157.458 48.5854 161.709 46.8209C162.335 46.561 162.978 46.2894 163.361 45.8966C163.747 45.5019 163.78 44.9528 163.232 44.6363Z" fill="#E24C26"/>
<path d="M71.511 2.78636C71.0955 6.72182 69.8952 10.6515 70.6041 14.5674C71.0724 14.4052 71.6264 14.2547 72.1705 14.1746C71.9694 10.7941 72.9058 7.40576 73.262 4.01158C73.4005 2.58121 72.9915 0.779573 70.9668 0.195312C71.4779 0.974978 71.5934 1.94417 71.511 2.78636Z" fill="#E24C26"/>
<path d="M136.476 59.6415C132.75 60.0109 128.944 60.2492 125.36 60.9957C123.427 60.9957 121.169 62.2521 119.846 62.9634C118.059 63.9209 116.127 64.8002 114.273 65.7167C113.439 66.129 112.513 66.7367 112.945 67.3288C113.202 67.6844 113.832 67.8857 114.656 67.9951C114.851 67.5984 115.451 67.2232 116.021 66.9419C117.874 66.0274 119.807 65.148 121.594 64.1886C122.92 63.4793 125.178 62.2209 127.111 62.2209C130.692 61.4745 134.501 61.236 138.223 60.8667C142.85 60.4075 147.651 59.6747 151.061 57.7676C149.257 57.8555 147.457 57.9435 145.653 58.0314C142.843 58.8795 139.625 59.3289 136.476 59.6415Z" fill="#E24C26"/>
<path d="M99.0873 102.557C99.0246 102.537 98.9751 102.514 98.9223 102.49C98.2298 102.989 96.0205 103.33 95.4171 103.506C93.3693 104.102 91.3907 104.78 89.4979 105.533C86.6884 106.648 85.508 107.885 84.4165 109.796C82.3786 113.368 83.1997 117.169 84.222 120.807C84.6341 122.273 85.62 123.826 85.165 125.331C84.5681 127.311 80.0966 126.332 78.1973 125.392C78.6292 125.794 79.1239 126.171 79.7174 126.5C81.4585 127.469 86.2927 128.616 86.9127 126.554C87.3677 125.052 86.3785 123.498 85.9696 122.031C84.9507 118.392 84.1263 114.594 86.1642 111.02C87.2557 109.109 88.4394 107.87 91.2456 106.756C93.1384 106.004 95.1203 105.326 97.1648 104.73C98.0188 104.481 102.104 103.899 100.528 103.018C100.129 102.797 99.572 102.711 99.0873 102.557Z" fill="#E24C26"/>
<path d="M71.2173 78.1483C70.8117 77.8279 70.3863 77.5094 69.9181 77.1967C64.4969 73.5876 56.9818 71.3756 49.6811 69.2222C45.1898 67.8954 40.6623 66.5491 36.5734 64.81C34.3442 63.8623 32.5701 62.5315 30.3871 61.6034C28.2866 60.7084 26.3939 60.6928 23.8581 60.1183C20.1385 59.2761 17.0058 57.7383 13.949 56.2278C9.48739 54.0237 5.02575 51.8195 0.564179 49.6153C0.508121 49.588 0.452056 49.5547 0.3927 49.5254C0.83457 50.0178 1.58971 50.4829 2.31187 50.8405C6.77344 53.0446 11.2351 55.2488 15.6933 57.453C18.7534 58.9635 21.8861 60.5013 25.6025 61.3435C28.1383 61.918 30.031 61.9336 32.1315 62.8286C34.3112 63.7568 36.0886 65.0875 38.3177 66.0352C42.4067 67.7743 46.9309 69.1206 51.4255 70.4474C58.535 72.5441 65.8325 74.7053 71.2173 78.1483Z" fill="#E24C26"/>
<path d="M39.0558 43.4985C37.8621 46.9884 35.7122 50.3669 35.0395 53.9057C34.68 55.8031 36.9422 58.5075 40.1738 60.5084C37.9182 58.7185 36.497 56.6629 36.7872 55.1309C37.4566 51.5921 39.6065 48.2136 40.8035 44.7236C41.9972 41.2337 42.1358 37.396 39.0625 34.3359C38.8877 34.4454 38.7294 34.5606 38.5679 34.6759C40.309 37.4233 40.055 40.5811 39.0558 43.4985Z" fill="#E24C26"/>
<path d="M63.8964 93.7227C63.837 93.7227 63.7809 93.7363 63.7216 93.7422C64.4866 95.9287 65.2483 98.1134 66.0134 100.3C66.231 100.923 66.4618 101.566 67.0718 102.092C67.4214 102.393 67.8468 102.59 68.3084 102.713C68.0611 102.332 67.9028 101.926 67.7643 101.525C66.9993 99.3307 66.231 97.1364 65.4659 94.942C65.2714 94.3968 64.8329 93.7246 63.8964 93.7227Z" fill="#E24C26"/>
<path d="M52.7267 99.5171C53.2938 99.9998 53.8973 100.494 54.7646 100.778C55.3779 100.977 56.0737 101.055 56.7431 101.178C58.7513 101.545 60.4759 102.309 62.1181 103.087C63.5196 103.75 64.8947 104.433 66.2697 105.117C67.5525 105.754 68.8418 106.397 69.9201 107.154C71.4106 108.199 72.4625 109.436 73.4979 110.661C74.3619 111.679 75.2324 112.719 75.5325 113.844C75.8194 114.919 75.5655 116.017 75.6347 117.106C75.7633 119.144 77.0164 121.09 78.2497 122.995C78.4574 123.314 78.9949 123.698 79.4599 123.499C79.661 123.413 79.7137 123.251 79.75 123.106C80.304 120.955 80.792 118.798 81.2141 116.637C81.4713 115.32 81.7022 113.985 81.3922 112.672C80.9801 110.937 79.6445 109.336 78.3255 107.767C77.7121 107.036 77.079 106.29 76.0963 105.717C72.8878 103.849 67.0314 104.363 64.057 102.364C62.6523 101.422 61.9269 99.9529 59.8725 99.6363C59.2229 99.5347 58.5369 99.5757 57.8741 99.5249C56.3902 99.4096 55.0877 98.8332 54.237 98.1024C53.3862 97.3735 52.9477 96.502 52.6806 95.6305C52.5157 95.0854 52.3904 94.5031 51.7968 94.0751C51.3055 93.7195 50.0491 93.4674 49.3862 93.8269C48.707 94.1963 49.1324 95.101 49.3105 95.5543C49.8842 97.0101 51.3021 98.3056 52.7267 99.5171Z" fill="#F77250"/>
<path d="M78.5347 82.2743C79.115 83.4799 79.6822 84.711 79.6558 85.9655C79.6294 87.1594 79.0655 88.365 79.4975 89.5316C79.6591 89.9693 80.1769 90.4676 80.9254 90.407C81.542 90.3562 81.8684 89.9556 82.0795 89.6098C83.3424 87.5483 84.4504 85.4535 85.3935 83.3334C85.4825 83.136 85.5683 82.9347 85.565 82.7296C85.5452 81.9245 84.2064 81.3949 83.0853 80.9396C82.0103 80.5039 81.0077 80.0095 80.0877 79.4624C79.2897 78.9876 78.472 78.4033 77.3376 78.2157C76.4935 78.077 75.4712 78.2255 75.7713 78.8605C76.0021 79.353 77.0739 79.9118 77.4564 80.4179C77.9114 81.0158 78.2313 81.6451 78.5347 82.2743Z" fill="#F77250"/>
<path d="M55.1902 32.3567C54.8835 33.2868 55.8596 34.1818 56.8554 34.9244C60.1299 37.365 64.1331 39.4617 68.621 41.0855C69.64 40.6399 69.5378 39.6766 68.8255 39.0572C68.1133 38.4377 66.9789 38.045 66.0061 37.5662C64.11 36.6302 62.8174 35.3464 61.4753 34.1193C60.6806 33.3924 59.8529 32.6752 58.9065 32.0148C57.5809 31.0886 55.6551 30.9537 55.1902 32.3567Z" fill="#F77250"/>
<path d="M63.6317 23.8018C64.1165 24.1672 64.621 24.5209 65.1255 24.8745C65.3431 25.027 65.6168 25.1931 65.9499 25.1696C66.2005 25.152 66.3917 25.0308 66.5434 24.9116C68.1691 23.6454 68.0933 21.9063 68.8781 20.3841C69.3628 19.4384 70.2038 18.5376 70.2631 17.5488C70.306 16.8493 69.9366 16.1516 69.32 15.5537C68.5649 14.8229 67.4239 14.2034 67.0677 13.373C66.8039 12.7555 67.015 12.1009 67.3513 11.4971C68.0141 10.2954 69.1485 9.18941 69.6795 7.96422C70.2104 6.73903 69.9861 5.26762 68.344 4.45864C68.1692 4.37266 67.9614 4.29254 67.7371 4.30622C67.4173 4.32576 67.2194 4.51724 67.0809 4.69115C64.8089 7.51671 64.1693 10.7155 64.2484 13.8459C64.2781 15.0593 64.3935 16.3275 63.5394 17.4315C63.3218 17.7129 62.9821 18.0041 62.471 18.0588C62.105 18.0979 61.7356 18.0041 61.4125 17.8946C60.687 17.6465 60.0572 17.2948 59.5989 16.8766C59.1009 16.4252 57.8412 15.7061 57.6862 16.6793C57.5708 17.4081 58.5403 18.4477 59.002 19.1062C60.1726 20.7867 61.7356 22.3714 63.6317 23.8018Z" fill="#F77250"/>
<path d="M23.3129 57.1039C23.0557 57.3208 22.7985 57.5905 22.9568 57.8386C23.0359 57.9617 23.2041 58.0555 23.3723 58.1395C24.688 58.8059 26.3236 59.2514 28.035 59.4097C29.331 59.5289 30.7522 59.5074 31.8074 59.9685C32.4999 60.2714 32.9253 60.7443 33.5584 61.0902C33.7628 61.2016 34.0464 61.3071 34.3069 61.2446C34.5311 61.1918 34.6301 61.0394 34.7059 60.9026C35.2665 59.8747 35.7974 58.759 35.217 57.7351C34.5938 56.6369 32.8527 55.9217 31.2172 55.2866C29.852 54.7571 28.4802 54.0693 27.0622 54.7591C25.6476 55.4469 24.3748 56.2129 23.3129 57.1039Z" fill="#F77250"/>
<path d="M22.4198 45.7516C22.6276 46.1619 22.9573 46.6133 23.6432 46.7482C23.7586 46.7716 23.8839 46.7833 23.996 46.7579C24.1279 46.7267 24.2169 46.6524 24.2895 46.5781C25.2161 45.65 25.4238 44.5342 25.4502 43.4556C25.47 42.6974 25.4106 41.9392 25.3546 41.1811C25.3084 40.5597 25.1766 39.8465 24.3093 39.4987C22.1956 38.6486 21.8527 41.1127 21.7537 41.7536C21.546 43.096 21.7702 44.4619 22.4198 45.7516Z" fill="#F77250"/>
<path d="M135.169 52.6144C134.658 53.0873 133.989 53.4918 133.283 53.865C131.028 55.055 128.34 55.9578 125.458 56.4932C124.578 56.6554 123.678 56.7863 122.833 57.0071C121.092 57.4624 119.655 58.3085 118.87 59.3344C118.705 59.5513 118.58 59.8307 118.847 60.0105C118.982 60.1023 119.19 60.1434 119.391 60.1688C120.901 60.3544 122.395 59.8327 123.572 59.2406C124.749 58.6505 125.847 57.949 127.308 57.6559C128.531 57.4116 129.9 57.48 131.09 57.181C133.059 56.6847 133.949 55.3638 135.252 54.3574C136.099 53.7009 137.184 53.1537 138.411 52.759C139.268 52.4835 140.205 52.2764 140.95 51.9012C142.305 51.2173 142.764 49.9804 142.018 49.0229C141.369 48.1885 138.312 46.8637 137.108 48.0341C136.515 48.6125 136.696 49.6482 136.512 50.3106C136.281 51.1157 135.921 51.9188 135.169 52.6144Z" fill="#F77250"/>
<path d="M103.726 68.2748C102.918 69.1619 101.909 70.0217 100.475 70.5649C99.0405 71.1082 97.1114 71.2801 95.6308 70.7818C94.3844 70.3637 93.6259 69.5508 92.3762 69.1385C92.0002 69.0135 91.5385 68.9294 91.1461 69.033C90.9153 69.0936 90.7439 69.2088 90.5889 69.3261C88.6401 70.7721 87.9937 72.8024 88.9236 74.5708C89.0457 74.7994 89.2006 75.0339 89.5172 75.1843C89.959 75.3954 90.6086 75.3856 91.1329 75.2566C91.6572 75.1277 92.0893 74.8991 92.5345 74.688C95.6177 73.2323 99.5648 72.6167 103.38 72.0266C104.673 71.8273 106.048 71.5967 106.908 70.991C107.472 70.5943 107.743 70.0823 107.921 69.5762C108.214 68.7419 108.29 67.882 108.148 67.034C108.072 66.5806 107.901 64.9783 107.083 64.7595C105.787 64.4136 104.198 67.7511 103.726 68.2748Z" fill="#F77250"/>
</g>
</svg>
