<svg width="100" height="156" viewBox="0 0 100 156" fill="none" xmlns="http://www.w3.org/2000/svg">
<g opacity="0.8">
<g opacity="0.81">
<path d="M26.8324 5.40172C26.6524 5.40366 26.5615 4.70894 26.0661 3.86716C25.5939 3.02924 24.5779 2.10812 23.3085 1.89138C22.9795 1.82171 22.7724 1.83139 22.3099 1.83333C22.0835 1.87397 21.7042 1.91653 21.4333 2.03071C20.8431 2.22035 20.3438 2.5919 19.9665 2.99441C19.5949 3.41046 19.355 3.87683 19.2215 4.29869C19.1557 4.50188 19.1073 4.7341 19.0957 4.86956C19.0647 4.9489 19.0628 5.34367 19.055 5.40172C19.055 5.97646 19.206 6.96338 19.9665 7.8071C20.6999 8.64308 22.041 9.17331 23.3085 8.9082C24.5779 8.6934 25.5958 7.76646 26.0661 6.93242C26.5615 6.10224 26.6524 5.39979 26.8324 5.40172C26.9156 5.40366 26.9891 5.57782 27.0472 5.88551C27.0781 6.22029 27.0878 6.71375 26.9233 7.28461C26.6408 8.42441 25.5532 9.9435 23.7497 10.5337C21.9868 11.182 19.7497 10.6421 18.428 9.36489C17.056 8.10511 16.6651 6.38284 16.6806 5.40172C16.7 5.06114 16.6845 4.99534 16.7522 4.57348C16.8064 4.20387 16.8935 3.88845 17.0309 3.52658C17.2979 2.81444 17.7585 2.06167 18.43 1.43662C19.1034 0.825116 19.9684 0.325853 20.9224 0.126534C21.414 0.0084904 21.8416 -0.0108678 22.4086 0.00461328C22.7434 0.0375107 23.3298 0.109113 23.7516 0.26973C25.5532 0.859947 26.6408 2.37904 26.9233 3.5169C27.2291 4.68379 26.9717 5.4114 26.8324 5.40172Z" fill="#B8E2E7"/>
</g>
<g opacity="0.81">
<path d="M24.3157 17.9177C24.2073 17.9196 24.155 17.5036 23.859 17.0024C23.5764 16.5011 22.9707 15.9516 22.2122 15.8239C22.0148 15.7813 21.8909 15.7871 21.6142 15.7871C21.4807 15.8122 21.2523 15.8355 21.0917 15.9051C20.7376 16.0193 20.4415 16.2418 20.2151 16.4818C19.9926 16.7295 19.8494 17.0082 19.77 17.2597C19.7313 17.3816 19.7023 17.519 19.6945 17.6003C19.6752 17.6468 19.6733 17.8828 19.6694 17.9177C19.6694 18.2621 19.7604 18.8504 20.2132 19.3555C20.6525 19.8547 21.4536 20.1702 22.2083 20.0134C22.9669 19.8857 23.5726 19.3303 23.8551 18.833C24.1551 18.3357 24.2073 17.9157 24.3157 17.9177C24.364 17.9196 24.4086 18.0241 24.4434 18.206C24.4608 18.4073 24.4685 18.7014 24.3698 19.042C24.1996 19.7232 23.5494 20.6288 22.4754 20.9829C21.4226 21.368 20.0874 21.0468 19.2979 20.2863C18.4774 19.5316 18.2432 18.504 18.2529 17.9177C18.2645 17.7164 18.2548 17.6758 18.2954 17.4242C18.3283 17.2036 18.3787 17.014 18.4619 16.7992C18.6206 16.3734 18.8973 15.9245 19.2979 15.5529C19.6984 15.1853 20.217 14.8892 20.786 14.7711C21.0782 14.7015 21.3336 14.6879 21.6723 14.6976C21.8716 14.717 22.2238 14.7595 22.4754 14.8563C23.5513 15.2085 24.2015 16.1141 24.3679 16.7953C24.5518 17.4919 24.3989 17.9235 24.3157 17.9177Z" fill="#B8E2E7"/>
</g>
<path d="M56.9824 114.344C56.816 114.346 56.7347 113.715 56.2838 112.945C55.8542 112.181 54.9293 111.339 53.7682 111.142C53.4702 111.08 53.2786 111.088 52.8606 111.091C52.6535 111.128 52.3071 111.165 52.0614 111.267C51.5234 111.442 51.0667 111.78 50.7242 112.146C50.3817 112.527 50.1649 112.951 50.043 113.336C49.9192 113.762 49.9056 113.953 49.8882 114.399C49.8921 114.815 50.0256 115.794 50.7203 116.537C51.3918 117.301 52.6148 117.785 53.7682 117.545C54.9273 117.346 55.8523 116.504 56.2838 115.74C56.7347 114.985 56.816 114.344 56.9824 114.344C57.056 114.35 57.1218 114.507 57.1798 114.788C57.2069 115.091 57.2147 115.542 57.0618 116.063C56.8044 117.102 55.8136 118.486 54.1707 119.022C52.5606 119.616 50.521 119.122 49.3154 117.955C48.7058 117.386 48.284 116.701 48.0421 116.051C47.7963 115.376 47.7305 114.851 47.7247 114.288C47.7247 114.006 47.7963 113.245 48.0421 112.632C48.284 111.983 48.7078 111.298 49.3173 110.731C49.9308 110.17 50.7223 109.717 51.5911 109.536C52.0401 109.427 52.429 109.412 52.9438 109.421C53.2495 109.452 53.7894 109.518 54.1707 109.663C55.8155 110.201 56.8044 111.587 57.0637 112.626C57.3443 113.69 57.1082 114.354 56.9824 114.344Z" fill="#B8E2E7"/>
<path d="M58.4802 123.652C58.3777 123.656 58.3293 123.265 58.0506 122.793C57.7855 122.324 57.2166 121.806 56.5045 121.686C55.7382 121.537 55.0744 121.835 54.6293 122.303C54.1978 122.798 54.1242 123.292 54.1184 123.652C54.1184 123.975 54.2016 124.528 54.6293 124.999C55.0415 125.467 55.7923 125.765 56.5045 125.62C57.2166 125.498 57.7855 124.979 58.0506 124.509C58.3293 124.047 58.3796 123.65 58.4802 123.652C58.5576 123.644 58.7028 124.047 58.5306 124.708C58.3699 125.347 57.7623 126.2 56.7522 126.529C55.7614 126.893 54.5093 126.589 53.7662 125.873C52.998 125.169 52.7774 124.201 52.7851 123.652C52.7716 123.139 52.9999 122.112 53.7662 121.432C54.1436 121.088 54.6293 120.807 55.1654 120.695C55.4421 120.629 55.682 120.62 55.9974 120.627C56.1852 120.645 56.5161 120.685 56.7541 120.776C57.7623 121.107 58.3719 121.957 58.5325 122.593C58.7047 123.249 58.5596 123.658 58.4802 123.652Z" fill="#B8E2E7"/>
<path d="M39.6609 128.043C39.4829 128.047 39.3958 127.364 38.91 126.541C38.4476 125.721 37.4529 124.813 36.2086 124.604C35.8874 124.536 35.6842 124.546 35.2314 124.546C35.0088 124.587 34.6373 124.627 34.3741 124.742C33.7935 124.929 33.3078 125.289 32.9363 125.686C32.5705 126.09 32.3344 126.547 32.2048 126.963C32.0751 127.418 32.0577 127.625 32.0403 128.103C32.0422 128.548 32.1874 129.601 32.9343 130.402C33.6523 131.22 34.9682 131.741 36.2067 131.486C37.4529 131.275 38.4476 130.367 38.91 129.547C39.3958 128.73 39.4829 128.041 39.6609 128.043C39.7402 128.047 39.8118 128.217 39.8699 128.519C39.8989 128.846 39.9105 129.33 39.748 129.889C39.4693 131.006 38.4069 132.496 36.6401 133.07C34.9101 133.707 32.7195 133.177 31.4269 131.925C30.7689 131.315 30.3161 130.576 30.0549 129.879C29.7917 129.154 29.7201 128.589 29.7143 127.983C29.7143 127.683 29.7917 126.864 30.0568 126.203C30.3161 125.508 30.7689 124.771 31.4269 124.157C32.0887 123.557 32.9363 123.068 33.871 122.872C34.3528 122.758 34.7708 122.741 35.3262 122.75C35.6532 122.783 36.2318 122.855 36.644 123.012C38.4089 123.588 39.4732 125.078 39.7499 126.197C40.0499 127.34 39.7963 128.055 39.6609 128.043Z" fill="#B8E2E7"/>
<g opacity="0.81">
<path d="M15.4019 13.7261C15.1329 13.7319 14.9916 12.6753 14.2389 11.402C13.5229 10.1325 11.9864 8.72566 10.059 8.39475C9.82096 8.35024 9.57907 8.32121 9.33911 8.3096C9.08174 8.29218 8.92886 8.30767 8.58054 8.31541C8.16061 8.35605 7.64393 8.44893 7.21239 8.60374C6.32223 8.90756 5.55591 9.44747 4.98891 10.0745C3.82976 11.3458 3.59175 12.8533 3.60529 13.7261C3.59175 14.5988 3.82976 16.1024 4.98891 17.3777C6.09388 18.6568 8.13545 19.4425 10.059 19.0574C11.9864 18.7265 13.5229 17.3215 14.2389 16.0502C14.9916 14.773 15.1329 13.7203 15.4019 13.7261C15.6167 13.7067 16.0076 14.8155 15.5374 16.5843C15.1078 18.3143 13.4629 20.621 10.7266 21.5169C9.38943 21.9678 7.87227 22.0568 6.43446 21.7298C4.99085 21.4163 3.66527 20.681 2.65126 19.7385C0.567115 17.8344 -0.0405105 15.2161 0.00206254 13.728C-0.0385754 12.2379 0.567115 9.61969 2.65126 7.71745C3.66527 6.77503 4.99085 6.03968 6.43446 5.72232C7.16788 5.55977 7.86066 5.50558 8.64826 5.53848C8.9037 5.55977 9.35459 5.59847 9.69324 5.67007C10.0474 5.73199 10.3899 5.82682 10.7247 5.93712C13.461 6.83309 15.1078 9.13978 15.5354 10.8679C16.0057 12.6346 15.6167 13.7454 15.4019 13.7261Z" fill="#B8E2E7"/>
</g>
<path d="M52.7811 56.013C52.7192 56.0149 52.6882 55.775 52.516 55.4847C52.3535 55.1964 51.9993 54.8751 51.562 54.7996C51.0898 54.7048 50.6815 54.8945 50.4086 55.1789C50.1416 55.4847 50.0951 55.7904 50.0913 56.013C50.0913 56.2123 50.1435 56.5529 50.4086 56.8451C50.6621 57.1334 51.1247 57.3192 51.562 57.2283C52.0013 57.1547 52.3535 56.8335 52.516 56.5432C52.6882 56.2549 52.7192 56.013 52.7811 56.013C52.8295 56.0091 52.9185 56.2587 52.8121 56.6651C52.7153 57.0599 52.338 57.5843 51.7168 57.7875C51.1072 58.0139 50.3332 57.8262 49.8765 57.3831C49.4024 56.9457 49.2669 56.3516 49.2708 56.013C49.263 55.6956 49.4024 55.0648 49.8765 54.6429C50.3138 54.2017 51.1401 54.014 51.7168 54.2365C52.338 54.4397 52.7173 54.968 52.8121 55.3628C52.9185 55.7633 52.8314 56.0188 52.7811 56.013Z" fill="#B8E2E7"/>
<path d="M93.0285 152.008C92.9472 152.014 92.7943 151.582 92.9782 150.895C93.1446 150.222 93.7871 149.326 94.8514 148.98C95.0991 148.883 95.4474 148.842 95.6448 148.823C95.9776 148.815 96.2292 148.827 96.5195 148.894C97.0826 149.014 97.5935 149.309 97.9921 149.669C98.3869 150.036 98.6597 150.481 98.8165 150.901C98.9771 151.3 99.0216 151.791 99.0216 151.973C99.0352 152.623 98.801 153.589 97.9921 154.348C97.2142 155.102 95.8906 155.424 94.8514 155.039C93.7871 154.69 93.1446 153.792 92.9782 153.121C92.7943 152.424 92.9472 152 93.0285 152.008C93.1349 152.006 93.191 152.422 93.4813 152.912C93.7619 153.407 94.3579 153.951 95.1087 154.079C95.8576 154.235 96.6491 153.922 97.0826 153.429C97.5316 152.947 97.6206 152.312 97.6206 152.045C97.609 151.757 97.5993 151.631 97.5199 151.36C97.4425 151.108 97.3013 150.832 97.0807 150.59C96.8562 150.352 96.562 150.135 96.2137 150.021C96.055 149.951 95.8306 149.93 95.6951 149.905C95.4223 149.905 95.3023 149.895 95.1068 149.938C94.356 150.063 93.76 150.611 93.4794 151.106C93.1891 151.6 93.1349 152.012 93.0285 152.008Z" fill="#B8E2E7"/>
<path d="M51.6279 74.2042C51.8794 74.1984 52.0091 75.1834 52.7134 76.3735C53.3811 77.5578 54.817 78.8737 56.6186 79.1795C56.8392 79.2201 57.0637 79.2472 57.2901 79.2588C57.53 79.2762 57.6713 79.2608 57.9983 79.253C58.3873 79.2124 58.873 79.1292 59.2736 78.9821C60.1057 78.6996 60.8236 78.1945 61.3519 77.612C62.4337 76.4045 62.6543 75.0615 62.6427 74.1617C62.6543 73.4282 62.4356 71.9653 61.3519 70.7945C60.3186 69.5986 58.4124 68.869 56.6186 69.227C54.817 69.5328 53.383 70.8468 52.7134 72.033C52.011 73.2251 51.8794 74.21 51.6279 74.2042C51.4266 74.2216 51.0647 73.1863 51.5021 71.5337C51.9046 69.9218 53.4411 67.766 55.9935 66.93C57.2436 66.5082 58.6582 66.425 60.0012 66.7288C61.3461 67.0229 62.5865 67.7118 63.5328 68.5923C64.483 69.4709 65.1448 70.5352 65.5183 71.5453C65.8995 72.5729 66.004 73.4515 66.0059 74.2468C66.0446 75.5511 65.4777 78.061 63.5309 79.8181C62.5846 80.6966 61.3461 81.3836 60.0012 81.6777C59.3142 81.8306 58.6679 81.8809 57.9306 81.85C57.6926 81.8306 57.2707 81.7958 56.9572 81.7281C56.6263 81.6681 56.3031 81.581 55.9916 81.4765C53.4372 80.6386 51.9046 78.4867 51.5021 76.8709C51.0647 75.2221 51.4266 74.1849 51.6279 74.2042Z" fill="#B8E2E7"/>
</g>
</svg>
