<svg width="157" height="147" viewBox="0 0 157 147" fill="none" xmlns="http://www.w3.org/2000/svg">
<g opacity="0.5">
<path d="M34.5597 8.26956C33.2143 9.57291 33.4319 11.183 34.197 12.6134C35.295 14.671 37.455 16.5645 40.3766 18.0281C44.3535 20.0213 49.7515 21.2718 52.6071 23.7535C57.6953 28.1755 52.3004 33.8383 52.617 39.0283C52.8841 43.4522 57.3655 47.4443 59.7826 51.6788C66.9152 64.1632 55.7761 77.6364 58.7637 90.5937C61.5765 102.789 76.7979 114.134 73.5367 126.298C72.0528 131.83 66.8229 137.604 71.047 142.716C76.389 141.061 80.4746 138.278 82.2091 135.111C84.003 131.838 83.3303 128.344 82.6411 124.954C80.2735 113.294 77.8828 101.566 71.8483 90.2869C69.1707 85.2826 65.7545 80.29 65.6291 75.0863C65.5104 70.1485 68.376 65.3396 69.4477 60.4349C70.4072 56.0442 69.9093 51.5361 67.4856 47.3076C64.1287 41.4532 57.0654 35.808 58.8131 29.7543C60.0991 25.3011 65.9391 21.6841 71.1624 18.1473C76.3858 14.6104 81.4441 10.4815 80.7187 5.99505C80.6692 5.69412 80.5835 5.37956 80.2537 5.13335C78.8589 4.09575 76.0065 5.38151 74.9678 6.53049C72.31 9.47329 69.6555 12.4161 66.9977 15.3589C65.5929 16.9124 64.0628 18.5459 61.3391 19.4741C56.2246 21.2152 49.0062 19.5718 45.6955 16.8557C42.6123 14.3291 42.6683 11.6013 41.7285 8.7542C40.9503 6.3898 37.0098 5.89539 34.5597 8.26956Z" fill="#DBB303"/>
<path d="M46.6258 20.5587C44.4197 18.6399 40.6968 17.4538 37.2805 16.0957C38.1807 16.7972 39.2163 17.4479 40.377 18.0302C42.2995 18.9935 44.5517 19.783 46.6885 20.6233C46.6654 20.6018 46.6489 20.5783 46.6258 20.5587Z" fill="#DD8C00"/>
<path d="M39.7175 13.6624C41.0069 14.7176 42.8865 15.6086 45.0035 16.2046C42.649 13.8617 42.5896 11.3605 41.729 8.75772C41.1058 6.87597 38.4842 6.18425 36.2023 7.17691C36.7794 9.4397 37.2246 11.6165 39.7175 13.6624Z" fill="#DD8C00"/>
<path d="M82.6385 124.954C80.2708 113.294 77.8802 101.566 71.8457 90.2869C69.1681 85.2826 65.7518 80.29 65.6265 75.0863C65.5078 70.1485 68.3734 65.3396 69.4451 60.4349C70.4047 56.0442 69.9067 51.5361 67.4831 47.3076C64.1262 41.4532 57.0628 35.808 58.8105 29.7543C60.0965 25.3011 65.9365 21.6841 71.1598 18.1473C76.3831 14.6104 81.4415 10.4815 80.7161 5.99505C80.6666 5.69412 80.5808 5.37956 80.2511 5.13335C78.8562 4.09575 76.0038 5.38151 74.9651 6.53049C72.3073 9.47329 69.6528 12.4161 66.995 15.3589C65.5902 16.9124 64.0602 18.5459 61.3364 19.4741C60.2548 19.8415 59.0776 20.0505 57.8641 20.1385C56.057 21.6138 54.527 23.1556 53.5872 24.8087C55.5228 27.3157 54.7446 30.1491 53.8246 33.0352C55.7371 36.7479 59.3645 40.3863 61.498 44.1108C63.9217 48.3374 64.4196 52.8453 63.4601 57.238C63.1501 58.6508 62.6883 60.0558 62.197 61.4588C62.1607 65.744 61.0297 70.0937 59.9811 74.4552C60.9011 78.7443 63.6249 82.9143 65.8606 87.0901C71.8951 98.3669 74.2859 110.095 76.6502 121.755C77.3394 125.145 78.0121 128.639 76.2182 131.912C74.9981 134.138 72.6041 136.162 69.4418 137.751C69.3165 139.451 69.7122 141.116 71.0345 142.714C76.3765 141.059 80.4621 138.276 82.1966 135.109C84.0003 131.838 83.3277 128.344 82.6385 124.954Z" fill="#DD8C00"/>
<path d="M94.5752 20.9369C96.5109 19.7137 97.1276 17.8261 97.5826 16.0538C97.9454 14.6449 98.2685 13.193 97.8432 11.79C96.8308 8.44665 91.8746 6.17018 90.7864 2.83657C90.5885 2.22691 90.5358 1.56448 90.9282 0.999763C92.1153 -0.696352 96.2405 -0.0553876 97.5793 1.58601C98.9181 3.22742 98.5521 5.23419 98.7697 7.10617C98.9873 8.97815 100.336 11.1315 103.06 11.4285C106.354 11.7861 108.619 9.2615 109.645 7.10032C110.671 4.93915 112.075 2.3168 115.373 1.96898C117.731 4.69097 115.841 8.2278 113.074 10.7622C110.308 13.2986 106.648 15.4734 104.986 18.4221C101.315 24.9232 108.616 31.7487 109.978 38.6524C111.485 46.3025 105.573 53.6751 104.227 61.3389C102.173 73.0202 110.723 84.1661 117.279 95.0521C124.458 106.972 129.516 119.822 127.795 132.65C127.534 134.59 127.053 136.63 125.229 138.131C123.406 139.632 119.818 140.298 117.638 139.038C116.029 138.108 115.703 136.466 116.154 135.063C116.606 133.66 117.694 132.398 118.522 131.075C121.78 125.873 120.896 119.855 118.331 114.477C115.765 109.1 111.633 104.14 108.333 98.9504C100.834 87.1538 97.7013 74.0852 99.3006 61.2764C100.402 52.4597 103.7 43.6254 101.836 34.8674C100.973 30.8049 98.2191 26.3106 92.4418 25.1401C89.4707 24.5383 86.1599 24.9408 83.2977 24.1377C80.4321 23.3346 78.7537 20.2277 81.4939 19.2409C86.1303 17.5682 89.2959 24.2725 94.5752 20.9369Z" fill="#DBB303"/>
<path d="M87.7068 21.9202C85.2667 21.4258 82.5989 21.5998 80.1356 21.2363C80.3434 22.4009 81.6096 23.6672 83.2914 24.14C86.1569 24.9431 89.4644 24.5406 92.4355 25.1425C93.0554 25.2675 93.6325 25.4395 94.1865 25.6368C92.6762 23.8899 90.5625 22.4986 87.7068 21.9202Z" fill="#DD8C00"/>
<path d="M94.0405 3.88854C94.2581 5.76052 95.6035 7.91389 98.3306 8.21091C98.5779 8.23827 98.8154 8.24416 99.0495 8.24025C98.9176 7.86312 98.8153 7.48207 98.7725 7.1108C98.5548 5.23882 98.9242 3.23199 97.5821 1.59059C96.8236 0.66046 95.1715 0.0527556 93.6678 0.0078125C94.0042 1.25645 93.8888 2.60278 94.0405 3.88854Z" fill="#DD8C00"/>
<path d="M117.276 95.0519C110.72 84.1679 102.17 73.02 104.224 61.3387C105.573 53.6749 111.485 46.3023 109.975 38.6502C108.613 31.7485 101.312 24.921 104.982 18.4199C106.648 15.4713 110.305 13.2964 113.071 10.76C115.838 8.22366 117.727 4.68683 115.37 1.9668C112.072 2.31462 110.667 4.93697 109.642 7.09815C108.676 9.13817 106.601 11.4987 103.604 11.4577C102.249 12.6145 101.029 13.8201 100.25 15.1996C96.5802 21.7008 103.881 28.5262 105.243 35.4299C106.503 41.8275 102.582 48.0316 100.475 54.3744C100.02 56.6743 99.5809 58.9762 99.2941 61.2762C99.2545 61.5986 99.2281 61.9229 99.1951 62.2473C99.4424 72.4357 106.763 82.2353 112.54 91.8316C119.719 103.751 124.778 116.599 123.056 129.431C122.796 131.372 122.314 133.412 120.491 134.913C119.396 135.815 117.661 136.405 115.98 136.466C116.049 137.453 116.54 138.41 117.628 139.04C119.808 140.3 123.396 139.636 125.219 138.133C127.043 136.632 127.524 134.592 127.785 132.652C129.513 119.821 124.454 106.974 117.276 95.0519Z" fill="#DD8C00"/>
<path d="M68.7523 34.8701C70.4835 35.5677 72.4555 36.0523 74.0878 36.83C78.2196 38.7977 79.3935 42.2603 79.0967 45.3965C78.7999 48.5328 77.3292 51.6124 77.3358 54.7525C77.3523 60.3567 82.048 65.5995 83.0966 71.1705C85.0818 81.6989 73.9493 92.3172 78.4207 102.574C80.8279 108.098 87.5087 112.684 90.1566 118.171C93.3091 124.708 90.4139 131.662 90.282 138.46C90.2227 141.546 91.6273 145.321 96.6231 146.188C97.4706 146.335 98.4104 146.376 99.2183 146.163C100.814 145.743 101.296 144.561 101.53 143.537C104.811 129.221 98.5555 114.714 89.85 101.22C87.0438 96.8721 84.1123 91.6802 88.5969 87.8581C91.1723 85.6637 95.5811 84.5577 99.2843 83.0296C107.884 79.483 112.847 73.4548 114.674 67.3405C116.501 61.2263 115.538 54.9518 114.41 48.779C113.922 46.1097 113.586 43.0829 116.61 41.082C118.565 39.7884 121.576 39.2042 123.604 37.9516C125.632 36.6971 125.81 34.0943 122.974 33.6625C118.11 32.9238 116.952 39.3781 112.046 38.7508C110.199 38.5144 109.272 37.3302 108.366 36.3473C107.459 35.3664 105.731 34.3425 103.957 34.7313C101.414 35.2902 102.572 37.5354 103.947 38.9208C111.007 46.0336 111.927 54.7818 109.83 62.94C108.442 68.3351 105.599 73.8455 99.1853 77.7614C98.3115 78.2949 97.3091 78.8147 96.0791 78.9554C93.5993 79.2368 91.3669 77.8142 90.8689 76.3487C90.371 74.8831 91.0437 73.3785 91.2976 71.8915C92.0297 67.6414 89.3818 63.4832 87.3637 59.3817C83.9705 52.4937 82.2755 45.3125 82.3514 38.1373C82.3612 37.1075 82.4273 36.0386 83.2286 35.126C85.4082 32.6503 92.0462 32.2966 93.5499 29.6508C90.5623 29.3674 87.611 30.1862 84.9928 31.0812C78.8165 33.1916 75.3277 33.7914 69.3822 31.302C63.7434 28.9434 65.158 33.4221 68.7523 34.8701Z" fill="#FDD525"/>
<path d="M80.0101 32.5291C79.6737 32.7578 79.3703 33.002 79.1263 33.2756C78.3217 34.1881 78.2591 35.259 78.2492 36.2868C78.2327 37.9184 78.3185 39.55 78.4834 41.1778C79.0505 42.5085 79.2154 43.929 79.1033 45.293C79.9145 49.4316 81.2928 53.5312 83.2614 57.5312C85.2795 61.6327 87.9307 65.791 87.1987 70.041C86.9415 71.528 86.2722 73.0327 86.7701 74.4982C87.2219 75.8289 89.108 77.1206 91.3042 77.1362C91.1064 76.8822 90.9579 76.6164 90.8655 76.3487C90.3676 74.8831 91.0403 73.3785 91.2942 71.8915C92.0263 67.6414 89.3784 63.4832 87.3603 59.3817C83.9671 52.4937 82.2722 45.3125 82.3481 38.1373C82.358 37.1075 82.4239 36.0386 83.2252 35.126C85.4049 32.6503 92.0428 32.2966 93.5465 29.6508C90.5589 29.3674 87.6076 30.1862 84.9861 31.0812C83.1296 31.7163 81.5203 32.2106 80.0101 32.5291Z" fill="#FC550D"/>
<path d="M107.944 36.9011C108.28 36.9441 108.597 36.9519 108.897 36.9323C108.712 36.735 108.534 36.5376 108.359 36.3481C107.532 35.4531 106.025 34.5386 104.422 34.6734C105.286 35.6173 106.206 36.6783 107.944 36.9011Z" fill="#FC550D"/>
<path d="M69.989 34.981C69.0921 34.5531 68.0929 34.215 67.0872 33.8809C67.5587 34.2697 68.1193 34.6176 68.7524 34.8716C69.6164 35.2194 70.5365 35.5144 71.4466 35.8173C71.008 35.5164 70.5232 35.237 69.989 34.981Z" fill="#FC550D"/>
<path d="M122.97 33.6638C122.241 33.5525 121.598 33.6072 121.011 33.7713C121.011 34.6018 120.471 35.5065 119.504 36.1044C118.406 36.7825 117.021 37.2671 115.673 37.7712C114.987 38.2578 114.235 38.6252 113.358 38.7502C113.061 38.9026 112.777 39.0609 112.514 39.2368C109.49 41.2377 109.829 44.2646 110.314 46.9338C111.442 53.1067 112.405 59.3811 110.578 65.4953C108.751 71.6095 103.788 77.6378 95.1882 81.1844C91.4851 82.7124 87.0763 83.8184 84.5009 86.0128C80.0163 89.835 82.9478 95.0268 85.754 99.3746C94.4595 112.867 100.715 127.376 97.4339 141.692C97.1997 142.717 96.715 143.9 95.119 144.318C94.3342 144.523 93.4273 144.49 92.5997 144.353C93.5592 145.221 94.8651 145.889 96.6227 146.192C97.4701 146.338 98.41 146.379 99.2179 146.166C100.814 145.746 101.295 144.564 101.533 143.54C104.814 129.225 98.5584 114.718 89.8529 101.223C87.0467 96.8754 84.1151 91.6835 88.5998 87.8613C91.1752 85.6669 95.584 84.561 99.2871 83.0329C107.887 79.4863 112.85 73.458 114.677 67.3438C116.504 61.2296 115.541 54.9552 114.413 48.7823C113.925 46.1131 113.589 43.0863 116.612 41.0853C118.568 39.7917 121.578 39.2075 123.606 37.955C125.628 36.7005 125.809 34.0957 122.97 33.6638Z" fill="#FC550D"/>
<path d="M24.2387 36.0336C24.0771 36.2114 23.9683 36.4068 23.9189 36.6061C23.4968 38.357 26.6426 39.7658 28.7035 40.6725C31.5889 41.9407 34.8336 43.1424 36.3472 45.075C37.32 46.3158 37.4552 47.7188 37.5773 49.0847C38.25 56.7074 38.9259 64.3321 39.5986 71.9549C39.7008 73.1136 39.6678 74.4619 38.1378 75.1849C37.2408 75.609 36.024 75.7047 34.8798 75.6871C29.8477 75.605 25.3598 73.5963 22.5833 71.1088C20.4333 69.1821 19.144 66.9877 18.0591 64.7855C17.2974 63.2418 15.2331 61.235 15.9354 59.6404C16.3476 58.7025 17.2775 57.8799 18.069 57.0318C18.2108 56.8794 20.1563 53.0572 18.2503 53.4989C16.9181 53.8076 16.3543 54.7143 15.8003 55.4939C15.2463 56.2756 14.5537 57.024 13.7425 57.7216C13.581 57.8603 13.4063 58.001 13.1557 58.0792C12.8523 58.173 12.4862 58.1554 12.1433 58.1359C8.36431 57.9229 4.55893 56.1505 3.75433 53.8467C3.62242 53.4676 3.57956 53.0748 3.34213 52.7153C3.10471 52.3557 2.61672 52.0197 1.97041 51.9669C1.18559 51.9024 0.456777 52.2893 0.199569 52.7329C-0.825966 54.4954 2.35949 56.6918 3.94231 58.001C5.44269 59.2399 6.9398 60.4944 8.38082 61.7665C11.4212 64.4474 13.3304 67.5505 14.5307 70.6867C15.5595 73.3716 16.2092 76.2225 18.9 78.4658C20.1728 79.5268 21.5545 80.5839 23.3285 81.3617C28.1001 83.4525 34.7842 83.8843 38.7181 86.5164C41.9167 88.6561 42.4806 91.7083 44.1063 94.3991C47.328 99.7317 54.9322 103.827 58.111 109.168C61.5899 115.016 59.3014 121.428 58.82 127.622C58.3385 133.814 60.6732 140.96 69.7414 144.053C72.396 141.646 72.3827 138.561 71.9541 135.696C71.4693 132.441 70.5691 129.207 69.2632 126.029C68.086 123.165 66.5725 120.32 66.2856 117.377C65.6162 110.569 71.4726 104.226 76.4849 98.0883C84.8804 87.8139 91.3568 76.9924 95.759 65.8778C96.7252 63.4352 97.698 60.8559 100.554 59.0054C102.776 57.5633 105.836 56.7582 108.656 55.8144C110.159 55.3103 115.973 53.6982 113.648 52.3851C112.979 52.008 111.976 51.9102 111.06 51.9649C107.821 52.1584 105.556 53.8779 102.803 54.9058C100.339 55.8261 97.6089 56.0548 94.7598 56.045C93.2759 56.0411 91.9041 55.5096 90.9808 54.8218C90.0575 54.1339 89.5069 53.2976 88.9957 52.473C88.7056 52.006 88.4154 51.5292 87.8911 51.1403C87.3701 50.7515 86.5622 50.4584 85.7279 50.5073C82.1501 50.7124 86.1928 53.5712 86.8457 54.3528C88.0955 55.8496 88.9759 57.4519 89.5299 59.0875C90.6379 62.3507 90.4863 65.7508 89.4409 69.0121C87.6009 74.7472 83.2448 80.074 78.9283 85.3245C76.1782 88.6718 73.1808 92.1871 67.8948 94.1978C66.2724 94.8133 64.3368 95.2784 62.4473 95.0537C57.6559 94.4831 54.9091 90.6766 53.8868 88.2048C52.9503 85.94 52.581 83.5815 51.1696 81.4066C49.788 79.2767 47.4402 77.3852 46.3421 75.1986C44.3471 71.2299 46.7213 66.9916 46.6587 62.851C46.6059 59.3552 44.8021 55.9571 44.0898 52.4867C43.6051 50.1321 43.6809 47.6407 45.089 45.3935C46.5531 43.0565 49.511 42.099 52.4689 40.483C53.6231 39.8538 54.5991 39.1092 55.3543 38.2964C55.9511 37.6535 57.0031 36.7449 56.1688 36.0336C56.0929 35.9691 56.0005 35.9066 55.8719 35.8831C55.7004 35.8499 55.5191 35.8948 55.3543 35.9398C52.4392 36.7273 49.5605 37.7043 47.5952 39.2011C46.5136 40.0238 45.1945 40.4048 43.4666 40.567C42.3553 40.6706 41.1946 40.735 40.1262 40.5279C39.2655 40.3598 38.5269 40.0296 37.818 39.6935C34.8139 38.2709 32.0077 36.6608 28.6046 35.6017C27.7901 35.3477 26.8734 35.1211 25.9699 35.2285C25.2147 35.3145 24.5981 35.633 24.2387 36.0336Z" fill="#FDD525"/>
<path d="M47.5915 39.1986C46.5099 40.0213 45.1908 40.4023 43.4629 40.5645C43.2354 40.586 43.0046 40.6036 42.7738 40.6192C41.9032 41.2074 41.158 41.8815 40.6172 42.7413C39.2092 44.9884 39.1366 47.4799 39.618 49.8345C40.3303 53.3049 42.1307 56.703 42.1868 60.1988C42.2494 64.3394 39.8752 68.5778 41.8702 72.5465C42.9716 74.733 45.3162 76.6246 46.6978 78.7545C48.1092 80.9313 48.4785 83.2878 49.415 85.5526C50.3285 87.7606 52.6235 91.0298 56.5212 92.1084C55.2385 90.8285 54.3646 89.3669 53.8831 88.2003C52.9466 85.9356 52.5773 83.577 51.1659 81.4022C49.7843 79.2723 47.4365 77.3807 46.3384 75.1942C44.3434 71.2255 46.7176 66.9871 46.655 62.8465C46.6022 59.3507 44.7985 55.9527 44.0862 52.4823C43.6015 50.1276 43.6773 47.6362 45.0853 45.3891C46.5494 43.052 49.5073 42.0945 52.4652 40.4785C53.6194 39.8493 54.5954 39.1048 55.3506 38.292C55.9474 37.6491 56.9994 36.7404 56.1651 36.0291C56.0892 35.9647 55.9969 35.9021 55.8683 35.8787C55.6969 35.8455 55.5154 35.8904 55.3506 35.9353C52.4388 36.7228 49.5601 37.6999 47.5915 39.1986Z" fill="#FC550D"/>
<path d="M28.703 40.6692C29.5537 41.0424 30.4342 41.4137 31.2949 41.7967C29.6626 40.2511 26.9059 39.188 24.3865 38.0859C25.2967 39.1568 27.262 40.0361 28.703 40.6692Z" fill="#FC550D"/>
<path d="M86.5114 52.1741C87.2863 52.7505 88.3744 53.2117 89.5781 53.3505C89.3703 53.0613 89.1757 52.7662 88.9911 52.4731C88.7009 52.0061 88.4107 51.5293 87.8864 51.1404C87.3654 50.7515 86.5575 50.4584 85.7232 50.5073C85.4462 50.5229 85.2285 50.56 85.0373 50.605C85.4297 51.1619 85.8782 51.7032 86.5114 52.1741Z" fill="#FC550D"/>
<path d="M4.36365 54.9011C4.09326 54.565 3.88222 54.2113 3.75362 53.8439C3.62172 53.4648 3.57885 53.072 3.34143 52.7125C3.104 52.3529 2.61602 52.0168 1.9697 51.9641C1.23105 51.9035 0.548394 52.2416 0.254913 52.6519C1.2079 53.6114 2.68191 54.3989 4.36365 54.9011Z" fill="#FC550D"/>
<path d="M113.647 52.3834C112.978 52.0063 111.976 51.9086 111.059 51.9633C107.821 52.1567 105.555 53.8763 102.802 54.9041C100.899 55.6154 98.8348 55.9105 96.6815 56.0062C96.4804 56.1215 96.2759 56.2329 96.0847 56.3579C93.229 58.2084 92.2563 60.7878 91.2901 63.2304C90.9241 64.1546 90.5217 65.073 90.126 65.9934C89.9842 67.0075 89.76 68.0158 89.4402 69.0104C88.0222 73.4285 85.1105 77.6024 81.8756 81.6844C78.954 86.3585 75.6795 90.9524 72.0127 95.4389C66.9971 101.577 61.1439 107.919 61.8133 114.725C62.1035 117.668 63.6171 120.513 64.791 123.378C66.0969 126.553 66.9971 129.789 67.4819 133.045C67.9105 135.909 67.9237 138.997 65.2691 141.402C64.8174 141.248 64.392 141.076 63.9732 140.902C65.4901 142.164 67.3829 143.247 69.7373 144.05C72.3919 141.642 72.3786 138.557 71.95 135.692C71.4652 132.437 70.5651 129.201 69.2592 126.026C68.082 123.161 66.5684 120.316 66.2815 117.373C65.6121 110.565 71.4685 104.222 76.4808 98.0847C84.8763 87.8103 91.3527 76.9869 95.7549 65.8742C96.7211 63.4316 97.6939 60.8523 100.55 59.0018C102.772 57.5597 105.832 56.7546 108.652 55.8108C110.159 55.3106 115.972 53.6985 113.647 52.3834Z" fill="#FC550D"/>
<path d="M13.1537 58.0748C12.8504 58.1686 12.4843 58.151 12.1414 58.1314C11.8842 58.1177 11.627 58.0943 11.373 58.065C11.6072 59.425 12.9921 60.9199 13.589 62.1314C14.6739 64.3336 15.9632 66.5299 18.1132 68.4547C19.4158 69.6212 21.0975 70.6803 23.0332 71.4873C22.8782 71.3603 22.7264 71.2333 22.5813 71.1024C20.4313 69.1757 19.1421 66.9813 18.0572 64.7791C17.2955 63.2354 15.2312 61.2286 15.9335 59.6341C16.3457 58.6962 17.2756 57.8735 18.067 57.0254C18.2088 56.873 20.1544 53.0509 18.2484 53.4925C16.9162 53.8013 16.3524 54.7079 15.7984 55.4876C15.2444 56.2692 14.5518 57.0176 13.7406 57.7152C13.5791 57.8559 13.4044 57.9966 13.1537 58.0748Z" fill="#FC550D"/>
<path d="M34.2492 83.8656C30.5032 81.3585 24.2675 80.8446 19.5586 78.9961C20.6534 79.8696 21.8504 80.7117 23.3277 81.3585C26.9979 82.9686 31.8024 83.5979 35.6144 85.0009C35.2154 84.6042 34.7768 84.2193 34.2492 83.8656Z" fill="#FC550D"/>
<path d="M66.5887 37.4262C66.4271 37.604 66.3184 37.7994 66.2722 37.9987C65.8468 39.7476 68.9959 41.1585 71.0569 42.0651C73.9423 43.3333 77.187 44.535 78.7006 46.4676C79.6734 47.7065 79.8086 49.1114 79.9306 50.4773C80.6033 58.102 81.2793 65.7247 81.952 73.3475C82.0543 74.5062 82.0212 75.8545 80.4911 76.5775C79.5975 77.0016 78.3775 77.0973 77.2333 77.0797C72.2012 76.9976 67.7132 74.9889 64.9367 72.4994C62.7867 70.5727 61.4973 68.3783 60.4125 66.1742C59.6507 64.6305 57.5864 62.6237 58.2888 61.0292C58.701 60.0912 59.6309 59.2686 60.4223 58.4205C60.5641 58.2681 62.5097 54.446 60.6038 54.8876C59.2716 55.1963 58.7076 56.103 58.1537 56.8826C57.5997 57.6643 56.9072 58.4127 56.096 59.1103C55.9344 59.249 55.7596 59.3897 55.509 59.4679C55.2023 59.5616 54.8396 59.5441 54.4967 59.5246C50.7177 59.3116 46.9123 57.5392 46.1077 55.2354C45.9758 54.8563 45.9296 54.4655 45.6955 54.104C45.4581 53.7445 44.9701 53.4084 44.3238 53.3556C43.539 53.2911 42.8101 53.6761 42.5529 54.1216C41.5274 55.8841 44.7129 58.0805 46.2957 59.3897C47.7961 60.6286 49.2932 61.8831 50.7342 63.1552C53.7745 65.8361 55.6838 68.9391 56.8841 72.0754C57.9129 74.7602 58.5626 77.6112 61.2533 79.8545C62.5262 80.9155 63.9078 81.9727 65.6819 82.7504C70.4534 84.8412 77.1375 85.2731 81.0715 87.9052C84.2701 90.0448 84.8307 93.0971 86.4597 95.7878C89.6814 101.12 97.2855 105.216 100.464 110.557C103.943 116.403 101.655 122.816 101.173 129.011C100.689 135.205 103.027 142.349 112.095 145.442C114.749 143.035 114.736 139.947 114.307 137.085C113.823 133.829 112.922 130.595 111.617 127.418C110.439 124.553 108.926 121.708 108.636 118.765C107.966 111.958 113.819 105.615 118.835 99.479C127.231 89.2046 133.707 78.3811 138.112 67.2684C139.079 64.8259 140.051 62.2485 142.907 60.396C145.13 58.954 148.19 58.1489 151.009 57.2051C152.513 56.7009 158.326 55.0888 156.002 53.7757C155.332 53.3986 154.33 53.3009 153.413 53.3556C150.175 53.5491 147.909 55.2686 145.156 56.2965C142.693 57.2168 139.962 57.4455 137.113 57.4357C135.629 57.4318 134.261 56.9003 133.334 56.2124C132.411 55.5246 131.86 54.6883 131.349 53.8637C131.059 53.3967 130.769 52.9199 130.244 52.531C129.723 52.1421 128.916 51.849 128.081 51.8979C124.503 52.1031 128.546 54.9619 129.199 55.7435C130.449 57.2403 131.329 58.8426 131.883 60.4781C132.991 63.7414 132.84 67.1414 131.794 70.4027C129.954 76.1379 125.595 81.4646 121.282 86.7151C118.532 90.0624 115.534 93.5758 110.248 95.5865C108.626 96.2021 106.69 96.6671 104.801 96.4424C100.009 95.8718 97.2624 92.0654 96.2402 89.5935C95.3037 87.3287 94.9344 84.9702 93.523 82.7953C92.1413 80.6654 89.7935 78.7739 88.6921 76.5873C86.6971 72.6186 89.0714 68.3803 89.0087 64.2397C88.956 60.7439 87.1555 57.3458 86.44 53.8754C85.9552 51.5207 86.031 49.0294 87.439 46.7822C88.9031 44.4452 91.8611 43.4896 94.819 41.8736C95.9731 41.2444 96.9459 40.4999 97.7043 39.687C98.3012 39.0442 99.3531 38.1355 98.5188 37.4243C98.443 37.3598 98.3507 37.2972 98.2221 37.2738C98.0506 37.2405 97.8692 37.2855 97.7043 37.3305C94.7893 38.1179 91.9105 39.0949 89.9452 40.5917C88.8636 41.4144 87.5414 41.7954 85.8167 41.9576C84.7055 42.0612 83.5447 42.1257 82.4763 41.9186C81.6157 41.7505 80.8737 41.4183 80.168 41.0842C77.164 39.6616 74.3577 38.0515 70.9547 36.9924C70.1402 36.7384 69.2235 36.5117 68.32 36.6192C67.5682 36.7071 66.9481 37.0256 66.5887 37.4262Z" fill="#FDD525"/>
<path d="M89.942 40.5951C88.8604 41.4177 87.5381 41.7988 85.8135 41.961C85.586 41.9825 85.3551 42.0001 85.1243 42.0157C84.2537 42.6039 83.5085 43.2761 82.9677 44.1378C81.5597 46.385 81.4871 48.8763 81.9685 51.231C82.6808 54.7013 84.4813 58.0995 84.5374 61.5953C84.6034 65.7359 82.2258 69.9742 84.2208 73.9429C85.3222 76.1295 87.6667 78.021 89.0517 80.1509C90.463 82.3277 90.8324 84.6863 91.7689 86.951C92.6823 89.1591 94.9774 92.4282 98.8751 93.5068C97.5923 92.2269 96.7185 90.7653 96.2371 89.5987C95.3006 87.334 94.9312 84.9755 93.5199 82.8006C92.1382 80.6707 89.7904 78.7792 88.689 76.5926C86.694 72.6239 89.0682 68.3856 89.0055 64.2449C88.9527 60.7491 87.1523 57.3511 86.4367 53.8807C85.952 51.5261 86.0279 49.0346 87.4359 46.7875C88.9 44.4504 91.858 43.4949 94.8158 41.8789C95.97 41.2497 96.9428 40.5052 97.7012 39.6923C98.298 39.0494 99.3499 38.1408 98.5156 37.4295C98.4398 37.365 98.3475 37.3025 98.2188 37.2791C98.0474 37.2459 97.8661 37.2908 97.7012 37.3357C94.7895 38.1213 91.9106 39.0963 89.942 40.5951Z" fill="#FC550D"/>
<path d="M71.0528 42.0618C71.9035 42.437 72.784 42.8063 73.6447 43.1893C72.0124 41.6436 69.2556 40.5806 66.7363 39.4785C67.6464 40.5493 69.6118 41.4287 71.0528 42.0618Z" fill="#FC550D"/>
<path d="M128.863 53.5726C129.638 54.149 130.726 54.6102 131.929 54.7489C131.722 54.4597 131.527 54.1646 131.342 53.8715C131.052 53.4045 130.762 52.9277 130.238 52.5388C129.717 52.15 128.909 51.8569 128.075 51.9057C127.798 51.9214 127.58 51.9585 127.389 52.0035C127.781 52.5604 128.229 53.1016 128.863 53.5726Z" fill="#FC550D"/>
<path d="M46.7142 56.2975C46.4438 55.9614 46.2328 55.6077 46.1042 55.2403C45.9723 54.8612 45.9261 54.4705 45.692 54.109C45.4546 53.7494 44.9665 53.4133 44.3202 53.3606C43.5815 53.3 42.8989 53.638 42.6055 54.0484C43.5585 55.0078 45.0358 55.7953 46.7142 56.2975Z" fill="#FC550D"/>
<path d="M155.998 53.7818C155.328 53.4047 154.326 53.307 153.409 53.3617C150.171 53.5552 147.906 55.2747 145.152 56.3025C143.25 57.0138 141.185 57.3089 139.032 57.4047C138.831 57.5199 138.626 57.6313 138.435 57.7564C135.58 59.6088 134.607 62.1862 133.641 64.6288C133.275 65.553 132.872 66.4714 132.477 67.3918C132.335 68.4059 132.111 69.4142 131.791 70.4089C130.373 74.827 127.461 79.0008 124.226 83.0828C121.304 87.7569 118.027 92.3509 114.363 96.8374C109.348 102.975 103.494 109.318 104.164 116.124C104.454 119.067 105.964 121.912 107.142 124.776C108.447 127.952 109.348 131.186 109.832 134.443C110.261 137.308 110.274 140.395 107.62 142.801C107.168 142.646 106.743 142.474 106.324 142.3C107.841 143.563 109.73 144.645 112.088 145.448C114.742 143.041 114.729 139.953 114.301 137.091C113.816 133.835 112.916 130.601 111.61 127.424C110.433 124.559 108.919 121.714 108.629 118.772C107.959 111.964 113.812 105.621 118.828 99.4851C127.224 89.2107 133.7 78.3872 138.105 67.2745C139.072 64.8339 140.044 62.2546 142.9 60.4022C145.123 58.9601 148.183 58.155 151.002 57.2112C152.512 56.709 158.326 55.0969 155.998 53.7818Z" fill="#FC550D"/>
<path d="M55.5053 59.4713C55.1986 59.5651 54.8359 59.5475 54.4929 59.5279C54.2357 59.5123 53.9785 59.4908 53.7246 59.4615C53.9587 60.8215 55.3438 62.3163 55.9406 63.5278C57.0255 65.7301 58.3148 67.9265 60.4648 69.8532C61.7673 71.0197 63.4491 72.0769 65.3847 72.8839C65.2298 72.7569 65.0781 72.6298 64.933 72.5009C62.783 70.5742 61.4936 68.3778 60.4087 66.1756C59.647 64.6319 57.5828 62.6251 58.2852 61.0306C58.6974 60.0927 59.6272 59.27 60.4186 58.422C60.5604 58.2695 62.506 54.4474 60.6001 54.889C59.2678 55.1978 58.7039 56.1044 58.1499 56.8841C57.596 57.6657 56.9035 58.4141 56.0923 59.1117C55.9307 59.2524 55.7592 59.3951 55.5053 59.4713Z" fill="#FC550D"/>
<path d="M76.6037 85.264C72.8577 82.757 66.622 82.2431 61.9131 80.3945C63.0079 81.268 64.2049 82.1102 65.6822 82.757C69.3524 84.3671 74.1536 84.9963 77.9689 86.3993C77.5666 86.0027 77.1313 85.6177 76.6037 85.264Z" fill="#FC550D"/>
<path d="M108.138 61.2475C107.881 61.0755 107.561 60.9426 107.159 60.8918C106.694 60.8313 106.196 60.8977 105.78 61.0228C104.075 61.5387 103.98 62.8401 104.623 63.821C105.483 65.1302 109.101 68.925 103.366 68.6279C102.037 68.5596 100.847 68.1668 99.805 67.7232C99.5774 67.6255 99.3203 67.52 99.0301 67.5317C98.575 67.5513 98.3508 67.8287 98.2519 68.0652C98.0474 68.5498 97.9518 69.0481 97.9683 69.5464C97.9716 69.691 97.9881 69.8414 98.0969 69.9743C98.2354 70.1443 98.5124 70.2713 98.7861 70.3885C99.6599 70.7579 100.613 71.0763 101.622 71.3362C102.654 71.602 103.756 71.8091 104.679 72.1706C108.178 73.5404 106.024 76.4383 104.906 78.1793C103.462 80.4206 101.493 82.5662 100.359 84.8641C98.0409 89.5675 99.5379 94.7594 104.402 98.8864C106.351 100.54 108.817 102.036 110.311 103.818C112.913 106.923 112.247 110.484 111.531 113.856C111.168 115.562 110.799 117.288 109.668 118.898C108.616 120.393 106.938 121.739 105.642 123.179C101.352 127.937 101.507 133.391 103.3 138.468C103.907 140.185 104.191 143.722 108.834 143.343C112.438 143.05 115.429 140.467 116.055 138.774C117.282 135.464 113.384 132.183 113.576 128.813C113.78 125.174 118.65 122.061 119.989 118.489C121.157 115.375 119.561 112.184 118.38 109.069C117.302 106.22 115.05 99.9787 122.281 99.3476C129.73 98.6969 135.699 95.844 141.206 93.1161C143.83 91.8167 146.505 90.482 148.173 88.7976C149.126 87.8362 150.007 86.6892 150.409 85.6282C150.693 84.8778 151.296 83.9614 152.308 83.3908C153.242 82.8651 154.63 82.6248 155.527 82.0484C155.824 81.8569 157.126 80.278 156.012 80.2311C153.67 80.1334 151.487 81.2589 149.205 80.9658C147.817 80.788 146.861 80.1315 145.671 79.7152C144.477 79.299 142.482 79.2482 141.967 79.9517C141.473 80.6297 142.785 81.2491 143.649 81.8158C145.463 83.0039 145.499 84.7489 144.388 86.1558C143.276 87.5627 141.196 88.6921 139.016 89.6946C133.11 92.4107 126.123 94.4722 118.644 95.7052C114.463 96.393 112.527 95.6036 111.013 93.6203C109.648 91.8323 108.811 89.931 108.55 88.0082C107.986 83.8363 110.09 79.7504 111.706 75.7055C111.989 74.9923 111.923 74.07 112.346 73.3978C112.975 72.3954 115.046 71.6939 116.342 70.9376C118.014 69.9606 119.521 68.9054 120.837 67.7877C121.503 67.223 122.136 66.6133 122.189 65.9509C122.242 65.2865 121.533 64.5596 120.309 64.3994C118.614 64.1747 117.19 65.0579 116.24 65.8337C115.61 66.3495 114.977 66.8674 114.347 67.3832C114.001 67.6666 113.576 67.9772 112.942 68.0202C112.039 68.0808 111.396 67.5708 111.083 67.1194C109.909 65.4311 109.971 63.5572 108.771 61.8728C108.613 61.6539 108.412 61.4292 108.138 61.2475Z" fill="#FDD525"/>
<path d="M110.413 65.8621C109.995 66.2549 109.141 66.4816 107.581 66.4014C107.106 66.376 106.658 66.3018 106.222 66.208C105.774 65.2954 104.976 64.3517 104.626 63.8202C103.983 62.8392 104.079 61.5378 105.784 61.022C106.199 60.8969 106.697 60.8324 107.162 60.891C107.564 60.9438 107.884 61.0767 108.141 61.2467C108.415 61.4284 108.616 61.6531 108.771 61.87C109.678 63.146 109.866 64.5314 110.413 65.8621Z" fill="#FC550D"/>
<path d="M148.6 83.9291C147.488 85.336 145.407 86.4654 143.228 87.4659C143.023 87.5597 142.809 87.6457 142.601 87.7395C143.317 87.249 143.933 86.7253 144.382 86.1528C145.493 84.7459 145.457 83.0009 143.643 81.8128C142.779 81.2481 141.467 80.6268 141.962 79.9487C142.476 79.2433 144.471 79.2941 145.665 79.7123C146.825 80.1187 147.762 80.7459 149.091 80.9433C149.552 81.9125 149.338 82.9931 148.6 83.9291Z" fill="#FC550D"/>
<path d="M118.558 65.1566C118.212 65.44 117.786 65.7506 117.153 65.7936C116.876 65.8132 116.629 65.7741 116.401 65.7038C117.183 65.0902 118.251 64.459 119.507 64.3789C119.194 64.6368 118.878 64.8967 118.558 65.1566Z" fill="#FC550D"/>
<path d="M98.2518 68.0617C98.3507 67.8253 98.5749 67.5478 99.03 67.5282C99.3235 67.5165 99.5773 67.6221 99.8049 67.7198C100.844 68.1633 102.034 68.5541 103.366 68.6245C103.696 68.6421 103.983 68.6421 104.253 68.6323C104.764 68.8062 105.289 68.9684 105.836 69.1091C106.868 69.3749 107.97 69.582 108.893 69.9435C112.392 71.3133 110.238 74.2111 109.12 75.9522C107.676 78.1954 105.707 80.339 104.573 82.637C102.255 87.3404 103.752 92.5323 108.616 96.6593C110.565 98.3143 113.031 99.8092 114.525 101.591C117.124 104.696 116.461 108.256 115.745 111.629C115.382 113.335 115.013 115.061 113.879 116.671C112.827 118.166 111.148 119.512 109.853 120.952C105.562 125.71 105.714 131.164 107.511 136.24C108.118 137.958 108.402 141.495 113.045 141.116C113.523 141.077 113.988 140.995 114.443 140.883C113.097 142.079 111.083 143.156 108.83 143.339C104.184 143.719 103.904 140.182 103.297 138.464C101.5 133.388 101.348 127.934 105.638 123.176C106.937 121.736 108.613 120.389 109.665 118.894C110.799 117.284 111.168 115.559 111.528 113.853C112.243 110.478 112.909 106.92 110.308 103.815C108.817 102.033 106.347 100.538 104.398 98.883C99.5345 94.756 98.0407 89.5641 100.356 84.8607C101.487 82.5627 103.459 80.4172 104.903 78.1759C106.024 76.4368 108.174 73.537 104.675 72.1672C103.752 71.8057 102.651 71.5986 101.619 71.3328C100.61 71.0729 99.6598 70.7544 98.7826 70.3851C98.5089 70.2698 98.2353 70.1428 98.0935 69.9708C97.9847 69.8379 97.9682 69.6875 97.9649 69.5429C97.9517 69.0446 98.0473 68.5463 98.2518 68.0617Z" fill="#FC550D"/>
<path d="M121.988 99.3887C122.667 98.2202 124.016 97.3389 126.493 97.122C133.872 96.4772 139.798 93.6732 145.259 90.9688C143.996 91.725 142.594 92.4245 141.203 93.1143C135.696 95.8421 129.727 98.6931 122.278 99.3457C122.173 99.3555 122.09 99.377 121.988 99.3887Z" fill="#FC550D"/>
<path d="M156.007 81.5273C155.819 81.7794 155.618 81.9846 155.523 82.0452C155.486 82.0686 155.437 82.0862 155.397 82.1077C155.575 81.9006 155.78 81.7071 156.007 81.5273Z" fill="#FC550D"/>
</g>
</svg>
