<svg width="236" height="299" viewBox="0 0 236 299" fill="none" xmlns="http://www.w3.org/2000/svg">
<path d="M172.998 177.018C173.083 178.863 171.564 180.425 169.604 180.505C167.645 180.585 165.987 179.154 165.902 177.307C165.817 175.462 167.336 173.9 169.296 173.82C171.255 173.739 172.913 175.17 172.998 177.018Z" fill="#E0E0E0"/>
<path d="M208.331 188.417C208.473 191.496 205.938 194.101 202.67 194.234C199.402 194.368 196.637 191.982 196.495 188.901C196.353 185.822 198.886 183.217 202.156 183.083C205.424 182.95 208.189 185.338 208.331 188.417Z" fill="#F5F5F5"/>
<path d="M235.179 198.481C235.232 199.635 234.281 200.613 233.056 200.664C231.83 200.714 230.792 199.818 230.739 198.663C230.685 197.509 231.636 196.531 232.862 196.48C234.089 196.431 235.125 197.326 235.179 198.481Z" fill="#E0E0E0"/>
<path d="M233.845 218.016C233.882 218.825 233.217 219.508 232.359 219.542C231.501 219.577 230.775 218.951 230.739 218.143C230.701 217.334 231.367 216.651 232.223 216.617C233.081 216.582 233.807 217.208 233.845 218.016Z" fill="#E0E0E0"/>
<path d="M185.367 149.723C185.367 155.281 180.584 159.788 174.683 159.788C168.784 159.788 164 155.282 164 149.723C164 144.164 168.782 139.658 174.683 139.658C180.584 139.658 185.367 144.164 185.367 149.723Z" fill="#F5F5F5"/>
<path d="M182.383 20.1294C188.284 20.1294 193.067 15.6233 193.067 10.0647C193.067 4.50611 188.284 0 182.383 0C176.483 0 171.7 4.50611 171.7 10.0647C171.7 15.6233 176.483 20.1294 182.383 20.1294Z" fill="#F5F5F5"/>
<path d="M21.3666 288.065C21.3666 293.622 16.5841 298.129 10.6833 298.129C4.78249 298.129 0 293.624 0 288.065C0 282.506 4.78249 278 10.6833 278C16.5825 278 21.3666 282.506 21.3666 288.065Z" fill="#EBEBEB"/>
<path d="M193.067 104.102C193.067 106.881 190.676 109.134 187.727 109.134C184.777 109.134 182.386 106.881 182.386 104.102C182.386 101.323 184.777 99.0703 187.727 99.0703C190.676 99.0703 193.067 101.323 193.067 104.102Z" fill="#F5F5F5"/>
</svg>
