<svg width="119" height="115" viewBox="0 0 119 115" fill="none" xmlns="http://www.w3.org/2000/svg">
<g opacity="0.5">
<path d="M69.8108 106.798C70.7591 107.517 70.4918 108.677 70.0697 109.433C69.3521 110.71 66.2398 111.322 63.3525 111.873C60.7411 112.373 52.4819 113.716 51.6686 111.869C51.2971 111.028 52.313 110.174 53.1825 109.419C53.72 108.952 55.3606 108.239 55.2424 107.709C54.6965 105.248 54.553 102.785 54.6937 100.303C54.7528 99.3602 54.8119 98.4339 54.992 97.4951C54.961 97.4636 55.0061 97.4353 55.0173 97.3913C54.9892 97.3451 55.0004 97.2864 55.0117 97.2413C55.2452 95.3899 55.642 93.53 56.1598 91.6734C56.3287 90.9601 56.5369 90.2468 56.7845 89.5356C56.8352 89.4926 56.8042 89.4464 56.8155 89.4024C57.3164 87.7849 57.8511 86.1988 58.4842 84.5268C59.1962 82.5264 59.9869 80.5292 60.7749 78.5466C61.6585 76.327 62.5393 74.1232 63.3835 71.9025C65.3421 66.9913 67.2613 62.0779 69.2255 57.152C69.445 56.5604 69.7038 55.9688 69.9796 55.3184C70.7 53.4533 71.4176 51.5893 72.1802 49.7253C75.5712 41.1291 79.0015 32.5192 82.3924 23.9219C85.9663 30.2587 87.0666 36.6941 86.9456 43.1788C86.9174 43.2973 86.9315 43.4179 86.9005 43.5375C86.8752 46.3844 86.5657 49.2365 86.0929 52.0981C85.9691 53.1428 85.7665 54.1708 85.6061 55.1988C85.471 55.9436 85.2994 56.6726 85.1502 57.4772C83.549 65.6528 81.4188 73.84 81.0614 82.0261C80.9122 85.0639 80.9939 88.1237 80.6759 91.1856C80.4873 93.0077 80.1046 94.8077 79.4377 96.615C79.3645 96.9276 79.2154 97.2224 79.1 97.5339C78.2867 99.4556 77.0711 101.378 75.3488 103.226C73.9081 104.737 72.1605 106.178 70.0303 107.547C69.884 107.648 69.7067 107.732 69.5604 107.832C68.9469 108.217 68.2968 108.585 67.6102 108.937L66.9799 109.052C66.9799 109.052 66.0597 109.202 65.8514 109.225L53.8157 111.334L52.4171 110.959L53.1291 110.158C53.1291 110.158 53.8157 109.359 54.4039 108.673L69.8108 106.798Z" fill="#135654"/>
<path d="M51.7451 113.507L47.7323 112.448L39.6278 110.325C36.8982 106.893 34.8214 102.899 34.0307 101.989C33.0457 100.878 32.1396 99.769 31.2391 98.6445C28.5629 95.3204 26.2611 91.9479 24.5754 88.5199C16.637 72.539 21.7895 56.1027 26.9533 39.9655C31.2757 26.544 35.5756 13.0617 44.9605 0C47.7492 10.0124 49.0408 20.0803 48.8832 30.1461C48.7538 37.5309 47.8195 44.9187 48.7763 52.2929C50.0652 62.3609 54.8743 72.3344 56.408 82.3961C57.0046 86.357 57.0721 90.3462 56.2645 94.2903C56.1829 94.8127 56.0225 95.3172 55.8987 95.8375C55.0235 99.062 55.7045 108.976 51.7451 113.507Z" fill="#29716F"/>
<path d="M21.3128 62.5396C17.9303 54.772 19.6806 46.6499 27.3461 39.3176C29.4623 37.2931 32.0231 35.3243 33.492 33.2221C35.7995 29.9137 35.2508 26.3378 31.9443 23.15C31.7248 22.9381 31.4912 22.7178 31.5334 22.4912C31.7585 21.35 37.8031 24.3846 38.3913 24.8367C40.1641 26.1993 41.028 27.7172 41.4614 29.2151C41.8357 30.5011 41.9679 31.7976 41.8525 33.09C41.5655 36.3753 39.711 39.6093 38.5516 42.8684C36.8716 47.5961 38.2731 51.8517 42.0608 56.3727C45.8682 60.9148 50.1118 65.4526 51.6483 70.2002C52.3321 72.3233 52.4587 74.4936 51.2458 76.5831C50.4692 77.9195 48.7807 82.5633 44.2557 82.7185C39.7082 82.8759 35.459 78.3664 33.824 77.1045C27.8526 72.4995 23.5134 67.5914 21.3128 62.5396Z" fill="#135654"/>
<path d="M53.8243 56.6853C57.1055 42.2725 60.4345 27.7622 70.7565 13.8184C73.7619 16.0915 73.6972 18.737 73.5706 21.2702C72.4055 44.2624 71.2433 67.2557 70.0783 90.2479C69.9067 93.6392 69.7491 97.0337 69.2454 100.422C68.9977 102.092 70.0417 109.18 66.5551 110.221C56.9761 113.085 52.6818 98.8998 52.1134 97.1627C47.715 83.7161 50.7655 70.1225 53.8243 56.6853Z" fill="#135654"/>
<path d="M88.0009 56.1657C86.6304 58.8447 83.6785 61.3633 80.9348 63.8766C79.2717 65.3976 77.6761 66.9291 76.165 68.4721C71.1334 73.6068 67.0108 78.8841 64.6189 84.2831C64.0223 85.6279 63.5355 86.979 63.1668 88.3353C62.832 89.5773 63.074 90.9545 62.2185 92.1588C60.4991 94.5766 60.8256 97.2106 61.6754 99.6966C62.6209 102.454 64.6977 105.141 67.0699 107.776C68.9638 109.88 71.0518 111.96 73.3284 114.011C64.9566 112.518 59.3538 109.466 55.4788 106.322C46.9297 99.384 45.2694 91.0899 46.336 83.5426C46.7018 80.9495 47.6501 78.3712 48.984 75.8233C54.3954 65.4847 65.6854 55.6947 71.5442 45.4086C73.8743 41.3186 75.3714 37.1857 75.0675 33.0098C74.5863 25.8307 68.7555 18.8205 67.4695 11.6445C77.0711 13.218 80.0427 17.6761 81.8297 21.5257C84.427 27.0653 87.0159 32.6353 88.4314 38.242C89.2222 41.37 89.6921 44.5033 89.5627 47.6156C89.4557 50.4037 89.4079 53.387 88.0234 56.1258C88.0149 56.1395 88.0093 56.1531 88.0009 56.1657Z" fill="#459592"/>
<path d="M45.3226 104.924C45.2775 101.781 50.3625 98.991 55.1886 96.4137C61.9592 92.7968 68.6314 89.1422 74.2201 85.2537C88.2763 75.4742 95.182 64.2818 93.9916 53.1953C98.5729 58.8335 103.205 64.629 102.014 70.5032C101.314 73.9679 98.601 77.3267 95.8151 80.6414C90.8736 86.5177 85.5917 92.3993 77.6026 97.7899C74.7238 99.7315 71.3807 101.652 66.5349 102.94C61.6919 104.229 55.0367 104.775 49.69 103.799C49.327 103.733 48.9274 103.636 48.8964 103.486C48.8683 103.335 49.5549 103.233 49.6646 103.378L45.3226 104.924Z" fill="#135654"/>
<path d="M47.4559 106.799C50.5401 108.948 53.4808 111.121 55.6927 113.397C52.7604 113.265 49.8282 113.133 46.8987 113C43.8596 112.862 40.7894 112.723 37.9135 112.333C34.7927 111.909 31.9983 111.202 29.4685 110.398C22.1463 108.071 17.0529 104.836 14.7763 101.36C12.435 97.7919 13.7858 94.0408 15.0296 90.4554C16.7377 85.5956 19.9063 80.6644 20.7731 75.792C21.1586 73.8115 21.1389 71.8478 20.472 69.8926C20.1878 68.8793 19.7009 67.8744 19.0087 66.8779C16.6955 63.5495 12.2718 60.4834 8.79647 57.3124C-6.54295 43.2185 -1.55644 26.2966 21.6905 13.793C23.12 22.4123 10.0431 30.6613 10.9014 39.3069C11.346 43.743 15.3532 47.9053 19.9261 52.0413C20.8631 52.8365 21.7974 53.6462 22.6951 54.455C27.403 58.5502 32.1419 62.6621 33.971 67.0226C35.4146 70.4569 34.9925 73.95 34.2158 77.4315C33.6502 80.0329 31.5425 82.5809 30.8727 85.1949C30.158 87.9778 30.2677 90.8058 31.821 93.5488C34.5141 98.2933 41.2791 102.498 47.4559 106.799Z" fill="#29716F"/>
<path d="M113.307 82.0251C109.356 85.4227 103.759 88.5423 97.6359 91.4668C91.7236 94.2906 85.2625 96.9718 80.2451 100.026C77.5548 101.664 75.3008 103.417 73.8712 105.266C73.1621 106.181 72.6555 107.118 72.4135 108.068C72.2419 108.751 72.588 109.651 71.9183 110.303C70.9446 111.253 70.393 110.535 69.8162 110.075C68.8453 109.3 68.2572 108.4 67.6184 107.58C66.3239 105.916 65.3953 104.197 65.5247 102.456C65.7949 98.8704 70.4972 95.5232 76.2632 92.6511C82.0291 89.779 88.9349 87.2437 94.6249 84.3507C98.0074 82.6314 100.945 80.7915 103.391 78.8646C105.315 77.3457 106.914 75.7502 107.73 74.0928C108.54 72.4449 107.781 70.9208 107.871 69.2833C108.065 65.7263 105.617 62.1923 105.552 58.6133C110.403 61.5798 115.319 64.605 117.576 67.9763C120.34 72.104 118.879 76.5202 114.931 80.5125C114.433 81.0223 113.887 81.5268 113.307 82.0251Z" fill="#29716F"/>
<path d="M59.8805 109.339C59.4978 110.676 61.3354 112.686 57.7531 113.436C54.4325 114.132 51.2104 114.293 47.5268 113.853C44.5495 113.497 35.3335 112.201 37.1992 110.601C38.1279 109.806 40.0921 109.41 41.6736 108.83C43.2326 108.26 43.6575 107.541 43.6265 106.735C43.5871 105.752 42.5347 104.741 41.9606 103.788C41.2459 102.605 40.6014 101.416 40.033 100.221C39.5771 99.2627 39.1634 98.2903 38.8679 97.321C36.8474 91.8895 36.462 86.3615 37.6664 80.9006C38.2658 78.1775 39.2704 75.4533 41.6117 72.8466C46.4124 67.4885 56.5515 63.6829 67.743 60.2129C66.6483 61.4507 65.6324 62.6916 64.7769 63.9378C58.0176 73.6984 57.3085 83.8807 58.9997 93.9623C59.3655 96.1619 59.8158 98.3501 60.3899 100.527C60.8288 102.249 61.3663 104.245 61.1102 106.185C61.2453 106.129 61.4198 106.239 61.4395 106.316C61.3551 107.349 60.1985 108.33 59.8805 109.339Z" fill="#459592"/>
<path d="M77.3442 109.286C75.6867 110.309 72.9825 111.116 70.3795 111.775C66.7015 112.706 63.0235 113.638 59.3427 114.569C60.6541 112.507 61.9682 110.441 62.7646 108.342C64.9849 102.484 63.0995 96.1053 58.9882 90.4094C57.0521 87.7262 54.2296 85.151 51.5309 82.5663C48.9138 80.0593 46.9102 77.5344 44.9995 74.9414C39.7625 67.8305 37.6323 60.1604 39.3629 52.803C39.8835 50.5876 40.9248 48.3879 42.208 46.1819C47.4956 37.1986 57.0577 28.3538 52.5271 19.4082C53.5148 20.3397 54.4153 21.2984 55.1554 22.2519C58.4366 26.2412 59.9899 30.4129 59.7733 34.572C59.5622 38.7165 57.629 42.8347 57.6599 46.9718C57.6768 49.1589 59.0276 51.3397 58.8728 53.4964C58.7096 55.7894 58.5717 58.0846 58.5689 60.3786C58.566 64.9469 59.0979 69.5308 61.1071 74.0435C61.8669 75.7522 62.8378 77.4495 64.0647 79.1215C68.1479 84.6926 75.0339 89.9657 78.0534 95.6312C79.6883 98.7004 80.1555 101.855 79.452 104.972C79.1649 106.251 79.2212 108.072 77.4624 109.207C77.4287 109.232 77.3864 109.258 77.3442 109.286Z" fill="#40B9B5"/>
<path d="M43.7553 113.064C44.0648 113.699 43.8031 114.191 42.5171 114.368C39.7453 114.75 35.9772 113.473 34.4042 112.824C28.5087 110.392 25.1403 107.274 25.326 103.959C25.3401 103.735 25.3486 103.525 25.402 103.302C25.6891 101.903 26.6233 100.51 27.6251 99.1486C30.7318 94.8604 33.1435 91.2069 29.0744 86.8747C26.7274 84.376 23.9866 81.7001 25.9423 79.1543C31.2581 82.4869 36.4275 85.8939 39.5342 89.5936C42.0922 92.6419 43.9523 96.5283 41.3465 99.6657C40.3193 100.902 38.2792 101.804 37.5559 103.113C36.6357 104.782 36.2361 106.579 37.7529 108.216C38.2848 108.792 42.9533 111.412 43.7553 113.064Z" fill="#4CE1DC"/>
<path d="M97.2224 89.4946C96.8566 90.2331 96.4288 90.9705 96.0489 91.7289C95.0274 93.766 93.4544 95.7653 91.3664 97.686C89.4641 99.4357 87.1368 101.121 84.41 102.713C81.9815 104.13 78.7059 105.242 76.4322 106.665C73.2917 108.632 70.9194 110.946 72.2392 113.181C69.9317 112.142 68.2602 110.907 67.3878 109.598C65.3532 106.54 67.7255 103.313 71.0545 100.416C74.3835 97.5203 78.7003 94.7594 80.8334 91.7101C84.2834 86.7778 81.0106 81.9988 79.0183 77.1022C76.5025 70.9259 76.7276 64.5954 79.674 58.4453C81.3849 60.8842 83.3013 63.302 85.1754 65.7241C86.9567 68.0276 88.9603 70.1769 91.2144 72.4112C95.6831 76.8347 98.0413 81.5529 98.1229 86.2796C98.1482 87.3936 97.7458 88.4446 97.2224 89.4946Z" fill="#4CE1DC"/>
<path d="M54.4255 113.574C52.6948 113.104 51.1499 112.534 49.8358 111.904C46.9936 110.542 45.1729 108.919 43.8925 107.26C40.7464 103.191 40.7351 98.7932 43.8587 94.7221C45.5724 92.4879 48.1952 90.3658 50.1003 88.1535C52.4978 85.3738 53.7388 82.4765 54.4114 79.573C55.0361 76.8772 55.8353 73.8509 54.5043 71.1719C54.9939 72.1621 55.7678 73.146 56.4178 74.1415C56.505 74.2768 56.5923 74.4132 56.6739 74.5485C59.4232 79.0811 59.1193 83.7647 58.3314 88.3728C57.9824 90.4161 57.535 92.4805 56.3334 94.4914C55.0839 96.583 53.4068 98.6578 53.0944 100.81C52.7961 102.869 53.7726 104.924 54.9967 106.935C56.6064 109.58 58.6578 112.187 61.1286 114.738C58.7029 114.533 56.4403 114.122 54.4255 113.574Z" fill="#4CE1DC"/>
</g>
</svg>
