<svg width="53" height="62" viewBox="0 0 53 62" fill="none" xmlns="http://www.w3.org/2000/svg">
<path fill-rule="evenodd" clip-rule="evenodd" d="M41.048 46.5217L46.4702 49.6528L53 45.8834V30.5885V15.2907L45.7103 11.082C45.7103 21.301 45.8262 31.4671 45.8262 41.7434L41.0966 44.4739L41.1009 44.4982L41.1038 44.5068L41.1095 44.5397L41.1152 44.5697L41.1209 44.6027L41.1224 44.6084L41.1267 44.6341L41.1324 44.6656L41.1367 44.6971L41.1395 44.72L41.141 44.73L41.1453 44.7629L41.1496 44.7959L41.1538 44.8273L41.1553 44.8302L41.1581 44.8602L41.1624 44.8917L41.1653 44.9246L41.1682 44.9404V44.9576L41.171 44.9905L41.1753 45.022L41.1796 45.0878L41.181 45.1207L41.1825 45.1522L41.1839 45.1651L41.1853 45.1837L41.1868 45.2166L41.1882 45.2495L41.1896 45.2767V45.2824V45.3153L41.1911 45.3468V45.3811V45.3869V45.4112V45.4427L41.1896 45.4756V45.4971V45.5056L41.1882 45.5386L41.1868 45.5715L41.1839 45.6359L41.1825 45.6674L41.181 45.7003L41.1796 45.7189L41.1782 45.7318L41.1767 45.7647L41.1725 45.7962L41.171 45.8276H41.1696L41.1667 45.8605L41.1639 45.892L41.1596 45.9249C41.141 46.0838 41.1138 46.2426 41.078 46.3986L41.0708 46.4315L41.0651 46.4616L41.048 46.5217ZM7.18096 41.7434V36.2797L7.15663 36.2726L7.14805 36.2697L7.11799 36.2583L7.08794 36.2468L7.05646 36.2354L7.05217 36.2339L7.02641 36.2254L6.99635 36.2139L6.9663 36.2025L6.9477 36.1967L6.93625 36.191L6.9062 36.1796L6.87615 36.1667L6.84609 36.1552L6.84466 36.1538L6.81747 36.1409L6.78742 36.1295L6.75737 36.1152L6.74306 36.1094L6.72732 36.1037L6.69727 36.0894L6.66865 36.0751L6.64146 36.0636L6.63859 36.0622L6.60997 36.0465L6.58135 36.0336L6.5513 36.0193L6.54128 36.0136L6.52268 36.0021L6.49406 35.9878L6.46544 35.9735L6.44254 35.962L6.43682 35.9577L6.4082 35.9434L6.38101 35.9277L6.35382 35.912L6.34666 35.9077L6.3252 35.8933L6.29801 35.879L6.27082 35.8619L6.24363 35.8447L6.21644 35.829L6.18925 35.8118L6.16206 35.7932L6.1592 35.7917L6.13487 35.7746L6.10768 35.7588L6.08049 35.7388L6.06618 35.7302L6.0533 35.7216L6.02611 35.7045L6.00035 35.6859L5.97459 35.6687L5.97316 35.6672L5.9474 35.6501L5.92164 35.6315L5.89445 35.6114L5.84437 35.5742L5.81861 35.5542L5.79714 35.5399L5.79285 35.5356L5.76852 35.5156L5.74419 35.4955L5.71843 35.4755L5.71271 35.4698L5.69411 35.4555L5.66978 35.4354L5.64545 35.4154L5.62828 35.4011L5.62113 35.3939L5.5968 35.3739L5.57247 35.3524L5.54957 35.3324L5.54528 35.3281L5.52524 35.3109L5.50235 35.288L5.47802 35.2666L5.45512 35.2451L5.43223 35.2236L0.0100183 38.3562V45.8935L26.5057 61.1913L33.7954 56.9826C24.943 51.8638 16.0806 46.8794 7.18096 41.7434ZM26.5029 8.27714L31.2324 11.009L31.2568 10.9875L31.2811 10.9661L31.3054 10.9446L31.3298 10.9246L31.3355 10.9203L31.3555 10.9031L31.3798 10.8816L31.4042 10.8616L31.4213 10.8487L31.4299 10.8416L31.4557 10.8215L31.48 10.8029L31.5072 10.7829L31.5086 10.7815L31.533 10.7629L31.5587 10.7428L31.5845 10.7242L31.6117 10.707L31.6374 10.687L31.6632 10.6698L31.689 10.6527L31.6904 10.6512L31.7176 10.6326L31.7448 10.6155L31.7705 10.5983L31.782 10.5926L31.7991 10.5811L31.8263 10.5639L31.8535 10.5468L31.8764 10.5325L31.8807 10.531L31.9093 10.5153L31.9365 10.4967L31.9637 10.4809L31.9694 10.4766L31.9895 10.4652L32.0181 10.4509L32.0467 10.4337L32.0739 10.4194L32.1025 10.4022L32.1311 10.3879L32.1598 10.3736L32.1641 10.3722L32.1884 10.3593L32.217 10.345L32.2742 10.3164L32.3043 10.3021L32.363 10.2763V10.2749C32.4803 10.2219 32.5991 10.1747 32.7193 10.1289L32.7494 10.1189L32.8095 10.0989L32.8395 10.0888L32.871 10.0774L32.8753 10.076L32.9311 10.0588L32.9611 10.0502L32.9797 10.0445L32.9912 10.0402L33.0227 10.0316V3.76793L26.4943 0L13.2457 7.64891L0 15.2964V23.7152C8.85671 18.5978 17.6032 13.416 26.5029 8.27714Z" fill="url(#paint0_linear_1_5337)"/>
<path d="M10.0502 40.0876L18.147 44.7629V35.7673C17.6347 35.6071 17.2598 35.1262 17.2598 34.5595C17.2598 33.8612 17.0251 44.0488 17.7249 44.0488C18.4218 44.0488 19.5967 44.1733 19.5967 44.873C19.5967 45.4397 19.4178 35.6071 18.9026 35.7673L18.0869 44.7328L21.9493 46.9552V35.7659C21.4341 35.6056 21.062 35.1248 21.062 34.5581C21.062 33.8598 21.6287 46.7477 22.3271 46.7477C23.0269 46.7477 23.5921 33.8598 23.5921 34.5581C23.5921 35.1248 23.2172 35.6042 22.7049 35.7659L21.7246 46.8264L25.7501 49.149V35.7659C25.235 35.6056 24.8629 35.1248 24.8629 34.5581C24.8629 33.8598 25.0575 48.8413 25.7559 48.8413C26.4542 48.8413 27.9239 34.1116 27.393 34.5581C26.9594 34.9216 27.0209 35.6042 26.5071 35.7659L25.6414 49.0846L36.5473 55.3826L43.7211 51.2412L39.6055 48.8642C39.3894 49.0517 39.1518 49.2206 38.8957 49.3708C36.7004 50.6373 33.8927 49.886 32.6263 47.6908C31.3598 45.4956 32.1111 42.6879 34.3063 41.4228C36.0736 40.4039 38.2331 40.6916 39.6713 41.9852L42.9598 40.0862V30.7372L35.1692 35.235C35.2866 35.7602 34.1317 36.1709 34.5668 36.6059C35.0605 37.0996 42.9927 31.0234 42.6436 30.4181C42.2944 29.8128 32.6749 34.1059 33.3032 34.415C34.2262 34.8686 34.395 34.2147 34.7914 34.581L42.9584 30.9376V26.3482L33.2688 31.9422C33.3862 32.4674 32.881 32.6577 32.6663 33.3131C32.4488 33.9785 43.06 26.6573 42.7108 26.052C42.3616 25.4467 30.4182 31.1608 31.4027 31.1236C31.9694 31.1022 32.496 30.9233 32.891 31.2868L42.9598 26.5114V21.9564L31.3684 28.6479C31.4857 29.1731 30.8618 29.528 30.7659 30.0189C30.6314 30.7043 43.0571 22.2884 42.7079 21.683C42.3588 21.0791 28.9442 27.4086 29.5023 27.8294C30.3295 28.4519 30.5956 27.629 30.992 27.9939L42.9598 22.2655V9.48915L39.7514 7.64311L35.7831 5.35059V10.1031C36.0536 10.1975 36.3198 10.3177 36.5774 10.4666C38.7726 11.7345 39.5253 14.5407 38.2574 16.7359C36.9909 18.9297 34.1832 19.6825 31.9895 18.4146C30.2236 17.3957 29.3921 15.3807 29.7942 13.4889L26.5057 11.5899L18.4089 16.2637L26.1995 20.7629C26.5959 20.398 27.1983 20.3135 27.6892 20.5983C28.2945 20.9475 19.1258 16.039 18.7767 16.6429C18.4275 17.2483 26.5343 23.479 26.4241 22.7878C26.3597 22.3828 25.7043 21.9421 25.8217 21.4169L18.4833 16.2208L14.608 18.4603L24.2962 24.0543C24.6926 23.6894 25.2936 23.6064 25.7859 23.8897C26.3898 24.2389 14.8256 18.2128 14.4764 18.8167C14.1272 19.422 25.1262 26.4284 24.5209 26.0778C24.0314 25.7944 23.801 25.2306 23.9198 24.7068L14.6953 18.4074L10.8058 20.6513L22.3972 27.3442C22.7936 26.9779 23.5392 26.8248 24.03 27.1081C24.6353 27.4573 11.351 20.3579 11.0033 20.9632C10.6541 21.5671 23.2286 29.7183 22.6233 29.3692C22.1325 29.0858 21.9035 28.522 22.0208 27.9968L10.833 20.637L0.0100098 26.8849V35.1692L4.12568 32.7936C4.07273 32.5132 4.04411 32.2212 4.04411 31.9264C4.04411 29.3906 6.09765 27.3371 8.63345 27.3371C11.1664 27.3371 13.2214 29.3921 13.2214 31.9264C13.2214 33.9642 11.8919 35.6929 10.053 36.2911V40.0876H10.0502Z" fill="url(#paint1_linear_1_5337)"/>
<path fill-rule="evenodd" clip-rule="evenodd" d="M34.6842 46.5032C35.2938 47.5579 36.6461 47.9214 37.7022 47.3117C38.7583 46.7021 39.1204 45.3498 38.5108 44.2937C37.9011 43.2376 36.5488 42.8769 35.4927 43.4851C34.438 44.0933 34.076 45.4485 34.6842 46.5032ZM36.1953 15.5455C36.805 14.488 36.4415 13.1371 35.3854 12.526C34.3307 11.9178 32.9769 12.2799 32.3687 13.336C31.7591 14.3907 32.1212 15.7444 33.1773 16.354C34.2334 16.9637 35.5857 16.6016 36.1953 15.5455ZM8.63064 29.7157C7.40996 29.7157 6.42111 30.7045 6.42111 31.9252C6.42111 33.1459 7.40996 34.1333 8.63064 34.1333C9.85131 34.1333 10.8387 33.1444 10.8387 31.9252C10.8387 30.7045 9.84988 29.7157 8.63064 29.7157Z" fill="url(#paint2_linear_1_5337)"/>
<defs>
<linearGradient id="paint0_linear_1_5337" x1="0.0488414" y1="29.5526" x2="29.9012" y2="30.7215" gradientUnits="userSpaceOnUse">
<stop stop-color="#01E8FB"/>
<stop offset="1" stop-color="#B562D3"/>
</linearGradient>
<linearGradient id="paint1_linear_1_5337" x1="0.00827821" y1="30.3676" x2="43.7181" y2="30.3676" gradientUnits="userSpaceOnUse">
<stop stop-color="#01E8FB"/>
<stop offset="1" stop-color="#B562D3"/>
</linearGradient>
<linearGradient id="paint2_linear_1_5337" x1="6.42065" y1="29.9191" x2="38.8072" y2="29.9191" gradientUnits="userSpaceOnUse">
<stop stop-color="#01E8FB"/>
<stop offset="1" stop-color="#B562D3"/>
</linearGradient>
</defs>
</svg>
