<svg width="176" height="94" viewBox="0 0 176 94" fill="none" xmlns="http://www.w3.org/2000/svg">
<g opacity="0.6">
<path d="M16.3437 63.8735C13.301 64.9725 15.3842 67.0425 16.6014 67.7175C19.7734 69.4775 34.7524 72.4365 37.3622 72.6935L16.3437 63.8735Z" fill="#9FB6B7"/>
<path d="M84.4228 0.483462C85.4125 -1.57154 63.4099 2.04846 50.9399 28.6315C60.877 27.3745 71.9386 27.5815 83.6559 28.6445C77.9257 17.0195 83.4331 2.53846 84.4228 0.483462Z" fill="#8199A3"/>
<path d="M83.656 28.6446C77.9527 17.0736 83.38 2.67958 84.407 0.517578C77.5792 0.566578 69.3098 5.99558 63.0951 15.7276C60.5393 19.7296 58.6614 23.9316 57.4624 28.0336C65.6398 27.5146 74.4397 27.8086 83.656 28.6446Z" fill="#5E7984"/>
<path d="M43.8489 62.9907C48.4927 77.7327 61.5566 88.8757 63.3908 88.8047C65.2353 88.7337 59.7311 68.6557 58.6875 60.4487C58.1824 56.4747 43.0321 60.3997 43.8489 62.9907Z" fill="#5E7984"/>
<path d="M0 56.3375C7.75871 35.8915 52.3213 22.8605 75.8163 26.2995C99.3113 29.7385 111.835 46.7135 131.476 46.9025C151.117 47.0915 146.665 30.9855 175.059 22.0835L157.42 54.3855C157.42 54.3855 158.761 70.7575 167.412 90.1325C152.498 77.5925 146.388 54.4435 129.21 57.8645C112.032 61.2855 75.3437 76.5935 37.2996 72.0395C29.9397 71.1585 20.3 67.6465 13.9846 63.2855C7.04185 62.1495 2.61373 60.5005 0 56.3375Z" fill="#8199A3"/>
<path d="M173.351 24.1636C158.369 28.8606 155.56 34.5196 150.503 39.7766C144.904 46.9656 141.213 51.9906 123.723 51.9176C124.155 51.8226 128.799 57.9456 129.209 57.8636C146.387 54.4426 152.497 77.5916 167.411 90.1316C158.76 70.7576 157.419 54.3846 157.419 54.3846L173.351 24.1636Z" fill="#5E7984"/>
<path d="M71.3938 38.5584C37.6889 36.7424 9.05447 43.9065 0.454387 55.2475C0.292615 55.6085 0.138775 55.9715 0 56.3375C2.61373 60.5005 7.04184 62.1504 13.983 63.2844C20.2984 67.6454 29.9381 71.1575 37.298 72.0385C75.3429 76.5925 112.03 61.2854 129.208 57.8644C132.061 57.2964 136.423 54.5574 138.756 55.2844C127.181 49.0614 100.743 40.1384 71.3938 38.5584Z" fill="#5E7984"/>
<path d="M132.981 53.2864C123.318 51.7864 111.12 55.0754 97.65 60.9994C86.0215 66.1134 71.55 70.7684 59.084 66.1754C47.5285 61.9174 32.2703 59.2834 19.1747 60.1404C14.1653 60.4684 5.78889 59.9174 1.245 57.9744C3.94199 60.9574 8.0386 62.3124 13.9837 63.2834C20.2992 67.6444 30.0031 71.8124 37.3629 72.6934C75.4079 77.2474 111.968 61.8794 129.146 58.4574C136.98 56.8974 142.575 60.2694 147.69 66.2344C144.878 60.0674 140.709 54.4854 132.981 53.2864Z" fill="#9FB6B7"/>
<path d="M46.461 66.1206C44.5642 58.5206 43.8449 56.8516 43.8449 56.8516L42.9377 65.8226L46.461 66.1206Z" fill="#9FB6B7"/>
<path d="M49.6552 65.5043C48.476 59.7473 48.0248 58.4854 48.0248 58.4854L47.4094 65.3004L49.6552 65.5043Z" fill="#9FB6B7"/>
<path d="M14.3462 60.5265C14.4081 60.2885 14.1631 59.9725 13.7983 59.8215C13.4335 59.6705 13.0878 59.7415 13.0259 59.9795C12.9641 60.2175 13.2091 60.5335 13.5739 60.6845C13.9378 60.8355 14.2844 60.7645 14.3462 60.5265Z" fill="#5E7984"/>
<path d="M16.0606 60.5406C16.2311 60.2996 15.9718 59.9405 15.4809 59.7375C14.9909 59.5345 14.4548 59.5646 14.2835 59.8056C14.1123 60.0466 14.3723 60.4056 14.8624 60.6086C15.3541 60.8126 15.8901 60.7816 16.0606 60.5406Z" fill="#5E7984"/>
<path d="M13.1162 60.0773C13.2201 59.6793 12.9227 59.1983 12.4517 59.0033C11.9814 58.8083 11.5151 58.9733 11.4121 59.3723C11.309 59.7713 11.6056 60.2523 12.0766 60.4463C12.5468 60.6403 13.0123 60.4753 13.1162 60.0773Z" fill="#5E7984"/>
<path d="M12.2924 59.6462C12.3963 59.2482 11.8745 58.6742 11.1275 58.3642C10.3804 58.0552 9.69054 58.1272 9.58666 58.5252C9.48278 58.9232 10.0046 59.4972 10.7516 59.8072C11.4994 60.1172 12.1893 60.0452 12.2924 59.6462Z" fill="#5E7984"/>
<path d="M20.7853 60.6122C20.8138 60.3642 20.5284 60.1072 20.1485 60.0382C19.7687 59.9702 19.438 60.1152 19.4094 60.3642C19.3809 60.6122 19.6664 60.8692 20.0462 60.9382C20.426 61.0062 20.7567 60.8602 20.7853 60.6122Z" fill="#5E7984"/>
<path d="M22.4752 60.2495C22.6101 59.9755 22.3047 59.6775 21.7941 59.5855C21.2834 59.4935 20.7592 59.6405 20.6244 59.9155C20.4896 60.1895 20.7949 60.4875 21.3056 60.5795C21.8171 60.6715 22.3404 60.5245 22.4752 60.2495Z" fill="#5E7984"/>
<path d="M19.5125 60.4395C19.5593 60.0245 19.2001 59.6155 18.71 59.5275C18.2199 59.4385 17.7838 59.7035 17.737 60.1195C17.6902 60.5345 18.0494 60.9425 18.5395 61.0315C19.0296 61.1195 19.465 60.8545 19.5125 60.4395Z" fill="#5E7984"/>
<path d="M18.6419 60.1963C18.6887 59.7813 18.0963 59.3303 17.3176 59.1903C16.5389 59.0493 15.8696 59.2723 15.8228 59.6873C15.776 60.1023 16.3684 60.5533 17.1471 60.6933C17.925 60.8343 18.5943 60.6113 18.6419 60.1963Z" fill="#5E7984"/>
<path d="M23.5133 60.0022C23.591 59.7472 23.3523 59.3812 22.9804 59.1832C22.6084 58.9852 22.2436 59.0322 22.1659 59.2862C22.0882 59.5412 22.3269 59.9072 22.6989 60.1052C23.0708 60.3032 23.4355 60.2572 23.5133 60.0022Z" fill="#5E7984"/>
<path d="M25.3007 60.1735C25.4918 59.9265 25.2404 59.5105 24.7401 59.2445C24.2397 58.9785 23.679 58.9635 23.4879 59.2105C23.2968 59.4575 23.5474 59.8735 24.0486 60.1395C24.5489 60.4055 25.1096 60.4205 25.3007 60.1735Z" fill="#5E7984"/>
<path d="M30.2245 60.6773C30.2673 60.4083 29.9842 60.1023 29.5917 59.9933C29.1992 59.8843 28.8463 60.0133 28.8035 60.2823C28.7607 60.5513 29.0437 60.8573 29.4363 60.9663C29.8288 61.0753 30.1817 60.9453 30.2245 60.6773Z" fill="#5E7984"/>
<path d="M32.0071 60.4332C32.1625 60.1462 31.8604 59.7942 31.3323 59.6472C30.8041 59.5002 30.2498 59.6142 30.0944 59.9022C29.939 60.1892 30.2411 60.5412 30.7684 60.6882C31.2974 60.8352 31.8517 60.7212 32.0071 60.4332Z" fill="#5E7984"/>
<path d="M28.9065 60.3744C28.9786 59.9254 28.6258 59.4474 28.119 59.3064C27.6123 59.1654 27.1437 59.4154 27.0715 59.8644C26.9993 60.3134 27.3522 60.7914 27.8589 60.9324C28.3657 61.0734 28.8343 60.8234 28.9065 60.3744Z" fill="#5E7984"/>
<path d="M28.0111 60.0304C28.0833 59.5814 27.4894 59.0364 26.6845 58.8124C25.8804 58.5884 25.1698 58.7714 25.0985 59.2204C25.0263 59.6694 25.6202 60.2144 26.4251 60.4384C27.2292 60.6624 27.9398 60.4794 28.0111 60.0304Z" fill="#5E7984"/>
<path d="M36.5542 61.4245C36.6255 61.0145 36.2092 60.5435 35.6248 60.3715C35.0403 60.1995 34.509 60.3925 34.4377 60.8025C34.3663 61.2125 34.7826 61.6835 35.367 61.8555C35.9515 62.0275 36.4828 61.8345 36.5542 61.4245Z" fill="#5E7984"/>
<path d="M39.2274 61.0773C39.4677 60.6403 39.0252 60.0983 38.2385 59.8673C37.4527 59.6363 36.62 59.8023 36.3797 60.2393C36.1394 60.6763 36.5819 61.2183 37.3686 61.4493C38.1553 61.6813 38.9871 61.5143 39.2274 61.0773Z" fill="#5E7984"/>
<path d="M34.5891 60.9446C34.708 60.2596 34.1934 59.5246 33.4392 59.3026C32.6851 59.0806 31.977 59.4566 31.858 60.1406C31.7391 60.8256 32.2537 61.5606 33.0087 61.7826C33.7628 62.0046 34.4709 61.6296 34.5891 60.9446Z" fill="#5E7984"/>
<path d="M40.2282 61.3333C40.317 61.0863 40.1195 60.6993 39.7857 60.4693C39.4518 60.2383 39.1092 60.2513 39.0204 60.4983C38.9316 60.7453 39.129 61.1323 39.4629 61.3623C39.7967 61.5933 40.1393 61.5803 40.2282 61.3333Z" fill="#5E7984"/>
<path d="M41.8815 61.6653C42.0758 61.4363 41.8696 60.9993 41.4208 60.6883C40.972 60.3783 40.451 60.3123 40.2567 60.5413C40.0624 60.7703 40.2686 61.2083 40.7174 61.5183C41.1663 61.8293 41.688 61.8943 41.8815 61.6653Z" fill="#5E7984"/>
<path d="M41.4747 62.7815C41.5326 62.5175 41.2884 62.1865 40.9299 62.0425C40.5715 61.8985 40.2345 61.9945 40.1766 62.2585C40.1187 62.5225 40.3629 62.8535 40.7214 62.9975C41.0798 63.1425 41.4169 63.0455 41.4747 62.7815Z" fill="#5E7984"/>
<path d="M26.3347 61.5522C26.4394 61.3552 26.2959 61.1012 26.0128 60.9862C25.7296 60.8712 25.4156 60.9372 25.3109 61.1342C25.2063 61.3312 25.3498 61.5852 25.6329 61.7002C25.9152 61.8162 26.23 61.7502 26.3347 61.5522Z" fill="#5E7984"/>
<path d="M13.615 62.3992C13.6436 62.1512 13.3581 61.8942 12.9782 61.8252C12.5984 61.7562 12.2677 61.9022 12.2392 62.1512C12.2114 62.3992 12.4961 62.6562 12.8759 62.7252C13.2566 62.7932 13.5873 62.6472 13.615 62.3992Z" fill="#5E7984"/>
<path d="M4.76675 58.9691C4.90156 58.6951 4.59625 58.3971 4.08556 58.3051C3.57487 58.2131 3.05071 58.3611 2.9159 58.6351C2.78109 58.9091 3.0864 59.2071 3.5971 59.2991C4.10858 59.3921 4.63194 59.2441 4.76675 58.9691Z" fill="#5E7984"/>
<path d="M3.51775 58.1655C3.56453 57.7505 3.20533 57.3415 2.71526 57.2535C2.22519 57.1645 1.78904 57.4295 1.74226 57.8455C1.69547 58.2605 2.05467 58.6695 2.54474 58.7575C3.03482 58.8455 3.47096 58.5805 3.51775 58.1655Z" fill="#5E7984"/>
<path d="M45.6332 58.6762C45.68 58.2612 45.0877 57.8102 44.3089 57.6702C43.5302 57.5292 42.8609 57.7522 42.8141 58.1672C42.7673 58.5822 43.3597 59.0332 44.1384 59.1732C44.9171 59.3142 45.5864 59.0912 45.6332 58.6762Z" fill="#5E7984"/>
<path d="M5.78103 59.4285C5.85874 59.1735 5.62005 58.8075 5.24814 58.6095C4.87622 58.4115 4.51146 58.4585 4.43374 58.7125C4.35603 58.9675 4.59472 59.3335 4.96664 59.5315C5.33855 59.7285 5.70331 59.6825 5.78103 59.4285Z" fill="#5E7984"/>
<path d="M7.72383 60.0954C7.91494 59.8484 7.66438 59.4324 7.1632 59.1664C6.66282 58.9004 6.10214 58.8854 5.91102 59.1324C5.71991 59.3794 5.97052 59.7954 6.4717 60.0614C6.97208 60.3284 7.53272 60.3434 7.72383 60.0954Z" fill="#5E7984"/>
<path d="M12.6476 60.5992C12.6904 60.3302 12.4074 60.0242 12.0148 59.9152C11.6223 59.8062 11.2694 59.9352 11.2266 60.2042C11.1838 60.4732 11.4669 60.7792 11.8594 60.8882C12.2519 60.9972 12.6048 60.8682 12.6476 60.5992Z" fill="#5E7984"/>
<path d="M11.3297 60.2963C11.4019 59.8473 11.049 59.3693 10.5423 59.2283C10.0355 59.0873 9.56688 59.3373 9.49471 59.7863C9.42255 60.2353 9.77542 60.7133 10.2821 60.8543C10.7889 60.9953 11.2575 60.7453 11.3297 60.2963Z" fill="#5E7984"/>
<path d="M10.4351 59.9523C10.5072 59.5033 9.91331 58.9583 9.10841 58.7343C8.30431 58.5103 7.59378 58.6933 7.52241 59.1423C7.45025 59.5913 8.04498 60.1363 8.84908 60.3603C9.65239 60.5843 10.3629 60.4013 10.4351 59.9523Z" fill="#5E7984"/>
<path d="M8.75793 61.4756C8.86261 61.2786 8.71907 61.0245 8.43597 60.9095C8.15287 60.7945 7.83883 60.8606 7.73416 61.0576C7.62948 61.2546 7.77302 61.5085 8.05612 61.6235C8.33843 61.7385 8.65325 61.6726 8.75793 61.4756Z" fill="#5E7984"/>
<path d="M43.466 62.0433C43.562 61.6023 43.2654 61.0943 42.8031 60.9073C42.3408 60.7213 41.8872 60.9273 41.7912 61.3683C41.6945 61.8093 41.9918 62.3173 42.4542 62.5043C42.9165 62.6913 43.3693 62.4843 43.466 62.0433Z" fill="#5E7984"/>
<path d="M38.9411 62.9961C39.0394 62.5551 38.719 62.0311 38.2258 61.8261C37.7326 61.6201 37.2536 61.8111 37.156 62.2521C37.0577 62.6931 37.3781 63.2171 37.8714 63.4221C38.3638 63.6281 38.8428 63.4371 38.9411 62.9961Z" fill="#5E7984"/>
<path d="M80.6902 67.2674C80.6728 66.9944 80.3342 66.7984 79.9329 66.8294C79.5316 66.8604 79.2208 67.1074 79.2382 67.3804C79.2557 67.6534 79.5943 67.8494 79.9956 67.8184C80.396 67.7874 80.7069 67.5404 80.6902 67.2674Z" fill="#5E7984"/>
<path d="M82.3506 66.4156C82.4371 66.0856 82.0707 65.8515 81.5307 65.8935C80.9914 65.9355 80.4832 66.2375 80.3959 66.5675C80.3095 66.8975 80.6759 67.1315 81.2159 67.0895C81.7559 67.0475 82.2634 66.7456 82.3506 66.4156Z" fill="#5E7984"/>
<path d="M86.9382 65.7922C86.9176 65.3732 86.4148 65.0641 85.8153 65.1011C85.2158 65.1381 84.7471 65.5082 84.7677 65.9272C84.7884 66.3462 85.2911 66.6551 85.8906 66.6181C86.4901 66.5801 86.9588 66.2102 86.9382 65.7922Z" fill="#5E7984"/>
<path d="M89.433 64.5311C89.5686 64.0281 89.0246 63.6601 88.2189 63.7101C87.4124 63.7601 86.6488 64.2091 86.5132 64.7131C86.3776 65.2161 86.9216 65.5841 87.7272 65.5341C88.5337 65.4831 89.2974 65.0341 89.433 64.5311Z" fill="#5E7984"/>
<path d="M84.9446 66.0111C84.9097 65.3111 84.2546 64.7832 83.4807 64.8312C82.7075 64.8792 82.108 65.4851 82.1429 66.1851C82.1778 66.8851 82.8328 67.4132 83.6068 67.3652C84.3807 67.3172 84.9795 66.7111 84.9446 66.0111Z" fill="#5E7984"/>
<path d="M90.4512 64.4306C90.4829 64.1626 90.2086 63.8586 89.8374 63.7526C89.4663 63.6466 89.1396 63.7776 89.1078 64.0456C89.0761 64.3136 89.3505 64.6176 89.7216 64.7236C90.0927 64.8296 90.4195 64.6986 90.4512 64.4306Z" fill="#5E7984"/>
<path d="M92.1134 64.1762C92.2498 63.8882 91.9564 63.5392 91.4576 63.3972C90.958 63.2542 90.4425 63.3722 90.3061 63.6592C90.1697 63.9472 90.4632 64.2962 90.962 64.4382C91.4608 64.5812 91.977 64.4642 92.1134 64.1762Z" fill="#5E7984"/>
<path d="M91.965 65.3903C91.9626 65.1163 91.6565 64.8833 91.2806 64.8683C90.9047 64.8543 90.6018 65.0643 90.6034 65.3373C90.6058 65.6113 90.9119 65.8443 91.2878 65.8593C91.6637 65.8743 91.9666 65.6643 91.965 65.3903Z" fill="#5E7984"/>
<path d="M93.735 63.5024C93.731 63.0454 93.3353 62.6594 92.85 62.6404C92.3647 62.6214 91.9737 62.9774 91.9777 63.4344C91.9809 63.8914 92.3773 64.2774 92.8627 64.2964C93.348 64.3154 93.7382 63.9594 93.735 63.5024Z" fill="#5E7984"/>
<path d="M89.5758 66.4751C89.5742 66.0171 89.1523 65.6241 88.6329 65.5981C88.1143 65.5711 87.6948 65.9211 87.6972 66.3791C87.6987 66.8371 88.1206 67.2301 88.6401 67.2561C89.1587 67.2831 89.5774 66.9331 89.5758 66.4751Z" fill="#5E7984"/>
<path d="M46.6387 63.1004C46.8155 62.8734 46.5856 62.4284 46.1233 62.1064C45.6618 61.7844 45.1439 61.7084 44.9671 61.9354C44.7902 62.1624 45.021 62.6074 45.4825 62.9294C45.944 63.2514 46.4619 63.3274 46.6387 63.1004Z" fill="#5E7984"/>
<path d="M50.8472 63.6362C50.8877 63.3712 50.6268 63.0332 50.2644 62.8802C49.902 62.7282 49.5761 62.8192 49.5356 63.0842C49.4952 63.3492 49.7561 63.6872 50.1185 63.8402C50.4801 63.9922 50.8068 63.9012 50.8472 63.6362Z" fill="#5E7984"/>
<path d="M52.2802 64.1866C52.4245 63.9146 52.1469 63.5286 51.6592 63.3236C51.1715 63.1186 50.66 63.1726 50.5157 63.4446C50.3714 63.7156 50.6489 64.1026 51.1366 64.3076C51.6235 64.5126 52.1358 64.4586 52.2802 64.1866Z" fill="#5E7984"/>
<path d="M50.3159 62.9804C50.3833 62.5374 50.0589 62.0194 49.5919 61.8224C49.1248 61.6254 48.691 61.8254 48.6236 62.2684C48.5562 62.7114 48.8806 63.2294 49.3476 63.4264C49.8147 63.6234 50.2485 63.4234 50.3159 62.9804Z" fill="#5E7984"/>
<path d="M49.396 62.3835C49.7116 62.1715 49.7449 61.2495 49.4705 60.3255C49.1961 59.4015 48.7179 58.8245 48.4023 59.0365C48.0867 59.2485 48.0534 60.1705 48.3278 61.0945C48.6022 62.0185 49.0803 62.5955 49.396 62.3835Z" fill="#5E7984"/>
<path d="M47.3817 63.5256C47.6982 63.3166 47.848 62.6826 47.7164 62.1096C47.5848 61.5366 47.2208 61.2426 46.9044 61.4516C46.588 61.6606 46.4381 62.2946 46.5697 62.8676C46.7014 63.4406 47.0653 63.7346 47.3817 63.5256Z" fill="#5E7984"/>
<path d="M46.2573 61.7973C46.7601 61.2703 46.8505 60.0813 46.458 59.1423C46.0655 58.2033 45.3399 57.8693 44.8371 58.3963C44.3343 58.9233 44.2439 60.1123 44.6365 61.0513C45.0282 61.9903 45.7546 62.3243 46.2573 61.7973Z" fill="#5E7984"/>
<path d="M56.7534 65.5781C56.8327 65.0991 56.3664 64.4811 55.7114 64.1961C55.0563 63.9111 54.4616 64.0691 54.3823 64.5471C54.303 65.0261 54.7693 65.6441 55.4243 65.9291C56.0785 66.2141 56.6741 66.0571 56.7534 65.5781Z" fill="#5E7984"/>
<path d="M58.9468 65.6202C59.1697 65.2082 58.7621 64.6152 58.0365 64.2982C57.3109 63.9802 56.5425 64.0572 56.3189 64.4692C56.096 64.8812 56.5036 65.4742 57.2292 65.7912C57.9548 66.1092 58.7232 66.0332 58.9468 65.6202Z" fill="#5E7984"/>
<path d="M54.6631 64.9814C54.7749 64.3074 54.3007 63.5124 53.6053 63.2074C52.9098 62.9024 52.2548 63.2014 52.1429 63.8764C52.0311 64.5504 52.5046 65.3454 53.2008 65.6504C53.8971 65.9554 54.5521 65.6554 54.6631 64.9814Z" fill="#5E7984"/>
<path d="M59.8699 65.9874C59.9532 65.7494 59.7708 65.3394 59.4639 65.0714C59.1563 64.8034 58.8398 64.7794 58.7573 65.0174C58.6741 65.2554 58.8565 65.6654 59.1634 65.9334C59.4711 66.2004 59.7875 66.2254 59.8699 65.9874Z" fill="#5E7984"/>
<path d="M61.3964 66.5001C61.5764 66.2911 61.3869 65.8301 60.973 65.4691C60.559 65.1081 60.0777 64.9851 59.8985 65.1941C59.7185 65.4031 59.908 65.8641 60.3219 66.2251C60.7351 66.5861 61.2164 66.7091 61.3964 66.5001Z" fill="#5E7984"/>
<path d="M61.0174 67.5766C61.0714 67.3176 60.8469 66.9596 60.5163 66.7756C60.1856 66.5916 59.8739 66.6516 59.82 66.9106C59.7661 67.1696 59.9905 67.5275 60.3212 67.7115C60.6519 67.8955 60.9635 67.8356 61.0174 67.5766Z" fill="#5E7984"/>
<path d="M47.0376 64.6904C47.1351 64.5034 47.0027 64.2334 46.7418 64.0864C46.4809 63.9394 46.1906 63.9714 46.0931 64.1584C45.9956 64.3454 46.128 64.6154 46.3889 64.7624C46.6498 64.9094 46.94 64.8774 47.0376 64.6904Z" fill="#5E7984"/>
<path d="M52.047 65.8335C52.1445 65.6465 52.0121 65.3765 51.7512 65.2295C51.4903 65.0825 51.2 65.1145 51.1025 65.3015C51.005 65.4885 51.1374 65.7585 51.3983 65.9055C51.6592 66.0525 51.9494 66.0195 52.047 65.8335Z" fill="#5E7984"/>
<path d="M62.8587 67.0533C62.9491 66.6213 62.6756 66.0783 62.2489 65.8413C61.8223 65.6033 61.4028 65.7613 61.3132 66.1933C61.2228 66.6253 61.4956 67.1683 61.923 67.4053C62.3496 67.6423 62.7683 67.4853 62.8587 67.0533Z" fill="#5E7984"/>
<path d="M56.6401 67.5042C56.6996 67.2222 56.5077 66.8572 56.2111 66.6872C55.9153 66.5172 55.6267 66.6082 55.5672 66.8902C55.5077 67.1722 55.6996 67.5382 55.9962 67.7072C56.292 67.8772 56.5806 67.7862 56.6401 67.5042Z" fill="#5E7984"/>
<path d="M58.15 69.7282C58.2419 69.2962 57.9478 68.7352 57.4926 68.4752C57.0374 68.2152 56.5949 68.3542 56.5029 68.7862C56.4109 69.2182 56.7051 69.7792 57.1603 70.0392C57.6147 70.2992 58.058 70.1602 58.15 69.7282Z" fill="#5E7984"/>
<path d="M54.9819 67.1582C55.0398 66.8872 54.855 66.5362 54.5695 66.3722C54.284 66.2092 54.0065 66.2962 53.9486 66.5672C53.8915 66.8382 54.0755 67.1892 54.361 67.3532C54.6465 67.5172 54.9248 67.4292 54.9819 67.1582Z" fill="#5E7984"/>
<path d="M93.7755 62.9303C93.7096 62.6733 93.352 62.5353 92.9769 62.6213C92.6011 62.7073 92.3497 62.9853 92.4155 63.2413C92.4813 63.4983 92.839 63.6363 93.2141 63.5513C93.5899 63.4653 93.8413 63.1873 93.7755 62.9303Z" fill="#5E7984"/>
<path d="M95.1989 62.5424C95.2219 62.2164 94.831 62.0464 94.3258 62.1624C93.8207 62.2784 93.3916 62.6354 93.3686 62.9614C93.3456 63.2874 93.7366 63.4574 94.2417 63.3414C94.7469 63.2254 95.1759 62.8684 95.1989 62.5424Z" fill="#5E7984"/>
<path d="M92.9626 62.9984C92.8531 62.5694 92.371 62.3114 91.8865 62.4214C91.4012 62.5324 91.0974 62.9704 91.2069 63.3994C91.3163 63.8284 91.7985 64.0873 92.283 63.9763C92.7683 63.8653 93.0728 63.4274 92.9626 62.9984Z" fill="#5E7984"/>
<path d="M99.2868 61.0322C99.1742 60.5642 98.5295 60.3042 97.8467 60.4522C97.1639 60.5992 96.7024 61.0982 96.815 61.5662C96.9276 62.0342 97.5724 62.2942 98.2551 62.1462C98.9379 61.9992 99.3994 61.5002 99.2868 61.0322Z" fill="#5E7984"/>
<path d="M101.323 59.5284C101.361 59.0314 100.778 58.7594 100.021 58.9204C99.2638 59.0814 98.6183 59.6144 98.5803 60.1114C98.5422 60.6084 99.1251 60.8804 99.8824 60.7194C100.64 60.5584 101.284 60.0254 101.323 59.5284Z" fill="#5E7984"/>
<path d="M97.1672 62.3671C97.2291 61.6821 96.6993 60.9471 95.984 60.7241C95.2688 60.5011 94.6383 60.8751 94.5764 61.5601C94.5146 62.2451 95.0443 62.9801 95.7596 63.2031C96.4749 63.4251 97.1053 63.0511 97.1672 62.3671Z" fill="#5E7984"/>
<path d="M102.549 59.3051C102.531 59.0461 102.215 58.7971 101.843 58.7481C101.471 58.6991 101.185 58.8701 101.203 59.1291C101.22 59.3881 101.537 59.6371 101.908 59.6861C102.28 59.7341 102.567 59.5631 102.549 59.3051Z" fill="#5E7984"/>
<path d="M104.257 58.7854C104.336 58.4934 103.993 58.2034 103.494 58.1374C102.993 58.0714 102.525 58.2554 102.446 58.5474C102.368 58.8394 102.71 59.1294 103.21 59.1954C103.71 59.2614 104.179 59.0774 104.257 58.7854Z" fill="#5E7984"/>
<path d="M104.829 58.0835C104.778 57.8245 104.444 57.6455 104.084 57.6845C103.724 57.7235 103.474 57.9655 103.525 58.2245C103.577 58.4835 103.91 58.6625 104.27 58.6235C104.63 58.5845 104.88 58.3425 104.829 58.0835Z" fill="#5E7984"/>
<path d="M95.5685 64.4501C95.5827 64.2271 95.3639 64.0711 95.0792 64.1001C94.7945 64.1291 94.5518 64.3331 94.5375 64.5561C94.5233 64.7791 94.7421 64.9351 95.0268 64.9061C95.3115 64.8771 95.5542 64.6731 95.5685 64.4501Z" fill="#5E7984"/>
<path d="M105.782 57.4073C105.697 56.9733 105.25 56.6633 104.785 56.7133C104.321 56.7633 104.013 57.1563 104.099 57.5893C104.184 58.0233 104.631 58.3333 105.095 58.2833C105.561 58.2333 105.868 57.8413 105.782 57.4073Z" fill="#5E7984"/>
<path d="M103.694 60.7735C103.644 60.4585 103.365 60.2385 103.073 60.2805C102.779 60.3235 102.582 60.6135 102.633 60.9285C102.683 61.2435 102.962 61.4635 103.255 61.4215C103.548 61.3785 103.744 61.0885 103.694 60.7735Z" fill="#5E7984"/>
<path d="M100.233 63.1333C100.177 62.8503 99.8696 62.6463 99.5453 62.6763C99.221 62.7073 99.0029 62.9613 99.0584 63.2443C99.1139 63.5273 99.4216 63.7313 99.746 63.7013C100.07 63.6703 100.288 63.4163 100.233 63.1333Z" fill="#5E7984"/>
<path d="M124.802 52.9334C124.718 52.4994 124.247 52.1854 123.749 52.2334C123.25 52.2814 122.915 52.6714 122.999 53.1054C123.083 53.5394 123.555 53.8534 124.053 53.8054C124.551 53.7574 124.886 53.3674 124.802 52.9334Z" fill="#5E7984"/>
<path d="M123.32 53.4504C123.236 53.0164 122.764 52.7025 122.266 52.7505C121.768 52.7985 121.433 53.1885 121.517 53.6225C121.601 54.0565 122.073 54.3705 122.571 54.3225C123.068 54.2755 123.403 53.8854 123.32 53.4504Z" fill="#5E7984"/>
<path d="M98.6468 63.8341C98.5945 63.5621 98.2979 63.3651 97.9863 63.3951C97.6738 63.4251 97.4637 63.6701 97.5161 63.9421C97.5684 64.2141 97.865 64.4111 98.1766 64.3811C98.4891 64.3511 98.7 64.1071 98.6468 63.8341Z" fill="#5E7984"/>
<path d="M107.416 58.0945C107.578 57.8295 107.32 57.4385 106.838 57.2225C106.356 57.0065 105.832 57.0455 105.67 57.3105C105.507 57.5755 105.766 57.9665 106.248 58.1825C106.731 58.3995 107.253 58.3605 107.416 58.0945Z" fill="#5E7984"/>
<path d="M107.155 59.2783C107.179 59.0063 106.896 58.7283 106.524 58.6583C106.152 58.5883 105.831 58.7513 105.808 59.0233C105.784 59.2953 106.066 59.5733 106.439 59.6433C106.811 59.7133 107.131 59.5503 107.155 59.2783Z" fill="#5E7984"/>
<path d="M109.321 57.1915C109.361 56.7365 109.003 56.2945 108.524 56.2035C108.043 56.1125 107.622 56.4075 107.583 56.8615C107.544 57.3165 107.901 57.7585 108.381 57.8495C108.861 57.9405 109.282 57.6465 109.321 57.1915Z" fill="#5E7984"/>
<path d="M109.615 56.3352C109.574 56.0702 109.232 55.8792 108.85 55.9082C108.47 55.9372 108.194 56.1752 108.235 56.4402C108.276 56.7052 108.618 56.8962 108.999 56.8672C109.38 56.8382 109.655 56.6002 109.615 56.3352Z" fill="#5E7984"/>
<path d="M111.095 56.0343C111.149 55.7143 110.776 55.4873 110.264 55.5263C109.751 55.5653 109.292 55.8573 109.238 56.1763C109.184 56.4963 109.557 56.7233 110.07 56.6843C110.582 56.6453 111.041 56.3543 111.095 56.0343Z" fill="#5E7984"/>
<path d="M108.371 57.0514C108.302 56.6084 107.848 56.2804 107.356 56.3184C106.864 56.3564 106.521 56.7454 106.589 57.1884C106.657 57.6314 107.111 57.9594 107.604 57.9214C108.096 57.8834 108.439 57.4944 108.371 57.0514Z" fill="#5E7984"/>
<path d="M115.072 55.4046C115.003 54.9236 114.387 54.5696 113.696 54.6136C113.004 54.6576 112.498 55.0846 112.566 55.5656C112.635 56.0466 113.251 56.4006 113.942 56.3566C114.634 56.3126 115.14 55.8856 115.072 55.4046Z" fill="#5E7984"/>
<path d="M116.998 54.8544C117.083 54.3664 116.529 54.0094 115.762 54.0564C114.995 54.1034 114.305 54.5364 114.22 55.0234C114.135 55.5114 114.688 55.8684 115.455 55.8214C116.222 55.7744 116.913 55.3414 116.998 54.8544Z" fill="#5E7984"/>
<path d="M113.017 56.3146C113.143 55.6436 112.685 54.8346 111.996 54.5066C111.307 54.1786 110.646 54.4556 110.52 55.1266C110.394 55.7976 110.852 56.6066 111.541 56.9346C112.23 57.2626 112.891 56.9846 113.017 56.3146Z" fill="#5E7984"/>
<path d="M118.236 54.8154C118.242 54.5554 117.952 54.2604 117.587 54.1574C117.222 54.0534 116.922 54.1804 116.915 54.4394C116.909 54.6994 117.199 54.9944 117.564 55.0974C117.929 55.2014 118.229 55.0754 118.236 54.8154Z" fill="#5E7984"/>
<path d="M119.981 54.5544C120.086 54.2764 119.774 53.9374 119.283 53.7974C118.793 53.6574 118.31 53.7704 118.205 54.0484C118.099 54.3264 118.412 54.6654 118.902 54.8054C119.392 54.9454 119.875 54.8324 119.981 54.5544Z" fill="#5E7984"/>
<path d="M120.614 53.9424C120.588 53.6774 120.273 53.4504 119.912 53.4354C119.551 53.4204 119.28 53.6234 119.306 53.8884C119.333 54.1534 119.647 54.3804 120.008 54.3954C120.369 54.4104 120.641 54.2074 120.614 53.9424Z" fill="#5E7984"/>
<path d="M110.996 57.5341C111.031 57.3151 110.828 57.1271 110.543 57.1131C110.257 57.0991 109.997 57.2661 109.962 57.4851C109.927 57.7041 110.13 57.8921 110.416 57.9061C110.701 57.9191 110.961 57.7521 110.996 57.5341Z" fill="#5E7984"/>
<path d="M121.212 54.9242C121.167 54.4812 120.753 54.1062 120.287 54.0862C119.821 54.0672 119.479 54.4102 119.523 54.8542C119.568 55.2972 119.982 55.6722 120.448 55.6922C120.914 55.7112 121.256 55.3672 121.212 54.9242Z" fill="#5E7984"/>
<path d="M119.235 56.4443C119.214 56.1243 118.959 55.8633 118.664 55.8623C118.369 55.8613 118.146 56.1193 118.167 56.4403C118.187 56.7603 118.443 57.0213 118.738 57.0223C119.033 57.0223 119.255 56.7643 119.235 56.4443Z" fill="#5E7984"/>
<path d="M115.316 57.0614C115.287 56.7724 115.001 56.5234 114.676 56.5054C114.351 56.4874 114.11 56.7074 114.139 56.9964C114.167 57.2854 114.454 57.5344 114.779 57.5524C115.103 57.5714 115.344 57.3514 115.316 57.0614Z" fill="#5E7984"/>
<path d="M117.83 55.4585C117.787 55.0145 117.347 54.6325 116.849 54.6055C116.35 54.5785 115.98 54.9165 116.022 55.3595C116.065 55.8035 116.504 56.1855 117.003 56.2125C117.503 56.2395 117.872 55.9025 117.83 55.4585Z" fill="#5E7984"/>
<path d="M122.028 53.9795C121.985 53.5355 121.546 53.1535 121.047 53.1265C120.548 53.0995 120.178 53.4375 120.22 53.8805C120.263 54.3245 120.703 54.7065 121.201 54.7335C121.7 54.7615 122.07 54.4235 122.028 53.9795Z" fill="#5E7984"/>
<path d="M113.542 57.6175C113.515 57.3395 113.24 57.0995 112.926 57.0825C112.613 57.0655 112.382 57.2775 112.409 57.5555C112.436 57.8335 112.711 58.0735 113.024 58.0905C113.336 58.1075 113.568 57.8965 113.542 57.6175Z" fill="#5E7984"/>
<path d="M139.492 54.9823C139.527 54.5373 139.165 54.0443 138.683 53.8803C138.201 53.7163 137.781 53.9443 137.746 54.3883C137.712 54.8333 138.074 55.3263 138.555 55.4903C139.037 55.6553 139.457 55.4273 139.492 54.9823Z" fill="#5E7984"/>
<path d="M137.957 54.8495C137.992 54.4045 137.631 53.9115 137.149 53.7475C136.666 53.5835 136.247 53.8115 136.212 54.2555C136.177 54.7005 136.539 55.1935 137.021 55.3575C137.503 55.5215 137.922 55.2935 137.957 54.8495Z" fill="#5E7984"/>
<path d="M129.663 53.2322C129.725 52.7502 129.238 52.1572 128.574 51.9092C127.91 51.6612 127.32 51.8512 127.258 52.3332C127.196 52.8152 127.683 53.4082 128.347 53.6562C129.011 53.9042 129.6 53.7152 129.663 53.2322Z" fill="#5E7984"/>
<path d="M131.625 53.5213C131.833 53.0973 131.406 52.5283 130.67 52.2503C129.934 51.9723 129.169 52.0913 128.96 52.5153C128.752 52.9393 129.179 53.5083 129.915 53.7863C130.651 54.0643 131.416 53.9453 131.625 53.5213Z" fill="#5E7984"/>
<path d="M127.271 52.4543C127.188 51.7753 126.523 51.2433 125.786 51.2663C125.048 51.2893 124.518 51.8583 124.6 52.5383C124.683 53.2173 125.348 53.7493 126.085 53.7263C126.823 53.7033 127.354 53.1333 127.271 52.4543Z" fill="#5E7984"/>
<path d="M132.803 54.0035C132.877 53.7615 132.682 53.3615 132.365 53.1105C132.049 52.8595 131.732 52.8525 131.657 53.0945C131.583 53.3365 131.778 53.7365 132.095 53.9875C132.411 54.2395 132.728 54.2455 132.803 54.0035Z" fill="#5E7984"/>
<path d="M134.517 54.4891C134.689 54.2701 134.484 53.8201 134.058 53.4821C133.632 53.1451 133.148 53.0481 132.975 53.2671C132.802 53.4861 133.007 53.9361 133.433 54.2741C133.859 54.6111 134.345 54.7081 134.517 54.4891Z" fill="#5E7984"/>
<path d="M135.276 54.1781C135.321 53.9171 135.084 53.5711 134.747 53.4051C134.411 53.2391 134.101 53.3171 134.057 53.5781C134.011 53.8391 134.249 54.1851 134.585 54.3511C134.922 54.5171 135.231 54.4391 135.276 54.1781Z" fill="#5E7984"/>
<path d="M140.856 56.0731C140.931 55.6361 140.639 55.1091 140.205 54.8951C139.77 54.6811 139.357 54.8621 139.282 55.2991C139.206 55.7361 139.498 56.2631 139.933 56.4771C140.367 56.6901 140.781 56.5101 140.856 56.0731Z" fill="#5E7984"/>
<path d="M133.48 53.6312C133.545 53.3202 133.373 52.9682 133.095 52.8432C132.816 52.7182 132.539 52.8692 132.474 53.1792C132.409 53.4892 132.581 53.8423 132.859 53.9673C133.137 54.0923 133.415 53.9412 133.48 53.6312Z" fill="#5E7984"/>
<path d="M129.457 54.8975C129.506 54.6125 129.302 54.2575 129 54.1045C128.698 53.9515 128.413 54.0585 128.364 54.3425C128.315 54.6275 128.518 54.9825 128.821 55.1355C129.122 55.2895 129.407 55.1825 129.457 54.8975Z" fill="#5E7984"/>
<path d="M132.25 54.4395C132.327 54.0035 132.013 53.4595 131.55 53.2245C131.087 52.9895 130.649 53.1535 130.572 53.5895C130.495 54.0255 130.809 54.5705 131.272 54.8045C131.736 55.0395 132.173 54.8765 132.25 54.4395Z" fill="#5E7984"/>
<path d="M136.599 54.8062C136.676 54.3702 136.362 53.8252 135.899 53.5912C135.436 53.3562 134.998 53.5202 134.921 53.9562C134.844 54.3922 135.157 54.9372 135.621 55.1712C136.084 55.4052 136.522 55.2422 136.599 54.8062Z" fill="#5E7984"/>
<path d="M146.045 62.2803C146.261 61.9253 146.159 61.2653 145.817 60.8063C145.475 60.3473 145.024 60.2623 144.808 60.6173C144.592 60.9723 144.695 61.6323 145.037 62.0913C145.378 62.5503 145.83 62.6353 146.045 62.2803Z" fill="#5E7984"/>
<path d="M140.939 56.7805C141.103 56.6235 141.103 56.1545 140.939 55.7305C140.775 55.3075 140.508 55.0915 140.344 55.2475C140.179 55.4045 140.179 55.8745 140.344 56.2975C140.508 56.7205 140.775 56.9365 140.939 56.7805Z" fill="#5E7984"/>
<path d="M142.194 58.3303C142.432 58.2593 142.446 57.7393 142.225 57.1703C142.003 56.6013 141.631 56.1973 141.393 56.2683C141.155 56.3393 141.141 56.8594 141.363 57.4284C141.585 57.9984 141.957 58.4023 142.194 58.3303Z" fill="#5E7984"/>
<path d="M146.443 63.9383C146.681 63.8673 146.694 63.3473 146.473 62.7783C146.251 62.2093 145.879 61.8053 145.641 61.8763C145.403 61.9473 145.389 62.4673 145.611 63.0363C145.833 63.6063 146.205 64.0093 146.443 63.9383Z" fill="#5E7984"/>
<path d="M147.506 65.6253C147.744 65.5543 147.757 65.0343 147.536 64.4653C147.315 63.8963 146.942 63.4923 146.704 63.5633C146.466 63.6343 146.453 64.1543 146.674 64.7233C146.895 65.2933 147.268 65.6973 147.506 65.6253Z" fill="#5E7984"/>
<path d="M140.707 58.4695C140.926 58.3625 141.018 57.9875 140.911 57.6315C140.805 57.2755 140.54 57.0735 140.321 57.1805C140.102 57.2875 140.011 57.6625 140.117 58.0175C140.223 58.3735 140.487 58.5755 140.707 58.4695Z" fill="#5E7984"/>
<path d="M142.97 58.5694C143.117 58.3774 143.06 57.9264 142.843 57.5614C142.626 57.1974 142.331 57.0584 142.183 57.2504C142.036 57.4424 142.093 57.8934 142.31 58.2584C142.527 58.6224 142.822 58.7614 142.97 58.5694Z" fill="#5E7984"/>
<path d="M141.671 56.9131C141.856 56.6921 141.857 56.2771 141.673 55.9871C141.489 55.6961 141.189 55.6401 141.004 55.8611C140.819 56.0821 140.819 56.4961 141.003 56.7871C141.187 57.0771 141.486 57.1341 141.671 56.9131Z" fill="#5E7984"/>
<path d="M143.834 59.9804C144.081 59.6604 144.041 58.9894 143.745 58.4824C143.449 57.9754 143.008 57.8244 142.761 58.1444C142.513 58.4644 142.553 59.1354 142.85 59.6424C143.146 60.1494 143.586 60.3014 143.834 59.9804Z" fill="#5E7984"/>
<path d="M144.975 60.6391C145.222 60.3191 145.182 59.6481 144.886 59.1411C144.59 58.6341 144.149 58.4831 143.902 58.8031C143.654 59.1231 143.694 59.7941 143.991 60.3011C144.286 60.8081 144.727 60.9601 144.975 60.6391Z" fill="#5E7984"/>
<path d="M127.896 53.3883C127.944 53.1143 127.748 52.7733 127.456 52.6263C127.166 52.4793 126.891 52.5813 126.843 52.8553C126.795 53.1293 126.992 53.4703 127.283 53.6173C127.573 53.7643 127.847 53.6613 127.896 53.3883Z" fill="#5E7984"/>
<path d="M56.7296 66.5527C68.3653 85.9917 86.6297 93.7607 88.7057 93.7557C90.789 93.7507 82.5409 76.2697 79.7575 66.3937C78.1723 60.7657 54.4339 62.7177 56.7296 66.5527Z" fill="#5E7984"/>
<path d="M79.6901 75.9644C71.6221 67.5084 62.4812 63.7274 56.6289 65.7414C56.5361 66.0004 56.5607 66.2714 56.7296 66.5524C68.3653 85.9914 86.6297 93.7604 88.7057 93.7554C89.6843 93.7534 88.3838 89.8954 86.4409 84.7824C84.598 81.7304 82.33 78.7304 79.6901 75.9644Z" fill="#8199A3"/>
<path d="M109.721 63.3346C114.082 69.4376 123.865 70.6166 124.561 70.4366C125.257 70.2566 119.434 64.4566 118.415 61.0856C117.647 58.5476 108.333 61.3916 109.721 63.3346Z" fill="#9FB6B7"/>
<path d="M20.8178 63.7613C21.4347 63.7943 22.0351 63.8533 22.6163 63.9343C22.6369 63.6023 22.3427 63.3063 21.5307 63.1963C21.3182 63.1673 21.1056 63.1383 20.8931 63.1103C18.4451 62.8863 14.4064 63.5713 13.9829 63.2843C14.4413 63.6003 14.925 63.9103 15.4182 64.2163C16.9479 63.8313 18.8099 63.6533 20.8178 63.7613Z" fill="#475656"/>
<path d="M18.461 51.1507C17.561 51.1027 16.7744 51.4687 16.3549 52.0407C16.4238 52.2787 16.5245 52.4427 16.6498 52.4257C17.7672 52.2737 18.8845 52.2327 20.0074 52.3017C20.1168 52.3087 20.1882 52.1457 20.2255 51.9147C19.8044 51.4847 19.1787 51.1897 18.461 51.1507Z" fill="#475656"/>
<path d="M19.5529 53.3797C19.8011 52.5317 19.4514 51.5887 18.7718 51.2717C18.0922 50.9557 17.3397 51.3857 17.0915 52.2337C16.8432 53.0817 17.193 54.0247 17.8726 54.3417C18.553 54.6587 19.3047 54.2277 19.5529 53.3797Z" fill="#475656"/>
<path d="M43.8219 45.8486C43.8061 45.7236 43.6277 45.6836 43.4001 45.6996C43.6626 48.6726 43.7538 52.2116 43.6253 56.0036C43.5182 59.1686 43.27 62.1416 42.9219 64.7446C43.174 64.6626 43.3834 64.5266 43.4183 64.3206C44.4572 58.1766 44.5904 52.0516 43.8219 45.8486Z" fill="#4E5D5E"/>
<path d="M47.921 47.3337C47.9012 47.1357 47.7545 47.0557 47.561 47.0557C47.8029 50.2787 47.8782 54.1147 47.7387 58.2327C47.6752 60.0977 47.569 61.8917 47.4333 63.6037C47.6134 63.4687 47.7497 63.2917 47.7727 63.0907C48.3786 57.7957 48.4373 52.5887 47.921 47.3337Z" fill="#4E5D5E"/>
<path d="M51.2897 49.0934C51.2588 48.9334 51.0526 48.8644 50.7814 48.8584C51.1834 51.4584 51.3658 54.5454 51.254 57.8514C51.2033 59.3484 51.0915 60.7884 50.9352 62.1604C51.1834 62.0574 51.3706 61.9194 51.3983 61.7584C52.1382 57.5214 52.1144 53.3364 51.2897 49.0934Z" fill="#4E5D5E"/>
<path d="M157.42 54.3846L161.832 46.0156L155.259 54.5936C155.259 54.5936 156.539 56.9366 158.566 62.0186C157.657 57.2616 157.42 54.3846 157.42 54.3846Z" fill="#4E6A72"/>
<path d="M111.68 65.4826C116.487 69.7206 123.956 70.5926 124.56 70.4366C124.839 70.3646 124.072 69.3906 122.988 68.0346C121.744 67.4676 120.377 66.9586 118.928 66.5416C116.268 65.7746 113.752 65.4336 111.68 65.4826Z" fill="#8199A3"/>
<path d="M117.736 65.2194C117.757 64.6124 117.08 64.0834 116.224 64.0374C115.369 63.9914 114.66 64.4454 114.639 65.0524C114.619 65.6584 115.295 66.1884 116.151 66.2344C117.006 66.2804 117.715 65.8254 117.736 65.2194Z" fill="#8199A3"/>
<path d="M119.708 66.7926C119.729 66.1866 119.052 65.6566 118.197 65.6106C117.342 65.5646 116.631 66.0186 116.612 66.6256C116.592 67.2326 117.267 67.7616 118.123 67.8076C118.977 67.8536 119.688 67.3996 119.708 66.7926Z" fill="#8199A3"/>
<path d="M119.175 64.1015C119.189 63.6715 118.71 63.2956 118.103 63.2636C117.496 63.2306 116.993 63.5536 116.979 63.9836C116.964 64.4136 117.444 64.7885 118.051 64.8215C118.657 64.8545 119.161 64.5315 119.175 64.1015Z" fill="#8199A3"/>
<path d="M116.078 63.0103C116.086 62.7613 115.809 62.5443 115.458 62.5253C115.106 62.5063 114.815 62.6923 114.807 62.9413C114.799 63.1903 115.076 63.4073 115.427 63.4263C115.779 63.4453 116.069 63.2593 116.078 63.0103Z" fill="#8199A3"/>
<path d="M115.115 65.6753C115.129 65.2453 114.65 64.8703 114.043 64.8373C113.436 64.8043 112.933 65.1273 112.918 65.5573C112.904 65.9873 113.384 66.3633 113.991 66.3953C114.597 66.4283 115.101 66.1063 115.115 65.6753Z" fill="#8199A3"/>
<path d="M69.9845 68.2827C70.2042 67.9677 70.021 67.3007 69.5754 66.7937C69.1297 66.2867 68.5912 66.1307 68.3716 66.4467C68.1519 66.7617 68.3351 67.4287 68.7808 67.9357C69.2264 68.4427 69.7649 68.5977 69.9845 68.2827Z" fill="#5E7984"/>
<path d="M72.4579 69.6095C72.8362 69.3735 72.6561 68.6295 72.0566 67.9475C71.4571 67.2655 70.665 66.9035 70.2875 67.1395C69.91 67.3755 70.0892 68.1195 70.6887 68.8015C71.2874 69.4845 72.0797 69.8455 72.4579 69.6095Z" fill="#5E7984"/>
<path d="M60.3583 66.1876C60.7366 65.9516 60.5565 65.2077 59.957 64.5257C59.3575 63.8437 58.5653 63.4817 58.1879 63.7177C57.8104 63.9537 57.9896 64.6976 58.5891 65.3796C59.1886 66.0616 59.9808 66.4226 60.3583 66.1876Z" fill="#5E7984"/>
<path d="M68.4414 67.9714C68.8086 67.4444 68.6396 66.4874 68.0647 65.8324C67.4898 65.1784 66.7261 65.0744 66.359 65.6014C65.9918 66.1284 66.1607 67.0854 66.7357 67.7404C67.3106 68.3954 68.0743 68.4984 68.4414 67.9714Z" fill="#5E7984"/>
<path d="M65.3408 66.0114C65.708 65.4844 65.5391 64.5274 64.9641 63.8724C64.3892 63.2184 63.6256 63.1144 63.2584 63.6414C62.8912 64.1684 63.0601 65.1254 63.6351 65.7804C64.21 66.4354 64.9736 66.5384 65.3408 66.0114Z" fill="#5E7984"/>
<path d="M60.9824 67.0717C60.4765 66.7777 59.9301 66.8987 59.762 67.3417C59.5946 67.7847 59.869 68.3817 60.375 68.6757C60.8809 68.9697 61.4273 68.8487 61.5954 68.4057C61.7627 67.9637 61.4883 67.3667 60.9824 67.0717Z" fill="#5E7984"/>
<path d="M61.9356 65.4206C62.3028 64.8936 62.1339 63.9366 61.559 63.2816C60.9841 62.6276 60.2204 62.5236 59.8532 63.0506C59.4861 63.5776 59.655 64.5346 60.2299 65.1896C60.8048 65.8446 61.5685 65.9476 61.9356 65.4206Z" fill="#5E7984"/>
<path d="M58.7192 66.8776C59.0864 66.3506 58.9175 65.3936 58.3426 64.7386C57.7676 64.0846 57.004 63.9806 56.6368 64.5076C56.2697 65.0346 56.4385 65.9916 57.0135 66.6466C57.5884 67.3006 58.3521 67.4046 58.7192 66.8776Z" fill="#5E7984"/>
<path d="M73.2351 70.4445C73.408 70.2835 73.3826 69.8235 73.1796 69.4175C72.9758 69.0125 72.6712 68.8145 72.4984 68.9765C72.3255 69.1375 72.3509 69.5975 72.5539 70.0035C72.7577 70.4085 73.063 70.6065 73.2351 70.4445Z" fill="#5E7984"/>
<path d="M74.5554 71.7445C74.8131 71.6625 74.8005 71.1535 74.5269 70.6085C74.2533 70.0635 73.8227 69.6875 73.5642 69.7695C73.3064 69.8515 73.3191 70.3605 73.5927 70.9055C73.8663 71.4505 74.2969 71.8265 74.5554 71.7445Z" fill="#5E7984"/>
<path d="M73.7703 72.4727C73.9218 72.2767 73.8353 71.8387 73.5776 71.4937C73.3191 71.1487 72.9868 71.0277 72.8354 71.2237C72.6839 71.4197 72.7703 71.8577 73.0281 72.2027C73.2866 72.5467 73.6188 72.6677 73.7703 72.4727Z" fill="#5E7984"/>
<path d="M76.0811 72.7104C76.3349 72.3834 76.2699 71.7574 75.9368 71.3124C75.6038 70.8674 75.128 70.7714 74.8742 71.0984C74.6205 71.4254 74.6855 72.0514 75.0186 72.4964C75.3516 72.9414 75.8274 73.0374 76.0811 72.7104Z" fill="#5E7984"/>
<path d="M71.4707 71.1148C71.7252 70.7888 71.6467 70.1349 71.2938 69.6549C70.9409 69.1739 70.4484 69.0489 70.1939 69.3749C69.9385 69.7009 70.0179 70.3548 70.3707 70.8348C70.7228 71.3158 71.2153 71.4408 71.4707 71.1148Z" fill="#5E7984"/>
<path d="M62.7136 66.3238C62.9689 65.9978 62.8896 65.3438 62.5367 64.8638C62.1839 64.3828 61.6914 64.2578 61.4368 64.5838C61.1823 64.9098 61.2608 65.5638 61.6137 66.0438C61.9666 66.5238 62.459 66.6498 62.7136 66.3238Z" fill="#5E7984"/>
<path d="M76.43 72.3405C76.5276 72.1005 76.3515 71.6835 76.0375 71.4105C75.7235 71.1365 75.3896 71.1095 75.2929 71.3505C75.1954 71.5905 75.3714 72.0075 75.6854 72.2805C75.9995 72.5545 76.3325 72.5815 76.43 72.3405Z" fill="#5E7984"/>
<path d="M77.6553 73.3334C77.8543 73.1234 77.6719 72.6544 77.2492 72.2864C76.8266 71.9184 76.323 71.7904 76.124 72.0004C75.9257 72.2104 76.1073 72.6794 76.53 73.0474C76.9527 73.4154 77.457 73.5434 77.6553 73.3334Z" fill="#5E7984"/>
<path d="M66.6143 67.4506C66.8134 67.2406 66.6317 66.7716 66.2083 66.4036C65.7856 66.0356 65.2821 65.9076 65.0831 66.1176C64.884 66.3276 65.0656 66.7966 65.4891 67.1646C65.9125 67.5336 66.4161 67.6616 66.6143 67.4506Z" fill="#5E7984"/>
<path d="M75.8163 71.6657C75.9789 71.2637 75.7822 70.6517 75.3762 70.2987C74.971 69.9457 74.5103 69.9847 74.3477 70.3867C74.1851 70.7887 74.3818 71.4007 74.7878 71.7537C75.193 72.1067 75.6538 72.0677 75.8163 71.6657Z" fill="#5E7984"/>
<path d="M81.3411 77.5288C81.5227 77.0968 81.2119 76.3388 80.6457 75.8358C80.0795 75.3328 79.4728 75.2748 79.2912 75.7058C79.1096 76.1378 79.4204 76.8958 79.9866 77.3988C80.5528 77.9028 81.1595 77.9608 81.3411 77.5288Z" fill="#5E7984"/>
<path d="M83.2903 80.0814C83.6463 79.8624 83.525 79.0934 83.0207 78.3644C82.5155 77.6344 81.8185 77.2194 81.4624 77.4384C81.1064 77.6574 81.2277 78.4264 81.7321 79.1564C82.2364 79.8854 82.9342 80.3004 83.2903 80.0814Z" fill="#5E7984"/>
<path d="M79.4427 75.7917C79.8701 75.3617 79.9066 74.3687 79.5244 73.5747C79.1422 72.7797 78.4863 72.4847 78.0597 72.9137C77.6323 73.3437 77.5958 74.3357 77.978 75.1307C78.3603 75.9257 79.0161 76.2217 79.4427 75.7917Z" fill="#5E7984"/>
<path d="M76.8487 75.0134C76.9835 74.8684 76.9161 74.5624 76.698 74.3294C76.48 74.0964 76.1945 74.0254 76.0597 74.1704C75.9249 74.3154 75.9923 74.6214 76.2104 74.8544C76.4284 75.0874 76.7139 75.1584 76.8487 75.0134Z" fill="#5E7984"/>
<path d="M80.8907 78.2326C81.0096 77.9826 80.9065 77.5646 80.6591 77.2976C80.4125 77.0306 80.1151 77.0166 79.9962 77.2666C79.8772 77.5166 79.9803 77.9346 80.2277 78.2016C80.4744 78.4676 80.7709 78.4816 80.8907 78.2326Z" fill="#5E7984"/>
<path d="M79.3752 77.3176C79.4902 77.0776 79.3911 76.6746 79.1532 76.4176C78.9153 76.1606 78.629 76.1466 78.514 76.3866C78.3991 76.6266 78.499 77.0296 78.7369 77.2856C78.974 77.5436 79.2595 77.5576 79.3752 77.3176Z" fill="#5E7984"/>
<path d="M48.4206 32.0254C60.1015 30.1514 70.7959 29.9614 78.733 31.1634C81.2468 31.4524 83.6877 31.8534 86.0334 32.3724C81.0652 30.3514 75.6189 28.6924 69.2694 28.1804C57.6567 27.2444 39.8277 31.2003 24.5394 38.2613C31.3037 35.6573 39.516 33.4544 48.4206 32.0254Z" fill="#93ABB2"/>
</g>
</svg>
