<svg width="44" height="44" viewBox="0 0 44 44" fill="none" xmlns="http://www.w3.org/2000/svg">
<path d="M37.9679 6.69928C37.9679 6.69928 41.5292 5.31053 41.2313 8.68295C41.1332 10.0717 40.2431 14.9328 39.5501 20.1899L37.1759 35.764C37.1759 35.764 36.9779 38.0456 35.1969 38.4425C33.4167 38.8385 30.7455 37.0538 30.2505 36.6569C29.8545 36.359 22.831 31.8948 20.3579 29.7131C19.6649 29.1173 18.8729 27.9274 20.4569 26.5387L30.8436 16.6185C32.0307 15.4287 33.2178 12.6512 28.2714 16.0236L14.4206 25.4469C14.4206 25.4469 12.8375 26.4397 9.87027 25.5469L3.43893 23.5623C3.43893 23.5623 1.06477 22.0745 5.12102 20.5868C15.0146 15.9246 27.1834 11.1634 37.9661 6.69928H37.9679Z" fill="#1C7A9C"/>
</svg>
