<svg width="45" height="36" viewBox="0 0 45 36" fill="none" xmlns="http://www.w3.org/2000/svg">
<g clip-path="url(#clip0_1_7612)">
<path d="M38.1189 3.00247C35.1679 1.58142 32.046 0.571694 28.8357 0C28.4358 0.74406 27.9686 1.74482 27.6464 2.54098C24.1851 2.00533 20.7556 2.00533 17.3579 2.54098C17.0359 1.745 16.5582 0.74406 16.1546 0C12.9411 0.571957 9.81656 1.58425 6.86419 3.00989C0.989184 12.1472 -0.603486 21.0573 0.192761 29.8413C4.08945 32.8362 7.86574 34.6555 11.5784 35.846C12.5011 34.5401 13.3167 33.1575 14.0169 31.7126C12.6839 31.1903 11.3988 30.5466 10.177 29.7892C10.4985 29.5439 10.8125 29.2883 11.1184 29.0227C18.5223 32.5869 26.567 32.5869 33.8826 29.0227C34.1899 29.2865 34.5037 29.5421 34.8239 29.7892C33.6001 30.5486 32.3126 31.1935 30.9769 31.7164C31.6811 33.1672 32.4953 34.5511 33.4154 35.8497C37.1316 34.6593 40.9114 32.84 44.8081 29.8413C45.7425 19.6585 43.2121 10.8302 38.1189 3.00247ZM15.0256 24.4393C12.803 24.4393 10.9802 22.3037 10.9802 19.7032C10.9802 17.1027 12.7641 14.9635 15.0256 14.9635C17.2873 14.9635 19.1099 17.0989 19.071 19.7032C19.0745 22.3037 17.2873 24.4393 15.0256 24.4393ZM29.9752 24.4393C27.7526 24.4393 25.93 22.3037 25.93 19.7032C25.93 17.1027 27.7137 14.9635 29.9752 14.9635C32.2369 14.9635 34.0594 17.0989 34.0206 19.7032C34.0206 22.3037 32.2369 24.4393 29.9752 24.4393Z" fill="#1C7A9C"/>
</g>
<defs>
<clipPath id="clip0_1_7612">
<rect width="45" height="36" fill="white"/>
</clipPath>
</defs>
</svg>
