<svg width="135" height="235" viewBox="0 0 135 235" fill="none" xmlns="http://www.w3.org/2000/svg">
<mask id="mask0_1_6366" style="mask-type:alpha" maskUnits="userSpaceOnUse" x="0" y="0" width="135" height="235">
<path d="M61.3941 186.315C59.9291 181.201 59.7901 177.689 60.0941 172.626C60.4391 166.879 58.7311 161.174 58.4321 155.437C58.1651 150.318 58.2001 145.213 57.9831 140.094C57.2131 121.944 58.0721 103.658 58.7601 85.4461C59.1301 75.6631 59.5241 65.8811 59.8111 56.0951C59.9551 51.2071 60.0751 46.3191 60.1521 41.4291C60.1831 39.4381 61.5721 29.0591 60.2521 27.8921C60.0721 27.7331 60.0641 27.7411 60.2291 27.9161C65.2001 33.0791 65.9971 46.8051 67.3531 53.5991C70.2131 67.9321 72.1881 82.6011 73.6671 97.1481C75.6951 117.098 77.6331 137.739 76.8861 157.87C76.4661 169.189 75.9091 180.642 74.6981 191.908C73.9231 199.116 74.1761 207.978 71.3741 214.646C66.6961 206.244 64.0391 195.547 61.3941 186.315Z" fill="#4E9944"/>
<path d="M89.0172 208.182C86.8052 211.355 73.4382 231.153 69.4412 224.245C66.8352 219.74 73.8112 213.46 75.5952 209.881C78.9982 203.057 81.1711 195.916 83.2501 188.572C88.7421 169.171 93.0811 149.742 95.9661 129.782C98.2691 113.843 99.2342 97.908 101.304 82.025C102.21 75.074 102.886 68.112 103.185 61.127C103.335 57.632 102.493 52.418 103.451 49.03C103.576 48.587 103.332 48.303 103.263 47.949C105.555 54.247 108.583 60.1259 110.575 66.6349C114.115 78.1999 114.451 90.6339 114.451 102.667C114.452 139.553 110.802 176.925 89.0172 208.182Z" fill="#4E9944"/>
<path d="M48.7981 152.453C54.9151 171.149 66.9741 189.878 67.1231 210.086C67.1821 218.137 66.055 231.295 56.349 227.397C48.477 224.235 45.794 204.765 43.75 197.827C40.167 185.663 34.5021 174.003 31.5341 161.355C24.7761 132.566 21.995 106.772 29.213 73.1602C30.134 101.615 41.3881 129.8 48.7981 152.453Z" fill="#4E9944"/>
<path d="M9.92611 155.229C-0.582894 118.456 -6.6319 63.8221 12.0981 28.5491C9.7881 62.9581 13.7411 95.0771 20.6631 128.043C25.0251 148.821 34.4581 167.863 44.0101 186.654C48.6781 195.838 76.4151 241.639 46.7681 225.336C25.0351 213.386 16.1691 177.074 9.92611 155.229Z" fill="#8AC53F"/>
<path d="M64.958 229.474C85.224 224.3 102.133 182.304 108.607 165.163C117.967 140.383 117.594 113.534 125.455 89.729C141.427 113.613 132.219 150.885 123.733 176.162C117.851 193.683 96.259 247.059 69.082 232.224L64.958 229.474Z" fill="#8AC53F"/>
<path d="M41.5861 132.892C39.7301 127.611 39.5662 121.619 39.1802 116.074C38.1222 100.878 39.5901 85.469 41.1581 70.337C42.8161 54.336 45.1221 38.391 48.4601 22.633C50.0901 14.938 52.8902 7.571 54.6372 0C58.0882 7.302 55.1672 17.689 54.3782 25.571C53.0082 39.274 51.2672 53.779 51.8972 67.587C53.0592 93.076 53.2792 118.73 55.2592 144.233C55.8552 151.905 57.0151 159.582 57.4141 167.262C57.5781 170.418 57.6522 173.525 58.0742 176.644C58.2142 177.675 59.2611 180.377 58.7701 181.352C57.1351 184.604 53.3222 178.878 51.9052 176.798C47.6312 170.523 43.8202 163.181 40.5552 156.263L41.5861 132.892Z" fill="#4E9944"/>
<path d="M72.7491 207.477C68.9091 199.919 71.5921 186.737 71.8431 178.593C72.5191 156.67 72.9151 134.796 75.1661 112.947C77.4321 90.9521 78.2511 68.7081 78.2481 46.6141C78.2471 37.6271 75.1261 26.9301 76.5171 18.2471C80.2641 25.4421 81.5081 34.6521 83.2891 42.9691C86.7451 59.1081 90.1961 75.0621 90.1631 91.6261C90.1191 113.778 91.2841 135.501 87.9851 157.526C86.2331 169.222 83.7981 180.879 80.6401 192.253C78.8741 198.611 77.6651 208.331 72.2581 212.815C72.2951 212.11 72.2321 211.388 72.2911 210.686L72.7491 207.477Z" fill="#4E9944"/>
<path d="M64.9581 226.724C59.3961 210.444 56.8141 192.682 55.0331 174.481C52.8731 152.398 47.0711 108.359 57.7781 89.3521C61.6481 110.235 64.9791 131.917 68.0131 153.822C69.8891 167.362 81.7871 220.663 69.0821 228.099L64.9581 226.724Z" fill="#8AC53F"/>
<path d="M74.124 224.433C73.827 217.872 76.8 205.742 77.905 197.851C80.664 178.146 82.161 158.484 84.204 138.722C87.234 109.414 88.773 79.0359 88.306 49.5339C92.377 57.4539 93.732 68.2879 95.09 77.3259C97.754 95.0599 98.625 113.339 97.964 131.393C97.245 151.05 97.117 171.598 93.245 190.876C91.914 197.505 84.131 228.202 74.123 225.807L74.124 224.433Z" fill="#8AC53F"/>
<path d="M52.0241 210.697C46.8521 196.131 43.5051 181.395 40.5551 166.256C32.7361 126.128 30.8651 85.886 34.6981 45.248C35.2861 39.012 36.2231 32.8061 36.5211 26.6211C39.5011 34.0171 38.8451 43.4491 38.8361 51.6771C38.8201 66.8051 40.5631 82.0531 42.0321 97.0331C44.5231 122.437 47.9971 148.416 54.4191 173.22C57.5841 185.443 60.6931 198.286 65.8741 209.746C67.6391 213.65 70.9331 217.685 71.3961 222.134C71.9401 227.36 66.3731 228.896 62.3601 227.038C56.6941 224.415 53.9421 216.096 52.0241 210.697Z" fill="#8AC53F"/>
<path d="M71.374 150.625C71.465 127.862 73.665 105.222 73.665 82.3691C73.665 69.1381 73.8561 55.8892 73.6411 42.6602C82.9501 66.3622 84.21 94.7382 85.556 120.381C86.652 141.259 85.951 162.524 84.23 183.302C83.433 192.929 81.873 202.523 80.208 212.043C79.576 215.653 79.191 226.882 73.671 226.303C67.115 225.617 67.584 211.032 67.575 206.989C67.533 188.124 71.299 169.486 71.374 150.625Z" fill="#8AC53F"/>
</mask>
<g mask="url(#mask0_1_6366)">
<rect x="-45" y="-44" width="223" height="323" fill="url(#paint0_linear_1_6366)"/>
</g>
<defs>
<linearGradient id="paint0_linear_1_6366" x1="66.5" y1="-44" x2="66.5" y2="279" gradientUnits="userSpaceOnUse">
<stop offset="0.095" stop-color="#142C44"/>
<stop offset="0.75" stop-color="#060C13"/>
</linearGradient>
</defs>
</svg>
