<svg width="245" height="125" viewBox="0 0 245 125" fill="none" xmlns="http://www.w3.org/2000/svg">
<mask id="mask0_1_6254" style="mask-type:alpha" maskUnits="userSpaceOnUse" x="2" y="0" width="233" height="125">
<path fill-rule="evenodd" clip-rule="evenodd" d="M143.837 61.7214C143.837 61.7214 150.156 59.5876 153.571 62.3143C153.571 62.3143 148.562 63.4162 147.806 64.1714C147.056 64.9262 143.837 61.7214 143.837 61.7214" fill="url(#paint0_linear_1_6254)"/>
<path fill-rule="evenodd" clip-rule="evenodd" d="M141.894 68.4326C141.894 68.4326 140.521 70.4169 141.002 73.8814C141.002 73.8814 135.645 70.3594 137.759 67.6118C138.808 66.2446 141.894 68.4326 141.894 68.4326" fill="url(#paint1_linear_1_6254)"/>
<path fill-rule="evenodd" clip-rule="evenodd" d="M156.324 72.4976C156.324 72.4976 158.673 71.2061 162.882 72.6651C164.561 73.2486 167.12 74.9686 167.12 74.9686C167.12 74.9686 163.572 75.7562 159.67 74.9581C159.67 74.9581 161.143 78.751 160.733 81.0889C160.733 81.0889 156.005 77.9778 155.535 74.5034C155.179 71.8638 156.324 72.4976 156.324 72.4976" fill="url(#paint2_linear_1_6254)"/>
<path fill-rule="evenodd" clip-rule="evenodd" d="M159.612 74.8514C159.612 74.8514 151.684 58.1608 129.142 57.814C129.142 57.814 132.606 71.3454 159.612 74.8514" fill="#A5BCDA"/>
<path fill-rule="evenodd" clip-rule="evenodd" d="M159.612 74.8512C159.612 74.8512 137.283 65.3243 129.142 57.814C129.142 57.814 130.429 64.4563 142.028 70.2283C151.537 74.9584 159.612 74.8512 159.612 74.8512" fill="url(#paint3_linear_1_6254)"/>
<path fill-rule="evenodd" clip-rule="evenodd" d="M134.002 64.9194C134.002 64.9194 137.265 66.826 140.016 63.6859C142.082 61.3315 138.997 59.1669 138.997 59.1669C138.997 59.1669 135.323 57.7795 129.143 57.8146C129.143 57.8146 130.684 62.7747 134.002 64.9194" fill="#E9E7FC"/>
<path fill-rule="evenodd" clip-rule="evenodd" d="M134.749 61.2818C134.869 61.8087 135.517 62.1893 136.2 62.1317C136.877 62.0738 137.332 61.6001 137.217 61.0731C137.097 60.5461 136.449 60.166 135.766 60.2235C135.088 60.2807 134.634 60.7548 134.749 61.2818" fill="white"/>
<path fill-rule="evenodd" clip-rule="evenodd" d="M135.362 61.2172C135.425 61.4807 135.746 61.671 136.085 61.642C136.429 61.613 136.653 61.3762 136.596 61.1127C136.538 60.8493 136.212 60.659 135.873 60.688C135.529 60.7166 135.304 60.9538 135.362 61.2172" fill="url(#paint4_linear_1_6254)"/>
<path fill-rule="evenodd" clip-rule="evenodd" d="M129.141 57.8049L132.077 59.2915L131.387 59.7246L129.141 57.8049" fill="url(#paint5_linear_1_6254)"/>
<path fill-rule="evenodd" clip-rule="evenodd" d="M98.0911 60.4521C98.0911 60.4521 95.4004 65.3823 99.3021 67.891C99.3021 67.891 100.622 64.0068 101.638 63.398C102.648 62.7896 98.0911 60.4521 98.0911 60.4521" fill="url(#paint6_linear_1_6254)"/>
<path fill-rule="evenodd" clip-rule="evenodd" d="M106.504 58.775C106.504 58.775 109.136 57.6331 113.84 57.8618C113.84 57.8618 108.859 53.8731 105.227 55.6165C103.423 56.4837 106.504 58.775 106.504 58.775" fill="url(#paint7_linear_1_6254)"/>
<path fill-rule="evenodd" clip-rule="evenodd" d="M112.443 69.5578C112.443 69.5578 110.856 71.4101 112.926 74.5727C113.749 75.8375 116.096 77.7268 116.096 77.7268C116.096 77.7268 116.978 74.9766 115.779 72.0191C115.779 72.0191 120.784 72.9904 123.811 72.5823C123.811 72.5823 119.568 69.0856 115.023 68.8693C111.567 68.7045 112.443 69.5578 112.443 69.5578" fill="url(#paint8_linear_1_6254)"/>
<path fill-rule="evenodd" clip-rule="evenodd" d="M115.95 71.9717C115.95 71.9717 93.8827 66.6023 92.5192 49.415C92.5192 49.415 110.291 51.512 115.95 71.9717" fill="#A5BCDA"/>
<path fill-rule="evenodd" clip-rule="evenodd" d="M115.947 71.9717C115.947 71.9717 102.636 55.3228 92.519 49.415C92.519 49.415 101.227 50.13 109.213 58.7455C115.763 65.8067 115.947 71.9717 115.947 71.9717" fill="url(#paint9_linear_1_6254)"/>
<path fill-rule="evenodd" clip-rule="evenodd" d="M101.803 52.8142C101.803 52.8142 104.368 55.2179 100.47 57.4361C97.549 59.0997 94.661 56.842 94.661 56.842C94.661 56.842 92.7416 54.1084 92.5305 49.4089C92.5305 49.4089 98.93 50.3799 101.803 52.8142" fill="#E9E7FC"/>
<path fill-rule="evenodd" clip-rule="evenodd" d="M97.0849 53.5058C97.7736 53.5754 98.2978 54.0578 98.2498 54.5832C98.2018 55.1086 97.6057 55.4786 96.917 55.4085C96.2233 55.3392 95.7041 54.8565 95.7521 54.3311C95.795 53.8057 96.3962 53.4361 97.0849 53.5058" fill="white"/>
<path fill-rule="evenodd" clip-rule="evenodd" d="M97.0414 53.9674C97.3857 54.0022 97.6453 54.2434 97.6213 54.5061C97.5973 54.7692 97.3018 54.9536 96.9574 54.9188C96.6131 54.8843 96.3484 54.6427 96.3724 54.38C96.3964 54.1173 96.697 53.9325 97.0414 53.9674" fill="url(#paint10_linear_1_6254)"/>
<path fill-rule="evenodd" clip-rule="evenodd" d="M92.5208 49.415L94.6093 51.5747L95.1549 51.0382L92.5208 49.415" fill="url(#paint11_linear_1_6254)"/>
<path fill-rule="evenodd" clip-rule="evenodd" d="M139.05 91.8887C139.05 91.8887 136.56 96.8171 140.222 99.3276C140.222 99.3276 141.433 95.4426 142.373 94.8342C143.317 94.2258 139.05 91.8887 139.05 91.8887" fill="url(#paint12_linear_1_6254)"/>
<path fill-rule="evenodd" clip-rule="evenodd" d="M147.524 89.9679C147.524 89.9679 150.15 88.8262 154.858 89.0545C154.858 89.0545 149.878 85.0663 146.247 86.8092C144.438 87.6769 147.524 89.9679 147.524 89.9679" fill="url(#paint13_linear_1_6254)"/>
<path fill-rule="evenodd" clip-rule="evenodd" d="M153.442 100.756C153.442 100.756 151.901 102.607 153.923 105.77C154.732 107.034 157.02 108.924 157.02 108.924C157.02 108.924 157.872 106.174 156.699 103.217C156.699 103.217 161.567 104.188 164.517 103.78C164.517 103.78 160.38 100.282 155.951 100.066C152.593 99.9039 153.442 100.756 153.442 100.756" fill="url(#paint14_linear_1_6254)"/>
<path fill-rule="evenodd" clip-rule="evenodd" d="M156.679 103.409C156.679 103.409 134.92 97.9833 133.54 80.6125C133.54 80.6125 151.059 82.7322 156.679 103.409" fill="#A5BCDA"/>
<path fill-rule="evenodd" clip-rule="evenodd" d="M156.676 103.409C156.676 103.409 143.518 86.585 133.54 80.6125C133.54 80.6125 142.123 81.3347 150.012 90.0435C156.477 97.1791 156.676 103.409 156.676 103.409" fill="url(#paint15_linear_1_6254)"/>
<path fill-rule="evenodd" clip-rule="evenodd" d="M142.798 84.0089C142.798 84.0089 145.445 86.4108 141.415 88.6304C138.394 90.2911 135.419 88.0367 135.419 88.0367C135.419 88.0367 133.439 85.3011 133.239 80.6021C133.239 80.6021 139.838 81.5721 142.798 84.0089" fill="#E9E7FC"/>
<path fill-rule="evenodd" clip-rule="evenodd" d="M138.104 84.6959C138.792 84.7625 139.31 85.2481 139.268 85.7729C139.22 86.2976 138.624 86.6658 137.931 86.5992C137.243 86.5287 136.725 86.047 136.767 85.5183C136.815 84.9935 137.416 84.6254 138.104 84.6959" fill="white"/>
<path fill-rule="evenodd" clip-rule="evenodd" d="M138.063 85.1723C138.407 85.2075 138.667 85.4502 138.643 85.7125C138.619 85.9748 138.323 86.1587 137.974 86.1235C137.629 86.0883 137.37 85.8495 137.394 85.5872C137.418 85.321 137.718 85.1371 138.063 85.1723" fill="url(#paint16_linear_1_6254)"/>
<path fill-rule="evenodd" clip-rule="evenodd" d="M133.54 80.6125L135.39 82.7722L135.862 82.2352L133.54 80.6125" fill="url(#paint17_linear_1_6254)"/>
<path fill-rule="evenodd" clip-rule="evenodd" d="M105.4 84.0746C105.4 84.0746 112.158 81.8229 115.767 84.7724C115.767 84.7724 110.421 85.9228 109.605 86.7299C108.795 87.5371 105.4 84.0746 105.4 84.0746" fill="url(#paint18_linear_1_6254)"/>
<path fill-rule="evenodd" clip-rule="evenodd" d="M103.483 91.0993C103.483 91.0993 101.893 93.2102 102.38 96.9194C102.38 96.9194 96.378 93.1191 98.8149 90.1957C100.028 88.7378 103.483 91.0993 103.483 91.0993" fill="url(#paint19_linear_1_6254)"/>
<path fill-rule="evenodd" clip-rule="evenodd" d="M118.349 95.5365C118.349 95.5365 120.907 94.1929 125.443 95.7534C127.256 96.3768 130.001 98.2044 130.001 98.2044C130.001 98.2044 126.15 99.0099 121.939 98.1425C121.939 98.1425 123.479 102.142 123.005 104.597C123.005 104.597 117.925 101.298 117.466 97.6391C117.117 94.8628 118.349 95.5365 118.349 95.5365" fill="url(#paint20_linear_1_6254)"/>
<path fill-rule="evenodd" clip-rule="evenodd" d="M121.875 98.1287C121.875 98.1287 113.717 80.3997 90.0563 79.8914C90.0563 79.8914 93.5629 94.2445 121.875 98.1287" fill="#A5BCDA"/>
<path fill-rule="evenodd" clip-rule="evenodd" d="M121.875 98.1286C121.875 98.1286 98.5316 87.8964 90.0563 79.8914C90.0563 79.8914 91.3429 86.9341 103.462 93.1231C113.395 98.1907 121.875 98.1286 121.875 98.1286" fill="url(#paint21_linear_1_6254)"/>
<path fill-rule="evenodd" clip-rule="evenodd" d="M95.0101 87.4218C95.0101 87.4218 98.3618 89.4571 101.225 86.157C103.377 83.682 100.212 81.3743 100.212 81.3743C100.212 81.3743 96.4336 79.8838 90.054 79.8838C90.054 79.8838 91.6027 85.1336 95.0101 87.4218" fill="#E9E7FC"/>
<path fill-rule="evenodd" clip-rule="evenodd" d="M95.6714 83.4774C95.7966 84.0717 96.525 84.5039 97.288 84.4415C98.0568 84.3834 98.5752 83.8514 98.4504 83.2613C98.3198 82.6671 97.5968 82.2349 96.828 82.2931C96.0596 82.3554 95.5408 82.8832 95.6714 83.4774" fill="white"/>
<path fill-rule="evenodd" clip-rule="evenodd" d="M96.6086 83.5312C96.6639 83.793 96.9872 83.9848 97.3259 83.959C97.6694 83.9332 97.8995 83.6971 97.8441 83.4353C97.7836 83.1698 97.4652 82.978 97.1216 83.0038C96.7832 83.0333 96.5529 83.2656 96.6086 83.5312" fill="url(#paint22_linear_1_6254)"/>
<path fill-rule="evenodd" clip-rule="evenodd" d="M90.053 79.8853L92.9889 81.3805L92.2936 81.805L90.053 79.8853" fill="url(#paint23_linear_1_6254)"/>
<path fill-rule="evenodd" clip-rule="evenodd" d="M15.6384 30.2502C15.6384 30.2502 19.0577 26.4561 23.2213 27.5218C23.2213 27.5218 20.1571 30.0559 20.0482 30.911C19.9393 31.766 15.6384 30.2502 15.6384 30.2502" fill="url(#paint24_linear_1_6254)"/>
<path fill-rule="evenodd" clip-rule="evenodd" d="M18.0248 36.387C18.0248 36.387 18.1534 38.4233 20.5949 41.0136C20.5949 41.0136 14.3578 40.0095 14.3416 37.1201C14.3341 35.6823 18.0248 36.387 18.0248 36.387" fill="url(#paint25_linear_1_6254)"/>
<path fill-rule="evenodd" clip-rule="evenodd" d="M31.1246 34.7225C31.1246 34.7225 32.1313 32.8979 36.0855 32.6268C37.6662 32.5185 40.546 33.0158 40.546 33.0158C40.546 33.0158 38.3614 34.8478 35.009 35.5408C35.009 35.5408 38.267 38.0543 39.3006 40.0502C39.3006 40.0502 34.0134 39.1874 31.6808 36.5862C29.9116 34.6092 31.1246 34.7225 31.1246 34.7225" fill="url(#paint26_linear_1_6254)"/>
<path fill-rule="evenodd" clip-rule="evenodd" d="M35.1327 35.5258C35.1327 35.5258 19.6323 25.0409 2.68616 32.278C2.68616 32.278 13.0558 41.7629 35.1327 35.5258" fill="#A5BCDA"/>
<path fill-rule="evenodd" clip-rule="evenodd" d="M35.1313 35.5076C35.1313 35.5076 13.0605 35.451 2.67417 32.1321C2.67417 32.1321 7.47552 37.1142 19.4191 37.8154C29.204 38.3903 35.1313 35.5076 35.1313 35.5076" fill="url(#paint27_linear_1_6254)"/>
<path fill-rule="evenodd" clip-rule="evenodd" d="M10.2851 36.1957C10.2851 36.1957 13.7616 36.6144 13.9793 33.2086C14.1477 30.6549 10.6543 29.9729 10.6543 29.9729C10.6543 29.9729 7.17827 30.1013 2.6784 32.1955C2.6784 32.1955 6.63422 35.607 10.2851 36.1957" fill="#E9E7FC"/>
<path fill-rule="evenodd" clip-rule="evenodd" d="M8.57589 32.9807C8.96241 33.3555 9.65497 33.4386 10.1178 33.166C10.5855 32.893 10.6469 32.3678 10.2654 31.9929C9.87889 31.6177 9.18633 31.5346 8.71853 31.8072C8.25577 32.0802 8.18935 32.6054 8.57589 32.9807" fill="white"/>
<path fill-rule="evenodd" clip-rule="evenodd" d="M9.07256 32.8985C9.2447 33.113 9.5401 33.1605 9.73715 33.0045C9.93423 32.8489 9.95642 32.5487 9.78424 32.3339C9.61643 32.1198 9.31674 32.0724 9.12398 32.2284C8.9269 32.3839 8.90471 32.6841 9.07256 32.8985" fill="url(#paint28_linear_1_6254)"/>
<path fill-rule="evenodd" clip-rule="evenodd" d="M2.67248 32.1321L5.49724 32.2912L5.24993 32.852L2.67248 32.1321" fill="url(#paint29_linear_1_6254)"/>
<path fill-rule="evenodd" clip-rule="evenodd" d="M179.236 92.9455C179.236 92.9455 184.186 90.963 187.064 93.1705C187.064 93.1705 183.108 94.2418 182.545 94.9014C181.981 95.5571 179.236 92.9455 179.236 92.9455" fill="url(#paint30_linear_1_6254)"/>
<path fill-rule="evenodd" clip-rule="evenodd" d="M177.831 98.6104C177.831 98.6104 176.825 100.297 177.382 103.162C177.382 103.162 172.899 100.388 174.461 98.0457C175.239 96.8822 177.831 98.6104 177.831 98.6104" fill="url(#paint31_linear_1_6254)"/>
<path fill-rule="evenodd" clip-rule="evenodd" d="M189.752 101.522C189.752 101.522 191.637 100.395 195.2 101.471C196.628 101.902 198.836 103.239 198.836 103.239C198.836 103.239 195.924 103.989 192.645 103.445C192.645 103.445 194.049 106.518 193.821 108.445C193.821 108.445 189.744 106.028 189.187 103.192C188.768 101.036 189.752 101.522 189.752 101.522" fill="url(#paint32_linear_1_6254)"/>
<path fill-rule="evenodd" clip-rule="evenodd" d="M192.602 103.405C192.602 103.405 185.295 89.8527 166.826 90.2144C166.826 90.2144 170.329 101.286 192.602 103.405" fill="#A5BCDA"/>
<path fill-rule="evenodd" clip-rule="evenodd" d="M192.602 103.398C192.602 103.398 173.86 96.1728 166.826 90.2073C166.826 90.2073 168.208 95.6555 177.985 100.085C185.998 103.717 192.602 103.398 192.602 103.398" fill="url(#paint33_linear_1_6254)"/>
<path fill-rule="evenodd" clip-rule="evenodd" d="M171.137 96.032C171.137 96.032 173.886 97.5317 175.965 94.8251C177.529 92.7991 174.909 91.0778 174.909 91.0778C174.909 91.0778 171.853 90.0252 166.826 90.2349C166.826 90.2349 168.332 94.3344 171.137 96.032" fill="#E9E7FC"/>
<path fill-rule="evenodd" clip-rule="evenodd" d="M171.741 92.8564C171.858 93.314 172.363 93.626 172.869 93.5553C173.375 93.4845 173.692 93.0561 173.57 92.5943C173.453 92.1368 172.948 91.8248 172.442 91.8955C171.937 91.9662 171.624 92.3947 171.741 92.8564" fill="white"/>
<path fill-rule="evenodd" clip-rule="evenodd" d="M172.04 92.7786C172.098 92.9749 172.35 93.1106 172.598 93.0785C172.855 93.0499 173.011 92.8643 172.958 92.6679C172.9 92.4715 172.652 92.3359 172.4 92.368C172.147 92.3966 171.986 92.5822 172.04 92.7786" fill="url(#paint34_linear_1_6254)"/>
<path fill-rule="evenodd" clip-rule="evenodd" d="M166.823 90.2043L169.412 91.2861L168.841 91.6441L166.823 90.2043" fill="url(#paint35_linear_1_6254)"/>
<path fill-rule="evenodd" clip-rule="evenodd" d="M187.464 112.975C187.464 112.975 191.602 109.936 195.158 111.576C195.158 111.576 191.681 113.487 191.354 114.272C191.032 115.06 187.464 112.975 187.464 112.975" fill="url(#paint36_linear_1_6254)"/>
<path fill-rule="evenodd" clip-rule="evenodd" d="M188.129 118.547C188.129 118.547 187.718 120.493 189.258 123.319C189.258 123.319 183.886 121.42 184.617 118.682C184.98 117.319 188.129 118.547 188.129 118.547" fill="url(#paint37_linear_1_6254)"/>
<path fill-rule="evenodd" clip-rule="evenodd" d="M200.358 119.186C200.358 119.186 201.766 117.751 205.494 118.094C206.987 118.233 209.524 119.084 209.524 119.084C209.524 119.084 207.027 120.353 203.747 120.462C203.747 120.462 206.105 123.117 206.545 125C206.545 125 201.872 123.478 200.392 120.88C199.264 118.907 200.358 119.186 200.358 119.186" fill="url(#paint38_linear_1_6254)"/>
<path fill-rule="evenodd" clip-rule="evenodd" d="M203.692 120.334C203.692 120.334 192.254 108.655 174.936 112.626C174.936 112.626 181.95 122.65 203.692 120.334" fill="#A5BCDA"/>
<path fill-rule="evenodd" clip-rule="evenodd" d="M203.709 120.53C203.709 120.53 183.587 117.186 174.947 112.758C174.947 112.758 178.08 117.796 188.796 120.186C197.577 122.147 203.709 120.53 203.709 120.53" fill="url(#paint39_linear_1_6254)"/>
<path fill-rule="evenodd" clip-rule="evenodd" d="M180.844 117.43C180.844 117.43 183.898 118.338 184.952 115.294C185.742 113.013 182.743 111.867 182.743 111.867C182.743 111.867 179.551 111.452 174.938 112.661C174.938 112.661 177.676 116.343 180.844 117.43" fill="#E9E7FC"/>
<path fill-rule="evenodd" clip-rule="evenodd" d="M180.164 114.249C180.437 114.613 181.095 114.778 181.634 114.617C182.173 114.456 182.392 114.032 182.113 113.668C181.839 113.304 181.181 113.14 180.642 113.3C180.103 113.461 179.89 113.886 180.164 114.249" fill="white"/>
<path fill-rule="evenodd" clip-rule="evenodd" d="M180.728 114.156C180.85 114.398 181.138 114.507 181.365 114.398C181.593 114.293 181.676 114.008 181.55 113.766C181.427 113.523 181.14 113.414 180.912 113.523C180.684 113.628 180.601 113.913 180.728 114.156" fill="url(#paint40_linear_1_6254)"/>
<path fill-rule="evenodd" clip-rule="evenodd" d="M174.95 112.769L177.494 113.306L177.126 113.728L174.95 112.769" fill="url(#paint41_linear_1_6254)"/>
<path fill-rule="evenodd" clip-rule="evenodd" d="M62.689 32.5742C62.689 32.5742 66.8264 29.5352 70.3825 31.1756C70.3825 31.1756 66.9004 33.0859 66.5786 33.8719C66.2568 34.6582 62.689 32.5742 62.689 32.5742" fill="url(#paint42_linear_1_6254)"/>
<path fill-rule="evenodd" clip-rule="evenodd" d="M63.3591 38.1577C63.3591 38.1577 62.949 40.1056 64.4887 42.9299C64.4887 42.9299 59.1165 41.0323 59.8473 38.2937C60.2107 36.9309 63.3591 38.1577 63.3591 38.1577" fill="url(#paint43_linear_1_6254)"/>
<path fill-rule="evenodd" clip-rule="evenodd" d="M75.588 38.7959C75.588 38.7959 76.9963 37.3618 80.7243 37.7052C82.2175 37.8431 84.7548 38.6957 84.7548 38.6957C84.7548 38.6957 82.257 39.9645 78.9726 40.0745C78.9726 40.0745 81.335 42.7303 81.7706 44.6111C81.7706 44.6111 77.1022 43.0896 75.6226 40.4933C74.4943 38.5198 75.588 38.7959 75.588 38.7959" fill="url(#paint44_linear_1_6254)"/>
<path fill-rule="evenodd" clip-rule="evenodd" d="M78.9226 39.9454C78.9226 39.9454 67.4873 28.2675 50.1661 32.2368C50.1661 32.2368 57.1817 42.2605 78.9226 39.9454" fill="#A5BCDA"/>
<path fill-rule="evenodd" clip-rule="evenodd" d="M78.9375 40.1274C78.9375 40.1274 58.809 36.6893 50.1574 32.1335C50.1574 32.1335 53.3024 37.3161 64.0263 39.7752C72.8135 41.7905 78.9375 40.1274 78.9375 40.1274" fill="url(#paint45_linear_1_6254)"/>
<path fill-rule="evenodd" clip-rule="evenodd" d="M56.2482 37.0465C56.2482 37.0465 59.3948 37.9532 60.4903 34.9109C61.3106 32.6295 58.2208 31.4819 58.2208 31.4819C58.2208 31.4819 54.9307 31.0692 50.1703 32.2759C50.1703 32.2759 52.9839 35.9592 56.2482 37.0465" fill="#E9E7FC"/>
<path fill-rule="evenodd" clip-rule="evenodd" d="M55.3918 33.8608C55.6659 34.2243 56.3245 34.3891 56.8639 34.2282C57.4033 34.0677 57.6173 33.6429 57.3432 33.2794C57.069 32.9155 56.4105 32.7511 55.8711 32.9116C55.3317 33.0725 55.1178 33.4973 55.3918 33.8608" fill="white"/>
<path fill-rule="evenodd" clip-rule="evenodd" d="M55.9599 33.766C56.0823 34.0081 56.3702 34.1179 56.5982 34.0109C56.8216 33.9034 56.9096 33.6205 56.7826 33.3779C56.6602 33.1359 56.3723 33.026 56.1442 33.133C55.9162 33.24 55.8329 33.5235 55.9599 33.766" fill="url(#paint46_linear_1_6254)"/>
<path fill-rule="evenodd" clip-rule="evenodd" d="M50.1605 32.1365L53.0279 32.8086L52.6184 33.3363L50.1605 32.1365" fill="url(#paint47_linear_1_6254)"/>
<path fill-rule="evenodd" clip-rule="evenodd" d="M102.886 31.323C102.886 31.323 108.031 29.5627 110.748 31.954C110.748 31.954 106.683 32.8418 106.056 33.4828C105.434 34.1243 102.886 31.323 102.886 31.323" fill="url(#paint48_linear_1_6254)"/>
<path fill-rule="evenodd" clip-rule="evenodd" d="M101.154 36.8483C101.154 36.8483 99.9192 38.5239 100.259 41.485C100.259 41.485 95.7142 38.4134 97.5987 36.0964C98.5363 34.9437 101.154 36.8483 101.154 36.8483" fill="url(#paint49_linear_1_6254)"/>
<path fill-rule="evenodd" clip-rule="evenodd" d="M112.615 40.448C112.615 40.448 114.619 39.426 118.12 40.6636C119.522 41.1589 121.628 42.59 121.628 42.59C121.628 42.59 118.628 43.1874 115.372 42.4907C115.372 42.4907 116.518 45.5937 116.121 47.4904C116.121 47.4904 112.22 44.9025 111.903 42.0704C111.667 39.9183 112.615 40.448 112.615 40.448" fill="url(#paint50_linear_1_6254)"/>
<path fill-rule="evenodd" clip-rule="evenodd" d="M115.367 42.4462C115.367 42.4462 109.208 28.6085 90.7401 28.0483C90.7401 28.0483 93.3108 39.2297 115.367 42.4462" fill="#A5BCDA"/>
<path fill-rule="evenodd" clip-rule="evenodd" d="M115.367 42.4462C115.367 42.4462 97.2621 34.3303 90.7401 28.0483C90.7401 28.0483 91.6643 33.5321 101.055 38.4252C108.747 42.4353 115.367 42.4462 115.367 42.4462" fill="url(#paint51_linear_1_6254)"/>
<path fill-rule="evenodd" clip-rule="evenodd" d="M94.544 33.7986C94.544 33.7986 97.154 35.3652 99.4623 32.8811C101.192 31.0183 98.7266 29.2472 98.7266 29.2472C98.7266 29.2472 95.7729 28.0914 90.7393 28.0469C90.7393 28.0469 91.8879 32.0405 94.544 33.7986" fill="#E9E7FC"/>
<path fill-rule="evenodd" clip-rule="evenodd" d="M95.3554 30.8864C95.4402 31.3485 95.9236 31.6894 96.4356 31.6477C96.9476 31.6061 97.2944 31.1982 97.2095 30.7362C97.1247 30.2742 96.6413 29.9333 96.1293 29.9749C95.6173 30.0165 95.2705 30.4244 95.3554 30.8864" fill="white"/>
<path fill-rule="evenodd" clip-rule="evenodd" d="M95.6609 30.8444C95.7084 31.0425 96.0192 31.1884 96.3662 31.1706C96.7131 31.1527 96.9475 30.9779 96.8999 30.7798C96.8523 30.5821 96.5353 30.4358 96.1946 30.4536C95.8538 30.4715 95.6133 30.6463 95.6609 30.8444" fill="url(#paint52_linear_1_6254)"/>
<path fill-rule="evenodd" clip-rule="evenodd" d="M90.7407 28.0513L93.0213 29.1795L92.4702 29.4911L90.7407 28.0513" fill="url(#paint53_linear_1_6254)"/>
<path fill-rule="evenodd" clip-rule="evenodd" d="M67.348 51.0226C67.348 51.0226 74.3272 48.9054 77.7596 52.2575C77.7596 52.2575 72.2817 53.2533 71.4013 54.0857C70.526 54.9185 67.348 51.0226 67.348 51.0226" fill="url(#paint54_linear_1_6254)"/>
<path fill-rule="evenodd" clip-rule="evenodd" d="M64.7969 57.9189C64.7969 57.9189 63.0642 60.0047 63.2659 63.8029C63.2659 63.8029 57.6094 59.6766 60.2475 56.8001C61.5568 55.3689 64.7969 57.9189 64.7969 57.9189" fill="url(#paint55_linear_1_6254)"/>
<path fill-rule="evenodd" clip-rule="evenodd" d="M79.5371 63.024C79.5371 63.024 82.1537 61.8035 86.4915 63.5456C88.2257 64.2427 90.787 66.1704 90.787 66.1704C90.787 66.1704 86.9487 66.8031 82.8708 65.7653C82.8708 65.7653 84.0917 69.794 83.4468 72.207C83.4468 72.207 78.7019 68.7165 78.5146 65.0725C78.3749 62.3034 79.5371 63.024 79.5371 63.024" fill="url(#paint56_linear_1_6254)"/>
<path fill-rule="evenodd" clip-rule="evenodd" d="M82.94 65.7225C82.94 65.7225 76.0625 47.8342 52.271 46.2854C52.271 46.2854 54.7172 60.6315 82.94 65.7225" fill="#A5BCDA"/>
<path fill-rule="evenodd" clip-rule="evenodd" d="M82.94 65.7225C82.94 65.7225 60.2021 54.5751 52.271 46.2854C52.271 46.2854 53.036 53.3059 64.7764 59.9577C74.399 65.409 82.94 65.7225 82.94 65.7225" fill="url(#paint57_linear_1_6254)"/>
<path fill-rule="evenodd" clip-rule="evenodd" d="M56.6857 53.9698C56.6857 53.9698 59.8971 56.1315 63.0158 52.9964C65.3599 50.646 62.3505 48.2244 62.3505 48.2244C62.3505 48.2244 58.6756 46.5835 52.2756 46.2974C52.2756 46.2974 53.4386 51.5571 56.6857 53.9698" fill="#E9E7FC"/>
<path fill-rule="evenodd" clip-rule="evenodd" d="M57.5961 50.1746C57.6726 50.7047 58.3658 51.1151 59.1364 51.0919C59.9123 51.0686 60.4747 50.6205 60.3982 50.0909C60.3164 49.5616 59.6286 49.1511 58.858 49.174C58.0821 49.1973 57.5197 49.6454 57.5961 50.1746" fill="white"/>
<path fill-rule="evenodd" clip-rule="evenodd" d="M58.5304 50.1518C58.5669 50.4168 58.8769 50.6221 59.2168 50.6103C59.5616 50.5988 59.8118 50.3748 59.7754 50.1101C59.739 49.8451 59.429 49.6399 59.0842 49.6513C58.7395 49.6631 58.494 49.8872 58.5304 50.1518" fill="url(#paint58_linear_1_6254)"/>
<path fill-rule="evenodd" clip-rule="evenodd" d="M52.2715 46.2883L55.2275 48.0262L54.4708 48.448L52.2715 46.2883" fill="url(#paint59_linear_1_6254)"/>
<path fill-rule="evenodd" clip-rule="evenodd" d="M205.533 93.6371C205.533 93.6371 209.686 90.8153 213.235 92.3378C213.235 92.3378 209.744 94.1129 209.417 94.8412C209.086 95.5732 205.533 93.6371 205.533 93.6371" fill="url(#paint60_linear_1_6254)"/>
<path fill-rule="evenodd" clip-rule="evenodd" d="M206.215 99.3563C206.215 99.3563 205.809 101.302 207.345 104.127C207.345 104.127 201.972 102.229 202.704 99.491C203.068 98.1278 206.215 99.3563 206.215 99.3563" fill="url(#paint61_linear_1_6254)"/>
<path fill-rule="evenodd" clip-rule="evenodd" d="M218.724 99.7891C218.724 99.7891 220.074 98.305 223.688 98.6594C225.133 98.8036 227.593 99.6839 227.593 99.6839C227.593 99.6839 225.183 100.997 222.006 101.11C222.006 101.11 224.306 103.856 224.738 105.804C224.738 105.804 220.213 104.23 218.762 101.542C217.664 99.5009 218.724 99.7891 218.724 99.7891" fill="url(#paint62_linear_1_6254)"/>
<path fill-rule="evenodd" clip-rule="evenodd" d="M222.089 101.135C222.089 101.135 210.534 89.4566 193.02 93.4272C193.02 93.4272 200.103 103.451 222.089 101.135" fill="#A5BCDA"/>
<path fill-rule="evenodd" clip-rule="evenodd" d="M222.085 101.095C222.085 101.095 201.748 97.7518 193.011 93.3235C193.011 93.3235 196.174 98.3618 207.007 100.752C215.889 102.713 222.085 101.095 222.085 101.095" fill="url(#paint63_linear_1_6254)"/>
<path fill-rule="evenodd" clip-rule="evenodd" d="M199.105 98.2318C199.105 98.2318 202.246 99.1396 203.341 96.0955C204.166 93.8144 201.072 92.668 201.072 92.668C201.072 92.668 197.782 92.2533 193.023 93.4623C193.023 93.4623 195.841 97.1441 199.105 98.2318" fill="#E9E7FC"/>
<path fill-rule="evenodd" clip-rule="evenodd" d="M198.549 95.0583C198.788 95.4222 199.354 95.5864 199.815 95.4258C200.275 95.2652 200.454 94.8406 200.214 94.4767C199.975 94.1128 199.409 93.9486 198.948 94.1092C198.488 94.2698 198.309 94.6944 198.549 95.0583" fill="white"/>
<path fill-rule="evenodd" clip-rule="evenodd" d="M198.824 94.9533C198.98 95.1955 199.361 95.3095 199.667 95.2002C199.973 95.091 200.092 94.8108 199.936 94.5685C199.774 94.3263 199.394 94.2171 199.087 94.3216C198.787 94.4308 198.662 94.7158 198.824 94.9533" fill="url(#paint64_linear_1_6254)"/>
<path fill-rule="evenodd" clip-rule="evenodd" d="M193.011 93.322L195.878 93.9944L195.474 94.5218L193.011 93.322" fill="url(#paint65_linear_1_6254)"/>
<path fill-rule="evenodd" clip-rule="evenodd" d="M138.812 42.6125C138.812 42.6125 142.369 39.3686 146.138 40.554C146.138 40.554 143.037 42.6788 142.849 43.4451C142.661 44.2114 138.812 42.6125 138.812 42.6125" fill="url(#paint66_linear_1_6254)"/>
<path fill-rule="evenodd" clip-rule="evenodd" d="M140.568 48.2376C140.568 48.2376 140.495 50.1739 142.466 52.7629C142.466 52.7629 136.907 51.4682 137.163 48.7296C137.294 47.367 140.568 48.2376 140.568 48.2376" fill="url(#paint67_linear_1_6254)"/>
<path fill-rule="evenodd" clip-rule="evenodd" d="M152.77 47.452C152.77 47.452 153.871 45.8419 157.543 45.8153C159.016 45.8049 161.622 46.4199 161.622 46.4199C161.622 46.4199 159.437 47.9709 156.279 48.4166C156.279 48.4166 159.045 50.8942 159.806 52.7742C159.806 52.7742 155.012 51.6908 153.109 49.185C151.661 47.2808 152.77 47.452 152.77 47.452" fill="url(#paint68_linear_1_6254)"/>
<path fill-rule="evenodd" clip-rule="evenodd" d="M156.166 48.4228C156.166 48.4228 142.95 37.9837 126.718 43.6738C126.718 43.6738 135.327 52.9169 156.166 48.4228" fill="#A5BCDA"/>
<path fill-rule="evenodd" clip-rule="evenodd" d="M156.163 48.4266C156.163 48.4266 135.925 47.1582 126.713 43.6455C126.713 43.6455 130.65 48.3232 141.535 49.6034C150.457 50.6528 156.163 48.4266 156.163 48.4266" fill="url(#paint69_linear_1_6254)"/>
<path fill-rule="evenodd" clip-rule="evenodd" d="M133.372 47.6852C133.372 47.6852 136.546 48.2664 137.072 45.1394C137.468 42.7945 134.299 41.9693 134.299 41.9693C134.299 41.9693 131.071 41.8921 126.707 43.5693C126.707 43.5693 130.048 46.9372 133.372 47.6852" fill="#E9E7FC"/>
<path fill-rule="evenodd" clip-rule="evenodd" d="M132.254 44.7386C132.552 45.0775 133.136 45.1839 133.56 44.9762C133.983 44.7683 134.086 44.3252 133.788 43.9863C133.486 43.6474 132.902 43.5411 132.478 43.7487C132.055 43.9563 131.952 44.3998 132.254 44.7386" fill="white"/>
<path fill-rule="evenodd" clip-rule="evenodd" d="M132.492 44.6259C132.645 44.8514 132.939 44.9228 133.145 44.7839C133.356 44.6454 133.401 44.3499 133.248 44.1244C133.094 43.8979 132.797 43.8274 132.59 43.9659C132.379 44.1044 132.334 44.3994 132.492 44.6259" fill="url(#paint70_linear_1_6254)"/>
<path fill-rule="evenodd" clip-rule="evenodd" d="M126.714 43.647L129.236 43.9236L128.96 44.3669L126.714 43.647" fill="url(#paint71_linear_1_6254)"/>
</mask>
<g mask="url(#mask0_1_6254)">
<rect x="-36" y="-36" width="305" height="193" fill="#0C1C29" fill-opacity="0.8"/>
</g>
<defs>
<linearGradient id="paint0_linear_1_6254" x1="148.613" y1="60.927" x2="148.613" y2="64.2865" gradientUnits="userSpaceOnUse">
<stop stop-color="#9087CA"/>
<stop offset="1" stop-color="#6A629A"/>
</linearGradient>
<linearGradient id="paint1_linear_1_6254" x1="139.446" y1="67.1624" x2="139.446" y2="73.8814" gradientUnits="userSpaceOnUse">
<stop stop-color="#9087CA"/>
<stop offset="1" stop-color="#6A629A"/>
</linearGradient>
<linearGradient id="paint2_linear_1_6254" x1="161.091" y1="71.9702" x2="161.091" y2="81.0889" gradientUnits="userSpaceOnUse">
<stop stop-color="#9087CA"/>
<stop offset="1" stop-color="#6A629A"/>
</linearGradient>
<linearGradient id="paint3_linear_1_6254" x1="143.668" y1="57.814" x2="143.668" y2="74.8514" gradientUnits="userSpaceOnUse">
<stop stop-color="#7A9ADA"/>
<stop offset="1" stop-color="#6A85BA"/>
</linearGradient>
<linearGradient id="paint4_linear_1_6254" x1="135.939" y1="60.6851" x2="135.939" y2="61.6449" gradientUnits="userSpaceOnUse">
<stop stop-color="#7A9ADA"/>
<stop offset="1" stop-color="#6A85BA"/>
</linearGradient>
<linearGradient id="paint5_linear_1_6254" x1="130.547" y1="57.8049" x2="130.547" y2="59.7246" gradientUnits="userSpaceOnUse">
<stop stop-color="#9087CA"/>
<stop offset="1" stop-color="#6A629A"/>
</linearGradient>
<linearGradient id="paint6_linear_1_6254" x1="99.216" y1="60.4521" x2="99.216" y2="67.891" gradientUnits="userSpaceOnUse">
<stop stop-color="#9087CA"/>
<stop offset="1" stop-color="#6A629A"/>
</linearGradient>
<linearGradient id="paint7_linear_1_6254" x1="109.087" y1="55.1755" x2="109.087" y2="58.775" gradientUnits="userSpaceOnUse">
<stop stop-color="#9087CA"/>
<stop offset="1" stop-color="#6A629A"/>
</linearGradient>
<linearGradient id="paint8_linear_1_6254" x1="117.565" y1="68.8481" x2="117.565" y2="77.7268" gradientUnits="userSpaceOnUse">
<stop stop-color="#9087CA"/>
<stop offset="1" stop-color="#6A629A"/>
</linearGradient>
<linearGradient id="paint9_linear_1_6254" x1="103.297" y1="49.415" x2="103.297" y2="71.9717" gradientUnits="userSpaceOnUse">
<stop stop-color="#7A9ADA"/>
<stop offset="1" stop-color="#6A85BA"/>
</linearGradient>
<linearGradient id="paint10_linear_1_6254" x1="96.957" y1="53.9631" x2="96.957" y2="54.923" gradientUnits="userSpaceOnUse">
<stop stop-color="#7A9ADA"/>
<stop offset="1" stop-color="#6A85BA"/>
</linearGradient>
<linearGradient id="paint11_linear_1_6254" x1="93.7703" y1="49.415" x2="93.7703" y2="51.5747" gradientUnits="userSpaceOnUse">
<stop stop-color="#9087CA"/>
<stop offset="1" stop-color="#6A629A"/>
</linearGradient>
<linearGradient id="paint12_linear_1_6254" x1="140.098" y1="91.8887" x2="140.098" y2="99.3276" gradientUnits="userSpaceOnUse">
<stop stop-color="#9087CA"/>
<stop offset="1" stop-color="#6A629A"/>
</linearGradient>
<linearGradient id="paint13_linear_1_6254" x1="150.105" y1="86.3684" x2="150.105" y2="89.9679" gradientUnits="userSpaceOnUse">
<stop stop-color="#9087CA"/>
<stop offset="1" stop-color="#6A629A"/>
</linearGradient>
<linearGradient id="paint14_linear_1_6254" x1="158.427" y1="100.045" x2="158.427" y2="108.924" gradientUnits="userSpaceOnUse">
<stop stop-color="#9087CA"/>
<stop offset="1" stop-color="#6A629A"/>
</linearGradient>
<linearGradient id="paint15_linear_1_6254" x1="144.161" y1="80.6125" x2="144.161" y2="103.409" gradientUnits="userSpaceOnUse">
<stop stop-color="#7A9ADA"/>
<stop offset="1" stop-color="#6A85BA"/>
</linearGradient>
<linearGradient id="paint16_linear_1_6254" x1="137.978" y1="85.168" x2="137.978" y2="86.1278" gradientUnits="userSpaceOnUse">
<stop stop-color="#7A9ADA"/>
<stop offset="1" stop-color="#6A85BA"/>
</linearGradient>
<linearGradient id="paint17_linear_1_6254" x1="134.633" y1="80.6125" x2="134.633" y2="82.7722" gradientUnits="userSpaceOnUse">
<stop stop-color="#9087CA"/>
<stop offset="1" stop-color="#6A629A"/>
</linearGradient>
<linearGradient id="paint18_linear_1_6254" x1="110.486" y1="83.2524" x2="110.486" y2="86.8519" gradientUnits="userSpaceOnUse">
<stop stop-color="#9087CA"/>
<stop offset="1" stop-color="#6A629A"/>
</linearGradient>
<linearGradient id="paint19_linear_1_6254" x1="100.713" y1="89.7205" x2="100.713" y2="96.9194" gradientUnits="userSpaceOnUse">
<stop stop-color="#9087CA"/>
<stop offset="1" stop-color="#6A629A"/>
</linearGradient>
<linearGradient id="paint20_linear_1_6254" x1="123.486" y1="94.9988" x2="123.486" y2="104.597" gradientUnits="userSpaceOnUse">
<stop stop-color="#9087CA"/>
<stop offset="1" stop-color="#6A629A"/>
</linearGradient>
<linearGradient id="paint21_linear_1_6254" x1="105.207" y1="79.8914" x2="105.207" y2="98.1287" gradientUnits="userSpaceOnUse">
<stop stop-color="#7A9ADA"/>
<stop offset="1" stop-color="#6A85BA"/>
</linearGradient>
<linearGradient id="paint22_linear_1_6254" x1="97.1863" y1="83.0015" x2="97.1863" y2="83.9613" gradientUnits="userSpaceOnUse">
<stop stop-color="#7A9ADA"/>
<stop offset="1" stop-color="#6A85BA"/>
</linearGradient>
<linearGradient id="paint23_linear_1_6254" x1="91.4587" y1="79.8853" x2="91.4587" y2="81.805" gradientUnits="userSpaceOnUse">
<stop stop-color="#9087CA"/>
<stop offset="1" stop-color="#6A629A"/>
</linearGradient>
<linearGradient id="paint24_linear_1_6254" x1="19.3007" y1="27.333" x2="19.3007" y2="31.1724" gradientUnits="userSpaceOnUse">
<stop stop-color="#9087CA"/>
<stop offset="1" stop-color="#6A629A"/>
</linearGradient>
<linearGradient id="paint25_linear_1_6254" x1="17.2281" y1="36.2144" x2="17.2281" y2="41.0136" gradientUnits="userSpaceOnUse">
<stop stop-color="#9087CA"/>
<stop offset="1" stop-color="#6A629A"/>
</linearGradient>
<linearGradient id="paint26_linear_1_6254" x1="35.514" y1="32.6113" x2="35.514" y2="40.0502" gradientUnits="userSpaceOnUse">
<stop stop-color="#9087CA"/>
<stop offset="1" stop-color="#6A629A"/>
</linearGradient>
<linearGradient id="paint27_linear_1_6254" x1="18.7624" y1="32.1321" x2="18.7624" y2="37.8912" gradientUnits="userSpaceOnUse">
<stop stop-color="#7A9ADA"/>
<stop offset="1" stop-color="#6A85BA"/>
</linearGradient>
<linearGradient id="paint28_linear_1_6254" x1="9.39018" y1="32.1365" x2="9.39018" y2="33.0963" gradientUnits="userSpaceOnUse">
<stop stop-color="#7A9ADA"/>
<stop offset="1" stop-color="#6A85BA"/>
</linearGradient>
<linearGradient id="paint29_linear_1_6254" x1="4.07824" y1="32.1321" x2="4.07824" y2="32.852" gradientUnits="userSpaceOnUse">
<stop stop-color="#9087CA"/>
<stop offset="1" stop-color="#6A629A"/>
</linearGradient>
<linearGradient id="paint30_linear_1_6254" x1="183.073" y1="92.1274" x2="183.073" y2="95.007" gradientUnits="userSpaceOnUse">
<stop stop-color="#9087CA"/>
<stop offset="1" stop-color="#6A629A"/>
</linearGradient>
<linearGradient id="paint31_linear_1_6254" x1="175.876" y1="97.6431" x2="175.876" y2="103.162" gradientUnits="userSpaceOnUse">
<stop stop-color="#9087CA"/>
<stop offset="1" stop-color="#6A629A"/>
</linearGradient>
<linearGradient id="paint32_linear_1_6254" x1="193.808" y1="101.006" x2="193.808" y2="108.445" gradientUnits="userSpaceOnUse">
<stop stop-color="#9087CA"/>
<stop offset="1" stop-color="#6A629A"/>
</linearGradient>
<linearGradient id="paint33_linear_1_6254" x1="179.165" y1="90.2073" x2="179.165" y2="103.405" gradientUnits="userSpaceOnUse">
<stop stop-color="#7A9ADA"/>
<stop offset="1" stop-color="#6A85BA"/>
</linearGradient>
<linearGradient id="paint34_linear_1_6254" x1="172.469" y1="92.3633" x2="172.469" y2="93.0832" gradientUnits="userSpaceOnUse">
<stop stop-color="#7A9ADA"/>
<stop offset="1" stop-color="#6A85BA"/>
</linearGradient>
<linearGradient id="paint35_linear_1_6254" x1="168.072" y1="90.2043" x2="168.072" y2="91.6441" gradientUnits="userSpaceOnUse">
<stop stop-color="#9087CA"/>
<stop offset="1" stop-color="#6A629A"/>
</linearGradient>
<linearGradient id="paint36_linear_1_6254" x1="191.213" y1="111.09" x2="191.213" y2="114.45" gradientUnits="userSpaceOnUse">
<stop stop-color="#9087CA"/>
<stop offset="1" stop-color="#6A629A"/>
</linearGradient>
<linearGradient id="paint37_linear_1_6254" x1="186.632" y1="118.039" x2="186.632" y2="123.319" gradientUnits="userSpaceOnUse">
<stop stop-color="#9087CA"/>
<stop offset="1" stop-color="#6A629A"/>
</linearGradient>
<linearGradient id="paint38_linear_1_6254" x1="204.596" y1="118.041" x2="204.596" y2="125" gradientUnits="userSpaceOnUse">
<stop stop-color="#9087CA"/>
<stop offset="1" stop-color="#6A629A"/>
</linearGradient>
<linearGradient id="paint39_linear_1_6254" x1="189.005" y1="112.758" x2="189.005" y2="121.157" gradientUnits="userSpaceOnUse">
<stop stop-color="#7A9ADA"/>
<stop offset="1" stop-color="#6A85BA"/>
</linearGradient>
<linearGradient id="paint40_linear_1_6254" x1="181.099" y1="113.481" x2="181.099" y2="114.441" gradientUnits="userSpaceOnUse">
<stop stop-color="#7A9ADA"/>
<stop offset="1" stop-color="#6A85BA"/>
</linearGradient>
<linearGradient id="paint41_linear_1_6254" x1="176.2" y1="112.769" x2="176.2" y2="113.728" gradientUnits="userSpaceOnUse">
<stop stop-color="#9087CA"/>
<stop offset="1" stop-color="#6A629A"/>
</linearGradient>
<linearGradient id="paint42_linear_1_6254" x1="66.4371" y1="30.6897" x2="66.4371" y2="34.0492" gradientUnits="userSpaceOnUse">
<stop stop-color="#9087CA"/>
<stop offset="1" stop-color="#6A629A"/>
</linearGradient>
<linearGradient id="paint43_linear_1_6254" x1="61.8629" y1="37.6506" x2="61.8629" y2="42.9299" gradientUnits="userSpaceOnUse">
<stop stop-color="#9087CA"/>
<stop offset="1" stop-color="#6A629A"/>
</linearGradient>
<linearGradient id="paint44_linear_1_6254" x1="79.8259" y1="37.6521" x2="79.8259" y2="44.6111" gradientUnits="userSpaceOnUse">
<stop stop-color="#9087CA"/>
<stop offset="1" stop-color="#6A629A"/>
</linearGradient>
<linearGradient id="paint45_linear_1_6254" x1="64.215" y1="32.1335" x2="64.215" y2="40.7723" gradientUnits="userSpaceOnUse">
<stop stop-color="#7A9ADA"/>
<stop offset="1" stop-color="#6A85BA"/>
</linearGradient>
<linearGradient id="paint46_linear_1_6254" x1="56.331" y1="33.092" x2="56.331" y2="34.0519" gradientUnits="userSpaceOnUse">
<stop stop-color="#7A9ADA"/>
<stop offset="1" stop-color="#6A85BA"/>
</linearGradient>
<linearGradient id="paint47_linear_1_6254" x1="51.5663" y1="32.1365" x2="51.5663" y2="33.3363" gradientUnits="userSpaceOnUse">
<stop stop-color="#9087CA"/>
<stop offset="1" stop-color="#6A629A"/>
</linearGradient>
<linearGradient id="paint48_linear_1_6254" x1="106.739" y1="30.6987" x2="106.739" y2="33.5783" gradientUnits="userSpaceOnUse">
<stop stop-color="#9087CA"/>
<stop offset="1" stop-color="#6A629A"/>
</linearGradient>
<linearGradient id="paint49_linear_1_6254" x1="99.0305" y1="35.7258" x2="99.0305" y2="41.485" gradientUnits="userSpaceOnUse">
<stop stop-color="#9087CA"/>
<stop offset="1" stop-color="#6A629A"/>
</linearGradient>
<linearGradient id="paint50_linear_1_6254" x1="116.574" y1="40.0515" x2="116.574" y2="47.4904" gradientUnits="userSpaceOnUse">
<stop stop-color="#9087CA"/>
<stop offset="1" stop-color="#6A629A"/>
</linearGradient>
<linearGradient id="paint51_linear_1_6254" x1="102.455" y1="28.0483" x2="102.455" y2="42.4462" gradientUnits="userSpaceOnUse">
<stop stop-color="#7A9ADA"/>
<stop offset="1" stop-color="#6A85BA"/>
</linearGradient>
<linearGradient id="paint52_linear_1_6254" x1="96.2505" y1="30.4521" x2="96.2505" y2="31.172" gradientUnits="userSpaceOnUse">
<stop stop-color="#7A9ADA"/>
<stop offset="1" stop-color="#6A85BA"/>
</linearGradient>
<linearGradient id="paint53_linear_1_6254" x1="91.8341" y1="28.0513" x2="91.8341" y2="29.4911" gradientUnits="userSpaceOnUse">
<stop stop-color="#9087CA"/>
<stop offset="1" stop-color="#6A629A"/>
</linearGradient>
<linearGradient id="paint54_linear_1_6254" x1="72.4476" y1="50.363" x2="72.4476" y2="54.2025" gradientUnits="userSpaceOnUse">
<stop stop-color="#9087CA"/>
<stop offset="1" stop-color="#6A629A"/>
</linearGradient>
<linearGradient id="paint55_linear_1_6254" x1="62.0123" y1="56.364" x2="62.0123" y2="63.8029" gradientUnits="userSpaceOnUse">
<stop stop-color="#9087CA"/>
<stop offset="1" stop-color="#6A629A"/>
</linearGradient>
<linearGradient id="paint56_linear_1_6254" x1="84.3991" y1="62.6084" x2="84.3991" y2="72.207" gradientUnits="userSpaceOnUse">
<stop stop-color="#9087CA"/>
<stop offset="1" stop-color="#6A629A"/>
</linearGradient>
<linearGradient id="paint57_linear_1_6254" x1="66.7972" y1="46.2854" x2="66.7972" y2="65.7225" gradientUnits="userSpaceOnUse">
<stop stop-color="#7A9ADA"/>
<stop offset="1" stop-color="#6A85BA"/>
</linearGradient>
<linearGradient id="paint58_linear_1_6254" x1="59.113" y1="49.6509" x2="59.113" y2="50.6107" gradientUnits="userSpaceOnUse">
<stop stop-color="#7A9ADA"/>
<stop offset="1" stop-color="#6A85BA"/>
</linearGradient>
<linearGradient id="paint59_linear_1_6254" x1="53.6772" y1="46.2883" x2="53.6772" y2="48.448" gradientUnits="userSpaceOnUse">
<stop stop-color="#9087CA"/>
<stop offset="1" stop-color="#6A629A"/>
</linearGradient>
<linearGradient id="paint60_linear_1_6254" x1="209.292" y1="91.887" x2="209.292" y2="95.0065" gradientUnits="userSpaceOnUse">
<stop stop-color="#9087CA"/>
<stop offset="1" stop-color="#6A629A"/>
</linearGradient>
<linearGradient id="paint61_linear_1_6254" x1="204.719" y1="98.8481" x2="204.719" y2="104.127" gradientUnits="userSpaceOnUse">
<stop stop-color="#9087CA"/>
<stop offset="1" stop-color="#6A629A"/>
</linearGradient>
<linearGradient id="paint62_linear_1_6254" x1="222.817" y1="98.6047" x2="222.817" y2="105.804" gradientUnits="userSpaceOnUse">
<stop stop-color="#9087CA"/>
<stop offset="1" stop-color="#6A629A"/>
</linearGradient>
<linearGradient id="paint63_linear_1_6254" x1="207.225" y1="93.3235" x2="207.225" y2="101.722" gradientUnits="userSpaceOnUse">
<stop stop-color="#7A9ADA"/>
<stop offset="1" stop-color="#6A85BA"/>
</linearGradient>
<linearGradient id="paint64_linear_1_6254" x1="199.339" y1="94.282" x2="199.339" y2="95.2418" gradientUnits="userSpaceOnUse">
<stop stop-color="#7A9ADA"/>
<stop offset="1" stop-color="#6A85BA"/>
</linearGradient>
<linearGradient id="paint65_linear_1_6254" x1="194.416" y1="93.322" x2="194.416" y2="94.5218" gradientUnits="userSpaceOnUse">
<stop stop-color="#9087CA"/>
<stop offset="1" stop-color="#6A629A"/>
</linearGradient>
<linearGradient id="paint66_linear_1_6254" x1="142.368" y1="40.2935" x2="142.368" y2="43.653" gradientUnits="userSpaceOnUse">
<stop stop-color="#9087CA"/>
<stop offset="1" stop-color="#6A629A"/>
</linearGradient>
<linearGradient id="paint67_linear_1_6254" x1="139.568" y1="47.9636" x2="139.568" y2="52.7629" gradientUnits="userSpaceOnUse">
<stop stop-color="#9087CA"/>
<stop offset="1" stop-color="#6A629A"/>
</linearGradient>
<linearGradient id="paint68_linear_1_6254" x1="156.886" y1="45.8152" x2="156.886" y2="52.7742" gradientUnits="userSpaceOnUse">
<stop stop-color="#9087CA"/>
<stop offset="1" stop-color="#6A629A"/>
</linearGradient>
<linearGradient id="paint69_linear_1_6254" x1="141.239" y1="43.6455" x2="141.239" y2="49.8846" gradientUnits="userSpaceOnUse">
<stop stop-color="#7A9ADA"/>
<stop offset="1" stop-color="#6A85BA"/>
</linearGradient>
<linearGradient id="paint70_linear_1_6254" x1="132.828" y1="43.895" x2="132.828" y2="44.8549" gradientUnits="userSpaceOnUse">
<stop stop-color="#7A9ADA"/>
<stop offset="1" stop-color="#6A85BA"/>
</linearGradient>
<linearGradient id="paint71_linear_1_6254" x1="127.963" y1="43.647" x2="127.963" y2="44.3669" gradientUnits="userSpaceOnUse">
<stop stop-color="#9087CA"/>
<stop offset="1" stop-color="#6A629A"/>
</linearGradient>
</defs>
</svg>
