<svg width="38" height="37" viewBox="0 0 38 37" fill="none" xmlns="http://www.w3.org/2000/svg">
<path d="M35.5621 9.24935C34.3429 9.78893 33.0287 10.1435 31.6671 10.3131C33.0604 9.49602 34.1371 8.20102 34.6437 6.64393C33.3296 7.41477 31.8729 7.95435 30.3371 8.26268C29.0862 6.93685 27.3287 6.16602 25.3337 6.16602C21.6129 6.16602 18.5729 9.12602 18.5729 12.7798C18.5729 13.3039 18.6362 13.8127 18.7471 14.2906C13.1104 14.0131 8.09122 11.3768 4.75039 7.38393C4.16455 8.35518 3.83205 9.49602 3.83205 10.6985C3.83205 12.9956 5.01955 15.0306 6.85622 16.1868C5.73205 16.1868 4.68705 15.8785 3.76872 15.416V15.4623C3.76872 18.6689 6.11205 21.3514 9.21539 21.9527C8.21904 22.2182 7.17304 22.2551 6.15955 22.0606C6.5896 23.3748 7.43182 24.5248 8.56783 25.3489C9.70384 26.1729 11.0765 26.6296 12.4929 26.6548C10.092 28.5054 7.11588 29.5058 4.05372 29.4914C3.51539 29.4914 2.97705 29.4606 2.43872 29.3989C5.44705 31.2798 9.02539 32.3743 12.8571 32.3743C25.3337 32.3743 32.1896 22.2918 32.1896 13.5506C32.1896 13.2577 32.1896 12.9802 32.1737 12.6873C33.5037 11.7623 34.6437 10.5906 35.5621 9.24935Z" fill="#1C7A9C"/>
</svg>
