<svg width="36" height="38" viewBox="0 0 36 38" fill="none" xmlns="http://www.w3.org/2000/svg">
<path fill-rule="evenodd" clip-rule="evenodd" d="M4.79929 2.5332C4.16277 2.5332 3.55232 2.80011 3.10224 3.2752C2.65215 3.75029 2.39929 4.39465 2.39929 5.06654V32.9332C2.39929 33.6051 2.65215 34.2494 3.10224 34.7245C3.55232 35.1996 4.16277 35.4665 4.79929 35.4665H31.1993C31.8358 35.4665 32.4463 35.1996 32.8963 34.7245C33.3464 34.2494 33.5993 33.6051 33.5993 32.9332V5.06654C33.5993 4.39465 33.3464 3.75029 32.8963 3.2752C32.4463 2.80011 31.8358 2.5332 31.1993 2.5332H4.79929ZM7.31929 15.1999H11.8793V30.3999H7.31929V15.1999ZM12.1793 10.1459C12.1793 10.8681 11.9075 11.5608 11.4236 12.0716C10.9398 12.5823 10.2836 12.8692 9.59929 12.8692C8.91503 12.8692 8.2588 12.5823 7.77496 12.0716C7.29111 11.5608 7.01929 10.8681 7.01929 10.1459C7.01929 9.4236 7.29111 8.73091 7.77496 8.22018C8.2588 7.70946 8.91503 7.42254 9.59929 7.42254C10.2836 7.42254 10.9398 7.70946 11.4236 8.22018C11.9075 8.73091 12.1793 9.4236 12.1793 10.1459ZM28.7993 21.1709C28.7993 16.5983 25.9985 14.8199 23.2169 14.8199C22.3078 14.7733 21.4027 14.9748 20.5889 15.4051C19.9721 15.7344 19.3265 16.4792 18.8273 17.7813H18.7001V15.1999H14.3993V30.4125H18.9737V22.3185C18.9089 21.4901 19.1585 20.4185 19.6721 19.7827C20.1881 19.1443 20.9201 18.9923 21.4793 18.9163H21.6545C23.1089 18.9163 24.1889 19.8663 24.1889 22.2603V30.41H28.7633L28.7993 21.1709Z" fill="#1C7A9C"/>
</svg>
