<svg width="284" height="54" viewBox="0 0 284 54" fill="none" xmlns="http://www.w3.org/2000/svg">
<g filter="url(#filter0_bii_1_6389)">
<path d="M0 27C0 12.0883 12.0883 0 27 0H257C271.912 0 284 12.0883 284 27V27C284 41.9117 271.912 54 257 54H27C12.0883 54 0 41.9117 0 27V27Z" fill="#849FA2" fill-opacity="0.5"/>
<path d="M27 0.5H257C271.636 0.5 283.5 12.3645 283.5 27C283.5 41.6355 271.636 53.5 257 53.5H27C12.3645 53.5 0.5 41.6355 0.5 27C0.5 12.3645 12.3645 0.5 27 0.5Z" stroke="#D2CCCC" stroke-opacity="0.63"/>
</g>
<defs>
<filter id="filter0_bii_1_6389" x="-10" y="-10" width="304" height="74" filterUnits="userSpaceOnUse" color-interpolation-filters="sRGB">
<feFlood flood-opacity="0" result="BackgroundImageFix"/>
<feGaussianBlur in="BackgroundImageFix" stdDeviation="5"/>
<feComposite in2="SourceAlpha" operator="in" result="effect1_backgroundBlur_1_6389"/>
<feBlend mode="normal" in="SourceGraphic" in2="effect1_backgroundBlur_1_6389" result="shape"/>
<feColorMatrix in="SourceAlpha" type="matrix" values="0 0 0 0 0 0 0 0 0 0 0 0 0 0 0 0 0 0 127 0" result="hardAlpha"/>
<feOffset dx="2" dy="3"/>
<feGaussianBlur stdDeviation="2"/>
<feComposite in2="hardAlpha" operator="arithmetic" k2="-1" k3="1"/>
<feColorMatrix type="matrix" values="0 0 0 0 0.0941176 0 0 0 0 0.372549 0 0 0 0 0.443137 0 0 0 0.25 0"/>
<feBlend mode="normal" in2="shape" result="effect2_innerShadow_1_6389"/>
<feColorMatrix in="SourceAlpha" type="matrix" values="0 0 0 0 0 0 0 0 0 0 0 0 0 0 0 0 0 0 127 0" result="hardAlpha"/>
<feOffset dx="-2" dy="-3"/>
<feGaussianBlur stdDeviation="2"/>
<feComposite in2="hardAlpha" operator="arithmetic" k2="-1" k3="1"/>
<feColorMatrix type="matrix" values="0 0 0 0 0.0941176 0 0 0 0 0.372549 0 0 0 0 0.443137 0 0 0 0.25 0"/>
<feBlend mode="normal" in2="effect2_innerShadow_1_6389" result="effect3_innerShadow_1_6389"/>
</filter>
</defs>
</svg>
