<svg width="337" height="154" viewBox="0 0 337 154" fill="none" xmlns="http://www.w3.org/2000/svg">
<path d="M5.78246 1.70951C6.85347 1.79771 7.92448 1.88591 9.02795 1.97678C114.011 11.5735 114.011 11.5735 218.874 5.51568C237.393 3.00693 255.978 2.21578 274.614 1.58657C278.412 1.44959 282.209 1.28717 286.004 1.09812C291.363 0.838219 296.718 0.674222 302.08 0.533886C303.691 0.439484 305.303 0.345083 306.963 0.247821C313.675 0.161911 318.136 0.284661 323.703 4.74026C329.875 11.5244 335.217 17.6657 336.389 27.5045C336.151 37.034 331.606 42.8745 326.493 50.1095C324.617 52.8775 322.743 55.6482 320.873 58.4214C319.924 59.8124 318.976 61.2034 317.999 62.6366C312.922 70.2527 308.254 78.1849 303.588 86.1208C296.643 97.685 296.643 97.685 291.644 100.27C285.396 100.759 279.17 100.216 272.931 99.7539C265.958 99.4713 262.687 99.6358 256.647 103.955C252.168 109.32 248.167 114.785 244.327 120.73C234.386 136.042 234.386 136.042 225.387 138.715C217.936 139.056 212.185 137.151 205.159 134.59C193.569 130.154 193.569 130.154 181.697 131.95C176.278 135.655 171.296 140.007 166.282 144.359C158.637 150.645 152.078 154.162 142.43 153.07C136.848 151.204 131.876 148.389 126.724 145.37C124.461 144.098 124.461 144.098 122.153 142.8C117.837 140.362 113.54 137.887 109.246 135.401C104.959 132.935 100.652 130.514 96.3457 128.09C91.6842 125.462 87.0301 122.819 82.3782 120.17C80.0909 118.868 77.8024 117.569 75.5126 116.272C59.3816 107.112 44.8006 98.3107 33.2691 82.3395C32.5387 81.3496 31.8083 80.3597 31.0558 79.3399C25.4339 71.6453 20.0924 63.7439 14.9856 55.6095C13.0053 52.4768 10.9569 49.3969 8.85016 46.3695C-0.56033 32.5346 -0.56033 32.5346 0.420101 23.1926C1.17265 18.6994 2.28859 14.4386 3.48781 10.0695C3.91628 8.49953 4.34476 6.92956 4.78622 5.31201C5.11498 4.12319 5.44373 2.93436 5.78246 1.70951Z" fill="#005F74"/>
</svg>
