<svg width="26" height="69" viewBox="0 0 26 69" fill="none" xmlns="http://www.w3.org/2000/svg">
<path d="M13.8667 0C15.6 4.6 15.6 4.6 16.3583 9.2C17.1302 14.2806 17.1302 14.2806 20.8 18.4C19.084 19.159 17.368 19.918 15.6 20.7C15.9986 26.1705 16.4376 31.6264 16.9 37.0875C17.0073 38.6174 17.1145 40.1472 17.225 41.7234C18.2598 53.3946 20.7525 59.9141 26 69C19.797 65.2011 14.3031 60.2994 8.66667 55.2C9.81067 53.682 10.9547 52.164 12.1333 50.6C12.1698 42.8623 12.1698 42.8623 11.4833 34.2125C11.2912 31.2654 11.099 28.3184 10.901 25.282C10.7357 23.011 10.5704 20.7399 10.4 18.4C6.968 20.677 3.536 22.954 0 25.3C2.36375 18.4179 5.11174 13.1324 8.88333 7.475C9.8173 6.06373 10.7513 4.65247 11.7135 3.19844C12.7793 1.61521 12.7793 1.61521 13.8667 0Z" fill="#00093E"/>
</svg>
