<svg width="235" height="125" viewBox="0 0 235 125" fill="none" xmlns="http://www.w3.org/2000/svg">
<path d="M22.7907 0.285043C23.5686 0.395854 24.3466 0.506665 25.1481 0.620834C27.25 0.83122 29.0668 0.742154 31.1547 0.458355C36.4257 -0.00453845 39.8168 0.106219 43.9967 3.76457C47.1813 7.0717 50.1634 10.512 53.0356 14.1591C56.9503 19.5482 56.9503 19.5482 62.444 22.142C65.0058 22.031 67.2999 21.7654 69.7722 21.0115C68.8703 23.0282 68.8703 23.0282 65.5444 24.5565C60.5901 27.2221 58.7199 31.6128 56.2432 36.8932C55.8026 37.7888 55.3619 38.6843 54.9079 39.6071C53.8316 41.8015 52.7745 44.0049 51.7336 46.2205C51.4359 45.555 51.1383 44.8894 50.8316 44.2038C52.0774 41.0311 53.4371 37.9661 54.8569 34.8883C55.1458 34.2344 55.4347 33.5806 55.7324 32.907C56.0026 32.3178 56.2729 31.7287 56.5513 31.1217C57.3807 28.268 57.3979 26.0136 57.1452 23.0282C53.5297 15.1993 46.8716 8.04826 40.0084 3.86944C35.0422 2.42821 30.3513 2.09636 25.2393 2.16784C24.6202 2.1668 24.0011 2.16576 23.3632 2.1647C16.2848 2.11433 16.2848 2.11433 10.2836 5.67444C9.11898 7.72844 8.30812 9.66758 7.53886 11.9363C6.99939 12.9762 6.45992 14.016 5.90411 15.0874C4.66187 18.4498 4.5305 20.4186 4.83306 24.0366C6.15349 27.0647 6.15349 27.0647 8.06733 30.0158C8.40364 30.5685 8.73994 31.1212 9.08643 31.6906C10.1756 33.4756 11.281 35.247 12.3867 37.0192C13.5116 38.8543 14.632 40.6928 15.7521 42.5316C16.492 43.7457 17.2332 44.9587 17.9759 46.1707C21.285 51.5793 24.4108 57.0957 27.4655 62.6865C29.8994 67.245 29.8994 67.245 32.793 71.4294C35.6126 71.7511 37.457 71.8473 40.0084 70.4211C40.3061 71.0866 40.6037 71.7521 40.9104 72.4378C43.9398 71.8223 45.7369 70.6214 48.1364 68.491C48.8206 67.8892 49.5048 67.2874 50.2098 66.6673C51.271 65.7178 51.271 65.7178 52.3536 64.7491C53.7476 63.5175 55.1417 62.2859 56.5357 61.0544C57.2232 60.4431 57.9108 59.8319 58.6192 59.2021C62.0175 56.1925 65.4435 53.2229 68.8703 50.2539C69.4656 50.5867 70.0608 50.9194 70.6742 51.2623C68.9673 52.905 67.2577 54.5437 65.5444 56.178C64.7627 56.9238 64.7627 56.9238 63.9652 57.6846C59.7259 61.6943 55.3656 65.4914 50.8785 69.1483C48.4163 71.2001 47.3187 72.1199 46.322 75.4629C47.3114 75.4044 48.3008 75.3459 49.3202 75.2856C50.6319 75.2383 51.9437 75.1924 53.2556 75.1477C53.9061 75.1055 54.5566 75.0633 55.2268 75.0197C58.8715 74.9267 60.2908 75.0457 63.2226 77.6923C63.8958 78.6204 64.569 79.5484 65.2626 80.5046C65.9415 81.3248 66.6205 82.145 67.3201 82.9901C67.9805 83.8129 68.6409 84.6357 69.3213 85.4834C70.3781 86.7878 70.3781 86.7878 71.4563 88.1185C73.005 90.1068 74.3764 92.1065 75.7475 94.2435C77.7943 97.0384 77.7943 97.0384 81.3282 97.0165C82.277 96.8917 83.2257 96.7669 84.2031 96.6384C84.1101 97.5327 84.0171 98.4269 83.9213 99.3483C83.9718 102.821 83.9718 102.821 86.007 105.651C88.6225 108.071 88.6225 108.071 92.0387 107.793C96.3449 106.847 102.683 105.22 105.85 101.68C106.063 99.1331 106.23 96.607 106.357 94.0545C106.396 93.3376 106.435 92.6207 106.475 91.8822C106.571 90.1066 106.662 88.3307 106.751 86.5548C107.049 86.5548 107.347 86.5548 107.653 86.5548C107.708 87.3321 107.763 88.1094 107.819 88.9103C107.932 90.4272 107.932 90.4272 108.048 91.9747C108.121 92.9808 108.194 93.9869 108.27 95.0234C108.42 97.6258 108.42 97.6258 109.457 99.6634C111.236 100.621 111.236 100.621 113.347 101.365C114.05 101.639 114.754 101.914 115.478 102.196C117.739 102.727 119.019 102.505 121.182 101.68C120.71 94.9342 120.186 88.2198 119.379 81.513C119.974 81.513 120.569 81.513 121.182 81.513C122.075 87.5026 122.968 93.4923 123.888 99.6634C124.781 99.9962 125.674 100.329 126.594 100.672C126.892 100.006 127.189 99.3408 127.496 98.6551C127.701 99.7781 127.905 100.901 128.116 102.058C128.945 105.875 128.945 105.875 131.667 107.163C132.728 107.444 132.728 107.444 133.809 107.73C139.769 102.101 145.317 96.0583 150.833 89.895C151.698 88.941 152.562 87.9871 153.426 87.0334C154.243 86.1228 155.059 85.2123 155.9 84.2742C157.007 83.0425 157.007 83.0425 158.137 81.786C161.129 78.0392 161.983 75.1294 162.333 70.169C162.401 69.2695 162.468 68.37 162.537 67.4433C162.582 66.7621 162.626 66.081 162.671 65.3793C163.564 65.3793 164.457 65.3793 165.377 65.3793C165.675 67.0431 165.972 68.7069 166.279 70.4211C170.265 69.0596 172 67.1327 174.396 63.3626C175.289 63.6953 176.182 64.0281 177.102 64.3709C175.301 66.412 173.497 68.449 171.691 70.4841C171.192 71.0502 170.693 71.6162 170.179 72.1995C167.523 75.1865 164.823 78.0524 161.963 80.7961C157.34 85.2631 153.057 90.098 148.748 94.9368C147.927 95.8499 147.107 96.763 146.262 97.7038C145.484 98.5754 144.705 99.4469 143.903 100.345C142.846 101.529 142.846 101.529 141.767 102.737C140.073 104.578 140.073 104.578 139.221 106.722C145.353 103.405 151.252 99.8022 157.091 95.8821C158.812 94.7338 160.534 93.5863 162.256 92.4395C163.179 91.8244 164.102 91.2092 165.054 90.5754C168.391 88.3678 171.741 86.1865 175.094 84.0103C176.29 83.2327 177.486 82.4551 178.681 81.6775C180.449 80.5278 182.218 79.3795 183.989 78.236C185.645 77.1661 187.298 76.0906 188.951 75.0138C190.384 74.0855 190.384 74.0855 191.846 73.1384C193.857 71.7019 195.371 70.3872 196.945 68.4043C196.025 64.5998 195.449 63.5622 192.322 61.5349C191.467 61.1398 190.611 60.7446 189.729 60.3375C190.027 59.672 190.325 59.0065 190.631 58.3208C191.469 58.6964 192.308 59.0721 193.171 59.4591C194.297 59.9418 195.424 60.4236 196.55 60.9047C198.198 61.6241 198.198 61.6241 199.88 62.3581C203.829 63.5323 205.715 63.9589 209.572 62.3542C212.016 59.2287 213.782 55.7494 215.603 52.1446C216.104 51.1983 216.605 50.252 217.12 49.2771C218.092 47.4314 219.053 45.5781 220.001 43.7166C220.803 42.1459 221.621 40.5849 222.463 39.0406C224.194 35.8465 224.928 34.4847 224.679 30.654C224.456 29.8013 224.233 28.9486 224.003 28.07C224.896 27.5501 225.789 27.0302 226.709 26.4945C229.653 24.3478 229.653 24.3478 229.978 21.0115C229.63 16.3127 228.019 11.8762 226.596 7.47353C225.807 4.8778 225.807 4.8778 225.807 2.86108C226.997 2.52832 228.188 2.19557 229.414 1.85272C236.246 23.2437 236.246 23.2437 232.451 32.3624C229.876 38.1417 227.088 43.7913 224.285 49.4346C223.962 50.0839 223.64 50.7332 223.308 51.4022C215.656 66.7896 215.656 66.7896 212.334 72.8159C211.54 74.2626 211.54 74.2626 210.731 75.7386C205.527 82.6804 198.237 87.3822 191.477 92.2268C189.663 93.5364 187.85 94.8468 186.037 96.1578C185.053 96.8685 184.07 97.5792 183.056 98.3114C179.433 100.938 175.83 103.597 172.226 106.257C170.92 107.22 169.614 108.183 168.309 109.146C166.373 110.573 164.439 112.001 162.506 113.432C160.692 114.775 158.876 116.114 157.059 117.452C156.521 117.851 155.984 118.251 155.43 118.662C150.009 122.643 145.86 125.668 139.221 124.872C134.742 122.741 131.231 119.77 127.496 116.364C119.808 108.741 119.808 108.741 110.197 106.178C106.767 106.911 103.674 108.304 100.438 109.747C95.0609 112.143 90.9749 113.814 85.1051 112.772C79.6386 109.943 76.8488 106.51 73.4363 101.05C72.5014 99.6062 71.5654 98.1632 70.6284 96.7211C70.1777 96.02 69.727 95.3189 69.2627 94.5965C67.4983 91.8816 65.6642 89.2454 63.7969 86.6178C63.2458 85.8392 62.6947 85.0606 62.1269 84.2584C60.8394 82.4127 60.8394 82.4127 58.949 81.513C57.3753 81.4872 55.8007 81.5237 54.228 81.5918C53.2816 81.6178 52.3352 81.6438 51.3601 81.6706C49.3679 81.7332 47.376 81.8117 45.3848 81.9069C40.896 82.0051 38.1277 82.0625 34.2093 79.453C31.5692 76.0572 29.2512 72.602 27.0432 68.8455C26.6123 68.1292 26.1815 67.4129 25.7376 66.6749C24.4732 64.5686 23.2197 62.4546 21.9698 60.3375C20.7863 58.3415 19.6026 56.3458 18.4184 54.3504C17.8569 53.4028 17.2953 52.4552 16.7167 51.4789C13.7856 46.6369 10.7601 41.8707 7.72933 37.1061C6.85675 35.7332 5.98918 34.3563 5.12725 32.9749C4.06261 31.3017 2.93669 29.6778 1.80313 28.0622C-0.0694974 24.2438 -0.329457 21.1857 0.323396 16.9781C3.97479 3.15154 10.3589 -1.23074 22.7907 0.285043Z" fill="#162366"/>
</svg>
