<svg width="33" height="28" viewBox="0 0 33 28" fill="none" xmlns="http://www.w3.org/2000/svg">
<path d="M0 0C0.377641 0.0863401 0.755281 0.17268 1.14437 0.261637C7.71877 1.73533 14.2183 3.12998 20.955 3.11737C21.4092 3.11829 21.8634 3.11921 22.3314 3.12016C25.9776 3.03658 29.4483 2.28255 33 1.42509C30.4469 8.16947 27.8569 14.8824 24.8738 21.4208C24.6594 21.8994 24.445 22.3779 24.2241 22.8709C23.1444 25.1926 22.5054 26.317 20.46 27.7892C18.5058 28.0703 18.5058 28.0703 16.5 27.7892C15.2367 26.5506 15.2367 26.5506 14.1075 24.7163C13.6659 24.01 13.2244 23.3036 12.7695 22.5759C12.2506 21.7026 11.7344 20.8275 11.22 19.9512C10.9043 19.4167 10.5885 18.8823 10.2632 18.3316C8.87892 15.9836 7.4984 13.6334 6.13819 11.269C4.62948 8.64863 3.10325 6.08289 1.41023 3.59611C0 1.42509 0 1.42509 0 0Z" fill="#36718B"/>
</svg>
