<svg width="12" height="14" viewBox="0 0 12 14" fill="none" xmlns="http://www.w3.org/2000/svg">
<path d="M10.3361 0C12.1731 8.23272 12.1731 8.23272 11.8127 12.3529C11.3254 12.8965 10.8382 13.44 10.3361 14C8.84223 13.8585 8.84223 13.8585 7.10609 13.3824C6.53697 13.2337 5.96784 13.0851 5.38148 12.932C3.66937 12.3454 2.24042 11.8006 0.738295 10.7059C0.184574 7.72059 0.184574 7.72059 0 4.94118C0.453965 4.72249 0.90793 4.50381 1.37565 4.27849C1.97237 3.98762 2.56909 3.69675 3.1839 3.39706C3.77491 3.11043 4.36592 2.82381 4.97484 2.52849C9.76489 0 9.76489 0 10.3361 0Z" fill="#19465A"/>
</svg>
