<svg width="42" height="105" viewBox="0 0 42 105" fill="none" xmlns="http://www.w3.org/2000/svg">
<path d="M28.7022 0.509766C29.7388 0.509766 30.7755 0.509766 31.8435 0.509766C33.8832 18.1862 35.476 35.8729 36.7518 53.6398C36.8893 55.5306 37.0267 57.4215 37.1683 59.3696C37.7663 67.9288 38.3116 76.3963 38.1262 84.9898C39.1628 85.5706 40.1995 86.1514 41.2675 86.7498C37.3801 87.621 37.3801 87.621 33.4142 88.5098C32.8959 93.737 32.3775 98.9642 31.8435 104.35C31.3252 104.35 30.8069 104.35 30.2728 104.35C30.2728 98.5418 30.2728 92.7338 30.2728 86.7498C32.6053 85.8786 32.6053 85.8786 34.9848 84.9898C33.4299 77.4394 31.8749 69.889 30.2728 62.1098C20.3296 63.0871 10.9455 64.4069 3.57151 72.6698C2.53487 70.9274 1.49823 69.185 0.430176 67.3898C3.50318 65.9155 6.57974 64.4506 9.65784 62.9898C11.3707 62.173 13.0836 61.3563 14.8484 60.5148C19.2782 58.5898 19.2782 58.5898 22.4195 58.5898C22.9378 56.2666 23.4562 53.9434 23.9902 51.5498C26.0635 52.1306 28.1367 52.7114 30.2728 53.3098C30.495 35.611 29.8473 18.1527 28.7022 0.509766Z" fill="#000949"/>
</svg>
