<svg width="91" height="57" viewBox="0 0 91 57" fill="none" xmlns="http://www.w3.org/2000/svg">
<path d="M91 1.11367C90.4816 1.27416 89.9632 1.43464 89.4292 1.59999C85.2517 2.89649 81.0816 4.21506 76.9181 5.56555C74.1772 6.44797 71.5208 7.20963 68.7169 7.82658C60.0304 9.95717 56.5102 17.0298 51.7857 24.7073C49.1505 28.9159 46.3459 32.9778 43.5306 37.0406C42.9993 37.8345 42.4679 38.6284 41.9205 39.4463C41.4168 40.1756 40.9132 40.9049 40.3943 41.6562C39.9519 42.3072 39.5096 42.9581 39.0539 43.6288C37.6535 45.0244 37.6535 45.0244 34.0367 45.0244C32.5113 42.0651 31.9758 39.8283 31.854 36.4364C31.819 35.5444 31.7839 34.6524 31.7478 33.7334C31.7199 32.787 31.692 31.8407 31.6633 30.8657C31.6118 29.4114 31.6118 29.4114 31.5593 27.9278C31.2778 19.3212 31.2311 10.7223 31.3242 2.11164C30.4291 2.11164 29.5339 2.11164 28.6117 2.11164C28.755 2.90747 28.8983 3.7033 29.0459 4.52324C29.6128 8.83716 29.7238 13.0633 29.8019 17.4164C29.8207 18.294 29.8395 19.1716 29.8589 20.0757C29.9177 22.8615 29.9712 25.6473 30.0245 28.4331C30.0635 30.329 30.103 32.2249 30.1428 34.1208C30.2393 38.7532 30.3309 43.3857 30.42 48.0183C29.426 47.8158 28.4319 47.6134 27.4077 47.4048C24.0614 46.6183 24.0614 46.6183 21.6537 48.8525C20.5663 50.1068 20.5663 50.1068 19.4569 51.3864C16.425 54.8398 14.8125 56.2576 10.5281 57C8.85095 53.9771 7.20086 50.9373 5.55512 47.8935C5.08074 47.0393 4.60637 46.1851 4.11762 45.305C-0.486813 36.7249 -0.486813 36.7249 0.582136 32.0507C2.13809 29.4077 3.99838 27.1702 5.9507 24.8778C7.03259 23.5574 8.11336 22.2359 9.19303 20.9132C9.72772 20.266 10.2624 19.6188 10.8133 18.9519C12.9264 16.3566 14.9219 13.6783 16.9139 10.9686C17.8247 9.72978 17.8247 9.72978 18.754 8.4659C20.5181 6.12422 20.5181 6.12422 22.0047 3.50307C24.0908 1.11367 24.0908 1.11367 26.9042 0.469017C28.0096 0.459358 29.1151 0.4497 30.254 0.439749C31.1721 0.421651 31.1721 0.421651 32.1087 0.403187C34.1269 0.369427 36.1437 0.370834 38.1621 0.37299C39.5673 0.35736 40.9725 0.339697 42.3777 0.320089C45.3207 0.283905 48.2633 0.263556 51.2064 0.256041C54.9768 0.246395 58.7465 0.211045 62.5167 0.165559C66.1151 0.122789 69.7135 0.0908178 73.312 0.0611245C73.9977 0.0549749 74.6834 0.0488253 75.3899 0.0424894C77.3333 0.0274438 79.2766 0.0198263 81.22 0.0148319C82.8782 0.00749011 82.8782 0.00749011 84.5699 0C86.902 0.0959063 88.7881 0.347944 91 1.11367Z" fill="#249F91"/>
</svg>
