<svg width="45" height="58" viewBox="0 0 45 58" fill="none" xmlns="http://www.w3.org/2000/svg">
<path d="M43.0072 0.218704C43.5339 0.418399 44.0606 0.618094 44.6033 0.82384C44.7052 4.71056 44.767 8.59682 44.8217 12.4848C44.8656 14.1315 44.8656 14.1315 44.9104 15.8114C44.9217 16.8782 44.9329 17.9449 44.9445 19.044C44.9628 20.0211 44.9811 20.9982 45 22.0048C44.125 28.3858 39.7528 32.7824 35.9212 37.1741C35.4302 37.7421 34.9393 38.3101 34.4335 38.8953C33.4018 40.0855 32.3679 41.2731 31.3319 42.4582C29.7479 44.2737 28.1759 46.1022 26.6044 47.9319C25.5972 49.0905 24.5893 50.2484 23.5807 51.4055C23.1128 51.9519 22.6449 52.4983 22.1629 53.0613C17.8856 57.9119 17.8856 57.9119 14.8986 58C12.3878 56.1899 10.8416 54.9776 9.82042 51.7307C9.76637 51.1514 9.71231 50.5721 9.65661 49.9753C8.50337 49.6443 7.35013 49.3132 6.16195 48.9722C6.06981 48.3446 5.97767 47.717 5.88274 47.0703C5.45951 44.2328 5.0192 41.3991 4.57843 38.5651C4.43371 37.5772 4.28899 36.5893 4.13989 35.5715C3.99066 34.6276 3.84144 33.6837 3.68769 32.7111C3.48867 31.4031 3.48867 31.4032 3.28563 30.0687C2.77823 27.5449 2.77823 27.5449 0.046281 25.9011C-0.0500515 22.9597 0.00374117 20.2897 0.210093 17.3748C0.248948 16.5874 0.287802 15.7999 0.327834 14.9886C0.682866 9.12077 0.682866 9.12077 2.66728 6.84238C7.88117 7.09181 12.9513 8.9694 17.5196 11.8578C19.0895 14.0012 19.0895 14.0012 20.1406 15.8702C20.5125 15.4176 20.8843 14.9649 21.2675 14.4985C23.5932 11.9495 26.3866 10.2568 29.1503 8.40971C30.2943 7.63928 31.4376 6.86738 32.5801 6.09398C33.1349 5.72175 33.6897 5.34951 34.2613 4.966C35.7862 3.88989 37.2411 2.68629 38.689 1.4782C41.1086 -0.179251 41.1086 -0.179251 43.0072 0.218704Z" fill="#005585"/>
</svg>
