<svg width="72" height="34" viewBox="0 0 72 34" fill="none" xmlns="http://www.w3.org/2000/svg">
<path d="M0.838379 0.510315C9.30911 0.028735 16.0949 1.57095 23.9689 4.82094C25.0852 5.26885 26.2015 5.71676 27.3516 6.17824C29.6963 7.12573 32.0378 8.08327 34.3761 9.05035C37.9364 10.5166 41.5102 11.9346 45.087 13.3494C47.3744 14.2804 49.6609 15.2141 51.9464 16.1509C53.0051 16.5675 54.0639 16.984 55.1547 17.4132C62.1748 20.3721 66.7075 23.9879 71.5184 30.4303C71.5184 31.5919 71.5184 32.7535 71.5184 33.9503C44.4101 32.185 20.0169 25.0088 0.838379 2.27031C0.838379 1.68951 0.838379 1.10872 0.838379 0.510315Z" fill="#0C98A4"/>
</svg>
