<svg width="347" height="8" viewBox="0 0 347 8" fill="none" xmlns="http://www.w3.org/2000/svg">
<path d="M319.101 2.62872C321.473 2.79924 323.85 2.88703 326.225 2.86052C327.45 2.85287 328.675 2.84522 329.937 2.83734C331.18 2.81745 332.423 2.79756 333.704 2.77707C335.629 2.76101 335.629 2.76101 337.593 2.74462C340.729 2.7169 343.865 2.67434 347 2.62872C347 3.41204 347 4.19536 347 5.00242C331.335 8.10606 315.652 7.72798 299.863 7.72094C296.677 7.72805 293.49 7.73613 290.304 7.7451C281.687 7.76599 273.07 7.77163 264.453 7.77315C259.068 7.77484 253.683 7.77991 248.299 7.7862C229.511 7.80812 210.724 7.81786 191.936 7.81599C174.421 7.81456 156.906 7.83967 139.391 7.87709C124.344 7.9081 109.296 7.92087 94.2488 7.91935C85.265 7.91874 76.2813 7.92554 67.2975 7.95063C58.8603 7.97355 50.4233 7.97383 41.9861 7.95652C38.8875 7.95403 35.7889 7.95969 32.6904 7.97399C28.4671 7.99224 24.2443 7.98135 20.0209 7.963C18.79 7.97521 17.559 7.98742 16.2908 8C9.98363 7.93928 5.36724 7.32299 0 2.62872C40.0607 2.26329 80.1214 1.91191 120.182 1.57725C138.783 1.42154 157.384 1.26122 175.984 1.09009C192.196 0.940955 208.408 0.800434 224.62 0.670275C233.205 0.601052 241.789 0.527505 250.373 0.443637C258.454 0.364829 266.535 0.297548 274.615 0.23909C277.58 0.215612 280.545 0.18793 283.51 0.155716C287.561 0.112333 291.612 0.0841384 295.663 0.0596746C297.929 0.0399819 300.196 0.0202894 302.531 0C308.233 0.238105 313.503 1.19587 319.101 2.62872Z" fill="#F0F4FC"/>
</svg>
