<svg width="38" height="42" viewBox="0 0 38 42" fill="none" xmlns="http://www.w3.org/2000/svg">
<path d="M20.2076 0C24.2538 0.854086 25.9536 3.73784 28.4226 7.3628C28.8271 7.94185 29.2316 8.52089 29.6484 9.11747C30.4596 10.2799 31.2648 11.4482 32.0638 12.6223C32.8614 13.7643 33.6862 14.8808 34.5366 15.9686C36.3025 18.2546 37.5287 19.9111 38 22.9945C37.6168 25.6098 37.6168 25.6098 35.8343 27.5855C35.0177 28.1959 34.2011 28.8063 33.3597 29.4352C32.0284 30.4434 32.0284 30.4434 30.6701 31.472C29.731 32.1573 28.7918 32.8427 27.8241 33.5488C26.4356 34.6006 26.4356 34.6006 25.019 35.6736C17.1081 41.5873 17.1081 41.5873 14.1144 42C11.7676 41.0448 9.65411 40.0381 7.42272 38.7988C6.82297 38.4951 6.22322 38.1913 5.60529 37.8784C2.99784 36.4543 1.32962 35.4564 0 32.3923C0.270944 28.5023 1.68526 26.7597 3.77766 23.753C4.16128 23.1929 4.54489 22.6328 4.94012 22.0557C5.78334 20.8285 6.63274 19.6072 7.48732 18.391C9.00263 16.2321 10.4988 14.056 11.9926 11.8765C14.7181 7.90511 17.4591 3.94934 20.2076 0Z" fill="#0062BD"/>
</svg>
