<svg width="54" height="29" viewBox="0 0 54 29" fill="none" xmlns="http://www.w3.org/2000/svg">
<path d="M0 0.177954C18.2372 -0.702223 35.9526 1.82939 54 4.54493C53.6959 5.00879 53.3919 5.47264 53.0786 5.95055C52.4729 6.87601 52.4729 6.87601 51.855 7.82016C51.4568 8.42813 51.0586 9.03609 50.6484 9.66248C49.8464 10.8998 49.0554 12.1465 48.2761 13.4028C43.0107 21.7306 32.9153 25.8297 24.4361 27.7308C20.6109 28.367 16.7886 28.7684 12.9296 29C14.7471 23.9418 16.3172 21.1613 20.5352 18.5193C19.5357 18.5193 18.5365 18.5646 17.5375 18.6011C12.8979 17.8277 9.95462 13.0547 6.89261 9.3486C6.22739 8.56838 5.56218 7.78816 4.87682 6.9843C0 1.22223 0 1.22223 0 0.177954Z" fill="#0C98A4"/>
</svg>
