<svg width="32" height="73" viewBox="0 0 32 73" fill="none" xmlns="http://www.w3.org/2000/svg">
<path d="M5.64528 0C14.3423 0.752812 23.0394 1.50562 32 2.28125C32 3.03406 32 3.78687 32 4.5625C25.0424 4.5625 18.0847 4.5625 10.9162 4.5625C10.3364 8.13836 9.75662 11.7142 9.15925 15.3984C8.83311 17.4099 8.50697 19.4213 8.17094 21.4937C7.2063 27.8802 7.2063 27.8802 7.40227 36.5C15.3505 41.1606 23.5027 43.3656 32 45.625C32 46.3778 32 47.1306 32 47.9062C27.3616 47.9062 22.7231 47.9062 17.9442 47.9062C20.2895 56.1049 23.1452 63.3159 26.7291 70.7188C23.83 71.4716 20.931 72.2244 17.9442 73C14.9721 68.0937 12.0558 63.1524 9.15925 58.1719C8.32125 56.8015 7.48325 55.4312 6.61986 54.0193C0.363366 43.1107 -0.720384 36.3703 0.374341 22.8125C1.71458 14.9404 3.67597 7.67084 5.64528 0Z" fill="#020F62"/>
</svg>
