<svg width="27" height="36" viewBox="0 0 27 36" fill="none" xmlns="http://www.w3.org/2000/svg">
<path d="M0 0C0.287419 0.678857 0.574839 1.35771 0.870968 2.05714C6.69942 3.1615 12.4536 3.21294 18.3448 3.15C19.6003 3.14304 19.6003 3.14304 20.8811 3.13594C22.9208 3.12395 24.9604 3.10713 27 3.08571C24.2983 7.97362 21.3965 12.6015 18.3562 17.2072C16.3417 20.2648 14.3563 23.3379 12.4249 26.4696C12.0394 27.0861 11.6539 27.7026 11.2567 28.3377C10.5149 29.5255 9.78167 30.7209 9.05798 31.9241C8.03604 33.5451 8.03604 33.5451 6.09677 36C4.9471 36 3.79742 36 2.6129 36C0.608907 32.23 0.601733 28.8984 0.510333 24.5089C0.485032 23.4561 0.485032 23.4561 0.45922 22.3819C0.407342 20.15 0.366822 17.918 0.326613 15.6857C0.293341 14.1683 0.259327 12.6509 0.224546 11.1335C0.141103 7.42253 0.0678404 3.7114 0 0Z" fill="#177277"/>
</svg>
