<svg width="33" height="24" viewBox="0 0 33 24" fill="none" xmlns="http://www.w3.org/2000/svg">
<path d="M22.2558 0.273319C23.6918 1.85926 23.6918 1.85926 24.8939 4.0908C25.3371 4.899 25.7803 5.7072 26.2369 6.53989C26.6959 7.43608 27.155 8.33228 27.6279 9.25563C28.1344 10.2445 28.6409 11.2333 29.1628 12.2521C30.462 14.8336 31.7403 17.4263 33 20.0344C25.0606 24.9321 16.8853 24.9078 8.34593 22.0554C4.97565 20.7907 2.66871 19.1646 0 16.4415C1.93237 14.5857 3.86781 12.7343 5.80378 10.8837C6.34442 10.3644 6.88506 9.84506 7.44209 9.31002C9.0447 7.78004 10.6595 6.26982 12.2791 4.76448C12.7548 4.30755 13.2305 3.85062 13.7206 3.37985C16.6047 0.745737 18.5873 -0.62045 22.2558 0.273319Z" fill="#10154F"/>
</svg>
