<svg width="314" height="6" viewBox="0 0 314 6" fill="none" xmlns="http://www.w3.org/2000/svg">
<path d="M288.214 1.94908C290.351 2.07552 292.492 2.14061 294.632 2.12095C295.735 2.11528 296.839 2.10961 297.976 2.10377C299.095 2.08902 300.215 2.07427 301.369 2.05908C303.103 2.04717 303.103 2.04717 304.872 2.03502C307.696 2.01446 310.521 1.9829 313.345 1.94908C313.345 2.52988 313.345 3.11068 313.345 3.70908C299.235 6.01029 285.108 5.72996 270.886 5.72474C268.016 5.73001 265.146 5.736 262.276 5.74265C254.514 5.75814 246.752 5.76232 238.99 5.76345C234.14 5.7647 229.289 5.76847 224.439 5.77313C207.516 5.78938 190.593 5.7966 173.67 5.79521C157.893 5.79415 142.116 5.81277 126.34 5.84052C112.786 5.86351 99.2315 5.87298 85.6775 5.87185C77.5853 5.8714 69.4931 5.87644 61.401 5.89504C53.8011 5.91204 46.2014 5.91225 38.6015 5.89941C35.8104 5.89757 33.0194 5.90176 30.2283 5.91237C26.4241 5.92589 22.6204 5.91782 18.8162 5.90422C17.7074 5.91327 16.5986 5.92232 15.4563 5.93165C9.77505 5.88663 5.6168 5.42968 0.782227 1.94908C36.8672 1.67813 72.9521 1.41759 109.037 1.16946C125.792 1.05401 142.547 0.935143 159.301 0.808257C173.904 0.697677 188.507 0.593487 203.11 0.49698C210.843 0.445654 218.575 0.391122 226.308 0.328938C233.587 0.270504 240.865 0.220619 248.144 0.177275C250.815 0.159867 253.485 0.139342 256.156 0.115457C259.805 0.0832899 263.454 0.0623849 267.103 0.0442461C269.144 0.0296449 271.186 0.0150437 273.289 0C278.426 0.176544 283.172 0.886682 288.214 1.94908Z" fill="#F0F4FC"/>
</svg>
