<svg width="40" height="27" viewBox="0 0 40 27" fill="none" xmlns="http://www.w3.org/2000/svg">
<path d="M18.4013 0.0190507C24.4554 0.0943818 28.1913 1.41916 32.77 6.02676C39.7162 14.0162 39.7162 14.0162 40 17.7079C39.7717 20.4663 39.395 21.8675 37.8438 24.0994C29.0075 29.6873 15.3176 25.9288 6.09678 23.3804C3.75231 22.5308 3.36348 21.8284 2.00438 19.6505C1.65397 19.1064 1.30356 18.5624 0.94253 18.0018C-0.0628994 15.7203 -0.142041 14.3876 0.144203 11.8761C1.11046 9.46069 1.11046 9.46069 2.37642 7.02278C2.79077 6.21085 3.20513 5.39893 3.63204 4.5624C6.72694 -0.948704 12.9835 0.128216 18.4013 0.0190507Z" fill="#36979E"/>
</svg>
