<svg width="373" height="198" viewBox="0 0 373 198" fill="none" xmlns="http://www.w3.org/2000/svg">
<path d="M6.36939 0C14.9934 0.758778 23.6174 1.51756 32.5027 2.29933C32.5027 3.05811 32.5027 3.81689 32.5027 4.59866C25.6035 4.59866 18.7043 4.59866 11.5961 4.59866C11.0211 8.20286 10.4462 11.8071 9.85384 15.5205C9.53044 17.5478 9.20704 19.5752 8.87384 21.664C7.91729 28.1011 7.91729 28.1011 8.11161 36.7893C15.9931 41.4868 24.0768 43.7092 32.5027 45.9866C32.5027 46.7454 32.5027 47.5041 32.5027 48.2859C27.9032 48.2859 23.3038 48.2859 18.5649 48.2859C21.0475 58.0094 24.6694 64.6208 29.6716 72.4289C31.0146 74.5392 32.3576 76.6496 33.7413 78.8239C35.7154 81.9183 35.7154 81.9183 37.7294 85.0752C38.9736 87.1855 40.2178 89.2959 41.4997 91.4702C44.3643 96.7384 44.3643 96.7385 48.1827 98.8711C52.0354 98.6685 55.8841 98.3124 59.7249 97.8652C62.8309 97.5139 62.8309 97.5139 65.9996 97.1556C67.5942 96.963 69.1887 96.7703 70.8316 96.5718C69.1068 97.71 69.1068 97.71 67.3471 98.8711C67.9578 106.326 68.3266 109.483 72.6827 114.535C73.7966 115.436 74.9105 116.337 76.0582 117.266C72.6086 118.404 72.6086 118.404 69.0894 119.565C69.1712 125.072 69.1712 125.072 70.8316 131.062C75.272 135.513 75.272 135.513 81.0127 139.002C82.0525 139.696 83.0923 140.39 84.1636 141.105C87.5458 143.353 90.9476 145.542 94.3516 147.732C96.6728 149.26 98.9925 150.791 101.311 152.327C104.769 154.617 108.229 156.903 111.695 159.172C121.973 165.904 132.076 173.035 142.086 180.437C150.798 186.687 157.595 189.95 167.307 186.389C168.816 185.583 170.325 184.777 171.88 183.946C170.621 176.362 170.621 176.362 164.803 173.168C163.114 172.172 161.425 171.176 159.685 170.15C161.41 169.392 163.134 168.633 164.912 167.851C165.486 166.333 166.061 164.816 166.654 163.252C167.804 164.77 168.953 166.287 170.138 167.851C175.51 168.235 175.51 168.235 180.592 167.851C182.316 163.298 182.316 163.298 184.076 158.654C185.801 158.654 187.526 158.654 189.303 158.654C190.165 154.101 190.165 154.101 191.045 149.456C192.195 153.25 193.345 157.044 194.529 160.953C203.535 160.02 203.535 160.02 211.951 156.354C211.998 152.235 212.032 148.115 212.06 143.995C212.081 141.701 212.101 139.407 212.122 137.044C212.265 131.098 212.265 131.098 210.209 126.463C211.575 125.752 212.94 125.04 214.347 124.307C218.787 122.028 218.787 122.028 222.405 119.565C222.405 124.118 222.405 128.67 222.405 133.361C218.955 132.223 218.955 132.223 215.436 131.062C215.458 140.435 215.761 149.452 217.178 158.654C221.316 164.168 221.316 164.168 227.631 165.552C229.058 166.085 230.484 166.619 231.953 167.168C240.731 170.626 240.731 170.626 249.028 167.088C252.335 163.596 252.335 163.596 252.676 158.51C253.035 157.04 253.395 155.57 253.765 154.055C255.335 153.519 256.904 152.982 258.522 152.429C264.784 149.161 266.871 145.612 270.627 138.419C279.699 121.065 279.698 121.065 286.809 118.17C294.48 116.96 301.895 117.977 309.516 119.565C308.941 117.289 308.366 115.012 307.774 112.667C309.076 112.774 310.379 112.881 311.721 112.99C313.437 113.073 315.152 113.156 316.92 113.242C318.618 113.349 320.316 113.455 322.065 113.565C328.361 112.405 329.728 109.673 333.907 103.47C336.054 99.5192 338.121 95.4912 340.12 91.4073C341.82 87.9506 341.82 87.9506 343.554 84.424C344.718 82.0306 345.883 79.6372 347.083 77.1712C348.839 73.5944 348.839 73.5944 350.632 69.9454C353.787 63.5071 356.935 57.0656 360.04 50.5852C361.024 48.5933 362.007 46.6013 363.021 44.5489C366.388 36.3632 365.487 31.83 363.525 22.9933C359.045 14.4157 353.424 7.3191 347.845 0C356.496 0.345978 360.399 6.50921 366.05 14.281C371.311 22.2911 373.21 27.9093 372.982 38.6215C371.532 48.4671 366.735 55.521 362.109 63.2315C360.028 66.8477 357.95 70.4674 355.875 74.0905C354.823 75.9078 353.771 77.7251 352.687 79.5974C347.056 89.5473 341.878 99.9102 336.702 110.278C328.998 125.386 328.998 125.386 323.454 128.762C316.524 129.401 309.618 128.693 302.697 128.089C294.962 127.72 291.334 127.935 284.635 133.577C279.666 140.587 275.228 147.726 270.969 155.492C259.942 175.497 259.942 175.497 249.96 178.988C241.695 179.435 235.317 176.945 227.523 173.599C214.667 167.805 214.667 167.805 201.498 170.15C195.487 174.991 189.961 180.677 184.399 186.362C175.919 194.574 168.643 199.169 157.943 197.742C151.751 195.306 146.235 191.627 140.52 187.683C138.01 186.021 138.01 186.021 135.45 184.326C130.663 181.141 125.896 177.907 121.133 174.66C116.378 171.438 111.601 168.275 106.824 165.108C101.654 161.675 96.4913 158.221 91.3312 154.761C88.7941 153.06 86.2556 151.363 83.7158 149.669C65.8229 137.702 49.6492 126.203 36.8583 105.338C36.0481 104.045 35.2379 102.752 34.4032 101.419C28.1672 91.3667 22.2423 81.044 16.5777 70.4169C14.3811 66.3242 12.109 62.3006 9.77217 58.3455C-0.539021 40.4913 -0.53902 40.4913 0.366897 27.8075C1.89871 18.3022 4.04046 9.22094 6.36939 0Z" fill="#00244E"/>
</svg>
