<svg width="59" height="46" viewBox="0 0 59 46" fill="none" xmlns="http://www.w3.org/2000/svg">
<path d="M19.2739 0.250848C19.9318 0.348366 20.5896 0.445883 21.2673 0.546356C23.0446 0.731503 24.5808 0.653122 26.3463 0.403368C30.8033 -0.003994 33.6707 0.0934769 37.205 3.31295C39.8978 6.22334 42.4194 9.25092 44.8481 12.4605C48.1582 17.2031 48.1582 17.2031 52.8035 19.4857C54.9697 19.3881 56.9095 19.1543 59 18.4909C58.2374 20.2657 58.2374 20.2657 55.4251 21.6106C51.2359 23.9564 49.6545 27.8204 47.5603 32.4673C47.1877 33.2554 46.8151 34.0436 46.4313 34.8556C45.5211 36.7868 44.6273 38.7259 43.7471 40.6757C43.4954 40.09 43.2438 39.5043 42.9845 38.9009C44.0378 36.1088 45.1875 33.4116 46.3881 30.7029C46.6324 30.1275 46.8767 29.5521 47.1284 28.9593C47.3569 28.4409 47.5854 27.9224 47.8208 27.3882C48.5221 24.8769 48.5367 22.8929 48.323 20.2657C45.2658 13.3759 39.636 7.08275 33.8327 3.40524C29.6335 2.13691 25.667 1.84487 21.3444 1.90777C20.8209 1.90686 20.2974 1.90595 19.758 1.90501C13.7728 1.86069 13.7728 1.86069 8.69839 4.99371C7.7136 6.8013 7.02796 8.50781 6.3775 10.5044C5.92134 11.4195 5.46518 12.3346 4.9952 13.2775C3.94179 16.245 3.8253 17.9591 4.08956 21.1531C5.27056 23.9349 5.27056 23.9349 6.95246 26.6577C7.24204 27.158 7.53162 27.6584 7.82998 28.1739C8.75009 29.7611 9.68365 31.3365 10.6197 32.911C11.5569 34.4992 12.4908 36.0897 13.4176 37.6861C14.2548 39.1265 15.1027 40.5586 15.951 41.9903C16.3151 42.7278 16.6793 43.4653 17.0545 44.2252C16.8029 44.8109 16.5512 45.3966 16.2919 46C13.5558 44.9388 13.1538 44.0457 11.5522 41.3308C11.0916 40.5569 10.631 39.7831 10.1565 38.9858C9.68015 38.1708 9.20384 37.3557 8.7131 36.516C8.23974 35.7181 7.76638 34.9203 7.27867 34.0982C6.35981 32.5463 5.44761 30.989 4.54276 29.426C3.56519 27.7687 2.5244 26.1621 1.46499 24.5744C-0.0826863 21.2751 -0.264688 18.5703 0.276339 14.9413C3.36384 2.77347 8.76203 -1.08309 19.2739 0.250848Z" fill="#010D5F"/>
</svg>
