<svg width="45" height="136" viewBox="0 0 45 136" fill="none" xmlns="http://www.w3.org/2000/svg">
<path d="M31.1538 0C32.2962 0 33.4385 0 34.6154 0C36.863 23.1509 38.6181 46.3153 40.024 69.5847C40.1755 72.0612 40.3269 74.5377 40.4829 77.0892C41.1419 88.2992 41.7428 99.3892 41.5385 110.644C42.6808 111.405 43.8231 112.165 45 112.949C40.7163 114.09 40.7163 114.09 36.3462 115.254C35.775 122.1 35.2038 128.946 34.6154 136C34.0442 136 33.4731 136 32.8846 136C32.8846 128.393 32.8846 120.786 32.8846 112.949C35.4548 111.808 35.4548 111.808 38.0769 110.644C36.3635 100.755 34.65 90.8664 32.8846 80.678C21.9279 81.958 11.5872 83.6865 3.46154 94.5085C2.31923 92.2264 1.17692 89.9444 0 87.5932C3.38624 85.6624 6.7764 83.7437 10.1683 81.8305C12.0558 80.7608 13.9432 79.6911 15.8879 78.589C20.7692 76.0678 20.7692 76.0678 24.2308 76.0678C24.8019 73.0251 25.3731 69.9824 25.9615 66.8475C28.2462 67.6081 30.5308 68.3688 32.8846 69.1525C33.1294 45.9724 32.4157 23.107 31.1538 0Z" fill="#000949"/>
</svg>
