<svg width="280" height="151" viewBox="0 0 280 151" fill="none" xmlns="http://www.w3.org/2000/svg">
<path d="M20.9281 0.0804793C22.8604 0.165081 24.7927 0.249326 26.725 0.333249C27.7136 0.392858 28.7022 0.452468 29.7208 0.513883C33.4865 0.714381 37.2439 0.739684 41.0131 0.753537C44.8176 0.772311 48.6207 0.84927 52.4246 0.92523C54.3101 0.959249 56.1958 0.985355 58.0816 1.00273C70.8353 1.12552 83.3404 2.25107 95.9904 4.01227C116.292 6.82258 136.305 7.55635 156.744 7.40438C159.454 7.38663 162.164 7.37897 164.874 7.37383C201.31 7.28839 237.557 5.12294 273.876 1.89279C274.753 4.81983 275.625 7.74828 276.496 10.6777C276.867 11.9131 276.867 11.9131 277.245 13.1735C280.218 23.2052 281.454 29.1991 277.5 38.8341C274.426 45.8317 271.099 52.6722 267.752 59.5051C267.367 60.2913 266.982 61.0775 266.586 61.8874C257.451 80.5186 257.451 80.5186 253.485 87.8153C252.538 89.567 252.538 89.567 251.571 91.3541C245.359 99.7593 236.657 105.452 228.586 111.318C226.42 112.904 224.256 114.49 222.092 116.078C220.917 116.938 219.743 117.799 218.533 118.685C214.208 121.865 209.906 125.085 205.604 128.306C204.045 129.472 202.486 130.638 200.927 131.804C198.617 133.532 196.308 135.261 194 136.994C191.835 138.62 189.666 140.24 187.497 141.86C186.856 142.344 186.214 142.828 185.553 143.326C179.082 148.146 174.128 151.808 166.203 150.846C160.855 148.265 156.665 144.668 152.205 140.544C143.027 131.314 143.027 131.314 131.554 128.211C127.459 129.098 123.767 130.784 119.903 132.532C113.484 135.433 108.606 137.456 101.599 136.194C95.0728 132.769 91.7424 128.612 87.6686 122.001C86.5524 120.253 85.435 118.506 84.3164 116.76C83.7784 115.911 83.2404 115.062 82.6861 114.187C80.5797 110.9 78.3902 107.708 76.161 104.527C75.5031 103.584 74.8452 102.641 74.1674 101.67C72.6303 99.4351 72.6303 99.4351 70.3736 98.3458C68.4949 98.3146 66.615 98.3587 64.7376 98.4412C63.6078 98.4726 62.4779 98.5041 61.3139 98.5365C58.9356 98.6123 56.5577 98.7075 54.1806 98.8227C48.8218 98.9416 45.517 99.0111 40.8392 95.8515C37.6874 91.7399 34.9202 87.5563 32.2842 83.0079C31.7699 82.1406 31.2556 81.2733 30.7256 80.3798C29.2162 77.8294 27.7197 75.2698 26.2276 72.7064C24.8148 70.2897 23.4016 67.8732 21.988 65.4571C21.3176 64.3098 20.6472 63.1625 19.9565 61.9804C16.4573 56.1177 12.8454 50.3467 9.2273 44.5777C8.18561 42.9154 7.14991 41.2482 6.12092 39.5757C4.84996 37.5498 3.50583 35.5835 2.15258 33.6273C-0.0829663 29.004 -0.393307 25.3012 0.386071 20.2066C3.61641 7.80027 9.03999 -0.936981 20.9281 0.0804793Z" fill="#1C7479"/>
</svg>
