<svg width="137" height="4" viewBox="0 0 137 4" fill="none" xmlns="http://www.w3.org/2000/svg">
<path d="M0 0.00705794C16.2485 -0.0256654 32.4946 0.0577444 48.7425 0.208631C51.8628 0.237375 54.983 0.264895 58.1033 0.292564C63.9696 0.34476 69.8359 0.398002 75.7021 0.451655C82.3987 0.512847 89.0952 0.57282 95.7917 0.63271C109.528 0.755582 123.264 0.879927 137 1.00529C136.703 1.66413 136.405 2.32296 136.099 3.00176C127.176 3.49589 127.176 3.49589 118.072 4C118.072 3.34116 118.072 2.68233 118.072 2.00353C117.43 2.01603 116.789 2.02854 116.127 2.04143C61.5129 3.09908 61.5129 3.09908 38.7738 3.1787C37.104 3.18539 35.4343 3.19549 33.7645 3.2094C22.3975 3.29783 11.2896 2.47527 0 1.00529C0 0.675876 0 0.346458 0 0.00705794Z" fill="#9EC8FE"/>
</svg>
