<svg width="25" height="17" viewBox="0 0 25 17" fill="none" xmlns="http://www.w3.org/2000/svg">
<path d="M23.4375 0C23.9531 0 24.4687 0 25 0C25 3.0855 25 6.171 25 9.35C23.8882 8.90295 23.8882 8.90295 22.7539 8.44688C21.2151 8.08859 21.2151 8.08859 19.5312 8.5C17.3595 10.2868 15.5109 12.2372 13.6169 14.3637C11.5947 16.2667 10.4353 16.7258 7.8125 17C6.50489 14.6306 5.20487 12.2565 3.90625 9.88125C3.34732 8.86882 3.34732 8.86882 2.7771 7.83594C2.42462 7.18947 2.07214 6.54301 1.70898 5.87695C1.38168 5.28048 1.05438 4.68401 0.717163 4.06946C0 2.55 0 2.55 0 0.85C7.54408 1.76351 14.0695 3.79802 21.0938 6.8C21.3354 5.99356 21.5771 5.18713 21.8262 4.35625C22.6562 1.7 22.6562 1.7 23.4375 0Z" fill="#00A2D5"/>
</svg>
