<svg width="91" height="63" viewBox="0 0 91 63" fill="none" xmlns="http://www.w3.org/2000/svg">
<path d="M0.146158 10.9607C0.014292 11.5055 0.403794 11.2467 0.980039 11.1129C2.19907 10.8303 3.40828 10.1695 4.53338 9.63735C4.07919 9.86035 5.80749 9.13619 5.7124 9.17128C6.44225 8.90375 7.18288 8.66551 7.92731 8.44123C9.65402 7.92094 11.405 7.51035 13.1813 7.19734C16.7402 6.56998 20.3641 6.31198 23.9765 6.42247C31.3417 6.64665 38.6427 8.44257 45.2267 11.7646C57.3732 17.8937 66.6647 28.9321 70.9662 41.7641L65.278 43.4401L84.1612 62.2432L90.3956 36.0385L83.5934 38.0427C80.3288 26.4878 73.067 16.2127 63.1972 9.32062C53.2614 2.38239 40.8911 -0.654662 28.8538 0.440556C21.2537 1.13193 14.1312 3.60347 7.25052 6.80786C5.70398 7.52807 4.16747 8.34133 2.69794 9.2088C2.46582 9.34579 0.263835 10.4744 0.146158 10.9607Z" fill="#BCD8FC"/>
</svg>
