<svg width="92" height="79" viewBox="0 0 92 79" fill="none" xmlns="http://www.w3.org/2000/svg">
<path d="M0.843775 0.509534C17.7606 -1.02958 30.5862 2.32949 46.2056 9.04957C49.6634 10.5328 53.1401 11.9441 56.6239 13.3486C58.8616 14.2784 61.098 15.2121 63.333 16.1502C64.3572 16.5667 65.3815 16.9833 66.4368 17.4124C76.0124 21.5967 81.6894 28.7701 87.7213 37.7995C88.5251 38.9861 89.3289 40.1727 90.157 41.3952C91.9424 44.5095 91.9424 44.5095 91.9424 48.0295C90.6001 48.3903 89.2577 48.751 87.8747 49.1227C86.1395 49.5968 84.4043 50.071 82.6166 50.5595C80.8855 51.0292 79.1544 51.4988 77.3708 51.9827C73.2606 52.8343 73.2606 52.8343 71.5238 55.0695C77.7436 59.1351 83.9634 63.2007 90.3718 67.3895C78.8001 76.0339 64.955 79.5305 51.1051 77.9495C45.2668 76.4631 39.5472 74.6487 33.8278 72.6695C34.3461 70.9271 34.8644 69.1847 35.3984 67.3895C34.297 67.2443 33.1956 67.0991 32.0608 66.9495C26.4976 65.3233 22.8987 62.1586 18.1211 58.5895C15.9455 57.568 13.7452 56.6105 11.5255 55.7158C9.84397 55.0313 9.84397 55.0313 8.12843 54.3331C7.27945 53.9953 6.43048 53.6575 5.55578 53.3095C4.76078 46.4909 3.9791 39.6704 3.19978 32.8495C2.97503 30.9234 2.75029 28.9972 2.51874 27.0127C2.30615 25.1409 2.09356 23.2692 1.87453 21.3408C1.67712 19.6265 1.47971 17.9121 1.27632 16.1459C0.829545 10.9025 0.770661 5.77342 0.843775 0.509534Z" fill="#007ABF"/>
</svg>
