<svg width="150" height="120" viewBox="0 0 150 120" fill="none" xmlns="http://www.w3.org/2000/svg">
<path d="M25.5893 0.190173C27.5045 0.223387 27.5045 0.223387 29.4583 0.257271C37.6807 0.46358 45.8803 1.07332 54.089 1.71183C73.5841 3.22243 93.0701 3.92623 112.593 4.48443C115.891 4.58372 119.19 4.68362 122.488 4.78414C130.442 5.02521 138.395 5.25818 146.349 5.48643C146.935 11.2106 147.509 16.9362 148.078 22.6635C148.324 25.0548 148.324 25.0548 148.576 27.4945C150.108 43.1079 150.17 58.4552 149.833 74.1946C146.458 75.4828 146.458 75.4828 142.864 76.4848C142.29 75.7291 141.715 74.9733 141.122 74.1946C140.547 76.4619 139.972 78.7293 139.38 81.0654C134.255 84.2413 134.255 84.2413 127.946 87.2205C125.86 88.2213 123.774 89.2222 121.624 90.2533C119.202 91.3737 119.202 91.3737 116.731 92.5167C117.485 94.1169 118.24 95.717 119.017 97.3657C119.988 99.45 120.958 101.534 121.957 103.682C122.928 105.754 123.898 107.827 124.898 109.962C127.184 115.419 127.184 115.419 127.184 120C115.044 117.974 105.057 113.089 94.0815 106.258C92.7678 105.442 91.4541 104.626 90.1006 103.785C80.6367 97.7456 80.6367 97.7456 76.659 92.5167C75.8151 88.2225 75.8151 88.2225 75.3523 83.3557C75.1816 81.7496 75.0109 80.1435 74.8351 78.4888C74.9167 74.1946 74.9167 74.1946 78.4012 69.614C77.2513 68.1024 76.1015 66.5909 74.9167 65.0335C74.9167 62.0103 74.9167 58.9872 74.9167 55.8724C74.0116 57.4991 73.1066 59.1258 72.174 60.8018C70.959 62.9068 69.744 65.0118 68.4922 67.1806C67.2996 69.2797 66.1071 71.3788 64.8784 73.5415C60.9787 78.7751 60.9787 78.7751 56.6571 81.1101C50.7829 81.0503 48.6543 78.5613 44.2096 73.622C42.8935 72.1931 41.5774 70.7642 40.2215 69.292C33.7028 61.6535 33.7028 61.6535 31.3605 58.1627C31.3605 56.6511 31.3605 55.1395 31.3605 53.5821C30.3296 52.9799 29.2988 52.3776 28.2367 51.7571C24.2196 48.8784 21.748 45.915 18.6203 41.5582C12.7218 33.5526 6.5011 26.3788 0 19.2281C0.541652 12.5825 1.79956 9.98377 5.26078 4.95859C12.284 -0.522723 17.584 -0.199578 25.5893 0.190173Z" fill="#0081AA"/>
</svg>
