<svg width="251" height="9" viewBox="0 0 251 9" fill="none" xmlns="http://www.w3.org/2000/svg">
<path d="M0 0.0796015C16.492 0.0419656 32.984 0.0188154 49.476 0.00565984C50.7362 0.00464711 51.9964 0.00363439 53.2949 0.00259098C99.0869 -0.0297608 144.873 0.243554 190.663 0.671134C191.422 0.678202 192.18 0.685269 192.961 0.692551C212.307 0.873063 231.654 1.06266 251 1.26267C250.646 2.04349 250.292 2.82431 249.927 3.6288C247.803 4.09299 247.803 4.09299 244.947 4.33182C243.864 4.42634 242.782 4.52086 241.666 4.61824C239.861 4.75526 239.861 4.75526 238.019 4.89505C236.751 4.99717 235.483 5.09929 234.177 5.2045C229.908 5.53678 225.639 5.8442 221.368 6.14282C220.634 6.19504 219.899 6.24726 219.143 6.30106C193.064 8.14734 167.013 8.88317 140.883 8.94389C138.219 8.95244 135.555 8.96967 132.891 8.98906C112.541 9.11965 92.6776 8.0912 72.475 5.34901C59.5402 3.60078 46.7497 2.88819 33.7214 2.81544C29.7869 2.76943 25.8525 2.71237 21.9181 2.65369C20.5638 2.63641 20.5638 2.63641 19.1821 2.61878C12.7513 2.51823 6.38767 2.12994 0 1.26267C0 0.872256 0 0.481844 0 0.0796015Z" fill="#BCD8FC"/>
</svg>
