<svg width="26" height="18" viewBox="0 0 26 18" fill="none" xmlns="http://www.w3.org/2000/svg">
<path d="M23.2851 0.0407731C24.5125 2.46548 24.9726 4.68359 25.3641 7.43025C25.5313 8.56173 25.5313 8.56173 25.7019 9.71607C25.9474 12.0249 26.0815 14.1819 25.9462 16.5034C25.5071 16.9973 25.0681 17.4912 24.6157 18C23.2695 17.8714 23.2695 17.8714 21.705 17.4388C21.1922 17.3037 20.6793 17.1687 20.1509 17.0295C18.6182 16.5 17.3282 15.9629 15.9669 15.0068C15.1353 12.6684 15.1353 12.6684 14.6363 10.517C14.1372 10.625 13.6381 10.7331 13.1238 10.8444C8.69208 11.7484 4.50153 12.2152 0 12.0136C2.45394 9.72293 4.98945 7.74244 7.69239 5.84011C8.43421 5.3115 9.17604 4.7829 9.94034 4.23827C11.9752 3.03398 11.9752 3.03398 14.6363 3.03398C15.3156 2.30176 15.9806 1.55249 16.6322 0.789074C18.8184 -0.143649 20.9693 -0.0184247 23.2851 0.0407731Z" fill="#B0B2CE" fill-opacity="0.48"/>
</svg>
