<svg width="78" height="44" viewBox="0 0 78 44" fill="none" xmlns="http://www.w3.org/2000/svg">
<path d="M0 0.113505C9.348 -0.518518 16.8366 1.50548 25.526 5.77075C26.7579 6.35858 27.9898 6.94642 29.259 7.55207C31.8466 8.79554 34.4306 10.0522 37.0111 11.3214C40.9401 13.2457 44.884 15.1066 48.8313 16.9634C51.3555 18.1852 53.8788 19.4107 56.401 20.6402C57.5694 21.1869 58.7378 21.7336 59.9416 22.2968C67.6888 26.18 72.6909 30.9254 78 39.3804C78 40.9048 78 42.4293 78 44C48.0842 41.6832 21.1647 32.2652 0 2.42332C0 1.66108 0 0.898842 0 0.113505Z" fill="#0C98A4"/>
</svg>
