<svg width="164" height="4" viewBox="0 0 164 4" fill="none" xmlns="http://www.w3.org/2000/svg">
<path d="M0 0.00705794C19.4508 -0.0256654 38.8987 0.0577444 58.3487 0.208631C62.0839 0.237375 65.8191 0.264895 69.5543 0.292564C76.5767 0.34476 83.5991 0.398002 90.6215 0.451655C98.6378 0.512847 106.654 0.57282 114.67 0.63271C131.114 0.755582 147.557 0.879927 164 1.00529C163.644 1.66413 163.288 2.32296 162.921 3.00176C152.239 3.49589 152.239 3.49589 141.342 4C141.342 3.34116 141.342 2.68233 141.342 2.00353C140.574 2.01603 139.805 2.02854 139.014 2.04143C73.6359 3.09908 73.6359 3.09908 46.4154 3.1787C44.4165 3.18539 42.4177 3.19549 40.4188 3.2094C26.8116 3.29783 13.5145 2.47527 0 1.00529C0 0.675876 0 0.346458 0 0.00705794Z" fill="#9EC8FE"/>
</svg>
