<svg width="62" height="49" viewBox="0 0 62 49" fill="none" xmlns="http://www.w3.org/2000/svg">
<path d="M60.9491 0C61.4693 1.74811 61.4693 1.74811 62 3.53153C60.2373 6.17281 58.4624 8.53786 56.483 10.9625C55.3106 12.4437 54.1408 13.9275 52.9734 15.4137C52.0755 16.554 52.0755 16.554 51.1595 17.7174C48.4275 21.2598 45.8484 24.9269 43.2818 28.6201C42.8022 29.303 42.3227 29.9858 41.8287 30.6894C39.7271 33.6956 37.692 36.7135 35.7329 39.8401C32.9654 44.2039 31.2405 46.6815 26.8623 49C20.7478 47.7983 18.3353 43.0212 14.7119 37.6697C13.8065 36.379 12.8992 35.09 11.9903 33.8025C7.77831 27.7872 3.73547 21.7049 0 15.3033C1.34106 15.5992 1.34106 15.5992 2.70922 15.9011C21.5422 19.4472 41.0092 17.3051 57.1398 5.003C59.9249 2.67555 59.9249 2.67555 60.9491 0Z" fill="#1A656F"/>
</svg>
