<svg width="60" height="76" viewBox="0 0 60 76" fill="none" xmlns="http://www.w3.org/2000/svg">
<path d="M0.0541992 0.230469C5.75572 0.230469 11.4572 0.230469 17.3315 0.230469C16.1005 1.31947 14.8695 2.40847 13.6012 3.53047C9.52787 7.09198 9.52787 7.09198 6.33687 10.7905C7.10308 19.062 12.4516 23.1027 17.7242 28.2805C19.5335 30.0914 21.3414 31.9041 23.1479 33.7186C24.4671 35.0377 24.4671 35.0377 25.813 36.3835C29.3911 40.0381 32.7825 43.8863 36.1795 47.7505C43.7256 56.1731 48.8031 61.5752 59.7395 61.8305C59.1564 63.1736 58.5733 64.5167 57.9725 65.9005C57.519 67.4614 57.0655 69.0223 56.5982 70.6305C57.6348 72.3729 58.6715 74.1153 59.7395 75.9105C58.8365 75.3932 57.9335 74.8759 57.0031 74.343C54.7689 73.1128 52.5043 71.9474 50.2051 70.878C46.8818 69.2638 43.8833 67.6454 40.8915 65.3505C39.7437 61.8701 38.7017 58.3444 37.7502 54.7905C30.654 44.9874 21.7312 41.6961 11.0489 38.9505C11.0489 38.3697 11.0489 37.7889 11.0489 37.1905C13.6405 37.1905 16.2321 37.1905 18.9022 37.1905C13.0539 29.4096 7.44386 22.0926 0.0541992 16.0705C0.679381 10.9915 1.29517 9.34393 4.86437 5.95047C5.86861 5.22447 6.87286 4.49847 7.90753 3.75047C5.31593 3.16967 2.72433 2.58887 0.0541992 1.99047C0.0541992 1.40967 0.0541992 0.828869 0.0541992 0.230469Z" fill="#000B61"/>
</svg>
