<svg width="89" height="53" viewBox="0 0 89 53" fill="none" xmlns="http://www.w3.org/2000/svg">
<path d="M0 0C13.2934 1.18204 25.9679 3.78944 38.9375 7.77717C40.5943 8.25839 42.2511 8.7396 43.9581 9.23539C58.993 13.7796 68.5751 20.3142 79.1838 34.9973C80.1354 36.285 81.0869 37.5727 82.0673 38.8994C84.3904 42.0477 86.697 45.2174 89 48.3913C80.5058 48.3913 76.4351 39.5615 70.6288 31.9638C66.7006 27.0881 66.7006 27.0881 62.4486 27.8682C58.3969 30.5842 56.6973 34.3375 54.098 39.1739C52.9463 39.1739 51.7945 39.1739 50.6078 39.1739C50.1399 40.5997 49.672 42.0255 49.1899 43.4946C47.1176 48.3913 47.1176 48.3913 41.8824 53C44.5568 44.9738 48.2834 38.4351 52.312 31.5318C54.5513 27.4243 54.5513 27.4243 54.098 20.7391C52.5213 20.2746 50.9445 19.8101 49.3199 19.3315C43.4859 17.6033 37.6553 15.8579 31.8263 14.1006C29.3002 13.3428 26.7728 12.5919 24.2443 11.848C20.6155 10.7792 16.9914 9.68579 13.3677 8.5873C11.1836 7.93565 8.9994 7.28401 6.74905 6.61262C5.09774 5.95133 3.44644 5.29003 1.7451 4.6087C1.16922 3.08783 0.593333 1.56696 0 0Z" fill="#000A5C"/>
</svg>
