<svg width="235" height="125" viewBox="0 0 235 125" fill="none" xmlns="http://www.w3.org/2000/svg">
<path d="M17.5646 0.0666219C19.1864 0.136656 20.8081 0.206396 22.4299 0.275868C23.2596 0.325214 24.0894 0.374559 24.9442 0.4254C28.1048 0.591375 31.2582 0.612321 34.4217 0.623789C37.6148 0.63933 40.8066 0.703038 43.9992 0.765919C45.5817 0.79408 47.1644 0.815691 48.7471 0.830074C59.4511 0.93172 69.9464 1.86347 80.5633 3.32142C97.6021 5.64783 114.399 6.25525 131.553 6.12946C133.827 6.11476 136.102 6.10842 138.376 6.10416C168.957 6.03344 199.378 4.24085 229.86 1.56688C230.596 3.98993 231.328 6.41414 232.059 8.83917C232.37 9.86187 232.37 9.86187 232.688 10.9052C235.183 19.2096 236.22 24.1715 232.902 32.1474C230.322 37.9401 227.529 43.6028 224.72 49.2592C224.397 49.91 224.074 50.5608 223.742 51.2313C216.075 66.6545 216.075 66.6545 212.746 72.6948C211.951 74.1449 211.951 74.1449 211.14 75.6242C205.926 82.5822 198.622 87.2949 191.849 92.1507C190.031 93.4633 188.215 94.7768 186.398 96.0909C185.413 96.8032 184.427 97.5156 183.412 98.2495C179.782 100.882 176.171 103.547 172.561 106.214C171.252 107.179 169.944 108.144 168.636 109.109C166.697 110.539 164.758 111.971 162.822 113.405C161.004 114.751 159.184 116.093 157.364 117.434C156.825 117.835 156.287 118.235 155.732 118.648C150.301 122.638 146.143 125.669 139.491 124.872C135.004 122.736 131.486 119.758 127.744 116.344C120.041 108.703 120.041 108.703 110.411 106.135C106.974 106.869 103.876 108.265 100.633 109.712C95.2456 112.113 91.1516 113.788 85.2704 112.744C79.7933 109.908 76.998 106.467 73.579 100.994C72.6422 99.5472 71.7044 98.1009 70.7655 96.6555C70.314 95.9527 69.8625 95.25 69.3972 94.526C67.6294 91.8048 65.7918 89.1624 63.9208 86.5287C63.3687 85.7483 62.8165 84.9679 62.2476 84.1638C60.9576 82.3138 60.9576 82.3138 59.0635 81.4121C57.4868 81.3863 55.909 81.4228 54.3333 81.491C53.3851 81.5171 52.4368 81.5431 51.4599 81.57C49.4638 81.6327 47.468 81.7115 45.473 81.8069C40.9755 81.9053 38.2018 81.9628 34.2757 79.3472C31.6305 75.9436 29.3081 72.4804 27.0957 68.7152C26.664 67.9972 26.2323 67.2793 25.7876 66.5395C24.5207 64.4283 23.2648 62.3095 22.0125 60.1874C20.8267 58.1868 19.6406 56.1865 18.4542 54.1864C17.8916 53.2366 17.3289 52.2868 16.7492 51.3083C13.8124 46.455 10.781 41.6777 7.74434 36.9021C6.87006 35.526 6.00081 34.1459 5.1372 32.7613C4.0705 31.0843 2.94239 29.4565 1.80663 27.8371C-0.0696324 24.01 -0.330097 20.9447 0.324024 16.7274C3.0352 6.45718 7.58713 -0.775647 17.5646 0.0666219Z" fill="#1C7479"/>
</svg>
