<svg width="1520" height="392" viewBox="0 0 1520 392" fill="none" xmlns="http://www.w3.org/2000/svg">
<path d="M1520 8.46858C1453.82 18.146 1384.31 45.3739 1338.92 66.5003C1266.68 100.121 1211.16 170.291 1137.55 196.452C1073.93 219.065 1002.67 234.779 936.907 222.137C901.124 215.258 872.183 201.414 839.572 184.506C802.235 165.148 764.054 172.282 724.257 179.599C585.789 205.062 421.895 209.67 297.66 121.082C243.575 82.5149 188.695 46.877 129.788 19.1263C95.4498 2.9506 59.0347 -2.96181 22.2953 1.37737C17.5651 1.93757 9.30036 4.35808 0 7.18241V392H1520L1520 8.46858Z" fill="#3E827E"/>
</svg>
