<svg width="11" height="13" viewBox="0 0 11 13" fill="none" xmlns="http://www.w3.org/2000/svg">
<path d="M9.47478 0C11.1587 7.64467 11.1587 7.64467 10.8283 11.4706C10.3817 11.9753 9.93499 12.48 9.47478 13C8.10538 12.8686 8.10538 12.8686 6.51391 12.4265C5.99222 12.2885 5.47052 12.1505 4.93302 12.0083C3.36359 11.4636 2.05371 10.9577 0.67677 9.94118C0.169193 7.16912 0.169193 7.16912 0 4.58824C0.416134 4.38517 0.832269 4.1821 1.26101 3.97289C1.80801 3.70279 2.355 3.43269 2.91857 3.15441C3.46033 2.88826 4.00209 2.6221 4.56027 2.34789C8.95115 0 8.95115 0 9.47478 0Z" fill="#19465A"/>
</svg>
