<svg width="49" height="27" viewBox="0 0 49 27" fill="none" xmlns="http://www.w3.org/2000/svg">
<path d="M24.5 2.02003C28.9706 5.45901 33.1248 9.36006 37.2969 13.3746C38.4259 14.4284 39.555 15.4822 40.7183 16.568C43.5206 19.2155 46.266 21.9639 49 24.7291C49 25.4785 49 26.2279 49 27C37.2656 26.3548 26.0541 24.0063 14.6562 20.4711C13.4121 20.1045 12.168 19.7378 10.8862 19.3601C7.36914 18.218 7.36914 18.218 1.75 15.6455C1.1725 13.3973 0.595 11.1491 0 8.83275C2.42801 7.23336 4.87453 5.68124 7.32812 4.14901C8.68841 3.27959 10.0487 2.41017 11.4502 1.5144C16.8723 -0.711639 19.1199 -0.433777 24.5 2.02003Z" fill="#0F557D"/>
</svg>
