<svg width="66" height="99" viewBox="0 0 66 99" fill="none" xmlns="http://www.w3.org/2000/svg">
<path d="M0 0C6.30474 0 12.6095 0 19.1053 0C17.744 1.42456 16.3828 2.84913 14.9803 4.31686C10.476 8.97582 10.476 8.97582 6.94737 13.814C7.79465 24.6343 13.709 29.9201 19.5395 36.6933C21.5402 39.0623 23.5394 41.4336 25.537 43.8071C26.9958 45.5328 26.9958 45.5328 28.484 47.2932C32.4407 52.074 36.1909 57.1079 39.9474 62.1628C48.2919 73.1807 53.9065 80.2474 66 80.5814C65.3552 82.3384 64.7104 84.0953 64.0461 85.9055C63.5445 87.9474 63.043 89.9893 62.5263 92.093C63.6726 94.3723 64.8189 96.6516 66 99C65.0015 98.3233 64.0029 97.6467 62.9741 96.9495C60.5034 95.3403 57.9993 93.8158 55.4568 92.4168C51.7819 90.3052 48.4662 88.1882 45.1579 85.186C43.8886 80.6333 42.7364 76.0211 41.6842 71.3721C33.8372 58.5483 23.9704 54.2428 12.1579 50.6512C12.1579 49.8914 12.1579 49.1316 12.1579 48.3488C15.0237 48.3488 17.8895 48.3488 20.8421 48.3488C14.375 38.1704 8.17148 28.5987 0 20.7209C0.691325 14.077 1.37226 11.9217 5.31908 7.48256C6.42957 6.53285 7.54007 5.58314 8.68421 4.60465C5.81842 3.84488 2.95263 3.08512 0 2.30233C0 1.54256 0 0.782791 0 0Z" fill="#000B61"/>
</svg>
