<svg width="45" height="22" viewBox="0 0 45 22" fill="none" xmlns="http://www.w3.org/2000/svg">
<path d="M22.7452 2.11049C26.7577 4.77577 30.4861 7.79917 34.2307 10.9105C35.244 11.7272 36.2574 12.544 37.3015 13.3855C39.8166 15.4374 42.2807 17.5674 44.7345 19.7105C44.7345 20.2913 44.7345 20.8721 44.7345 21.4705C34.2026 20.9704 24.14 19.1503 13.9102 16.4105C12.7936 16.1263 11.677 15.8422 10.5265 15.5494C7.36984 14.6642 7.36984 14.6642 2.32653 12.6705C1.80821 10.9281 1.28989 9.18569 0.755859 7.39049C2.93506 6.15093 5.13087 4.948 7.33303 3.76049C8.55391 3.08667 9.7748 2.41285 11.0327 1.71862C15.8992 -0.0066136 17.9164 0.208736 22.7452 2.11049Z" fill="#0F557D"/>
</svg>
