<svg width="23" height="34" viewBox="0 0 23 34" fill="none" xmlns="http://www.w3.org/2000/svg">
<path d="M19.2303 0.548828C20.267 1.12963 21.3036 1.71043 22.3717 2.30883C21.0435 3.54303 19.7153 4.77723 18.3468 6.04883C14.0309 10.6748 14.0309 10.6748 14.4202 16.3888C16.2648 22.2252 18.6669 25.9158 22.3717 30.4688C21.8533 31.6304 21.335 32.792 20.801 33.9888C20.1166 32.9066 19.4323 31.8244 18.7272 30.7095C13.2309 22.351 9.17343 16.4728 0.382324 12.8688C0.382324 12.288 0.382324 11.7072 0.382324 11.1088C2.86054 10.9455 2.86054 10.9455 5.38882 10.7788C12.3652 9.11284 14.7004 6.54768 19.2303 0.548828Z" fill="#000C67"/>
</svg>
