<svg width="30" height="22" viewBox="0 0 30 22" fill="none" xmlns="http://www.w3.org/2000/svg">
<path d="M26.8674 0.0498338C28.2837 3.01336 28.8146 5.72439 29.2663 9.08141C29.4592 10.4643 29.4592 10.4643 29.6561 11.8752C29.9394 14.6971 30.094 17.3334 29.938 20.1708C29.4313 20.7744 28.9247 21.3781 28.4027 22C26.8494 21.8428 26.8494 21.8428 25.0443 21.3141C24.4525 21.149 23.8608 20.9839 23.2511 20.8139C21.4825 20.1666 19.994 19.5102 18.4234 18.3416C17.4638 15.4835 17.4638 15.4835 16.8881 12.8541C16.3122 12.9861 15.7363 13.1182 15.1429 13.2542C10.0293 14.3592 5.19407 14.9297 0 14.6833C2.83147 11.8836 5.75705 9.46299 8.87584 7.13791C9.73179 6.49184 10.5877 5.84576 11.4696 5.18011C13.8175 3.7082 13.8175 3.7082 16.8881 3.7082C17.6719 2.81327 18.4392 1.89749 19.191 0.964424C21.7135 -0.175571 24.1954 -0.0225191 26.8674 0.0498338Z" fill="#B0B2CE" fill-opacity="0.48"/>
</svg>
