<svg width="146" height="104" viewBox="0 0 146 104" fill="none" xmlns="http://www.w3.org/2000/svg">
<path d="M141.256 0.0710424C146.329 15.0676 146.329 15.0676 145.736 21.2604C143.048 23.7199 143.048 23.7199 140.36 25.2965C140.705 26.5413 140.705 26.5413 141.057 27.8112C141.337 32.7856 139.603 35.4433 137.28 39.5489C136.869 40.2968 136.458 41.0447 136.034 41.8153C135.197 43.3313 134.353 44.8426 133.501 46.349C132.406 48.3057 131.358 50.2832 130.321 52.2799C129.441 53.9071 129.441 53.9071 128.543 55.5671C128.032 56.5244 127.52 57.4817 126.993 58.468C125.127 60.6122 125.127 60.6122 122.194 61.5857C118.362 61.6264 115.751 60.7272 112.191 59.1617C111.336 58.794 111.336 58.7939 110.463 58.4187C109.074 57.8189 107.691 57.1995 106.31 56.5761C107.396 57.8789 107.396 57.8789 109.894 59.414C112.583 61.6212 112.583 61.6212 113.591 63.6392C113.42 66.722 111.901 67.6747 109.894 69.6934C108.343 70.8329 106.754 71.9106 105.141 72.9372C103.733 73.8416 103.733 73.8416 102.296 74.7643C101.292 75.4009 100.288 76.0375 99.2539 76.6934C97.679 77.7022 96.1054 78.7135 94.5319 79.7251C93.4624 80.4126 92.3925 81.0994 91.3223 81.7855C86.132 85.1162 80.9836 88.5246 75.8447 91.9548C74.6841 92.7283 74.6841 92.7283 73.5 93.5174C72.7583 94.0124 72.0167 94.5074 71.2525 95.0174C70.5375 95.4936 69.8225 95.9698 69.0859 96.4604C67.5259 97.513 65.975 98.5825 64.4306 99.6639C63.6325 100.219 62.8344 100.775 62.012 101.347C61.2924 101.855 60.5728 102.363 59.8314 102.886C57.9238 104 57.9238 104 55.2357 104C56.6709 99.9832 59.1624 97.285 61.851 94.3C62.3287 93.7626 62.8064 93.2251 63.2985 92.6714C64.3102 91.5352 65.3241 90.4014 66.34 89.2699C67.8729 87.562 69.3987 85.8463 70.9235 84.129C75.5345 78.954 80.154 73.8462 85.1285 69.109C87.54 66.7551 89.7458 64.1926 91.9735 61.6212C91.3821 61.6212 90.7908 61.6212 90.1814 61.6212C89.0743 63.1632 87.9679 64.7058 86.8703 66.2564C85.7012 67.6753 85.7012 67.6753 83.6851 68.6213C83.1677 68.6421 82.6502 68.6629 82.117 68.6843C81.221 67.6753 81.221 67.6753 81.165 65.0897C81.1835 64.2781 81.202 63.4664 81.221 62.6302C80.3339 62.6302 79.4468 62.6302 78.5329 62.6302C78.2372 57.9686 77.9415 53.3069 77.6368 48.504C74.7519 49.3161 73.2908 49.858 70.8885 51.5271C70.3098 51.9244 69.7311 52.3218 69.1349 52.7312C68.54 53.1468 67.9452 53.5623 67.3323 53.9905C66.1476 54.8103 64.9622 55.6289 63.7761 56.446C63.2546 56.8095 62.7331 57.173 62.1958 57.5474C61.6731 57.8929 61.1504 58.2383 60.6119 58.5941C59.7389 59.1996 59.7389 59.1996 58.8483 59.8172C56.5101 60.8382 55.6839 60.434 53.4086 59.3351C52.741 59.0191 52.0733 58.703 51.3855 58.3774C50.6971 58.0327 50.0087 57.688 49.2994 57.3329C48.604 57.0038 47.9087 56.6747 47.1923 56.3357C42.0754 53.8648 42.0754 53.8648 40.0029 51.531C40.197 46.4958 41.6822 43.8322 44.5391 40.0534C45.525 38.7306 45.525 38.7306 46.5307 37.3811C47.0378 36.723 47.5449 36.0648 48.0673 35.3867C44.1295 36.8648 42.6001 40.5101 40.3652 44.2491C39.3344 45.8908 39.3344 45.8908 37.3148 48.504C36.132 48.504 34.9492 48.504 33.7306 48.504C32.2189 45.5119 31.6882 43.2504 31.5675 39.8209C31.5327 38.919 31.498 38.0171 31.4622 37.0879C31.4346 36.1311 31.4069 35.1743 31.3785 34.1885C31.3445 33.2083 31.3105 32.228 31.2754 31.2181C30.9964 22.5163 30.9502 13.8221 31.0424 5.11614C30.1554 5.11614 29.2683 5.11614 28.3543 5.11614C28.4963 5.92078 28.6383 6.72541 28.7846 7.55444C29.3464 11.9161 29.4565 16.1891 29.5339 20.5904C29.5525 21.4777 29.5711 22.365 29.5903 23.2791C29.6486 26.0957 29.7016 28.9123 29.7544 31.729C29.7931 33.6459 29.8322 35.5628 29.8716 37.4796C29.9673 42.1633 30.0581 46.8471 30.1464 51.531C29.1613 51.3263 28.1762 51.1216 27.1612 50.9107C23.845 50.1155 23.845 50.1155 21.459 52.3745C20.3813 53.6427 20.3813 53.6427 19.2818 54.9365C16.2772 58.428 14.6792 59.8616 10.4334 60.6122C8.77133 57.5559 7.13609 54.4824 5.50515 51.4049C5.03504 50.5412 4.56493 49.6776 4.08058 48.7877C-0.482434 40.1127 -0.482434 40.1127 0.5769 35.3867C2.11886 32.7144 3.96242 30.4521 5.89717 28.1344C6.96933 26.7993 8.04038 25.4632 9.11033 24.1259C9.64022 23.4715 10.1701 22.8171 10.716 22.1428C12.8102 19.5188 14.7876 16.8109 16.7617 14.0712C17.6644 12.8186 17.6644 12.8186 18.5853 11.5408C20.332 9.16678 20.332 9.16678 21.8441 6.51897C23.8741 4.10712 23.8741 4.10712 26.409 3.48249C27.3909 3.48489 28.3729 3.4873 29.3847 3.48978C30.5085 3.47962 31.6324 3.46945 32.7903 3.45898C34.0255 3.47251 35.2606 3.48623 36.4957 3.50013C37.7853 3.49555 39.0749 3.48839 40.3644 3.47884C43.1102 3.46222 45.8557 3.45952 48.6015 3.46808C55.7589 3.48824 62.9158 3.41627 70.0729 3.34641C71.1405 3.3371 71.1405 3.3371 72.2297 3.32761C86.5822 3.19617 100.849 2.35527 115.158 1.09533C116.669 0.962612 118.18 0.830072 119.691 0.697738C120.39 0.635793 121.088 0.573847 121.808 0.510025C128.298 -0.0340968 134.751 -0.0717049 141.256 0.0710424Z" fill="#103D56"/>
</svg>
