<svg width="68" height="81" viewBox="0 0 68 81" fill="none" xmlns="http://www.w3.org/2000/svg">
<path d="M0 0C6.01153 3.47158 10.154 8.10947 14.9295 14.0304C24.1836 25.2959 33.803 35.8498 43.5897 46.2857C45.0417 47.8818 46.4936 49.4778 47.9896 51.1222C52.0935 55.3236 56.1401 58.656 60.6987 61.9071C62.0765 62.8976 63.4543 63.888 64.8738 64.9085C65.9054 65.6364 66.9371 66.3643 68 67.1143C66.2738 67.878 64.5477 68.6417 62.7692 69.4286C60.7194 67.7818 60.7194 67.7818 58.6282 66.1018C53.4377 62.0009 51.2541 61.4113 45.3333 62.4857C42.0355 66.4604 42.0355 66.4604 39.5577 71.7429C38.2192 74.3204 38.2192 74.3204 36.8538 76.95C36.1997 78.2865 35.5457 79.623 34.8718 81C34.2964 79.4726 33.721 77.9451 33.1282 76.3714C34.7489 71.5935 36.7112 67.1835 38.6859 62.6484C40.4341 56.7358 40.1941 54.4156 38.359 48.6C36.0296 44.5819 36.0296 44.5819 33.0192 40.9339C31.9202 39.5378 30.8211 38.1416 29.6887 36.7031C22.7973 28.3139 15.7589 20.1754 8.60897 12.1771C5.71316 8.93017 2.85285 5.62757 0 2.31429C0 1.55057 0 0.786857 0 0Z" fill="#000B60"/>
</svg>
