<svg width="30" height="58" viewBox="0 0 30 58" fill="none" xmlns="http://www.w3.org/2000/svg">
<path d="M5.78249 0.708984C13.5573 1.28978 21.3321 1.87058 29.3425 2.46898C29.3425 3.04978 29.3425 3.63058 29.3425 4.22898C23.1226 4.22898 16.9028 4.22898 10.4945 4.22898C9.97616 6.98778 9.45784 9.74658 8.92382 12.589C8.63226 14.1408 8.34071 15.6926 8.04032 17.2915C7.17796 22.2187 7.17796 22.2187 7.35315 28.869C14.4586 32.4647 21.7463 34.1658 29.3425 35.909C29.3425 36.4898 29.3425 37.0706 29.3425 37.669C25.1959 37.669 21.0494 37.669 16.7772 37.669C18.8738 43.9943 21.4267 49.5576 24.6305 55.269C22.0389 55.8498 19.4473 56.4306 16.7772 57.029C14.1203 53.2438 11.5132 49.4315 8.92382 45.589C8.17468 44.5317 7.42555 43.4745 6.65371 42.3852C1.06067 33.9692 0.0918468 28.7689 1.07049 18.309C2.2686 12.2356 4.022 6.62709 5.78249 0.708984Z" fill="#020F62"/>
</svg>
