<svg width="24" height="43" viewBox="0 0 24 43" fill="none" xmlns="http://www.w3.org/2000/svg">
<path d="M20.5714 0C21.7029 0.746842 22.8343 1.49368 24 2.26316C22.5504 3.8502 21.1007 5.43724 19.6071 7.07237C14.8966 13.0208 14.8966 13.0208 15.3214 20.3684C17.3348 27.8733 19.9565 32.619 24 38.4737C23.4343 39.9674 22.8686 41.4611 22.2857 43C21.5388 41.6084 20.7919 40.2168 20.0223 38.7831C14.0234 28.035 9.59495 20.4764 0 15.8421C0 15.0953 0 14.3484 0 13.5789C2.70482 13.3689 2.70482 13.3689 5.46429 13.1546C13.0786 11.0123 15.6273 7.71383 20.5714 0Z" fill="#000C67"/>
</svg>
