<svg width="55" height="24" viewBox="0 0 55 24" fill="none" xmlns="http://www.w3.org/2000/svg">
<path d="M28.75 0C28.75 1.13143 28.75 2.26286 28.75 3.42857C20.402 6.11995 14.521 7.51209 6.25 3.42857C2.57812 3.21429 2.57812 3.21429 0 3.42857C0.825 4.38321 1.65 5.33786 2.5 6.32143C5.31865 10.0125 5.31865 10.0125 5.3125 15C5.20937 16.2729 5.10625 17.5457 5 18.8571C5.87656 18.3268 6.75312 17.7964 7.65625 17.25C11.3617 15.372 14.8462 14.4613 18.75 13.7143C18.75 14.8457 18.75 15.9771 18.75 17.1429C22.875 17.7086 27 18.2743 31.25 18.8571C31.6625 20.5543 32.075 22.2514 32.5 24C40.256 20.6807 47.6353 16.7038 55 12C55 10.8686 55 9.73714 55 8.57143C53.5563 8.07643 52.1125 7.58143 50.625 7.07143C49.2667 6.60405 49.2667 6.60405 47.8809 6.12723C45.9879 5.4804 44.0933 4.84175 42.1973 4.21205C29.5888 0 29.5888 0 28.75 0Z" fill="#00CC94"/>
</svg>
