<svg width="91" height="39" viewBox="0 0 91 39" fill="none" xmlns="http://www.w3.org/2000/svg">
<path d="M22.6406 0.0128184C24.7499 0.0218211 26.8591 0.0308239 29.0322 0.0400994C34.8657 0.724552 38.3837 2.52398 43.75 5.39627C47.3361 6.65228 50.941 7.81621 54.5576 8.90642C57.5946 9.8292 57.5946 9.8292 60.6929 10.7706C62.7897 11.3978 64.8865 12.025 67.0469 12.6712C69.1775 13.3164 71.3082 13.9616 73.5034 14.6263C78.7509 16.2141 83.9997 17.793 89.25 19.3641C90.1163 23.9735 90.1163 23.9735 91 28.676C87.1217 34.2422 83.9218 37.6398 78.2006 38.8314C73.3 39.0754 68.4492 39.0269 63.5469 38.861C61.0716 38.8565 61.0716 38.8565 58.5464 38.8519C43.2212 38.5997 29.1057 35.6947 14.9844 27.5121C13.2541 26.5278 11.5239 25.5435 9.74121 24.5293C5.25 21.6921 5.25 21.6921 0 17.0362C4.62513 2.16718 10.9696 -0.202585 22.6406 0.0128184Z" fill="#0C98A4"/>
</svg>
