<svg width="101" height="102" viewBox="0 0 101 102" fill="none" xmlns="http://www.w3.org/2000/svg">
<path d="M0.0292526 0.481322C18.7793 -1.52678 32.9947 2.85584 50.3068 11.6237C54.1393 13.5588 57.9928 15.4002 61.8541 17.2327C64.3343 18.4458 66.8131 19.664 69.2902 20.8879C70.4255 21.4314 71.5607 21.9749 72.7304 22.5349C83.3437 27.9941 89.6359 37.3534 96.3214 49.1343C97.2123 50.6824 98.1032 52.2305 99.0211 53.8255C101 57.8889 101 57.8889 101 62.4815C99.5122 62.9522 98.0243 63.4228 96.4914 63.9077C94.5682 64.5264 92.645 65.1451 90.6636 65.7825C88.7448 66.3952 86.8261 67.0079 84.8493 67.6392C80.2937 68.7503 80.2937 68.7503 78.3686 71.6667C85.2625 76.9712 92.1564 82.2757 99.2591 87.7409C86.4335 99.0193 71.088 103.581 55.7372 101.519C49.2663 99.5793 42.9268 97.2121 36.5876 94.6298C37.1621 92.3564 37.7366 90.0831 38.3285 87.7409C37.1077 87.5514 35.8869 87.362 34.6291 87.1668C28.4631 85.045 24.4742 80.9159 19.1789 76.2593C16.7675 74.9265 14.3287 73.6772 11.8686 72.5099C10.0048 71.6169 10.0048 71.6169 8.10332 70.7058C7.16235 70.2651 6.22137 69.8245 5.25188 69.3704C4.37073 60.474 3.50434 51.5753 2.64056 42.6759C2.39147 40.1628 2.14238 37.6497 1.88573 35.0604C1.6501 32.6184 1.41447 30.1763 1.1717 27.6602C0.952902 25.4235 0.734103 23.1868 0.508673 20.8823C0.01348 14.0412 -0.0517852 7.3492 0.0292526 0.481322Z" fill="#007ABF"/>
</svg>
