<svg width="337" height="153" viewBox="0 0 337 153" fill="none" xmlns="http://www.w3.org/2000/svg">
<path d="M5.78224 0.708984C13.557 1.28978 21.3318 1.87058 29.3422 2.46898C29.3422 3.04978 29.3422 3.63058 29.3422 4.22898C23.1224 4.22898 16.9026 4.22898 10.4942 4.22898C9.97592 6.98778 9.4576 9.74658 8.92358 12.589C8.63202 14.1408 8.34047 15.6926 8.04008 17.2915C7.17772 22.2187 7.17772 22.2187 7.35291 28.869C14.4583 32.4647 21.7461 34.1658 29.3422 35.909C29.3422 36.4898 29.3422 37.0706 29.3422 37.669C25.1957 37.669 21.0491 37.669 16.7769 37.669C19.015 45.1118 22.2803 50.1724 26.7899 56.149C28.0007 57.7643 29.2114 59.3797 30.4589 61.044C32.2386 63.4126 32.2386 63.4126 34.0542 65.829C35.1759 67.4443 36.2976 69.0597 37.4533 70.724C40.0358 74.7565 40.0358 74.7565 43.4782 76.389C46.9516 76.2339 50.4213 75.9613 53.8839 75.619C56.6841 75.3501 56.684 75.3501 59.5408 75.0759C60.9783 74.9284 62.4158 74.7809 63.8969 74.629C62.3419 75.5002 62.3419 75.5002 60.7556 76.389C61.3061 82.0951 61.6386 84.5119 65.5657 88.379C66.57 89.0687 67.5742 89.7584 68.6089 90.469C65.499 91.3402 65.499 91.3402 62.3262 92.229C62.4 96.4443 62.4 96.4443 63.8969 101.029C67.9001 104.436 67.9001 104.436 73.0755 107.106C74.0129 107.638 74.9503 108.169 75.9162 108.717C78.9653 110.437 82.0321 112.113 85.1009 113.789C87.1936 114.958 89.2849 116.131 91.3747 117.306C94.4928 119.059 97.6119 120.809 100.737 122.546C110.003 127.699 119.11 133.157 128.135 138.823C135.989 143.607 142.117 146.104 150.873 143.379C152.233 142.762 153.594 142.145 154.996 141.509C153.86 135.704 153.86 135.704 148.615 133.259C147.092 132.497 145.57 131.734 144.001 130.949C145.556 130.368 147.111 129.787 148.713 129.189C149.231 128.027 149.75 126.866 150.284 125.669C151.32 126.831 152.357 127.992 153.425 129.189C158.268 129.483 158.268 129.483 162.849 129.189C164.404 125.704 164.404 125.704 165.99 122.149C167.545 122.149 169.1 122.149 170.702 122.149C171.48 118.664 171.48 118.664 172.273 115.109C173.31 118.013 174.346 120.917 175.414 123.909C183.534 123.195 183.534 123.195 191.121 120.389C191.163 117.236 191.194 114.082 191.219 110.929C191.237 109.173 191.256 107.417 191.274 105.608C191.404 101.057 191.404 101.057 189.55 97.509C190.781 96.9645 192.012 96.42 193.281 95.859C197.283 94.1144 197.283 94.1144 200.545 92.229C200.545 95.7138 200.545 99.1986 200.545 102.789C197.435 101.918 197.435 101.918 194.262 101.029C194.282 108.204 194.555 115.106 195.833 122.149C199.563 126.37 199.563 126.37 205.257 127.429C206.543 127.837 207.828 128.246 209.153 128.666C217.066 131.313 217.066 131.313 224.547 128.605C227.528 125.932 227.528 125.932 227.835 122.039C228.159 120.914 228.483 119.788 228.817 118.629C230.232 118.218 231.647 117.808 233.106 117.385C238.751 114.883 240.632 112.167 244.019 106.661C252.197 93.3774 252.197 93.3774 258.607 91.1608C265.523 90.2349 272.207 91.0133 279.078 92.229C278.56 90.4866 278.042 88.7442 277.508 86.949C278.682 87.0307 279.856 87.1123 281.066 87.1965C282.613 87.26 284.16 87.3235 285.754 87.389C287.284 87.4707 288.815 87.5523 290.392 87.6365C296.067 86.7483 297.3 84.6573 301.068 79.909C303.003 76.885 304.867 73.8019 306.669 70.6759C308.201 68.0299 308.201 68.0299 309.764 65.3305C310.814 63.4985 311.864 61.6665 312.946 59.779C314.53 57.0412 314.53 57.0412 316.145 54.248C318.99 49.3199 321.828 44.3893 324.628 39.429C325.514 37.9042 326.401 36.3795 327.314 34.8086C330.35 28.5428 329.538 25.073 327.769 18.309C323.73 11.7434 318.663 6.31132 313.633 0.708984C321.432 0.97381 324.951 5.6914 330.045 11.6402C334.788 17.7715 336.5 22.0719 336.295 30.2715C334.988 37.8077 330.663 43.207 326.493 49.109C324.616 51.8769 322.743 54.6476 320.873 57.4209C319.924 58.8119 318.976 60.2029 317.998 61.6361C312.922 69.2521 308.254 77.1843 303.587 85.1202C296.642 96.6845 296.642 96.6845 291.644 99.269C285.396 99.7581 279.17 99.2159 272.931 98.7534C265.957 98.4708 262.687 98.6353 256.647 102.954C252.167 108.32 248.167 113.784 244.327 119.729C234.386 135.042 234.386 135.042 225.387 137.714C217.936 138.056 212.185 136.15 205.159 133.589C193.569 129.154 193.569 129.154 181.697 130.949C176.277 134.654 171.296 139.006 166.282 143.358C158.637 149.644 152.077 153.161 142.43 152.069C136.848 150.204 131.875 147.388 126.724 144.369C124.461 143.097 124.461 143.097 122.152 141.8C117.837 139.362 113.539 136.886 109.246 134.401C104.959 131.934 100.651 129.513 96.3454 127.089C91.6839 124.462 87.0299 121.818 82.3779 119.169C80.0906 117.867 77.8022 116.568 75.5124 115.272C59.3814 106.112 44.8004 97.3102 33.2689 81.339C32.5385 80.3491 31.8081 79.3592 31.0556 78.3393C25.4337 70.6448 20.0922 62.7433 14.9854 54.609C13.0051 51.4762 10.9567 48.3964 8.84995 45.369C-0.445905 31.7027 -0.445904 31.7027 0.370808 21.994C1.75179 14.7183 3.68264 7.76707 5.78224 0.708984Z" fill="#00244E"/>
</svg>
