<svg width="39" height="39" viewBox="0 0 39 39" fill="none" xmlns="http://www.w3.org/2000/svg">
<path fill-rule="evenodd" clip-rule="evenodd" d="M11.7001 0C8.59703 0 5.62109 1.23268 3.42691 3.42685C1.23274 5.62103 6.10352e-05 8.59697 6.10352e-05 11.7L6.10352e-05 27.3C6.10352e-05 30.403 1.23274 33.379 3.42691 35.5731C5.62109 37.7673 8.59703 39 11.7001 39H27.3001C30.4031 39 33.379 37.7673 35.5732 35.5731C37.7674 33.379 39.0001 30.403 39.0001 27.3V11.7C39.0001 8.59697 37.7674 5.62103 35.5732 3.42685C33.379 1.23268 30.4031 0 27.3001 0L11.7001 0ZM10.4001 19.5C10.4001 17.0865 11.3588 14.7719 13.0654 13.0653C14.772 11.3587 17.0866 10.4 19.5001 10.4C21.9135 10.4 24.2282 11.3587 25.9347 13.0653C27.6413 14.7719 28.6001 17.0865 28.6001 19.5C28.6001 21.9135 27.6413 24.2281 25.9347 25.9347C24.2282 27.6413 21.9135 28.6 19.5001 28.6C17.0866 28.6 14.772 27.6413 13.0654 25.9347C11.3588 24.2281 10.4001 21.9135 10.4001 19.5ZM28.6001 10.4H31.2001V7.8H28.6001V10.4Z" fill="#1C7A9C"/>
</svg>
