<svg width="78" height="29" viewBox="0 0 78 29" fill="none" xmlns="http://www.w3.org/2000/svg">
<path d="M0.766113 0.310547C5.0038 2.20819 9.23855 4.11243 13.4664 6.03742C15.1712 6.79745 16.876 7.55748 18.6324 8.34055C21.1775 9.4874 21.1775 9.4874 23.7739 10.6574C35.5462 15.0699 47.2979 14.6066 59.5679 14.5005C61.3163 14.4926 63.0646 14.4847 64.8659 14.4765C69.1536 14.4559 73.4411 14.427 77.7288 14.3905C77.2105 15.5521 76.6921 16.7137 76.1581 17.9105C73.2706 18.9005 73.2706 18.9005 69.5196 19.6705C67.4757 20.1061 67.4757 20.1061 65.3905 20.5505C63.2372 20.9861 63.2372 20.9861 61.0404 21.4305C49.7925 23.7529 49.7925 23.7529 38.7198 26.9305C33.9846 28.3979 30.7356 29.3591 25.8968 28.4705C22.4241 25.3768 22.4241 25.3768 19.0251 21.2105C14.641 15.9935 10.2985 11.0541 5.37995 6.47055C3.85738 5.01855 2.33482 3.56655 0.766113 2.07055C0.766113 1.48975 0.766113 0.908947 0.766113 0.310547Z" fill="#21266D"/>
</svg>
