<svg width="211" height="8" viewBox="0 0 211 8" fill="none" xmlns="http://www.w3.org/2000/svg">
<path d="M0 0.0707569C13.8638 0.0373028 27.7275 0.0167248 41.5913 0.00503097C42.6507 0.00413077 43.7102 0.00323057 44.8017 0.0023031C83.2961 -0.0264541 121.786 0.216492 160.279 0.596564C160.916 0.602846 161.554 0.609128 162.21 0.6156C178.474 0.776056 194.737 0.944585 211 1.12237C210.702 1.81644 210.405 2.5105 210.098 3.2256C208.313 3.63822 208.313 3.63822 205.912 3.85051C205.002 3.93452 204.091 4.01854 203.154 4.1051C201.636 4.2269 201.636 4.2269 200.088 4.35116C199.022 4.44193 197.956 4.5327 196.858 4.62622C193.269 4.92158 189.68 5.19485 186.09 5.46028C185.473 5.5067 184.856 5.55312 184.22 5.60094C162.297 7.24208 140.398 7.89615 118.432 7.95012C116.192 7.95773 113.953 7.97304 111.713 7.99028C94.6061 8.10635 77.9082 7.19218 60.9252 4.75467C50.0518 3.20069 39.2996 2.56728 28.3475 2.50261C25.04 2.46172 21.7326 2.41099 18.4252 2.35884C17.2867 2.34348 17.2867 2.34348 16.1252 2.32781C10.7192 2.23842 5.36971 1.89328 0 1.12237C0 0.775338 0 0.428306 0 0.0707569Z" fill="#BCD8FC"/>
</svg>
