<svg width="32" height="43" viewBox="0 0 32 43" fill="none" xmlns="http://www.w3.org/2000/svg">
<path d="M0 0C0.340645 0.810857 0.68129 1.62171 1.03226 2.45714C7.94006 3.77624 14.7598 3.83768 21.7419 3.7625C23.2299 3.75419 23.2299 3.75419 24.748 3.7457C27.1654 3.73139 29.5827 3.71129 32 3.68571C28.7979 9.52405 25.3588 15.0518 21.7555 20.5531C19.368 24.2052 17.0149 27.8759 14.7258 31.6165C14.2689 32.3528 13.812 33.0892 13.3412 33.8478C12.4621 35.2666 11.5931 36.6944 10.7354 38.1316C9.52419 40.0677 9.52419 40.0677 7.22581 43C5.86323 43 4.50065 43 3.09677 43C0.721668 38.497 0.713164 34.5176 0.604839 29.2746C0.574852 28.017 0.574852 28.017 0.54426 26.734C0.482776 24.068 0.434752 21.402 0.387097 18.7357C0.347663 16.9232 0.30735 15.1108 0.266129 13.2983C0.167234 8.8658 0.0804034 4.43307 0 0Z" fill="#177277"/>
</svg>
