<svg width="52" height="40" viewBox="0 0 52 40" fill="none" xmlns="http://www.w3.org/2000/svg">
<path d="M51.1186 0C51.5549 1.42703 51.5549 1.42703 52 2.88288C50.5216 5.03903 49.033 6.96968 47.3729 8.94895C46.3895 10.1581 45.4084 11.3694 44.4293 12.5826C43.6763 13.5135 43.6763 13.5135 42.908 14.4632C40.6166 17.3549 38.4535 20.3485 36.3008 23.3634C35.8987 23.9208 35.4965 24.4782 35.0821 25.0526C33.3195 27.5066 31.6127 29.9702 29.9695 32.5225C27.6484 36.0848 26.2017 38.1073 22.5297 40C17.4014 39.019 15.378 35.1194 12.339 30.7508C11.5796 29.6972 10.8187 28.6449 10.0564 27.5938C6.52374 22.6835 3.13297 17.7183 0 12.4925C1.12476 12.734 1.12476 12.734 2.27225 12.9805C18.0677 15.8753 34.3948 14.1266 47.9237 4.08408C50.2596 2.18412 50.2596 2.18412 51.1186 0Z" fill="#1A656F"/>
</svg>
