<svg width="39" height="15" viewBox="0 0 39 15" fill="none" xmlns="http://www.w3.org/2000/svg">
<path d="M0 0C0.446302 0.100977 0.892605 0.201953 1.35243 0.30599C13.9636 3.10343 26.315 5.25085 39 1.66667C38.0361 4.74393 36.939 7.40304 35.1 10C32.2927 11.4647 29.51 11.7619 26.4225 12.0833C24.8767 12.3001 23.3309 12.5171 21.7852 12.7344C21.0268 12.8278 20.2684 12.9213 19.4871 13.0176C15.8235 13.5147 12.2047 14.2508 8.58 15C7.14411 12.8168 5.71632 10.6278 4.29 8.4375C3.88077 7.81553 3.47155 7.19355 3.04992 6.55273C2.46926 5.65845 2.46926 5.65845 1.87687 4.74609C1.51742 4.19623 1.15796 3.64636 0.787617 3.07983C0 1.66667 0 1.66667 0 0Z" fill="#3C8884"/>
</svg>
