<svg width="50" height="38" viewBox="0 0 50 38" fill="none" xmlns="http://www.w3.org/2000/svg">
<path d="M16.3339 0.207222C16.8913 0.28778 17.4488 0.368338 18.0232 0.451338C19.5293 0.604285 20.8312 0.539536 22.3274 0.333217C26.1045 -0.00329939 28.5345 0.07722 31.5297 2.73679C33.8117 5.14102 35.9486 7.64207 38.0068 10.2934C40.8121 14.2112 40.8121 14.2112 44.7487 16.0969C46.5845 16.0162 48.2284 15.8231 50 15.2751C49.3537 16.7412 49.3537 16.7412 46.9704 17.8523C43.4202 19.7901 42.0801 22.9821 40.3054 26.8208C39.9896 27.4719 39.6738 28.123 39.3485 28.7938C38.5772 30.3891 37.8198 31.9909 37.0738 33.6016C36.8605 33.1178 36.6472 32.634 36.4275 32.1355C37.3202 29.829 38.2945 27.6008 39.3119 25.3633C39.5189 24.888 39.726 24.4126 39.9393 23.9229C40.1329 23.4946 40.3266 23.0663 40.5261 22.625C41.1204 20.5504 41.1328 18.9115 40.9517 16.7412C38.3609 11.0497 33.5898 5.85097 28.6718 2.81303C25.1131 1.76528 21.7517 1.52402 18.0885 1.57599C17.6448 1.57523 17.2012 1.57448 16.7441 1.5737C11.6718 1.53709 11.6718 1.53709 7.37152 4.12524C6.53695 5.61847 5.9559 7.02819 5.40466 8.67752C5.01809 9.43349 4.63151 10.1895 4.23322 10.9683C3.3405 13.4198 3.24178 14.8358 3.46573 17.4743C4.46658 19.7723 4.46658 19.7723 5.89192 22.0215C6.13732 22.4349 6.38273 22.8482 6.63557 23.2741C7.41533 24.5852 8.20649 25.8867 8.99975 27.1873C9.79394 28.4994 10.5854 29.8132 11.3709 31.132C12.0804 32.3219 12.7989 33.5049 13.5178 34.6876C13.8264 35.2969 14.135 35.9061 14.453 36.5339C14.2397 37.0177 14.0264 37.5015 13.8067 38C11.488 37.1233 11.1473 36.3856 9.78997 34.1428C9.39965 33.5036 9.00932 32.8643 8.60717 32.2057C8.20352 31.5324 7.79987 30.8591 7.38398 30.1654C6.98283 29.5063 6.58167 28.8472 6.16836 28.1681C5.38967 26.8861 4.61662 25.5996 3.84979 24.3084C3.02134 22.9394 2.13932 21.6121 1.24152 20.3006C-0.0700732 17.5751 -0.224312 15.3407 0.234186 12.3428C2.85071 2.29112 7.42545 -0.894727 16.3339 0.207222Z" fill="#010D5F"/>
</svg>
