<svg width="28" height="19" viewBox="0 0 28 19" fill="none" xmlns="http://www.w3.org/2000/svg">
<path d="M18.8837 0.216378C20.1021 1.47191 20.1021 1.47191 21.1221 3.23855C21.4981 3.87838 21.8742 4.5182 22.2616 5.17741C22.6511 5.8869 23.0406 6.59639 23.4419 7.32738C23.8716 8.1102 24.3014 8.89302 24.7442 9.69956C25.8466 11.7432 26.9312 13.7958 28 15.8606C21.2635 19.7379 14.3269 19.7187 7.0814 17.4606C4.22176 16.4593 2.26436 15.1719 0 13.0162C1.63959 11.547 3.28178 10.0813 4.92442 8.61624C5.38315 8.20513 5.84187 7.79401 6.3145 7.37043C7.67429 6.1592 9.04446 4.96361 10.4186 3.77188C10.8222 3.41014 11.2259 3.04841 11.6418 2.67571C14.0888 0.590375 15.771 -0.49119 18.8837 0.216378Z" fill="#10154F"/>
</svg>
