<svg width="90" height="53" viewBox="0 0 90 53" fill="none" xmlns="http://www.w3.org/2000/svg">
<path d="M0 0C1.94772 0.548048 1.94772 0.548048 3.9348 1.10717C9.35388 2.11303 14.4093 2.54867 19.8633 2.70941C21.5946 2.76436 23.3259 2.81932 25.1097 2.87593C28.7196 2.97531 32.33 3.04712 35.9405 3.09197C37.6674 3.15583 39.3942 3.2197 41.1734 3.2855C42.7388 3.3191 44.3041 3.3527 45.9169 3.38732C51.4959 4.98111 53.6159 7.93713 57.1154 13.8261C57.5481 20.163 57.5481 20.163 57.1154 25.3478C58.2822 25.4904 59.4491 25.633 60.6513 25.7799C67.6912 28.3553 72.6127 33.4353 78.4255 39.1739C79.5421 40.2433 80.6588 41.3126 81.8093 42.4144C84.5808 45.1009 87.2961 47.8897 90 50.6957C90 51.4561 90 52.2165 90 53C78.3946 52.3453 67.3062 49.9622 56.0337 46.375C54.8032 46.0029 53.5728 45.6309 52.3051 45.2476C48.8266 44.0887 48.8266 44.0887 43.2692 41.4783C42.6981 39.197 42.1269 36.9157 41.5385 34.5652C39.6276 35.0152 39.6276 35.0152 37.678 35.4744C23.808 38.0846 23.808 38.0846 17.8486 32.5489C16.5278 30.1726 15.207 27.7962 13.8462 25.3478C11.3696 21.7333 8.88083 18.1337 6.38221 14.5462C0 5.20076 0 5.20076 0 0Z" fill="#006F9E"/>
</svg>
