<svg width="109" height="70" viewBox="0 0 109 70" fill="none" xmlns="http://www.w3.org/2000/svg">
<path d="M109 1.36767C108.379 1.56475 107.758 1.76184 107.118 1.9649C102.115 3.55709 97.1197 5.17639 92.1327 6.83489C88.8497 7.91856 85.6678 8.85393 82.3093 9.61159C71.9045 12.2281 67.688 20.9138 62.029 30.3423C58.8725 35.5108 55.5133 40.499 52.1411 45.4885C51.5046 46.4634 50.8682 47.4384 50.2125 48.4429C49.6092 49.3385 49.0059 50.234 48.3843 51.1567C47.8545 51.9561 47.3247 52.7556 46.7788 53.5792C45.1014 55.2931 45.1014 55.2931 40.7693 55.2931C38.9421 51.6589 38.3007 48.912 38.1548 44.7464C38.1128 43.651 38.0709 42.5556 38.0276 41.4269C37.9942 40.2648 37.9608 39.1026 37.9263 37.9052C37.8647 36.1193 37.8647 36.1193 37.8018 34.2973C37.4646 23.7278 37.4087 13.1677 37.5202 2.59324C36.448 2.59324 35.3758 2.59324 34.2711 2.59324C34.4428 3.57058 34.6144 4.54791 34.7912 5.55486C35.4703 10.8527 35.6033 16.0427 35.6968 21.3886C35.7193 22.4663 35.7418 23.544 35.765 24.6544C35.8355 28.0755 35.8995 31.4966 35.9634 34.9178C36.0102 37.2461 36.0574 39.5744 36.1051 41.9027C36.2206 47.5916 36.3305 53.2807 36.4372 58.9698C35.2465 58.7212 34.0558 58.4725 32.829 58.2164C28.8208 57.2505 28.8208 57.2505 25.9369 59.9943C24.6343 61.5347 24.6343 61.5347 23.3055 63.1061C19.6738 67.3471 17.7424 69.0883 12.6106 70C10.6017 66.2877 8.62521 62.5546 6.65393 58.8166C6.08572 57.7676 5.51752 56.7186 4.93209 55.6378C-0.583106 45.1008 -0.583106 45.1008 0.697284 39.3606C2.56101 36.1147 4.78927 33.3669 7.12776 30.5517C8.42365 28.9302 9.7182 27.3072 11.0114 25.6829C11.6519 24.8881 12.2923 24.0932 12.9522 23.2743C15.4833 20.087 17.8734 16.7979 20.2595 13.4702C21.3505 11.9489 21.3505 11.9489 22.4636 10.3967C24.5766 7.52098 24.5766 7.52098 26.3573 4.30201C28.856 1.36767 28.856 1.36767 32.2259 0.575985C33.55 0.564124 34.8741 0.552263 36.2383 0.540042C37.338 0.517817 37.338 0.517817 38.4599 0.495142C40.8773 0.453682 43.293 0.45541 45.7106 0.458058C47.3938 0.438863 49.0769 0.417172 50.7601 0.393091C54.2852 0.348655 57.8098 0.323665 61.3352 0.314436C65.8514 0.30259 70.3667 0.259178 74.8826 0.203318C79.1928 0.150793 83.503 0.111531 87.8133 0.0750651C88.6346 0.067513 89.456 0.0599609 90.3022 0.05218C92.63 0.0337029 94.9577 0.024348 97.2855 0.0182146C99.2717 0.00919838 99.2717 0.00919837 101.298 0C104.091 0.11778 106.351 0.427299 109 1.36767Z" fill="#249F91"/>
</svg>
