<svg width="75" height="50" viewBox="0 0 75 50" fill="none" xmlns="http://www.w3.org/2000/svg">
<path d="M72.633 0.70974C73.4105 2.45214 73.4105 2.45214 74.2037 4.22974C72.5058 4.21294 72.5058 4.21294 70.7736 4.19579C65.5999 4.18042 60.4306 4.25927 55.2575 4.33974C53.4768 4.32046 51.6961 4.30117 49.8614 4.2813C40.9596 4.48487 34.9667 4.63891 28.5132 11.971C27.7399 13.0472 26.9666 14.1235 26.1699 15.2323C23.8385 18.4532 21.4625 20.45 18.445 22.8197C13.9936 26.7013 13.9936 26.7013 14.322 32.3897C16.2536 38.1615 18.6808 41.9337 22.3717 46.4697C21.8533 47.6313 21.335 48.7929 20.801 49.9897C20.1166 48.9075 19.4323 47.8254 18.7272 46.7104C13.2309 38.3519 9.17343 32.4737 0.382324 28.8697C0.382324 28.2889 0.382324 27.7081 0.382324 27.1097C1.96968 27.0734 3.55703 27.0371 5.19249 26.9997C12.2247 25.9747 15.5211 21.4298 20.0463 15.6629C20.8137 14.7939 21.581 13.925 22.3717 13.0297C23.4083 13.0297 24.4449 13.0297 25.513 13.0297C25.9341 11.9407 26.3553 10.8517 26.7892 9.72974C28.6543 5.98974 28.6543 5.98974 33.3663 2.46974C36.4912 1.90857 36.4912 1.90857 40.0233 1.74099C41.312 1.67293 42.6007 1.60486 43.9284 1.53474C45.2698 1.48029 46.6112 1.42584 47.9932 1.36974C49.3163 1.30168 50.6394 1.23361 52.0027 1.16349C58.8837 0.825893 65.7441 0.634183 72.633 0.70974Z" fill="#031174"/>
</svg>
