<svg width="33" height="13" viewBox="0 0 33 13" fill="none" xmlns="http://www.w3.org/2000/svg">
<path d="M0 0C0.377641 0.087513 0.755281 0.175026 1.14437 0.265191C11.8153 2.68964 22.2666 4.55073 33 1.44444C32.1844 4.1114 31.2561 6.41597 29.7 8.66667C27.3246 9.93607 24.97 10.1937 22.3575 10.4722C21.0495 10.6601 19.7415 10.8481 18.4336 11.0365C17.7919 11.1175 17.1502 11.1985 16.489 11.2819C13.3891 11.7127 10.327 12.3507 7.26 13C6.04502 11.1079 4.83689 9.21076 3.63 7.3125C3.28373 6.77346 2.93746 6.23441 2.5807 5.67904C2.08938 4.90399 2.08938 4.90399 1.58813 4.11328C1.28397 3.63673 0.979816 3.16018 0.666445 2.66919C0 1.44444 0 1.44444 0 0Z" fill="#3C8884"/>
</svg>
