<svg width="1229" height="1057" viewBox="0 0 1229 1057" fill="none" xmlns="http://www.w3.org/2000/svg">
<path opacity="0.5" fill-rule="evenodd" clip-rule="evenodd" d="M644.952 18.3636C764.435 2.80715 775.089 -13.6955 889.821 18.3632C1001.08 49.4523 1017.82 190.828 1065.85 280.71C1091.8 329.266 1068.07 353.41 1116.22 387.99C1172.68 428.535 1243.51 468.899 1226.4 529.63C1205.34 604.41 1189.64 676.971 1166.43 751.303C1142.53 827.9 1124.42 803.728 1116.22 882.615C1109.46 947.686 1046.93 1027.39 969.463 1032.74C869.085 1039.68 839.204 1073.13 744.761 1043.73C698.124 1029.21 603.284 1028.98 556.749 1043.73C456.818 1075.4 394.764 1039.94 288.059 1043.73C204.929 1046.68 122.543 985.309 87.4844 921.902C50.5886 855.171 109.424 776.421 99.8212 703.283C91.8359 642.464 4.29193 584.479 35.9476 529.375C74.0236 463.095 -43.3774 386.651 18.2447 334.35C58.0983 300.525 80.9353 230.472 99.8212 185.596C128.938 116.411 319.641 97.3728 404.903 81.4983C499.506 63.8846 549.197 30.8306 644.952 18.3636Z" fill="url(#paint0_linear_1_7670)" fill-opacity="0.35"/>
<defs>
<linearGradient id="paint0_linear_1_7670" x1="707.677" y1="-47.8593" x2="707.677" y2="980.697" gradientUnits="userSpaceOnUse">
<stop stop-color="#5AFFEB"/>
<stop offset="1" stop-color="#C4C4C4" stop-opacity="0"/>
</linearGradient>
</defs>
</svg>
