<svg width="20" height="14" viewBox="0 0 20 14" fill="none" xmlns="http://www.w3.org/2000/svg">
<path d="M18.75 0C19.1625 0 19.575 0 20 0C20 2.541 20 5.082 20 7.7C19.1105 7.33184 19.1105 7.33184 18.2031 6.95625C16.9721 6.66119 16.9721 6.66119 15.625 7C13.8876 8.4715 12.4087 10.0777 10.8936 11.8289C9.27576 13.3961 8.3482 13.7742 6.25 14C5.20391 12.0488 4.1639 10.0935 3.125 8.1375C2.67786 7.30373 2.67786 7.30373 2.22168 6.45312C1.9397 5.92074 1.65771 5.38836 1.36719 4.83984C1.10535 4.34863 0.843506 3.85742 0.57373 3.35132C0 2.1 0 2.1 0 0.7C6.03526 1.4523 11.2556 3.12778 16.875 5.6C17.0684 4.93587 17.2617 4.27175 17.4609 3.5875C18.125 1.4 18.125 1.4 18.75 0Z" fill="#00A2D5"/>
</svg>
