<svg width="46" height="33" viewBox="0 0 46 33" fill="none" xmlns="http://www.w3.org/2000/svg">
<path d="M21.1614 0.0232841C28.1237 0.115356 32.42 1.73453 37.6855 7.36604C45.6736 17.1309 45.6736 17.1309 46 21.643C45.7374 25.0143 45.3042 26.727 43.5204 29.4548C33.3586 36.2845 17.6153 31.6908 7.01129 28.576C4.31515 27.5377 3.868 26.6792 2.30504 24.0173C1.90207 23.3523 1.49909 22.6873 1.08391 22.0022C-0.0723343 19.2137 -0.163347 17.5848 0.165834 14.5153C1.27703 11.5631 1.27703 11.5631 2.73288 8.5834C3.20939 7.59104 3.6859 6.59869 4.17685 5.57626C7.73598 -1.15953 14.931 0.156708 21.1614 0.0232841Z" fill="#36979E"/>
</svg>
