<svg width="174" height="172" viewBox="0 0 174 172" fill="none" xmlns="http://www.w3.org/2000/svg">
<path d="M150.527 0C156.037 0.251881 158.187 2.0049 162.047 7.07971C162.047 8.59148 162.047 10.1032 162.047 11.6608C163.772 12.4167 165.497 13.1726 167.274 13.9514C172.135 21.406 174.331 25.3544 173.96 35.3079C172.379 44.4344 170.073 50.1377 166.158 57.9194C165.524 59.1914 164.89 60.4634 164.236 61.774C162.899 64.4429 161.551 67.1027 160.194 69.7536C158.134 73.7781 156.11 77.8305 154.091 81.8897C148.081 93.8288 142.337 105.099 134.17 114.736C129.507 115.854 129.507 115.854 124.913 115.452C123.375 115.348 121.836 115.245 120.251 115.139C118.516 114.939 118.516 114.939 116.746 114.736C116.746 116.248 116.746 117.76 116.746 119.317C115.102 119.11 113.458 118.904 111.764 118.691C98.8328 117.902 98.8328 117.902 87.4609 124.863C83.4478 130.382 79.9431 136.166 76.578 142.385C74.4444 146.306 72.084 150.01 69.7021 153.676C64.7609 154.669 64.7609 154.669 60.9903 153.676C60.8465 155.424 60.7028 157.171 60.5547 158.972C58.9454 166.554 57.4074 168.139 52.2785 172C42.5309 171.789 29.6992 167.513 22.6583 158.257C22.5321 153.631 22.5123 148.999 22.5494 144.37C22.5651 141.84 22.5808 139.309 22.597 136.702C22.6172 134.744 22.6374 132.787 22.6583 130.77C24.3832 130.77 26.1082 130.77 27.8854 130.77C27.8854 127.746 27.8854 124.723 27.8854 121.608C25.0105 123.875 22.1356 126.143 19.1735 128.479C19.7485 129.235 20.3235 129.991 20.9159 130.77C20.987 135.35 20.99 139.933 20.9159 144.513C12.5948 143.441 6.89901 141.665 0.00754728 135.351C0.582527 131.572 1.15751 127.792 1.74991 123.898C4.33732 122.764 4.33732 122.764 6.977 121.608C6.76588 119.461 6.55475 117.314 6.33723 115.103C4.35015 94.2599 2.81375 73.4 1.53212 52.4614C1.37967 50.0006 1.22722 47.5397 1.07015 45.0042C0.405728 33.8469 -0.065974 22.8592 0.00754728 11.6608C50.3057 3.89018 99.9676 1.78165 150.527 0Z" fill="#0A6E68"/>
</svg>
