<svg width="85" height="63" viewBox="0 0 85 63" fill="none" xmlns="http://www.w3.org/2000/svg">
<path d="M31.8465 0.740285C49.7978 -0.145115 67.2355 2.40152 85 5.13318C82.5218 9.09205 80.0245 12.9363 77.1861 16.5547C75.1517 19.1693 73.129 21.7893 71.1501 24.4619C70.2767 25.6333 69.4033 26.8048 68.5299 27.9762C67.946 28.7645 67.3622 29.5527 66.7606 30.3649C66.1556 31.1712 65.5505 31.9776 64.9271 32.8084C64.3664 33.5604 63.8057 34.3124 63.228 35.0872C61.7921 36.762 61.7921 36.762 60.2948 36.762C60.2948 37.6318 60.2948 38.5016 60.2948 39.3977C60.5419 39.1078 60.7889 38.8179 61.0435 38.5192C63.1754 38.2309 63.1754 38.2309 65.5353 38.5192C66.9361 40.0704 66.9361 40.0704 68.1088 42.2531C68.5411 43.0436 68.9735 43.8342 69.4189 44.6486C69.8667 45.5252 70.3145 46.4018 70.7758 47.305C71.517 48.7557 71.517 48.7557 72.2731 50.2358C73.5405 52.7608 74.7875 55.2968 76.0163 57.8479C68.2714 62.6384 60.2964 62.6147 51.9662 59.8247C48.3839 58.4768 46.9402 57.2586 43.8247 54.3336C47.5305 50.8544 51.2363 47.3752 55.0544 43.7906C53.6925 44.9893 52.3306 46.1882 50.969 47.3873C49.615 48.5785 48.2599 49.7681 46.9041 50.9565C46.1504 51.6179 45.3967 52.2794 44.6202 52.9608C43.8568 53.6279 43.0935 54.2949 42.307 54.9822C39.7369 57.2771 37.252 59.6796 34.7943 62.1378C33.3438 63.1194 33.3438 63.1194 31.7529 62.8379C31.2897 62.6409 30.8265 62.4438 30.3492 62.2408C28.7372 62.2137 28.7372 62.2137 26.682 62.4776C24.3601 62.2408 24.3601 62.2408 22.9271 60.7136C22.5044 59.9672 22.0818 59.2209 21.6463 58.4519C21.1386 57.5685 20.631 56.6852 20.108 55.775C19.5264 54.7108 18.9476 53.6444 18.3709 52.5764C18.0407 51.9688 17.7104 51.3612 17.3701 50.7352C15.8795 47.9867 14.3948 45.2345 12.929 42.4676C10.9549 38.7473 8.93961 35.0807 6.8138 31.4768C6.39859 30.769 5.98338 30.0613 5.55559 29.3321C4.75957 27.9835 3.95524 26.6416 3.14151 25.3077C1.54353 22.5901 0.488104 20.6377 0 17.3543C0.511511 14.1136 1.55101 11.7344 2.93023 8.86714C3.39924 7.87503 3.86825 6.88292 4.35148 5.86075C5.64405 3.37602 5.64405 3.37602 7.14133 1.61886C15.0234 -0.20887 25.6355 -1.41182 32.9113 3.2662C37.6434 7.54629 42.4824 12.9492 45.322 19.1904C45.6033 22.5401 45.3676 25.0044 44.1757 28.0517C43.821 28.9776 43.821 28.9776 43.4592 29.9221C43.2092 30.5484 42.9593 31.1747 42.7018 31.82C42.4518 32.4667 42.2019 33.1134 41.9444 33.7796C41.3309 35.3635 40.7072 36.9419 40.0815 38.5192C40.2848 38.0585 40.4881 37.5978 40.6975 37.1232C41.6346 35.0185 42.5891 32.9253 43.544 30.8316C43.8634 30.1068 44.1829 29.3819 44.512 28.6352C46.5629 24.1807 48.2316 21.5883 52.0598 19.1904C51.0759 19.1904 50.0924 19.236 49.1091 19.2728C44.5422 18.4948 41.6451 13.6935 38.631 9.96536C37.9763 9.18051 37.3215 8.39566 36.6469 7.58702C31.8465 1.79076 31.8465 1.79076 31.8465 0.740285Z" fill="#0067A1"/>
</svg>
