<svg width="25" height="54" viewBox="0 0 25 54" fill="none" xmlns="http://www.w3.org/2000/svg">
<path d="M13.3051 0.46875C14.8757 3.98875 14.8757 3.98875 15.5629 7.50875C16.2623 11.3965 16.2623 11.3965 19.5877 14.5487C18.0328 15.1295 16.4778 15.7103 14.8757 16.3087C15.237 20.4948 15.6347 24.6698 16.0537 28.8487C16.1509 30.0194 16.2481 31.1901 16.3482 32.3962C17.2859 41.3272 19.5447 46.316 24.2997 53.2687C18.6789 50.3618 13.7006 46.6109 8.59308 42.7087C9.62972 41.5471 10.6664 40.3855 11.7344 39.1887C11.7675 33.2677 11.7675 33.2677 11.1454 26.6487C10.9713 24.3936 10.7972 22.1385 10.6178 19.815C10.4679 18.0771 10.3181 16.3393 10.1637 14.5487C7.05383 16.2911 3.94391 18.0335 0.739746 19.8287C2.88167 14.5625 5.37177 10.5179 8.78941 6.18875C9.63573 5.10882 10.4821 4.0289 11.354 2.91625C12.3198 1.70474 12.3198 1.70474 13.3051 0.46875Z" fill="#00093E"/>
</svg>
