<svg width="45" height="24" viewBox="0 0 45 24" fill="none" xmlns="http://www.w3.org/2000/svg">
<path d="M0 0.147272C15.1977 -0.58115 29.9605 1.51398 45 3.76132C44.7466 4.1452 44.4932 4.52908 44.2322 4.92459C43.7274 5.69049 43.7274 5.69049 43.2125 6.47186C42.8807 6.975 42.5489 7.47815 42.207 7.99654C41.5387 9.02051 40.8795 10.0523 40.2301 11.0919C35.8423 17.984 27.4295 21.3763 20.3634 22.9497C17.1758 23.4761 13.9905 23.8084 10.7746 24C12.2892 19.8139 13.5977 17.5128 17.1127 15.3263C16.2797 15.3263 15.4471 15.3638 14.6146 15.394C10.7482 14.754 8.29551 10.8039 5.74384 7.73678C5.1895 7.09108 4.63515 6.44537 4.06401 5.78011C0 1.0115 0 1.0115 0 0.147272Z" fill="#0C98A4"/>
</svg>
