<svg width="280" height="151" viewBox="0 0 280 151" fill="none" xmlns="http://www.w3.org/2000/svg">
<path d="M27.1549 0.344332C28.0818 0.478192 29.0087 0.612052 29.9637 0.749968C32.4681 1.00411 34.6328 0.896522 37.1205 0.553692C43.4009 -0.00548245 47.4413 0.128313 52.4216 4.5476C56.216 8.54261 59.7691 12.6985 63.1914 17.1042C67.8557 23.6142 67.8557 23.6142 74.4014 26.7475C77.4538 26.6135 80.1871 26.2925 83.1329 25.3819C82.0582 27.8181 82.0582 27.8181 78.0955 29.6643C72.1925 32.8843 69.9641 38.1883 67.0132 44.5669C66.4882 45.6488 65.9632 46.7307 65.4222 47.8453C64.1397 50.4962 62.8803 53.1579 61.64 55.8343C61.2854 55.0304 60.9307 54.2264 60.5654 53.3981C62.0497 49.5656 63.6697 45.8631 65.3614 42.145C65.7056 41.3552 66.0499 40.5654 66.4045 39.7517C66.7265 39.04 67.0485 38.3283 67.3803 37.595C68.3685 34.1478 68.389 31.4245 68.0879 27.8181C63.78 18.3608 55.8471 9.72229 47.6696 4.67428C41.7524 2.93328 36.1633 2.5324 30.0723 2.61875C29.3347 2.6175 28.597 2.61624 27.837 2.61495C19.4031 2.55411 19.4031 2.55411 12.2528 6.85472C10.8652 9.33595 9.89904 11.6784 8.98247 14.4191C8.3397 15.6752 7.69693 16.9314 7.03468 18.2256C5.55457 22.2874 5.39804 24.6657 5.75854 29.0362C7.33182 32.6942 7.33182 32.6942 9.61214 36.2591C10.0128 36.9268 10.4135 37.5944 10.8264 38.2823C12.1241 40.4385 13.4412 42.5784 14.7587 44.7192C16.099 46.936 17.4339 49.1569 18.7684 51.3782C19.65 52.8448 20.5332 54.3102 21.4181 55.7742C25.3609 62.3077 29.0852 68.9716 32.7248 75.7253C35.6248 81.2319 35.6248 81.2319 39.0725 86.2867C42.4321 86.6753 44.6296 86.7915 47.6696 85.0686C48.0243 85.8726 48.3789 86.6765 48.7443 87.5048C52.3538 86.7614 54.495 85.3106 57.354 82.7371C58.1693 82.0101 58.9845 81.2831 59.8244 80.5341C61.0889 79.3871 61.0889 79.3871 62.3788 78.2168C64.0398 76.7291 65.7007 75.2414 67.3616 73.7537C68.1809 73.0153 69.0001 72.2769 69.8441 71.5161C73.8932 67.8805 77.9752 64.2932 82.0582 60.7067C82.7675 61.1087 83.4767 61.5107 84.2075 61.9248C82.1738 63.9093 80.1368 65.8887 78.0955 67.863C77.164 68.7639 77.164 68.7639 76.2138 69.683C71.1628 74.5267 65.9676 79.1136 60.6212 83.5312C57.6875 86.0098 56.3797 87.1208 55.1921 91.1591C56.371 91.0885 57.5499 91.0178 58.7645 90.945C60.3274 90.8879 61.8904 90.8324 63.4535 90.7785C64.2285 90.7274 65.0036 90.6764 65.8021 90.6238C70.1448 90.5114 71.8359 90.6552 75.3291 93.8523C76.1312 94.9734 76.9333 96.0945 77.7596 97.2496C78.5687 98.2404 79.3777 99.2312 80.2112 100.252C80.998 101.246 81.7849 102.24 82.5955 103.264C83.8548 104.84 83.8548 104.84 85.1394 106.447C86.9847 108.849 88.6186 111.265 90.2524 113.846C92.6911 117.222 92.6911 117.222 96.9017 117.196C98.0321 117.045 99.1625 116.894 100.327 116.739C100.216 117.819 100.106 118.9 99.9913 120.013C100.052 124.208 100.052 124.208 102.476 127.626C105.593 130.55 105.593 130.55 109.663 130.214C114.794 129.071 122.346 127.106 126.119 122.83C126.373 119.753 126.572 116.701 126.723 113.618C126.769 112.752 126.816 111.886 126.864 110.994C126.978 108.849 127.086 106.704 127.193 104.558C127.548 104.558 127.903 104.558 128.268 104.558C128.333 105.497 128.398 106.436 128.465 107.404C128.6 109.236 128.6 109.236 128.738 111.105C128.825 112.321 128.913 113.536 129.003 114.788C129.181 117.932 129.181 117.932 130.417 120.393C132.536 121.55 132.536 121.55 135.052 122.449C135.89 122.78 136.728 123.112 137.591 123.453C140.285 124.094 141.81 123.826 144.388 122.83C143.824 114.68 143.2 106.57 142.238 98.4677C142.948 98.4677 143.657 98.4677 144.388 98.4677C145.451 105.703 146.515 112.939 147.611 120.393C148.675 120.795 149.739 121.197 150.835 121.612C151.19 120.808 151.545 120.004 151.91 119.175C152.154 120.532 152.398 121.889 152.649 123.286C153.636 127.897 153.636 127.897 156.88 129.453C158.144 129.792 158.144 129.792 159.433 130.138C166.533 123.338 173.143 116.038 179.716 108.593C180.746 107.441 181.776 106.288 182.806 105.136C183.778 104.036 184.751 102.936 185.753 101.803C187.072 100.315 187.072 100.315 188.418 98.7975C191.984 94.2713 193.001 90.7563 193.418 84.7641C193.498 83.6775 193.579 82.591 193.662 81.4714C193.714 80.6487 193.767 79.8259 193.821 78.9782C194.885 78.9782 195.949 78.9782 197.045 78.9782C197.4 80.988 197.754 82.9979 198.12 85.0686C202.868 83.4239 204.937 81.0962 207.791 76.542C208.855 76.9439 209.919 77.3459 211.015 77.7601C208.87 80.2257 206.72 82.6864 204.568 85.1448C203.973 85.8286 203.379 86.5124 202.767 87.217C199.602 90.8252 196.384 94.2873 192.977 97.6017C187.469 102.998 182.366 108.838 177.231 114.684C176.254 115.787 175.277 116.89 174.27 118.026C173.342 119.079 172.415 120.132 171.459 121.217C170.199 122.647 170.199 122.647 168.914 124.106C166.896 126.331 166.896 126.331 165.88 128.92C173.186 124.913 180.216 120.561 187.172 115.826C189.223 114.438 191.274 113.052 193.326 111.667C194.426 110.924 195.526 110.181 196.66 109.415C200.636 106.748 204.627 104.113 208.623 101.484C210.047 100.545 211.472 99.6058 212.897 98.6664C215.003 97.2775 217.11 95.8904 219.22 94.509C221.194 93.2167 223.164 91.9174 225.133 90.6167C226.84 89.4953 226.84 89.4953 228.582 88.3512C230.979 86.6159 232.783 85.0277 234.658 82.6324C233.562 78.0366 232.875 76.7831 229.15 74.3342C228.13 73.8568 227.111 73.3795 226.06 72.8877C226.415 72.0837 226.77 71.2798 227.135 70.4515C228.134 70.9053 229.133 71.3591 230.162 71.8266C231.503 72.4097 232.845 72.9917 234.187 73.5729C236.151 74.442 236.151 74.442 238.154 75.3286C242.86 76.747 245.107 77.2623 249.703 75.3239C252.614 71.5483 254.719 67.3453 256.889 62.9906C257.486 61.8475 258.082 60.7044 258.696 59.5267C259.855 57.2972 260.999 55.0583 262.129 52.8096C263.084 50.9123 264.059 49.0266 265.062 47.161C267.125 43.3025 268 41.6575 267.703 37.03C267.437 35.9999 267.171 34.9699 266.897 33.9086C267.961 33.2805 269.025 32.6524 270.121 32.0053C273.63 29.4121 273.63 29.4121 274.016 25.3819C273.602 19.7057 271.682 14.3464 269.986 9.02803C269.046 5.89238 269.046 5.89238 269.046 3.45619C270.465 3.05422 271.883 2.65224 273.345 2.23809C281.484 28.0784 281.484 28.0784 276.962 39.0938C273.894 46.0752 270.573 52.8999 267.233 59.717C266.849 60.5014 266.465 61.2857 266.069 62.0938C256.952 80.6818 256.952 80.6818 252.994 87.9616C252.048 89.7093 252.048 89.7093 251.084 91.4922C244.883 99.878 236.198 105.558 228.143 111.41C225.982 112.992 223.821 114.575 221.661 116.159C220.489 117.017 219.317 117.876 218.11 118.76C213.793 121.933 209.499 125.145 205.206 128.359C203.65 129.522 202.094 130.685 200.538 131.848C198.232 133.572 195.927 135.297 193.624 137.026C191.463 138.648 189.299 140.265 187.134 141.881C186.493 142.364 185.853 142.847 185.193 143.344C178.735 148.153 173.79 151.806 165.88 150.846C160.543 148.271 156.361 144.682 151.91 140.568C142.75 131.359 142.75 131.359 131.299 128.263C127.211 129.149 123.527 130.831 119.671 132.574C113.264 135.469 108.396 137.487 101.402 136.229C94.8885 132.811 91.5645 128.664 87.4986 122.068C86.3846 120.324 85.2694 118.581 84.1529 116.839C83.616 115.992 83.079 115.145 82.5258 114.273C80.4235 110.993 78.2382 107.808 76.0134 104.634C75.3567 103.694 74.7001 102.753 74.0236 101.784C72.4895 99.5545 72.4895 99.5545 70.2371 98.4677C68.3621 98.4366 66.4859 98.4806 64.6121 98.5629C63.4844 98.5943 62.3568 98.6257 61.195 98.658C58.8213 98.7336 56.448 98.8285 54.0755 98.9435C48.7272 99.0621 45.4288 99.1315 40.76 95.9792C37.6144 91.8771 34.8525 87.7032 32.2216 83.1654C31.7083 82.3001 31.195 81.4348 30.6661 80.5433C29.1595 77.9988 27.666 75.4452 26.1768 72.8877C24.7667 70.4766 23.3562 68.0657 21.9454 65.6552C21.2763 64.5106 20.6072 63.3659 19.9178 62.1865C16.4254 56.3374 12.8205 50.5797 9.20941 44.8242C8.16974 43.1657 7.13604 41.5024 6.10906 39.8337C4.84056 37.8125 3.49903 35.8507 2.14841 33.8991C-0.0828055 29.2866 -0.392544 25.5923 0.385323 20.5095C4.73592 3.80706 12.3425 -1.48673 27.1549 0.344332Z" fill="#0A165B"/>
</svg>
