<svg width="175" height="125" viewBox="0 0 175 125" fill="none" xmlns="http://www.w3.org/2000/svg">
<path d="M169.314 0.0853875C175.395 18.11 175.395 18.11 174.684 25.5534C171.462 28.5095 171.462 28.5095 168.24 30.4045C168.653 31.9006 168.653 31.9006 169.075 33.4269C169.411 39.4057 167.332 42.6001 164.548 47.5348C164.055 48.4337 163.563 49.3326 163.055 50.2587C162.051 52.0809 161.039 53.8974 160.019 55.7079C158.706 58.0598 157.449 60.4365 156.207 62.8364C155.152 64.7921 155.152 64.7921 154.076 66.7874C153.463 67.938 152.849 69.0886 152.217 70.2741C149.981 72.8512 149.981 72.8512 146.466 74.0213C141.872 74.0702 138.742 72.9894 134.475 71.1078C133.45 70.6658 133.45 70.6658 132.405 70.2148C130.739 69.4938 129.082 68.7494 127.427 68.0001C128.728 69.566 128.728 69.566 131.723 71.411C134.945 74.0639 134.945 74.0639 136.153 76.4895C135.948 80.1948 134.128 81.3398 131.723 83.766C129.863 85.1357 127.959 86.431 126.025 87.6649C124.337 88.7519 124.337 88.7519 122.615 89.861C121.411 90.6261 120.208 91.3913 118.969 92.1796C117.081 93.3921 115.195 94.6076 113.309 95.8234C112.027 96.6497 110.744 97.4752 109.462 98.2999C103.24 102.303 97.0694 106.4 90.9098 110.523C89.5186 111.452 89.5186 111.452 88.0994 112.401C87.2104 112.996 86.3213 113.591 85.4054 114.204C84.5484 114.776 83.6914 115.348 82.8084 115.938C80.9386 117.203 79.0796 118.489 77.2285 119.788C76.2718 120.456 75.3152 121.124 74.3295 121.812C73.4669 122.422 72.6044 123.033 71.7157 123.661C69.4292 125 69.4292 125 66.2071 125C67.9275 120.172 70.9139 116.929 74.1365 113.341C74.7091 112.695 75.2816 112.049 75.8715 111.384C77.0842 110.018 78.2994 108.656 79.5171 107.296C81.3545 105.243 83.1834 103.181 85.011 101.117C90.5379 94.8966 96.0751 88.7574 102.038 83.0637C104.928 80.2345 107.572 77.1545 110.242 74.0639C109.533 74.0639 108.825 74.0639 108.094 74.0639C106.767 75.9173 105.441 77.7714 104.125 79.6351C102.724 81.3405 102.724 81.3405 100.308 82.4775C99.6873 82.5025 99.067 82.5275 98.428 82.5533C97.3539 81.3405 97.3539 81.3405 97.2868 78.2328C97.309 77.2573 97.3311 76.2818 97.3539 75.2767C96.2907 75.2767 95.2274 75.2767 94.1319 75.2767C93.7774 69.6737 93.423 64.0708 93.0578 58.298C89.5999 59.2742 87.8486 59.9255 84.9691 61.9316C84.2754 62.4092 83.5818 62.8868 82.8672 63.3788C82.1541 63.8783 81.4411 64.3778 80.7065 64.8924C79.2865 65.8778 77.8657 66.8617 76.444 67.8438C75.8189 68.2807 75.1938 68.7175 74.5497 69.1676C73.9233 69.5828 73.2968 69.9979 72.6513 70.4257C71.6049 71.1533 71.6049 71.1533 70.5373 71.8957C67.7348 73.1228 66.7444 72.637 64.0171 71.3163C63.2169 70.9364 62.4167 70.5565 61.5922 70.1651C60.767 69.7508 59.9419 69.3365 59.0917 68.9097C58.2583 68.5142 57.4248 68.1187 56.5661 67.7112C50.4329 64.7414 50.4329 64.7414 47.9487 61.9363C48.1814 55.8843 49.9616 52.683 53.3859 48.1411C54.5676 46.5512 54.5676 46.5512 55.7731 44.9292C56.3809 44.1382 56.9887 43.3471 57.6149 42.5321C52.895 44.3087 51.0618 48.69 48.3829 53.184C47.1474 55.1572 47.1474 55.1572 44.7266 58.298C43.3089 58.298 41.8912 58.298 40.4305 58.298C38.6185 54.7019 37.9825 51.9837 37.8377 47.8616C37.7961 46.7777 37.7545 45.6937 37.7116 44.5769C37.6785 43.4268 37.6453 42.2768 37.6112 41.0919C37.5704 39.9138 37.5297 38.7356 37.4877 37.5218C37.1532 27.0628 37.0978 16.6131 37.2084 6.1492C36.1451 6.1492 35.0818 6.1492 33.9863 6.1492C34.1565 7.11632 34.3267 8.08343 34.5021 9.07985C35.1755 14.3223 35.3074 19.458 35.4002 24.7481C35.4225 25.8145 35.4448 26.881 35.4678 27.9797C35.5377 31.365 35.6012 34.7504 35.6645 38.1358C35.7109 40.4398 35.7578 42.7437 35.805 45.0476C35.9197 50.6771 36.0285 56.3066 36.1344 61.9363C34.9536 61.6903 33.7728 61.4443 32.5562 61.1908C28.5813 60.235 28.5813 60.235 25.7214 62.9501C24.4296 64.4744 24.4296 64.4744 23.1118 66.0294C19.5104 70.226 17.595 71.949 12.5058 72.8512C10.5136 69.1777 8.55353 65.4836 6.59864 61.7847C6.03515 60.7467 5.47167 59.7086 4.8911 58.6391C-0.57826 48.2123 -0.578261 48.2123 0.69149 42.5321C2.53973 39.3202 4.74947 36.6011 7.06853 33.8154C8.35365 32.2108 9.63744 30.6048 10.9199 28.9975C11.5551 28.2109 12.1902 27.4244 12.8446 26.614C15.3547 23.4601 17.7249 20.2054 20.0911 16.9125C21.1731 15.407 21.1731 15.407 22.2769 13.8711C24.3706 11.0178 24.3706 11.0178 26.183 7.8353C28.6162 4.93644 28.6162 4.93644 31.6546 4.18568C32.8316 4.18858 34.0086 4.19147 35.2214 4.19445C36.5685 4.18223 37.9156 4.17001 39.3035 4.15742C40.784 4.17369 42.2644 4.19018 43.7449 4.20689C45.2906 4.20138 46.8363 4.19278 48.382 4.18129C51.6732 4.16132 54.964 4.15808 58.2552 4.16836C66.8343 4.19259 75.4128 4.10609 83.9915 4.02213C85.2712 4.01094 85.2712 4.01094 86.5767 3.99953C103.78 3.84155 120.881 2.83085 138.032 1.31651C139.843 1.15699 141.655 0.997683 143.466 0.838627C144.303 0.764174 145.14 0.68972 146.002 0.613011C153.781 -0.0409818 161.516 -0.0861837 169.314 0.0853875Z" fill="#103D56"/>
</svg>
