<svg width="45" height="31" viewBox="0 0 45 31" fill="none" xmlns="http://www.w3.org/2000/svg">
<path d="M44.3478 0.0656508C44.837 2.29417 44.837 2.29417 45 4.86554C43.0024 7.51513 40.2485 9.21212 37.5815 11.0368C36.541 11.756 35.5008 12.4757 34.4608 13.1957C33.8713 13.603 33.2819 14.0102 32.6746 14.4298C30.3219 16.0664 27.9812 17.7212 25.6411 19.3777C24.3156 20.3141 22.9899 21.2501 21.664 22.1861C20.7841 22.8081 19.9048 23.4311 19.0261 24.055C17.7768 24.9417 16.525 25.8243 15.2726 26.7061C14.7117 27.1063 14.7117 27.1063 14.1395 27.5146C10.7584 29.8853 8.03324 31.3641 3.91304 30.9221C1.71196 29.8935 1.71196 29.8935 0 28.865C0.338728 25.7517 0.338728 25.7517 1.70177 24.381C2.16247 24.0849 2.62317 23.7889 3.09783 23.4838C3.63083 23.1372 4.16382 22.7906 4.71298 22.4335C5.30987 22.0668 5.90676 21.7001 6.52174 21.3223C7.15898 20.9299 7.79623 20.5376 8.45279 20.1334C10.6273 18.8148 12.8123 17.5165 15 16.2224C19.8699 13.3327 24.7202 10.4217 29.4879 7.34851C29.8608 7.10901 30.2336 6.8695 30.6177 6.62273C32.3942 5.4802 34.1652 4.32955 35.9294 3.16619C36.5612 2.75821 37.193 2.35023 37.8439 1.92989C38.3937 1.56882 38.9434 1.20774 39.5099 0.835722C41.2604 -0.0190445 42.4407 -0.089982 44.3478 0.0656508Z" fill="#1E5A67"/>
</svg>
