<svg width="373" height="200" viewBox="0 0 373 200" fill="none" xmlns="http://www.w3.org/2000/svg">
<path d="M6.41178 1.9304C7.59936 2.04567 8.78693 2.16093 10.0105 2.27969C126.419 14.8216 126.419 14.8216 242.695 6.90467C263.23 3.626 283.837 2.59204 304.502 1.76973C308.712 1.59072 312.922 1.37845 317.131 1.13138C323.073 0.791714 329.011 0.577387 334.957 0.393982C336.743 0.270609 338.53 0.147237 340.371 0.0201255C347.813 -0.0921503 352.759 0.0682715 358.933 5.89127C365.776 14.7574 371.7 22.7835 373 35.6418C372.735 48.0958 367.696 55.7288 362.027 65.1842C359.946 68.8016 357.869 72.4226 355.795 76.0469C354.743 77.8648 353.691 79.6828 352.608 81.5558C346.979 91.5092 341.803 101.876 336.628 112.247C328.927 127.36 328.927 127.36 323.385 130.738C316.457 131.377 309.553 130.669 302.635 130.064C294.903 129.695 291.277 129.91 284.579 135.554C279.612 142.567 275.176 149.708 270.919 157.477C259.896 177.489 259.896 177.489 249.917 180.982C241.655 181.428 235.278 178.938 227.487 175.591C214.636 169.794 214.636 169.794 201.472 172.141C195.463 176.983 189.939 182.67 184.379 188.358C175.902 196.573 168.629 201.17 157.932 199.742C151.742 197.305 146.228 193.625 140.516 189.679C138.007 188.017 138.007 188.017 135.447 186.322C130.661 183.135 125.897 179.9 121.135 176.651C116.382 173.428 111.606 170.264 106.831 167.096C101.663 163.662 96.502 160.207 91.3437 156.746C88.8075 155.044 86.2699 153.346 83.731 151.652C65.8444 139.681 49.6764 128.178 36.8899 107.305C36.08 106.012 35.2701 104.718 34.4357 103.385C28.202 93.3293 22.2791 83.0028 16.6165 72.3721C14.4207 68.2779 12.1494 64.2529 9.81336 60.2964C-0.621313 42.2156 -0.621313 42.2156 0.465823 30.0066C1.30027 24.1344 2.53766 18.566 3.8674 12.8561C4.34251 10.8043 4.81762 8.75246 5.30712 6.63849C5.67166 5.08482 6.0362 3.53115 6.41178 1.9304Z" fill="#005F74"/>
</svg>
