<svg width="110" height="113" viewBox="0 0 110 113" fill="none" xmlns="http://www.w3.org/2000/svg">
<path d="M5.2381 0.204337C9.38506 0.141734 13.5315 0.0963003 17.6786 0.0604646C19.4206 0.0315328 19.4206 0.0315328 21.1979 0.00201662C28.2976 -0.0438666 34.9416 0.690275 41.9048 2.50629C40.4283 4.21549 38.9518 5.92469 37.4306 7.68568C32.7934 13.147 32.7934 13.147 33.2292 18.3502C35.652 25.3311 39.3271 28.955 43.7599 33.8704C46.6936 37.136 49.5835 40.4742 52.381 43.9414C52.381 45.4607 52.381 46.98 52.381 48.5453C51.2286 49.305 50.0762 50.0646 48.8889 50.8473C49.8815 51.1589 50.874 51.4704 51.8967 51.7914C62.6735 55.7526 70.3369 61.5732 76.8254 73.8668C77.5893 80.6288 77.5893 80.6288 76.8254 85.3766C78.5911 85.5902 78.5911 85.5902 80.3925 85.8082C87.4944 88.3809 92.4594 93.4557 98.3234 99.1883C99.4499 100.257 100.576 101.325 101.737 102.425C104.533 105.109 107.272 107.895 110 110.698C110 111.458 110 112.217 110 113C98.2922 112.346 87.1061 109.965 75.7341 106.382C73.8722 105.824 73.8722 105.824 71.9727 105.256C68.4635 104.098 68.4635 104.098 62.8571 101.49C62.281 99.2113 61.7048 96.9324 61.1111 94.5844C59.8259 94.8841 58.5408 95.1838 57.2166 95.4926C43.2243 98.1001 43.2243 98.1001 37.2123 92.5702C35.2136 89.0093 35.2136 89.0093 33.1746 85.3766C30.8597 82.0038 28.5305 78.6481 26.1905 75.3055C20.46 66.7039 15.0569 58.2859 10.4762 48.5453C11.0524 46.2664 11.6286 43.9875 12.2222 41.6395C15.1032 41.6395 17.9841 41.6395 20.9524 41.6395C19.8788 41.3605 18.8052 41.0816 17.699 40.7942C16.2878 40.4085 14.8766 40.0227 13.4226 39.6253C12.0249 39.2514 10.6272 38.8775 9.18713 38.4923C5.2381 37.0356 5.2381 37.0356 0 32.4317C0.201887 29.2167 0.424272 26.0039 0.654762 22.7922C0.776302 21.0029 0.897842 19.2136 1.02307 17.3701C1.81554 11.1703 3.33341 5.95132 5.2381 0.204337Z" fill="#293197"/>
</svg>
