<svg width="54" height="69" viewBox="0 0 54 69" fill="none" xmlns="http://www.w3.org/2000/svg">
<path d="M51.6086 0.260182C52.2407 0.49775 52.8727 0.735318 53.5239 0.980085C53.6463 5.60394 53.7204 10.2273 53.786 14.8526C53.8387 16.8116 53.8387 16.8116 53.8925 18.8101C53.906 20.0792 53.9195 21.3483 53.9335 22.6558C53.9554 23.8182 53.9774 24.9806 54 26.1782C52.95 33.7694 47.7034 38.9997 43.1055 44.2244C42.5163 44.9001 41.9272 45.5758 41.3202 46.272C40.0822 47.6879 38.8415 49.1007 37.5983 50.5106C35.6975 52.6704 33.8111 54.8457 31.9252 57.0224C30.7166 58.4008 29.5072 59.7783 28.2968 61.1548C27.7354 61.8048 27.1739 62.4549 26.5955 63.1246C21.4627 68.8952 21.4627 68.8952 17.8783 69C14.8654 66.8466 13.01 65.4043 11.7845 61.5417C11.7196 60.8525 11.6548 60.1634 11.5879 59.4533C10.204 59.0595 8.82016 58.6657 7.39433 58.26C7.28377 57.5134 7.1732 56.7667 7.05929 55.9975C6.55141 52.6218 6.02304 49.2507 5.49411 45.8792C5.32045 44.7039 5.14679 43.5287 4.96786 42.3178C4.7888 41.1949 4.60973 40.072 4.42523 38.915C4.18641 37.3589 4.18641 37.3589 3.94276 35.7714C3.33388 32.769 3.33388 32.769 0.0555372 30.8134C-0.0600618 27.3141 0.0044894 24.1377 0.252112 20.6701C0.298737 19.7332 0.345362 18.7964 0.3934 17.8312C0.819439 10.8506 0.819439 10.8506 3.20074 8.14008C9.45741 8.43681 15.5416 10.6705 21.0235 14.1067C22.9074 16.6565 22.9074 16.6565 24.1687 18.8801C24.615 18.3416 25.0612 17.8031 25.521 17.2483C28.3119 14.2157 31.664 12.2021 34.9804 10.0047C36.3532 9.08811 37.7251 8.16982 39.0961 7.24974C39.7619 6.80691 40.4277 6.36407 41.1136 5.90782C42.9434 4.62762 44.6893 3.19576 46.4267 1.75855C49.3303 -0.213247 49.3303 -0.213246 51.6086 0.260182Z" fill="#005585"/>
</svg>
