<svg width="39" height="34" viewBox="0 0 39 34" fill="none" xmlns="http://www.w3.org/2000/svg">
<path d="M0 0C0.446302 0.104842 0.892605 0.209683 1.35243 0.317702C9.12218 2.10718 16.8034 3.80069 24.765 3.78538C25.3018 3.7865 25.8386 3.78761 26.3916 3.78876C30.7008 3.68728 34.8026 2.77167 39 1.73046C35.9826 9.92007 32.9217 18.0715 29.3962 26.011C29.1429 26.5921 28.8895 27.1732 28.6284 27.7719C27.3524 30.591 26.5972 31.9564 24.18 33.744C21.8705 34.0853 21.8705 34.0853 19.5 33.744C18.007 32.24 18.007 32.24 16.6725 30.0127C16.1507 29.155 15.6288 28.2973 15.0912 27.4136C14.478 26.3532 13.8679 25.2906 13.26 24.2264C12.8868 23.5775 12.5137 22.9285 12.1292 22.2598C10.4933 19.4086 8.86174 16.5549 7.25423 13.6838C5.4712 10.5019 3.66747 7.38637 1.66664 4.36671C0 1.73046 0 1.73046 0 0Z" fill="#36718B"/>
</svg>
