<svg width="84" height="28" viewBox="0 0 84 28" fill="none" xmlns="http://www.w3.org/2000/svg">
<path d="M0 0C11.2619 1.80191 11.2619 1.80191 16.707 4.73047C25.2505 7.93909 33.3889 7.5895 42.2188 7.4375C44.0078 7.42246 45.7968 7.40742 47.6401 7.39193C59.8276 7.22652 71.8904 6.61114 84 4.66667C81.0833 8.55556 78.1667 12.4444 75.25 16.3333C74.2033 18.0658 73.1566 19.7983 72.0781 21.5833C66.6357 27.3886 61.0252 27.9167 54.25 28C49.527 26.4965 45.4887 24.9151 41.0156 22.6133C39.8313 22.0403 38.647 21.4673 37.4268 20.8769C33.6902 19.0594 29.9706 17.1873 26.25 15.3125C23.7012 14.0616 21.1514 12.8144 18.6006 11.571C12.3883 8.53368 6.19089 5.44731 0 2.33333C0 1.56333 0 0.793333 0 0Z" fill="#386E7A"/>
</svg>
