<svg width="17" height="23" viewBox="0 0 17 23" fill="none" xmlns="http://www.w3.org/2000/svg">
<path d="M10.6595 0C12.8099 0.107908 14.0817 0.613916 15.9892 1.64286C16.5201 4.61989 16.5969 7.65474 16.7506 10.6786C16.8257 11.8222 16.8257 11.8222 16.9023 12.9888C17.1137 18.2751 17.1137 18.2751 15.5133 20.9978C13.3033 22.4409 11.7171 22.884 9.13669 23C5.80895 21.9054 4.51969 19.0839 2.85522 16.0179C2.57844 15.5297 2.30166 15.0416 2.0165 14.5386C0 10.9155 0 10.9155 0 9.03571C1.36515 7.94155 1.36515 7.94155 3.18832 6.72545C5.39359 5.21381 7.23273 3.82233 8.94634 1.6942C9.51168 1.13511 10.077 0.576027 10.6595 0Z" fill="#1997A8"/>
</svg>
