<svg width="47" height="68" viewBox="0 0 47 68" fill="none" xmlns="http://www.w3.org/2000/svg">
<path d="M0.843775 0.509687C4.15076 -0.102187 4.15076 -0.102187 8.69711 0.509687C12.3053 3.66239 15.3955 6.7077 18.6119 10.2997C20.4166 12.2444 22.2225 14.1877 24.0295 16.1297C25.3335 17.5488 25.3335 17.5488 26.6639 18.9966C30.7036 23.3349 34.9452 27.4 39.1901 31.4816C40.0122 32.296 40.8342 33.1105 41.6811 33.9497C42.6003 34.746 43.5195 35.5423 44.4666 36.3628C46.3931 39.2297 46.3931 39.2297 46.2029 43.3203C44.6212 48.7162 42.5092 53.3186 40.0123 58.2597C39.1518 59.9771 38.2913 61.6946 37.4047 63.4641C36.7427 64.7595 36.0806 66.055 35.3984 67.3897C28.2149 66.0639 24.1833 63.1183 18.1211 58.5897C15.9455 57.5681 13.7452 56.6106 11.5255 55.7159C9.84397 55.0315 9.84397 55.0315 8.12843 54.3332C7.27946 53.9954 6.43048 53.6577 5.55578 53.3097C4.76078 46.4911 3.9791 39.6706 3.19978 32.8497C2.97504 30.9235 2.75029 28.9973 2.51874 27.0128C2.30615 25.1411 2.09356 23.2694 1.87453 21.3409C1.67712 19.6266 1.47971 17.9123 1.27632 16.146C0.829545 10.9027 0.770661 5.77357 0.843775 0.509687Z" fill="#0C98A4"/>
</svg>
