<svg width="14" height="20" viewBox="0 0 14 20" fill="none" xmlns="http://www.w3.org/2000/svg">
<path d="M8.77839 0C10.5494 0.0938333 11.5967 0.53384 13.1676 1.42857C13.6048 4.01729 13.668 6.6563 13.7946 9.28571C13.8564 10.2801 13.8564 10.2801 13.9195 11.2946C14.0937 15.8914 14.0937 15.8914 12.7757 18.2589C10.9557 19.5138 9.64938 19.8991 7.52434 20C4.78384 19.0482 3.7221 16.5947 2.35135 13.9286C2.12342 13.5041 1.89549 13.0796 1.66064 12.6423C0 9.49177 0 9.49177 0 7.85714C1.12424 6.90569 1.12424 6.90569 2.62568 5.84821C4.44178 4.53375 5.95637 3.32376 7.36758 1.47321C7.83315 0.987054 8.29871 0.500893 8.77839 0Z" fill="#1997A8"/>
</svg>
