<svg width="67" height="78" viewBox="0 0 67 78" fill="none" xmlns="http://www.w3.org/2000/svg">
<path d="M31.6892 0C32.2868 0.33 32.8843 0.66 33.5 1C28.5168 7.81028 23.4389 14.5142 18.2558 21.1392C17.3903 22.2471 16.5291 23.3591 15.6726 24.4756C14.5962 25.8591 13.4771 27.2017 12.3538 28.5391C10.409 31.7534 10.2956 33.1854 10.8649 37C12.0019 39.8702 13.4115 42.5124 14.8826 45.1875C15.6378 46.5964 16.3912 48.0065 17.1426 49.418C17.4792 50.0344 17.8159 50.6508 18.1627 51.2859C19.0135 53 19.0135 53 19.9189 56C24.7081 53.8299 27.8266 50.5884 31.4664 46.5469C33.5 45 33.5 45 35.9014 45.2031C38.027 46 38.027 46 39.8378 47C39.7784 46.4169 39.7189 45.8339 39.6577 45.2332C38.8115 36.1059 38.6296 26.978 38.4231 17.8125C38.3839 16.1764 38.3444 14.5404 38.3047 12.9043C38.2088 8.93629 38.1168 4.96819 38.027 1C38.9234 1 39.8197 1 40.7432 1C40.7886 2.16048 40.834 3.32096 40.8807 4.5166C41.0514 8.8258 41.2328 13.1344 41.4174 17.4429C41.4958 19.307 41.5713 21.1712 41.6438 23.0356C41.7485 25.7169 41.8638 28.3975 41.9811 31.0781C42.0114 31.9106 42.0416 32.743 42.0728 33.6006C42.1089 34.3812 42.145 35.1617 42.1823 35.9658C42.2245 36.9917 42.2245 36.9917 42.2676 38.0384C42.6001 40.3151 43.3531 41.9954 44.3649 44C48.0271 42.4832 49.4611 40.0199 51.6081 36.5C55.2807 30.4789 55.2807 30.4789 58.8514 29C57.3384 33.8178 54.95 36.9309 51.937 40.7188C50.543 42.9245 50.543 42.9245 50.4834 45.543C52.3226 49.561 55.6701 50.3294 59.3606 51.8125C60.0907 52.1238 60.8207 52.4351 61.5729 52.7559C63.3758 53.5217 65.1872 54.2632 67 55C66.5518 55.99 66.5518 55.99 66.0946 57C65.497 57 64.8995 57 64.2838 57C63.985 58.65 63.6862 60.3 63.3784 62C63.0796 62 62.7808 62 62.473 62C62.2921 61.0706 62.1112 60.1412 61.9248 59.1836C60.91 55.7881 60.91 55.7881 58.0697 54.2852C57.0392 53.8817 56.0086 53.4782 54.9468 53.0625C53.9232 52.641 52.8997 52.2195 51.8451 51.7852C48.8787 50.9965 47.2491 51.0377 44.3649 52C44.1403 54.7912 43.9356 57.5812 43.7424 60.375C43.6435 61.5661 43.6435 61.5661 43.5426 62.7812C43.3432 65.3517 43.3432 65.3517 43.4595 69C44.3558 69.66 45.2522 70.32 46.1757 71C45.7275 72.485 45.7275 72.485 45.2703 74C44.9715 73.67 44.6727 73.34 44.3649 73C42.5721 72.9854 40.7783 73.063 38.989 73.1875C38.0098 73.2429 37.0306 73.2984 36.0217 73.3555C33.3774 73.6975 33.3774 73.6975 32.2515 76.0508C32.066 76.694 31.8804 77.3373 31.6892 78C30.7928 77.67 29.8965 77.34 28.973 77C27.6284 77.495 27.6284 77.495 26.2568 78C26.3805 76.9056 26.5042 75.8112 26.6317 74.6836C26.6242 68.4604 23.3229 64.0373 20.2584 59.0625C19.6994 58.1247 19.1403 57.1869 18.5643 56.2207C17.4549 54.3646 16.3357 52.5155 15.2064 50.6741C14.1326 48.9073 13.0808 47.1239 12.053 45.324C11.5827 44.5055 11.1124 43.687 10.6279 42.8438C10.2174 42.1148 9.80698 41.3858 9.38408 40.6348C8.15211 38.6475 8.15211 38.6475 5.26267 38.4375C4.42234 38.6231 3.58201 38.8088 2.71622 39C1.81986 39 0.923513 39 0 39C0.630247 38.3116 1.26049 37.6233 1.90984 36.9141C9.19714 28.8597 16.1186 20.4405 22.5644 11.5547C25.4872 7.58628 28.5797 3.78999 31.6892 0Z" fill="#00094E"/>
</svg>
