<svg width="158" height="133" viewBox="0 0 158 133" fill="none" xmlns="http://www.w3.org/2000/svg">
<path d="M136.531 0.548828C141.498 0.742366 143.436 2.08933 146.916 5.98867C146.916 7.15027 146.916 8.31187 146.916 9.50867C148.471 10.0895 150.026 10.6703 151.628 11.2687C156.009 16.9966 157.989 20.0304 157.654 27.6784C156.23 34.691 154.151 39.0732 150.622 45.0524C150.05 46.0298 149.478 47.0072 148.889 48.0142C147.683 50.0649 146.468 52.1086 145.245 54.1455C143.388 57.2378 141.564 60.3515 139.743 63.4705C134.326 72.6442 129.147 81.3041 121.785 88.7087C117.582 89.568 117.582 89.568 113.441 89.2587C112.054 89.1793 110.667 89.0999 109.238 89.018C107.674 88.8649 107.674 88.8649 106.078 88.7087C106.078 89.8703 106.078 91.0319 106.078 92.2287C104.596 92.0699 103.114 91.911 101.587 91.7474C89.9305 91.1416 89.9305 91.1416 79.6792 96.4903C76.0616 100.731 72.9022 105.175 69.8687 109.953C67.9454 112.966 65.8175 115.812 63.6704 118.629C59.2161 119.392 59.2161 119.392 55.8171 118.629C55.6875 119.972 55.5579 121.315 55.4244 122.699C53.9737 128.524 52.5872 129.742 47.9637 132.709C39.1767 132.546 27.6095 129.261 21.2624 122.149C21.1486 118.594 21.1308 115.035 21.1642 111.479C21.1784 109.534 21.1926 107.59 21.2072 105.587C21.2254 104.083 21.2436 102.578 21.2624 101.029C22.8173 101.029 24.3723 101.029 25.9744 101.029C25.9744 98.7055 25.9744 96.3823 25.9744 93.9887C23.3828 95.7311 20.7912 97.4735 18.1211 99.2687C18.6394 99.8495 19.1577 100.43 19.6917 101.029C19.7558 104.548 19.7585 108.069 19.6917 111.589C12.1906 110.765 7.05608 109.4 0.843718 104.549C1.36204 101.645 1.88036 98.7407 2.41438 95.7487C4.74682 94.8775 4.74682 94.8775 7.12638 93.9887C6.93606 92.3393 6.74574 90.6899 6.54965 88.9905C4.75839 72.9754 3.37339 56.9472 2.21805 40.8587C2.08063 38.9678 1.9432 37.0769 1.80161 35.1288C1.20266 26.5558 0.777441 18.1132 0.843718 9.50867C46.1854 3.53793 90.9534 1.9178 136.531 0.548828Z" fill="#0A6E68"/>
</svg>
