<svg width="45" height="51" viewBox="0 0 45 51" fill="none" xmlns="http://www.w3.org/2000/svg">
<path d="M23.9301 0C28.7216 1.03711 30.7346 4.53881 33.6583 8.94055C34.1374 9.64367 34.6164 10.3468 35.1099 11.0712C36.0706 12.4827 37.0241 13.9014 37.9703 15.3271C38.9148 16.7138 39.8915 18.0695 40.8987 19.3904C42.9898 22.1663 44.4419 24.1778 45 27.9219C44.5463 31.0976 44.5463 31.0976 42.4353 33.4967C41.4683 34.2379 40.5013 34.9791 39.505 35.7428C37.9284 36.967 37.9284 36.967 36.3199 38.216C35.2077 39.0482 34.0955 39.8804 32.9497 40.7378C31.3053 42.015 31.3053 42.015 29.6277 43.3179C20.2596 50.4989 20.2596 50.4989 16.7144 51C13.9353 49.8401 11.4325 48.6177 8.79006 47.1128C8.07983 46.744 7.3696 46.3752 6.63785 45.9952C3.55007 44.2659 1.57455 43.0542 0 39.3336C0.320855 34.6099 1.9957 32.4939 4.47355 28.843C4.92783 28.1628 5.3821 27.4826 5.85014 26.7819C6.8487 25.2918 7.85456 23.8088 8.86657 22.3319C10.661 19.7104 12.4328 17.068 14.2018 14.4215C17.4293 9.59906 20.6753 4.79562 23.9301 0Z" fill="#0062BD"/>
</svg>
