<svg width="76" height="22" viewBox="0 0 76 22" fill="none" xmlns="http://www.w3.org/2000/svg">
<path d="M0.121094 0.75C10.2289 2.10915 10.2289 2.10915 15.1161 4.31812C22.784 6.73834 30.0885 6.47465 38.0134 6.36C39.6191 6.34866 41.2248 6.33731 42.8792 6.32562C53.8178 6.20086 64.6445 5.73669 75.5131 4.27C72.8953 7.20333 70.2775 10.1367 67.6598 13.07C66.7203 14.3768 65.7809 15.6836 64.8129 17.03C59.9282 21.4088 54.8926 21.8071 48.8118 21.87C44.5728 20.736 40.9483 19.5431 36.9336 17.8069C35.8706 17.3747 34.8077 16.9425 33.7125 16.4972C30.3588 15.1262 27.0204 13.7141 23.6811 12.3C21.3935 11.3565 19.105 10.4157 16.8156 9.47781C11.2399 7.18683 5.67757 4.85883 0.121094 2.51C0.121094 1.9292 0.121094 1.3484 0.121094 0.75Z" fill="#386E7A"/>
</svg>
