<svg width="62" height="63" viewBox="0 0 62 63" fill="none" xmlns="http://www.w3.org/2000/svg">
<path d="M0.696777 0.509766C6.11211 3.14988 9.84372 6.67697 14.1456 11.1798C22.4819 19.7471 31.1473 27.7733 39.9634 35.7098C41.2714 36.9235 42.5793 38.1373 43.9269 39.3879C47.6238 42.583 51.2691 45.1173 55.3756 47.5898C56.6167 48.343 57.8579 49.0962 59.1366 49.8723C60.066 50.4258 60.9953 50.9794 61.9528 51.5498C60.3978 52.1306 58.8429 52.7114 57.2408 53.3098C55.3943 52.0574 55.3943 52.0574 53.5104 50.7798C48.8347 47.6611 46.8677 47.2127 41.5341 48.0298C38.5634 51.0525 38.5634 51.0525 36.3313 55.0698C35.1256 57.03 35.1256 57.03 33.8955 59.0298C33.3063 60.0462 32.7171 61.0626 32.1101 62.1098C31.5918 60.9482 31.0735 59.7866 30.5394 58.5898C31.9994 54.9562 33.7671 51.6024 35.5459 48.1535C37.1208 43.657 36.9046 41.8925 35.2514 37.4698C33.1531 34.414 33.1531 34.414 30.4413 31.6398C29.4512 30.578 28.4611 29.5162 27.4411 28.4223C21.2331 22.0423 14.8927 15.8531 8.45194 9.77039C5.84333 7.3011 3.26669 4.7895 0.696777 2.26977C0.696777 1.68897 0.696777 1.10817 0.696777 0.509766Z" fill="#000B60"/>
</svg>
