<svg width="1313" height="60" viewBox="0 0 1313 60" fill="none" xmlns="http://www.w3.org/2000/svg">
<path d="M1312.27 59.1266C1312.27 59.1266 1311.1 58.8581 1308.82 58.2472C1308.25 58.0822 1307.61 57.9474 1306.91 57.7052C1306.21 57.417 1305.45 57.1 1304.62 56.7543C1303.79 56.4053 1302.9 56.0309 1301.94 55.6279C1301 55.1133 1300 54.5668 1298.93 53.9851C1294.66 51.6648 1289.52 48.0868 1283.62 43.3206C1277.7 38.6198 1271 32.7794 1263.29 26.7787C1255.58 20.7945 1246.82 14.7144 1236.86 9.97778C1226.9 5.41318 1215.75 1.24895 1203.55 2.12629C1202.79 2.16575 1202.03 2.13573 1201.26 2.23102C1200.49 2.37251 1199.72 2.51399 1198.95 2.65528C1197.4 2.93787 1195.85 3.22331 1194.27 3.51155C1191.14 4.19725 1187.97 5.39684 1184.75 6.34009C1181.56 7.7203 1178.3 8.92303 1175.04 10.5084C1171.79 12.18 1168.46 13.6838 1165.15 15.6337C1151.81 22.9122 1138.03 32.4851 1123.12 40.1806C1119.41 42.2157 1115.58 43.7714 1111.72 45.4283C1109.78 46.1988 1107.81 46.7171 1105.83 47.3775C1104.85 47.6696 1103.86 48.0607 1102.86 48.27L1099.84 48.8048C1095.82 49.7893 1091.72 49.6067 1087.6 49.5123C1085.55 49.2032 1083.49 48.8939 1081.43 48.5809C1079.36 48.2547 1077.32 47.619 1075.25 47.1507C1066.99 45.0012 1058.66 41.9653 1050.28 38.3662C1041.88 34.8524 1033.4 30.8342 1024.78 26.7058C1016.17 22.5806 1007.42 18.2958 998.483 14.2716C989.547 10.2606 980.422 6.35186 970.988 3.87763C968.633 3.24106 966.244 2.89038 963.86 2.38148C961.464 2.15593 959.048 1.89998 956.631 1.97064C954.215 2.37133 951.773 2.31246 949.365 3.28094L945.732 4.41452L942.132 6.04759C932.523 10.5559 923.169 17.5743 913.672 24.4128C904.177 31.2745 894.476 38.1191 884.293 42.9011C874.142 47.6907 863.424 50.2697 852.797 48.4666C850.143 47.9977 847.482 47.532 844.882 46.6426C842.262 45.8747 839.638 45.0902 837.018 44.2166C831.767 42.555 826.515 40.6987 821.249 38.7561C810.717 34.8807 800.154 30.5093 789.507 26.0954C778.859 21.6848 768.114 17.2577 757.169 13.6385C754.427 12.7838 751.686 11.8664 748.919 11.1494C747.535 10.7975 746.154 10.3534 744.766 10.074L740.597 9.38725C734.993 8.90777 729.31 9.85762 723.681 11.5154C712.403 14.8931 701.313 21.2272 690.502 28.9405C685.061 32.7365 679.827 37.226 674.431 41.5812C671.714 43.6608 668.928 45.484 666.097 47.0514C663.264 48.6419 660.379 49.805 657.504 51.0772C634.384 60.3932 610.444 59.7518 588.55 49.4579C577.541 44.4902 567.377 36.1996 556.996 29.6436C551.794 26.4164 546.519 23.5397 541.092 21.9808C535.674 20.4354 530.123 20.0667 524.679 21.5891C513.724 24.5887 503.692 33.5467 493.797 41.7342C483.926 49.9322 473.704 58.0488 462.872 59.4689C452.106 61.2278 441.603 57.3996 431.799 52.1474C421.932 46.9292 412.552 40.2201 403.009 34.9406C398.25 32.2436 393.434 30.0297 388.589 28.27C383.723 26.6681 378.797 25.846 373.883 25.6183C364.032 25.2644 354.275 27.6327 344.791 30.8784C325.826 37.515 307.66 47.3636 289.508 50.5375C280.473 52.1358 271.437 52.0974 262.913 48.9951C254.34 46.2374 246.473 40.5083 238.924 34.7706C231.372 28.9799 224.047 23.0455 216.522 18.7637C209.006 14.4922 201.247 12.3173 193.587 12.4721C185.927 12.6138 178.456 14.5638 171.263 17.1305C164.061 19.6903 157.126 22.9688 150.374 26.0789C136.896 32.2966 124.012 38.0666 111.722 38.9969C99.4096 40.418 88.1995 35.9316 78.3167 30.8977C68.3927 25.8359 59.4745 20.4892 51.1773 17.2133C42.8941 13.9214 35.2542 12.8296 28.6517 13.5098C22.0413 14.0907 16.5057 16.5767 12.2655 19.4808C8.00891 22.4173 5.08824 25.8724 3.17866 28.2342C2.25014 29.4854 1.58229 30.5114 1.11549 31.155C0.653967 31.812 0.413146 32.127 0.413146 32.127C0.413146 32.127 1.29971 30.7061 3.11845 28.0936C5.01457 25.6784 7.92787 22.1605 12.1965 19.1551C16.4466 16.1853 22.0056 13.6307 28.6467 12.9948C35.28 12.2564 42.9561 13.2998 51.2788 16.5569C59.61 19.7911 68.5505 25.099 78.4668 30.1077C88.3477 35.0888 99.4878 39.4935 111.716 38.0364C123.928 37.0671 136.759 31.2822 150.231 25.0246C156.978 21.8946 163.921 18.5899 171.15 16.0013C178.369 13.4058 185.882 11.421 193.61 11.2586C201.336 11.0797 209.203 13.2649 216.779 17.555C224.362 21.852 231.718 27.7943 239.262 33.555C246.803 39.2694 254.622 44.9374 263.1 47.6455C271.534 50.6985 280.482 50.7272 289.459 49.1203C307.493 45.9423 325.625 36.0891 344.653 29.3986C354.171 26.1278 363.99 23.7253 373.939 24.0694C378.901 24.2955 383.886 25.1197 388.801 26.7333C393.692 28.5044 398.546 30.7295 403.326 33.4339C412.911 38.7247 422.297 45.4242 432.109 50.6041C441.865 55.8217 452.247 59.5729 462.824 57.8371C473.448 56.4461 483.545 48.4472 493.407 40.2455C503.288 32.0675 513.393 23.0064 524.566 19.9287C530.123 18.3706 535.796 18.7436 541.295 20.3149C546.808 21.8999 552.136 24.8049 557.368 28.0497C567.817 34.6443 577.932 42.8903 588.847 47.8086C610.582 58.0244 634.361 58.6568 657.314 49.4076C660.167 48.1445 663.038 46.9875 665.828 45.4186C668.623 43.8664 671.375 42.0685 674.059 40.0174C679.37 35.7318 684.71 31.1536 690.154 27.361C701.017 19.6132 712.166 13.2416 723.552 9.83141C729.237 8.15904 734.988 7.19507 740.691 7.68461L744.94 8.38399C746.347 8.67071 747.724 9.11144 749.115 9.4669C751.896 10.1876 754.643 11.1085 757.394 11.9668C768.369 15.6035 779.125 20.041 789.773 24.4549C800.422 28.8788 810.973 33.2497 821.49 37.1245C826.747 39.0701 831.991 40.9262 837.232 42.5875C839.847 43.4608 842.466 44.2451 845.08 45.0162C847.688 45.9123 850.309 46.3669 852.925 46.8311C863.409 48.6161 874.002 46.0888 884.079 41.3427C894.188 36.6077 903.853 29.8047 913.346 22.9562C922.842 16.1308 932.225 9.10023 941.931 4.55237L945.57 2.90757L949.255 1.76251C951.694 0.788509 954.19 0.839349 956.648 0.440125C959.104 0.370799 961.548 0.63434 963.972 0.867478C966.373 1.38357 968.785 1.74169 971.155 2.38538C980.645 4.88798 989.785 8.82029 998.732 12.8514C1007.68 16.8926 1016.43 21.1938 1025.04 25.332C1033.65 29.4768 1042.11 33.5044 1050.5 37.0276C1058.87 40.636 1067.17 43.6811 1075.39 45.8391C1077.45 46.3104 1079.49 46.9491 1081.54 47.2782C1083.6 47.5941 1085.64 47.9063 1087.67 48.2181C1091.75 48.3144 1095.8 48.5118 1099.8 47.5427L1102.79 47.0202C1103.78 46.814 1104.76 46.4258 1105.74 46.1401C1107.7 45.4859 1109.66 44.9803 1111.59 44.2161C1115.43 42.575 1119.24 41.0418 1122.94 39.0196C1137.81 31.3886 1151.61 21.8493 1164.98 14.5982C1168.3 12.6551 1171.64 11.1584 1174.9 9.49047C1178.17 7.9088 1181.45 6.71321 1184.65 5.34005C1187.89 4.4007 1191.07 3.21149 1194.22 2.52968C1195.8 2.245 1197.37 1.96316 1198.92 1.6842C1199.7 1.54305 1200.47 1.40511 1201.24 1.26705C1202.02 1.1719 1202.78 1.20529 1203.55 1.16939C1215.85 0.334941 1227.03 4.573 1237 9.19099C1246.99 13.9878 1255.75 20.1309 1263.46 26.1711C1271.16 32.2245 1277.86 38.1104 1283.76 42.8568C1289.64 47.6685 1294.75 51.2885 1299 53.6576C1300.06 54.2523 1301.06 54.8119 1301.99 55.3362C1302.95 55.7523 1303.84 56.143 1304.66 56.5018C1305.49 56.8605 1306.25 57.1905 1306.94 57.4919C1307.64 57.7472 1308.28 57.8984 1308.84 58.0765C1311.11 58.7397 1312.27 59.1266 1312.27 59.1266Z" fill="#F2AC5A"/>
</svg>
