<svg width="34" height="18" viewBox="0 0 34 18" fill="none" xmlns="http://www.w3.org/2000/svg">
<path d="M32.4889 0C32.9876 0.27 33.4862 0.54 34 0.818182C33.5705 1.33287 33.141 1.84756 32.6984 2.37784C29.4041 6.33229 26.1292 10.3018 22.9028 14.3214C20.8767 16.8223 19.5871 16.5733 16.454 16.8015C15.5019 16.8727 14.5499 16.9439 13.569 17.0172C12.5562 17.0892 11.5434 17.1611 10.5306 17.233C9.51476 17.3077 8.49899 17.3828 7.48325 17.4583C4.98902 17.6422 2.49463 17.8226 0 18C0.862277 14.8396 1.62562 12.2037 3.77778 9.81818C5.35972 9.19815 5.35972 9.19815 7.17778 8.89773C8.1777 8.71738 8.1777 8.71738 9.19782 8.53338C9.90254 8.41736 10.6073 8.30135 11.3333 8.18182C19.0321 6.7547 26.1459 5.19794 32.4889 0Z" fill="#007ABE"/>
</svg>
