<svg width="29" height="15" viewBox="0 0 29 15" fill="none" xmlns="http://www.w3.org/2000/svg">
<path d="M27.7111 0C28.1364 0.225 28.5618 0.45 29 0.681818C28.6336 1.11072 28.2673 1.53963 27.8898 1.98153C25.08 5.27691 22.2867 8.58484 19.5347 11.9345C17.8066 14.0186 16.7066 13.8111 14.0343 14.0012C13.2223 14.0606 12.4102 14.1199 11.5736 14.181C10.7097 14.241 9.84582 14.3009 8.98194 14.3608C8.11553 14.4231 7.24914 14.4857 6.38277 14.5486C4.25534 14.7018 2.12777 14.8522 0 15C0.735472 12.3663 1.38655 10.1697 3.22222 8.18182C4.57153 7.66513 4.57153 7.66513 6.12222 7.41477C6.9751 7.26448 6.9751 7.26448 7.8452 7.11115C8.44628 7.01447 9.04737 6.91779 9.66667 6.81818C16.2333 5.62892 22.3009 4.33162 27.7111 0Z" fill="#007ABE"/>
</svg>
