<svg width="80" height="95" viewBox="0 0 80 95" fill="none" xmlns="http://www.w3.org/2000/svg">
<path d="M37.8378 0C38.5513 0.401923 39.2649 0.803846 40 1.21795C34.0499 9.51252 27.9868 17.6775 21.7979 25.7464C20.7646 27.0959 19.7362 28.4502 18.7136 29.81C17.4282 31.495 16.0921 33.1303 14.7508 34.7591C12.4287 38.6741 12.2932 40.4181 12.973 45.0641C14.3307 48.5599 16.0138 51.7779 17.7703 55.0361C18.672 56.7521 19.5716 58.4695 20.4687 60.1885C20.8707 60.9393 21.2727 61.6901 21.6868 62.4636C22.7027 64.5513 22.7027 64.5513 23.7838 68.2051C29.5022 65.5621 33.2258 61.6141 37.5718 56.6917C40 54.8077 40 54.8077 42.8674 55.0551C45.4054 56.0256 45.4054 56.0256 47.5676 57.2436C47.4966 56.5335 47.4256 55.8233 47.3525 55.0917C46.3421 43.9751 46.1249 32.8578 45.8784 21.6947C45.8316 19.7021 45.7844 17.7094 45.7369 15.7168C45.6224 10.8839 45.5126 6.05099 45.4054 1.21795C46.4757 1.21795 47.5459 1.21795 48.6486 1.21795C48.7028 2.63135 48.757 4.04476 48.8128 5.50099C49.0166 10.7494 49.2332 15.997 49.4537 21.2445C49.5472 23.5149 49.6374 25.7855 49.7239 28.0562C49.849 31.3219 49.9866 34.5867 50.1267 37.8516C50.1628 38.8654 50.199 39.8793 50.2362 40.9239C50.2793 41.8745 50.3224 42.8251 50.3669 43.8045C50.4173 45.054 50.4173 45.054 50.4687 46.3288C50.8658 49.1017 51.7649 51.1482 52.973 53.5897C57.3457 51.7423 59.0581 48.7422 61.6216 44.4551C66.0068 37.1217 66.0068 37.1217 70.2703 35.3205C68.4638 41.1884 65.6119 44.9799 62.0144 49.5933C60.3498 52.2799 60.3498 52.2799 60.2787 55.469C62.4748 60.3627 66.4717 61.2986 70.8784 63.105C71.7501 63.4841 72.6217 63.8633 73.5198 64.2539C75.6726 65.1867 77.8354 66.0898 80 66.9872C79.4649 68.1929 79.4649 68.1929 78.9189 69.4231C78.2054 69.4231 77.4919 69.4231 76.7568 69.4231C76.4 71.4327 76.0432 73.4423 75.6757 75.5128C75.3189 75.5128 74.9622 75.5128 74.5946 75.5128C74.3786 74.3808 74.1626 73.2489 73.94 72.0826C72.7284 67.9471 72.7284 67.9471 69.337 66.1165C68.1065 65.6251 66.8759 65.1337 65.6081 64.6274C64.3859 64.114 63.1638 63.6006 61.9046 63.0717C58.3626 62.1111 56.4168 62.1614 52.973 63.3333C52.7048 66.7328 52.4604 70.1309 52.2297 73.5337C52.1116 74.9843 52.1116 74.9843 51.9911 76.4643C51.7531 79.595 51.7531 79.595 51.8919 84.0385C52.9622 84.8423 54.0324 85.6462 55.1351 86.4744C54.6 88.283 54.6 88.283 54.0541 90.1282C53.6973 89.7263 53.3405 89.3244 52.973 88.9103C50.8323 88.8925 48.6905 88.9869 46.5541 89.1386C45.3848 89.2061 44.2156 89.2736 43.011 89.3432C39.8536 89.7597 39.8536 89.7597 38.5093 92.6259C38.2877 93.4094 38.0661 94.1928 37.8378 95C36.7676 94.5981 35.6973 94.1962 34.5946 93.782C32.9892 94.3849 32.9892 94.3849 31.3513 95C31.4991 93.6671 31.6468 92.3341 31.799 90.9608C31.7901 83.3812 27.8483 77.9942 24.1892 71.9351C23.5217 70.7929 22.8541 69.6507 22.1664 68.4739C20.8417 66.2133 19.5054 63.9612 18.1569 61.7184C16.8747 59.5666 15.6188 57.3945 14.3916 55.2023C13.8301 54.2054 13.2686 53.2086 12.69 52.1815C12.1999 51.2936 11.7098 50.4058 11.2049 49.4911C9.73386 47.0707 9.73386 47.0707 6.28378 46.8149C5.28041 47.041 4.27703 47.2671 3.24324 47.5C2.17297 47.5 1.1027 47.5 0 47.5C0.752534 46.6616 1.50507 45.8232 2.28041 44.9594C10.9817 35.1497 19.2461 24.8955 26.9426 14.073C30.4324 9.23969 34.125 4.61601 37.8378 0Z" fill="#00094E"/>
</svg>
