<svg width="50" height="88" viewBox="0 0 50 88" fill="none" xmlns="http://www.w3.org/2000/svg">
<path d="M0.0290248 0.599709C3.66583 -0.199903 3.66583 -0.199903 8.66559 0.599709C12.6336 4.71973 16.032 8.69941 19.5693 13.3935C21.5539 15.9349 23.5399 18.4745 25.5271 21.0123C26.9612 22.8668 26.9612 22.8668 28.4243 24.7588C32.8669 30.4282 37.5314 35.7405 42.1998 41.0745C43.1038 42.1388 44.0078 43.2032 44.9392 44.2999C45.9501 45.3405 46.9609 46.3812 48.0024 47.4534C50.1211 51.1999 50.1211 51.1999 49.9119 56.5456C48.1725 63.5971 45.8499 69.6116 43.1039 76.0687C42.1576 78.3131 41.2113 80.5575 40.2363 82.8699C39.5082 84.5628 38.7801 86.2558 38.0299 88C30.1299 86.2674 25.6962 82.4181 19.0295 76.5C16.6369 75.165 14.2171 73.9137 11.7761 72.7445C9.92683 71.85 9.92683 71.85 8.0402 70.9375C7.10655 70.4961 6.1729 70.0547 5.21096 69.5999C4.33668 60.6892 3.47704 51.7761 2.61999 42.8623C2.37284 40.3452 2.12569 37.828 1.87104 35.2346C1.63725 32.7886 1.40345 30.3426 1.16257 27.8225C0.945479 25.5821 0.728384 23.3418 0.504711 21.0336C0.013375 14.1815 -0.0513818 7.47867 0.0290248 0.599709Z" fill="#0C98A4"/>
</svg>
