<svg width="100" height="87" viewBox="0 0 100 87" fill="none" xmlns="http://www.w3.org/2000/svg">
<path d="M5.49423 0.230448C9.22468 0.182584 12.9546 0.147847 16.6852 0.120448C18.2523 0.0983278 18.2523 0.0983278 19.8511 0.0757606C26.2377 0.0406797 32.2144 0.601981 38.4782 1.99045C37.15 3.29725 35.8218 4.60405 34.4534 5.95045C30.282 10.126 30.282 10.126 30.674 14.1042C32.8535 19.4416 36.1595 22.2123 40.1471 25.9704C42.7861 28.4672 45.3858 31.0195 47.9022 33.6704C47.9022 34.832 47.9022 35.9936 47.9022 37.1904C46.8656 37.7712 45.8289 38.352 44.7609 38.9504C45.6538 39.1887 46.5467 39.4269 47.4666 39.6723C57.161 42.7009 64.0547 47.1511 69.8916 56.5504C70.5787 61.7204 70.5787 61.7204 69.8916 65.3504C71.4799 65.5138 71.4799 65.5138 73.1004 65.6804C79.489 67.6475 83.9553 71.5275 89.2304 75.9104C90.2437 76.7272 91.2571 77.5439 92.3012 78.3854C94.8163 80.4373 97.2804 82.5673 99.7342 84.7104C99.7342 85.2912 99.7342 85.872 99.7342 86.4704C89.2023 85.9704 79.1397 84.1502 68.9099 81.4104C67.235 80.9842 67.235 80.9842 65.5262 80.5494C62.3695 79.6642 62.3695 79.6642 57.3262 77.6704C56.8079 75.928 56.2896 74.1856 55.7556 72.3904C54.5995 72.6196 53.4434 72.8487 52.2522 73.0848C39.6652 75.0784 39.6652 75.0784 34.2571 70.8504C32.4591 68.1279 32.4591 68.1279 30.6249 65.3504C28.5425 62.7717 26.4472 60.2061 24.3422 57.6504C19.1873 51.0739 14.3268 44.6377 10.2062 37.1904C10.7245 35.448 11.2429 33.7056 11.7769 31.9104C14.3685 31.9104 16.9601 31.9104 19.6302 31.9104C18.6645 31.6972 17.6987 31.4839 16.7036 31.2642C15.4342 30.9693 14.1647 30.6743 12.8567 30.3704C11.5994 30.0846 10.3421 29.7987 9.04663 29.5042C5.49423 28.3904 5.49423 28.3904 0.782227 24.8704C0.963837 22.4124 1.16389 19.956 1.37123 17.5004C1.48056 16.1324 1.58989 14.7643 1.70254 13.3548C2.41542 8.61471 3.78084 4.62441 5.49423 0.230448Z" fill="#293197"/>
</svg>
