<svg width="53" height="38" viewBox="0 0 53 38" fill="none" xmlns="http://www.w3.org/2000/svg">
<path d="M52.2319 0.0804752C52.808 2.81221 52.808 2.81221 53 5.96421C50.6473 9.21209 47.4038 11.2923 44.2627 13.529C43.0372 14.4106 41.812 15.2928 40.5871 16.1754C39.8929 16.6746 39.1987 17.1738 38.4834 17.6882C35.7125 19.6944 32.9556 21.7227 30.1996 23.7533C28.6384 24.9011 27.0769 26.0486 25.5154 27.1959C24.4791 27.9583 23.4434 28.722 22.4086 29.4868C20.9372 30.5737 19.4628 31.6556 17.9877 32.7365C17.3271 33.2271 17.3271 33.2271 16.6532 33.7276C12.671 36.6336 9.46137 38.4463 4.6087 37.9045C2.0163 36.6437 2.0163 36.6437 0 35.3829C0.398947 31.5666 0.398947 31.5666 2.0043 29.8864C2.5469 29.5235 3.08951 29.1606 3.64855 28.7866C4.27631 28.3618 4.90406 27.9369 5.55084 27.4992C6.25384 27.0497 6.95685 26.6001 7.68116 26.137C8.43169 25.6561 9.18223 25.1751 9.9555 24.6796C12.5166 23.0634 15.09 21.4718 17.6667 19.8855C23.4023 16.3433 29.1149 12.775 34.7302 9.00786C35.1694 8.71427 35.6085 8.42068 36.0609 8.11819C38.1532 6.71767 40.239 5.30719 42.3169 3.88114C43.061 3.38103 43.8051 2.88093 44.5717 2.36567C45.2192 1.92306 45.8667 1.48046 46.5338 1.02443C48.5956 -0.0233448 49.9858 -0.110301 52.2319 0.0804752Z" fill="#1E5A67"/>
</svg>
