<svg width="83" height="30" viewBox="0 0 83 30" fill="none" xmlns="http://www.w3.org/2000/svg">
<path d="M21.0866 0.439378C22.9797 0.446185 24.8728 0.452991 26.8232 0.460003C32.0589 0.977464 35.2164 2.33787 40.0328 4.50938C43.2514 5.45895 46.4868 6.33891 49.7329 7.16313C52.4586 7.86077 52.4586 7.86077 55.2394 8.5725C57.1214 9.04667 59.0033 9.52084 60.9423 10.0094C62.8546 10.4972 64.7669 10.9849 66.7372 11.4875C71.4469 12.6879 76.1579 13.8816 80.8701 15.0694C81.6476 18.5542 81.6476 18.5542 82.4408 22.1094C78.96 26.3175 76.0879 28.8861 70.953 29.787C66.5546 29.9715 62.2009 29.9349 57.801 29.8094C55.5794 29.806 55.5794 29.806 53.3129 29.8025C39.5582 29.6118 26.8891 27.4156 14.2149 21.2294C12.662 20.4852 11.1091 19.7411 9.50908 18.9744C5.47811 16.8294 5.47811 16.8294 0.766113 13.3094C4.91727 2.06812 10.6116 0.276529 21.0866 0.439378Z" fill="#0C98A4"/>
</svg>
