<svg width="136" height="93" viewBox="0 0 136 93" fill="none" xmlns="http://www.w3.org/2000/svg">
<path d="M23.8353 0.439111C25.5618 0.464634 25.5618 0.464634 27.3233 0.490673C34.7359 0.649215 42.1279 1.11778 49.5283 1.60845C67.1034 2.7693 84.6704 3.31015 102.27 3.73911C105.244 3.81541 108.218 3.89218 111.191 3.96942C118.362 4.15468 125.532 4.33371 132.702 4.50911C133.23 8.90798 133.748 13.3079 134.261 17.7091C134.483 19.5468 134.483 19.5468 134.71 21.4216C136.091 33.42 136.147 45.2139 135.843 57.3091C132.8 58.2991 132.8 58.2991 129.561 59.0691C129.042 58.4883 128.524 57.9075 127.99 57.3091C127.472 59.0515 126.953 60.7939 126.419 62.5891C121.799 65.0297 121.799 65.0297 116.112 67.3191C114.231 68.0882 112.35 68.8573 110.412 69.6497C108.229 70.5107 108.229 70.5107 106.001 71.3891C106.681 72.6188 107.361 73.8484 108.062 75.1154C108.937 76.7171 109.812 78.3188 110.713 79.9691C111.587 81.5618 112.462 83.1544 113.363 84.7954C115.425 88.9891 115.425 88.9891 115.425 92.5091C104.48 90.9518 95.4763 87.1984 85.5821 81.9491C84.3978 81.3218 83.2135 80.6945 81.9933 80.0482C73.4614 75.4073 73.4614 75.4073 69.8755 71.3891C69.1147 68.0891 69.1147 68.0891 68.6974 64.3491C68.5436 63.1149 68.3897 61.8807 68.2312 60.6091C68.3048 57.3091 68.3048 57.3091 71.4461 53.7891C70.4095 52.6275 69.3728 51.4659 68.3048 50.2691C68.3048 47.9459 68.3048 45.6227 68.3048 43.2291C67.4888 44.4792 66.6729 45.7293 65.8322 47.0172C64.7369 48.6349 63.6415 50.2525 62.5129 51.9191C61.4378 53.5322 60.3627 55.1453 59.255 56.8072C55.7394 60.8291 55.7394 60.8291 51.8435 62.6235C46.5478 62.5775 44.6288 60.6648 40.6218 56.8691C39.4353 55.771 38.2488 54.673 37.0264 53.5416C31.1497 47.6717 31.1497 47.6717 29.0381 44.9891C29.0381 43.8275 29.0381 42.6659 29.0381 41.4691C28.1088 41.0063 27.1794 40.5435 26.222 40.0666C22.6005 37.8545 20.3723 35.5772 17.5526 32.2291C12.235 26.077 6.62696 20.5642 0.766113 15.0691C1.25442 9.96218 2.38844 7.96517 5.50879 4.10349C11.8403 -0.108727 16.6184 0.139599 23.8353 0.439111Z" fill="#0081AA"/>
</svg>
