<svg width="85" height="37" viewBox="0 0 85 37" fill="none" xmlns="http://www.w3.org/2000/svg">
<path d="M0 0C4.68023 2.46345 9.35723 4.93548 14.0266 7.43444C15.9094 8.42109 17.7923 9.40774 19.7321 10.4243C22.543 11.9131 22.543 11.9131 25.4106 13.432C38.4123 19.1601 51.3912 18.5587 64.9426 18.421C66.8735 18.4107 68.8044 18.4004 70.7938 18.3898C75.5293 18.363 80.2646 18.3255 85 18.2782C84.4276 19.7861 83.8551 21.2941 83.2653 22.8477C80.0763 24.1329 80.0763 24.1329 75.9335 25.1325C73.6761 25.698 73.6761 25.698 71.3732 26.2749C68.995 26.8404 68.995 26.8404 66.5689 27.4173C54.1463 30.4321 54.1463 30.4321 41.9173 34.5572C36.6875 36.4621 33.0992 37.7099 27.7551 36.5564C23.9198 32.5402 23.9198 32.5402 20.1658 27.1317C15.3238 20.359 10.5278 13.9469 5.09566 7.99671C3.41409 6.11177 1.73253 4.22683 0 2.28477C0 1.5308 0 0.776823 0 0Z" fill="#21266D"/>
</svg>
