<svg width="82" height="64" viewBox="0 0 82 64" fill="none" xmlns="http://www.w3.org/2000/svg">
<path d="M80.2553 0.0212662C81.1189 2.28337 81.1189 2.28337 82 4.59118C80.114 4.56936 80.114 4.56936 78.1899 4.54711C72.4431 4.52715 66.7011 4.62952 60.9548 4.73399C58.9768 4.70895 56.9988 4.68391 54.9609 4.65812C45.0728 4.92241 38.416 5.12238 31.2475 14.6414C30.3885 16.0387 29.5296 17.4359 28.6445 18.8755C26.0549 23.0571 23.4157 25.6495 20.0638 28.726C15.1193 33.7653 15.1193 33.7653 15.484 41.1505C17.6296 48.6437 20.3258 53.5411 24.4255 59.4301C23.8498 60.9382 23.274 62.4462 22.6809 64C21.9207 62.595 21.1605 61.19 20.3773 59.7425C14.272 48.8909 9.76507 41.2595 0 36.5805C0 35.8265 0 35.0725 0 34.2956C1.76322 34.2485 3.52644 34.2013 5.34309 34.1528C13.1544 32.822 16.816 26.9215 21.8426 19.4345C22.695 18.3063 23.5473 17.1782 24.4255 16.0159C25.577 16.0159 26.7285 16.0159 27.9149 16.0159C28.3827 14.6021 28.8505 13.1883 29.3324 11.7317C31.4043 6.87613 31.4043 6.87613 36.6383 2.30622C40.1093 1.57767 40.1093 1.57767 44.0327 1.36011C45.4642 1.27174 46.8957 1.18338 48.3706 1.09234C49.8606 1.02165 51.3505 0.950957 52.8856 0.878124C54.3554 0.789761 55.8251 0.701397 57.3393 0.610356C64.9827 0.172064 72.6032 -0.0768265 80.2553 0.0212662Z" fill="#031174"/>
</svg>
