<svg width="82" height="41" viewBox="0 0 82 41" fill="none" xmlns="http://www.w3.org/2000/svg">
<path d="M0.0595703 -0.00976562C1.82712 0.408819 1.82712 0.408819 3.63038 0.835859C8.54818 1.60411 13.1359 1.93684 18.0854 2.05961C19.6566 2.10158 21.2277 2.14355 22.8465 2.1868C26.1225 2.2627 29.3989 2.31755 32.6754 2.3518C34.2426 2.40057 35.8097 2.44935 37.4243 2.49961C38.8448 2.52527 40.2654 2.55094 41.729 2.57738C46.7919 3.79467 48.7158 6.05241 51.8916 10.5502C52.2842 15.3902 52.2842 15.3902 51.8916 19.3502C52.9505 19.4591 54.0094 19.568 55.1004 19.6802C61.4891 21.6472 65.9553 25.5273 71.2304 29.9102C72.2438 30.727 73.2571 31.5437 74.3012 32.3852C76.8163 34.4371 79.2804 36.5671 81.7342 38.7102C81.7342 39.291 81.7342 39.8718 81.7342 40.4702C71.2024 39.9702 61.1397 38.15 50.9099 35.4102C49.7933 35.1261 48.6767 34.8419 47.5262 34.5491C44.3696 33.664 44.3696 33.664 39.3262 31.6702C38.8079 29.9278 38.2896 28.1854 37.7556 26.3902C36.0214 26.7339 36.0214 26.7339 34.2523 27.0846C21.6653 29.0782 21.6653 29.0782 16.2571 24.8502C15.0585 23.0352 13.8598 21.2202 12.6249 19.3502C10.3775 16.5896 8.11889 13.8402 5.8514 11.1002C0.0595703 3.96243 0.0595703 3.96243 0.0595703 -0.00976562Z" fill="#006F9E"/>
</svg>
