<svg width="81" height="41" viewBox="0 0 81 41" fill="none" xmlns="http://www.w3.org/2000/svg">
<path d="M0.179688 -0.00976562C12.1444 0.893048 23.552 2.88451 35.2252 5.93023C36.7164 6.29777 38.2075 6.66531 39.7439 7.04398C53.276 10.5147 61.9003 15.5057 71.4487 26.7202C72.3051 27.7037 73.1616 28.6872 74.044 29.7005C76.1349 32.1052 78.2108 34.5261 80.2837 36.9502C72.6385 36.9502 68.9747 30.2063 63.7487 24.4034C60.2133 20.6794 60.2133 20.6794 56.3862 21.2752C52.7395 23.3497 51.2098 26.2163 48.8704 29.9102C47.8337 29.9102 46.7971 29.9102 45.729 29.9102C45.3079 30.9992 44.8867 32.0882 44.4529 33.2102C42.5877 36.9502 42.5877 36.9502 37.8757 40.4702C40.2828 34.3401 43.6369 29.3459 47.2629 24.0734C49.2783 20.9362 49.2783 20.9362 48.8704 15.8302C47.4512 15.4755 46.032 15.1207 44.5698 14.7552C39.319 13.4352 34.0711 12.1021 28.8248 10.7599C26.5512 10.1811 24.2765 9.60761 22.0007 9.03945C18.7346 8.22311 15.4727 7.38799 12.2112 6.54898C10.2454 6.05128 8.27955 5.55357 6.25413 5.04078C4.76789 4.5357 3.28164 4.03062 1.75035 3.51023C1.23203 2.34863 0.713714 1.18703 0.179688 -0.00976562Z" fill="#000A5C"/>
</svg>
