<svg width="31" height="34" viewBox="0 0 31 34" fill="none" xmlns="http://www.w3.org/2000/svg">
<path d="M2.46764 0.46875C3.50428 1.70295 4.54092 2.93715 5.60897 4.20875C9.10544 8.0933 12.7535 11.6588 16.6036 15.0987C17.6079 15.9994 18.6121 16.9001 19.6468 17.8281C23.5896 20.2631 26.3048 20.1997 30.7396 19.8287C30.1565 21.1718 29.5734 22.5149 28.9726 23.8987C28.2923 26.2401 28.2923 26.2401 27.5983 28.6287C28.635 30.3711 29.6716 32.1135 30.7396 33.9087C29.8366 33.3915 28.9336 32.8742 28.0032 32.3412C25.769 31.1111 23.5044 29.9457 21.2052 28.8762C12.3423 24.5715 12.3423 24.5715 10.0265 18.2887C9.60534 16.4737 9.1842 14.6587 8.75031 12.7887C6.34937 8.98246 3.69585 5.69514 0.896973 2.22875C1.41529 1.64795 1.93361 1.06715 2.46764 0.46875Z" fill="#000847"/>
</svg>
