<svg width="33" height="43" viewBox="0 0 33 43" fill="none" xmlns="http://www.w3.org/2000/svg">
<path d="M1.73684 0C2.88316 1.58704 4.02947 3.17408 5.21053 4.80921C9.07692 9.8043 13.1109 14.3891 17.3684 18.8125C18.4789 19.9707 19.5894 21.1289 20.7336 22.3222C25.0934 25.4532 28.096 25.3718 33 24.8947C32.3552 26.6218 31.7104 28.3489 31.0461 30.1283C30.2938 33.139 30.2938 33.139 29.5263 36.2105C30.6726 38.4511 31.8189 40.6916 33 43C32.0015 42.3348 31.0029 41.6697 29.9741 40.9844C27.5034 39.4025 24.9993 37.904 22.4568 36.5288C12.6563 30.9933 12.6563 30.9933 10.0954 22.9145C9.6297 20.5806 9.16401 18.2467 8.68421 15.8421C6.02926 10.9477 3.09499 6.72054 0 2.26316C0.573158 1.51632 1.14632 0.769474 1.73684 0Z" fill="#000847"/>
</svg>
