<svg width="72" height="52" viewBox="0 0 72 52" fill="none" xmlns="http://www.w3.org/2000/svg">
<path d="M26.9758 0.611029C42.1817 -0.119777 56.9524 1.98221 72 4.23691C69.9008 7.50455 67.7855 10.6776 65.3811 13.6642C63.6579 15.8223 61.9446 17.9848 60.2684 20.1908C59.5285 21.1577 58.7887 22.1246 58.0489 23.0915C57.5543 23.7421 57.0597 24.3927 56.5502 25.0631C56.0377 25.7286 55.5251 26.3942 54.997 27.08C54.5221 27.7007 54.0472 28.3214 53.5578 28.9609C52.3416 30.3432 52.3416 30.3432 51.0733 30.3432C51.0733 31.0612 51.0733 31.7791 51.0733 32.5188C51.2825 32.2795 51.4918 32.0402 51.7074 31.7936C53.5132 31.5556 53.5132 31.5556 55.5123 31.7936C56.6988 33.074 56.6988 33.074 57.6921 34.8756C58.0584 35.5281 58.4246 36.1806 58.8019 36.8528C59.1812 37.5764 59.5605 38.2999 59.9513 39.0454C60.5791 40.2428 60.5791 40.2428 61.2196 41.4645C62.2932 43.5486 63.3494 45.6418 64.3903 47.7475C57.8299 51.7016 51.0746 51.6819 44.0184 49.3791C40.984 48.2666 39.7612 47.261 37.1221 44.8468C40.2611 41.9751 43.4002 39.1034 46.6343 36.1447C45.4807 37.1341 44.3271 38.1236 43.1737 39.1133C42.0268 40.0965 40.879 41.0784 39.7305 42.0594C39.0921 42.6053 38.4537 43.1512 37.7959 43.7137C37.1493 44.2643 36.5027 44.8149 35.8365 45.3821C33.6595 47.2763 31.5546 49.2594 29.4728 51.2884C28.2441 52.0985 28.2441 52.0985 26.8966 51.8662C26.5042 51.7036 26.1118 51.5409 25.7076 51.3733C24.3421 51.351 24.3421 51.351 22.6013 51.5688C20.6344 51.3733 20.6344 51.3733 19.4206 50.1128C19.0626 49.4968 18.7045 48.8807 18.3357 48.246C17.9057 47.5169 17.4757 46.7877 17.0327 46.0365C16.54 45.1581 16.0497 44.2779 15.5613 43.3964C15.2815 42.8949 15.0017 42.3934 14.7135 41.8767C13.4508 39.6081 12.1932 37.3364 10.9517 35.0526C9.27946 31.9819 7.57238 28.9555 5.77169 25.9809C5.41998 25.3967 5.06828 24.8125 4.70591 24.2106C4.03164 23.0975 3.35032 21.9899 2.66105 20.8889C1.30746 18.6458 0.413453 17.0343 0 14.3242C0.43328 11.6494 1.31379 9.68552 2.48208 7.31891C2.87936 6.50002 3.27664 5.68114 3.68596 4.83745C4.78084 2.78656 4.78084 2.78656 6.04913 1.3362C12.7257 -0.172401 21.7148 -1.16532 27.8778 2.69591C31.8862 6.22869 35.9851 10.6882 38.3904 15.8397C38.6287 18.6046 38.429 20.6386 37.4194 23.1538C37.119 23.918 37.119 23.918 36.8125 24.6976C36.6008 25.2146 36.3891 25.7315 36.1709 26.2641C35.9592 26.7979 35.7475 27.3317 35.5293 27.8816C35.0097 29.1889 34.4814 30.4917 33.9514 31.7936C34.1236 31.4134 34.2958 31.0331 34.4732 30.6414C35.267 28.9042 36.0754 27.1764 36.8843 25.4483C37.1549 24.85 37.4255 24.2518 37.7043 23.6354C39.4415 19.9587 40.855 17.8189 44.0977 15.8397C43.2643 15.8397 42.4312 15.8774 41.5983 15.9077C37.7299 15.2656 35.2758 11.3026 32.7228 8.22538C32.1681 7.57756 31.6135 6.92975 31.042 6.2623C26.9758 1.47809 26.9758 1.47809 26.9758 0.611029Z" fill="#0067A1"/>
</svg>
